<svg width="768" height="1082" viewBox="0 0 768 1082" fill="none" xmlns="http://www.w3.org/2000/svg">
<path opacity="0.07" d="M-664.609 1028.25L-664.288 1027.86L-664.322 1027.84L-664.359 1027.81L-664.609 1028.25ZM-446.968 998.442L-447.122 998.918L-447.122 998.918L-446.968 998.442ZM-440 1001.5L-439.848 1001.02L-439.848 1001.02L-440 1001.5ZM-605.454 943.312L-605.232 942.864L-605.232 942.864L-605.454 943.312ZM-425.5 877.02L-425.65 877.497L-425.636 877.501L-425.621 877.505L-425.5 877.02ZM705.813 994.468L705.948 994.95L705.974 994.942L706 994.932L705.813 994.468ZM708.469 993.461L708.654 993.925L708.654 993.925L708.469 993.461ZM910.351 980.853L910.583 981.296L910.583 981.296L910.351 980.853ZM1100.75 928.441L1100.48 928.025L1100.48 928.025L1100.75 928.441ZM1118.16 918.117L1118.45 918.531L1118.45 918.531L1118.16 918.117ZM-302.24 912.324L-302.307 912.82L-302.272 912.825L-302.237 912.824L-302.24 912.324ZM177.023 911.947L177.092 912.442L177.023 911.947ZM356.583 976.57L356.472 976.083L356.583 976.57ZM457.206 965.221L457.344 965.702H457.344L457.206 965.221ZM528.393 947.829L528.237 947.354H528.236L528.393 947.829ZM687.505 864.374L687.302 863.917L687.302 863.917L687.505 864.374ZM901.74 886.353L901.493 885.918V885.918L901.74 886.353ZM912.946 881.173L912.696 880.74L912.946 881.173ZM1124.91 809.175L1124.61 808.775L1124.61 808.775L1124.91 809.175ZM-647.57 871.137L-647.811 871.575H-647.811L-647.57 871.137ZM-443.286 815.866L-443.423 816.347L-443.286 815.866ZM64.7687 804.797L64.712 804.301H64.7119L64.7687 804.797ZM172.311 837.467L172.226 836.974H172.226L172.311 837.467ZM349.961 877.647L349.832 877.164H349.832L349.961 877.647ZM493.227 771.548L493.402 772.017H493.402L493.227 771.548ZM640.969 743.993L641.183 744.445L641.183 744.445L640.969 743.993ZM667.602 734.767L667.381 734.319L667.381 734.319L667.602 734.767ZM874.124 712.572L874.393 712.993L874.393 712.993L874.124 712.572ZM994.394 697.985L994.688 698.39L994.688 698.389L994.394 697.985ZM1122.05 681.636L1122.37 682.021L1122.37 682.021L1122.05 681.636ZM-467.577 782.914L-467.444 782.432H-467.444L-467.577 782.914ZM-312.391 814.545L-312.335 814.048H-312.335L-312.391 814.545ZM-144.093 800.397L-144.074 800.897H-144.074L-144.093 800.397ZM22.856 735.256V734.756H22.828L22.8002 734.759L22.856 735.256ZM400.591 657.239L400.418 656.77L400.591 657.239ZM461.227 613.479L461.033 613.018L461.227 613.479ZM621.539 550.852L621.779 551.291H621.779L621.539 550.852ZM744.611 552.687L744.878 553.109H744.878L744.611 552.687ZM852.111 559.431L851.823 559.023L852.111 559.431ZM1075.19 524.305L1074.86 523.931L1074.86 523.931L1075.19 524.305ZM1096.73 507.182L1097.06 507.551L1096.73 507.182ZM-748.15 472.099L-747.676 472.256L-747.676 472.256L-748.15 472.099ZM-739.078 638.776L-739.543 638.961L-739.543 638.961L-739.078 638.776ZM-662.452 768.526L-662.174 768.11H-662.174L-662.452 768.526ZM-501.684 762.303L-501.841 762.778L-501.841 762.778L-501.684 762.303ZM-462.461 761.098L-462.593 761.581L-462.593 761.581L-462.461 761.098ZM-302.222 763.095L-302.268 763.592H-302.268L-302.222 763.095ZM18.1663 785.217L18.2385 785.712L18.1663 785.217ZM240 753.726L240.025 754.225L240 753.726ZM325.984 653.164L325.819 652.692L325.984 653.164ZM447.236 512.532L447.448 512.985L447.448 512.985L447.236 512.532ZM531.85 484.312L532.086 484.752V484.752L531.85 484.312ZM618.81 467.693L619.069 468.12H619.069L618.81 467.693ZM883.511 502.387L883.817 502.783L883.818 502.782L883.511 502.387ZM890.497 497.459L890.188 497.065L890.188 497.066L890.497 497.459ZM1091.01 386.18L1090.66 385.829L1090.66 385.829L1091.01 386.18ZM1109.08 358.751L1109.44 359.096V359.096L1109.08 358.751ZM1144.97 108.602L1144.57 108.309L1144.57 108.31L1144.97 108.602ZM-729.345 470.355L-729.836 470.258L-729.836 470.258L-729.345 470.355ZM-688.303 644.405L-687.92 644.083L-687.92 644.083L-688.303 644.405ZM-654.156 683.974L-654.467 684.366L-654.467 684.366L-654.156 683.974ZM-462.025 695.827L-461.893 695.345L-462.025 695.827ZM-303.313 689.172L-303.277 688.673L-303.313 689.172ZM-144.093 732.29L-144.06 732.789H-144.06L-144.093 732.29ZM23.9515 750.558L24.0405 751.05L23.9515 750.558ZM202.438 750.792L202.3 750.312L202.3 750.312L202.438 750.792ZM324.037 570.627L323.854 570.161L324.037 570.627ZM367.353 525.212L367.553 525.67L367.553 525.67L367.353 525.212ZM440.414 419.994L440.645 420.437V420.437L440.414 419.994ZM638.603 401.9L638.881 402.316L638.603 401.9ZM660.998 393.59L661.281 394.003L661.282 394.002L660.998 393.59ZM938.343 444.365L938.668 444.745L938.668 444.744L938.343 444.365ZM1007.04 394.651L1007.38 395.016V395.016L1007.04 394.651ZM1032.65 195.565L1032.28 195.233L1032.65 195.565ZM-656.593 604.674L-656.227 604.334L-656.227 604.334L-656.593 604.674ZM-586.134 631.923L-586.395 632.349H-586.395L-586.134 631.923ZM-459.914 623.847L-459.78 623.366H-459.78L-459.914 623.847ZM-303.15 585.106L-303.123 584.606H-303.123L-303.15 585.106ZM-123.096 676.545L-123.018 677.039H-123.018L-123.096 676.545ZM193.455 694.046L193.513 694.543L193.564 694.537L193.612 694.521L193.455 694.046ZM328.931 516.685L328.728 516.228H328.728L328.931 516.685ZM450.584 369.452L450.336 369.018L450.336 369.018L450.584 369.452ZM508.675 353.986L508.421 353.555L508.421 353.555L508.675 353.986ZM679.1 353.986L679.395 354.389V354.389L679.1 353.986ZM839.958 369.993L840.278 370.377V370.377L839.958 369.993ZM941.254 317.942L941.596 318.306V318.306L941.254 317.942ZM968.47 149.449L968.84 149.785V149.785L968.47 149.449ZM-655.3 301.665L-654.802 301.706L-654.802 301.706L-655.3 301.665ZM-687.157 481.416L-687.642 481.538L-687.642 481.538L-687.157 481.416ZM-677.879 507.136L-677.417 506.944L-677.417 506.943L-677.879 507.136ZM-458.259 551.922L-458.117 551.442L-458.117 551.442L-458.259 551.922ZM-340.08 497.478L-340.123 497.976L-340.122 497.976L-340.08 497.478ZM-86.1737 777.624L-86.2364 777.128L-86.2755 777.132L-86.3133 777.143L-86.1737 777.624ZM52.4333 715.338L52.3099 714.853L52.3099 714.853L52.4333 715.338ZM220.649 619.962L220.475 619.494H220.475L220.649 619.962ZM342.63 439.077L342.849 439.527L342.849 439.527L342.63 439.077ZM348.324 435.948L348.543 436.397L348.544 436.397L348.324 435.948ZM477.8 303.319L478.066 303.742L478.066 303.742L477.8 303.319ZM638.731 306.161L638.434 305.758V305.758L638.731 306.161ZM705.479 274.326L705.167 273.935L705.167 273.935L705.479 274.326ZM878.635 185.565L878.285 185.208L878.285 185.209L878.635 185.565ZM-617.138 423.5L-617.518 423.825L-617.138 423.5ZM-454.563 475.318L-454.721 475.792L-454.563 475.318ZM-306.821 407.762L-306.831 408.262H-306.831L-306.821 407.762ZM52.08 607.389L51.9393 606.909H51.9392L52.08 607.389ZM188.033 544.42L188.215 544.885L188.033 544.42ZM222.871 528.538L222.679 528.077V528.077L222.871 528.538ZM361.152 379.236L361.39 379.677V379.677L361.152 379.236ZM462.794 277.418L463.065 277.838L463.066 277.837L462.794 277.418ZM501.781 237.867L502.065 238.278L502.065 238.278L501.781 237.867ZM-544.926 175.151L-545.392 174.969L-545.396 174.981L-545.401 174.993L-544.926 175.151ZM-449.398 398.105L-449.583 398.57L-449.583 398.57L-449.398 398.105ZM-437.918 400.389L-438.081 400.862L-438.08 400.863L-437.918 400.389ZM-308.806 324.327L-308.802 323.827H-308.802L-308.806 324.327ZM-119.277 599.8L-119.368 599.309H-119.368L-119.277 599.8ZM-83.2736 589.063L-83.1675 589.551L-83.1672 589.551L-83.2736 589.063ZM50.2411 508.323L50.0832 507.849L50.0831 507.849L50.2411 508.323ZM213.592 411.685L213.381 411.231L213.381 411.231L213.592 411.685ZM328.568 332.133L328.325 331.696V331.696L328.568 332.133ZM374.941 303.301L375.196 303.731L375.196 303.731L374.941 303.301ZM514.732 149.449L514.431 149.05V149.05L514.732 149.449ZM551.281 126.895L551.591 127.287L551.591 127.287L551.281 126.895ZM-561.226 310.404L-560.864 310.059L-560.87 310.053L-560.875 310.048L-561.226 310.404ZM-525.932 350.207L-526.233 350.607L-525.932 350.207ZM-450.652 335.927L-450.42 335.484L-450.42 335.483L-450.652 335.927ZM-309.769 253.677L-309.769 253.177L-309.769 253.677ZM-119.112 506.11L-119.217 505.621L-119.112 506.11ZM33.3415 372.078L33.5159 372.547H33.516L33.3415 372.078ZM143.77 331.826L143.561 331.372L143.561 331.372L143.77 331.826ZM208.663 306.879L208.435 306.434L208.435 306.434L208.663 306.879ZM371.722 196.733L371.451 196.313L371.451 196.313L371.722 196.733ZM423.898 147.361L424.185 147.771L424.185 147.771L423.898 147.361ZM-551.743 60.2116L-551.268 60.0573L-551.743 60.2116ZM-309.39 192.973L-309.388 192.473H-309.388L-309.39 192.973ZM-121.698 405.136L-121.816 404.65L-121.816 404.65L-121.698 405.136ZM-66.5203 369.452L-66.3748 369.93L-66.3746 369.93L-66.5203 369.452ZM31.2462 280.655L31.0557 280.193L31.0556 280.193L31.2462 280.655ZM201.765 200.366L201.521 199.929L201.521 199.929L201.765 200.366ZM276.554 154.375L276.818 154.8V154.8L276.554 154.375ZM-121.512 319.94L-121.382 320.423V320.423L-121.512 319.94ZM43.9489 223.158L44.155 223.613L44.1552 223.613L43.9489 223.158ZM125.815 168.822L126.05 169.263L126.051 169.263L125.815 168.822ZM-123.534 229.287L-123.673 228.807L-123.673 228.807L-123.534 229.287ZM-47.1617 195.959L-47.3417 195.492L-47.3419 195.492L-47.1617 195.959ZM52.5696 153.584L52.3491 153.135L52.349 153.135L52.5696 153.584ZM-125.553 141.821L-125.7 141.343L-125.7 141.343L-125.553 141.821ZM77.6752 113.511L77.9095 113.953V113.953L77.6752 113.511ZM-13.9202 48.1876L-14.1313 47.7344L-13.9202 48.1876ZM-20.3231 753.244C-20.5893 753.317 -20.7457 753.592 -20.6724 753.859C-20.5992 754.125 -20.3239 754.281 -20.0577 754.208L-20.3231 753.244ZM-771.787 1059.89C-768.454 1062.23 -766.951 1063.01 -765.443 1063.77C-763.966 1064.52 -762.489 1065.26 -759.173 1067.51L-758.612 1066.68C-761.973 1064.4 -763.489 1063.64 -764.99 1062.88C-766.461 1062.14 -767.923 1061.38 -771.213 1059.07L-771.787 1059.89ZM-760.309 1040.89C-756.38 1043.63 -753.29 1045.12 -750.606 1045.96C-747.923 1046.81 -745.669 1047 -743.448 1047.17C-741.227 1047.35 -739.044 1047.5 -736.423 1048.23C-733.804 1048.97 -730.729 1050.3 -726.765 1052.85L-726.225 1052C-730.256 1049.41 -733.421 1048.04 -736.152 1047.27C-738.881 1046.5 -741.157 1046.35 -743.371 1046.18C-745.584 1046.01 -747.74 1045.82 -750.306 1045.01C-752.872 1044.2 -755.872 1042.77 -759.738 1040.07L-760.309 1040.89ZM-770.164 1023.47C-759.906 1030.88 -750.856 1033.35 -742.363 1033.24C-733.894 1033.14 -726.017 1030.47 -718.132 1027.71C-710.225 1024.93 -702.31 1022.06 -693.661 1021.44C-685.034 1020.81 -675.658 1022.42 -664.86 1028.68L-664.359 1027.81C-675.328 1021.46 -684.904 1019.8 -693.733 1020.44C-702.54 1021.07 -710.586 1024 -718.463 1026.76C-726.363 1029.53 -734.093 1032.14 -742.376 1032.24C-750.635 1032.35 -759.478 1029.96 -769.578 1022.66L-770.164 1023.47ZM-664.93 1028.63C-640.795 1048.84 -619.299 1053.17 -600.59 1056.9C-581.889 1060.62 -566.078 1063.72 -552.958 1081.3L-552.156 1080.7C-565.529 1062.78 -581.71 1059.63 -600.395 1055.92C-619.071 1052.2 -640.355 1047.9 -664.288 1027.86L-664.93 1028.63ZM-590.743 949.449C-550.294 969.228 -535.809 974.637 -520.7 978.582C-505.616 982.521 -489.984 984.985 -447.122 998.918L-446.813 997.967C-489.711 984.022 -505.415 981.54 -520.448 977.615C-535.456 973.696 -549.869 968.323 -590.304 948.551L-590.743 949.449ZM-447.122 998.918C-445.026 999.597 -444.395 1000 -443.756 1000.4C-443.051 1000.84 -442.34 1001.28 -440.152 1001.98L-439.848 1001.02C-441.954 1000.35 -442.589 999.953 -443.225 999.554C-443.928 999.114 -444.634 998.673 -446.814 997.967L-447.122 998.918ZM-440.152 1001.98C-401.148 1014.41 -386.009 1034.18 -369.276 1050.96C-360.903 1059.35 -352.124 1067 -339.767 1072.54C-327.412 1078.08 -311.515 1081.5 -288.918 1081.5V1080.5C-311.414 1080.5 -327.163 1077.1 -339.358 1071.63C-351.552 1066.16 -360.229 1058.61 -368.568 1050.25C-385.26 1033.52 -400.57 1013.54 -439.848 1001.02L-440.152 1001.98ZM-771.778 932.915C-760.89 940.216 -747.932 943.075 -733.935 943.643C-719.942 944.21 -704.866 942.486 -689.725 940.587C-674.567 938.686 -659.346 936.61 -644.998 936.447C-630.653 936.284 -617.233 938.036 -605.676 943.76L-605.232 942.864C-616.989 937.041 -630.589 935.283 -645.01 935.447C-659.427 935.611 -674.715 937.697 -689.849 939.595C-704.999 941.495 -719.996 943.207 -733.895 942.643C-747.789 942.08 -760.543 939.245 -771.221 932.085L-771.778 932.915ZM-605.676 943.76C-585.425 953.796 -569.324 952.963 -555.242 946.441C-541.209 939.941 -529.219 927.803 -517.138 915.35C-505.028 902.868 -492.818 890.059 -478.289 882.036C-463.794 874.032 -446.983 870.791 -425.65 877.497L-425.35 876.543C-446.96 869.75 -464.053 873.033 -478.772 881.161C-493.458 889.27 -505.775 902.202 -517.855 914.654C-529.964 927.135 -541.827 939.125 -555.663 945.534C-569.45 951.919 -585.233 952.775 -605.232 942.864L-605.676 943.76ZM-425.621 877.505C-358.229 894.354 -329.095 945.154 -306.604 991.908C-295.373 1015.26 -285.776 1037.65 -273.895 1054.18C-261.992 1070.73 -247.73 1081.5 -227.142 1081.5V1080.5C-247.293 1080.5 -261.288 1070 -273.083 1053.59C-284.897 1037.16 -294.437 1014.89 -305.703 991.474C-328.207 944.693 -357.513 893.502 -425.379 876.535L-425.621 877.505ZM501.919 1081.48C544.53 1069.18 562.885 1056.64 586.901 1042.65C610.886 1028.68 640.583 1013.2 705.948 994.95L705.679 993.987C640.23 1012.26 610.454 1027.77 586.398 1041.79C562.372 1055.79 544.117 1068.25 501.642 1080.52L501.919 1081.48ZM706 994.932C706.638 994.674 706.968 994.555 707.303 994.435C707.644 994.313 707.991 994.189 708.654 993.925L708.284 992.996C707.637 993.254 707.302 993.373 706.966 993.494C706.623 993.617 706.28 993.741 705.626 994.005L706 994.932ZM708.654 993.925C750.663 977.169 780.905 984.485 810.787 990.789C840.702 997.1 870.237 1002.39 910.583 981.296L910.12 980.409C870.091 1001.33 840.846 996.108 810.994 989.81C781.109 983.506 750.598 976.119 708.284 992.996L708.654 993.925ZM910.583 981.296C949.658 960.854 978.765 959.971 1007.37 958.1C1036.01 956.227 1064.13 953.363 1101.03 928.858L1100.48 928.025C1063.79 952.388 1035.88 955.234 1007.31 957.102C978.699 958.973 949.4 959.861 910.119 980.409L910.583 981.296ZM1101.03 928.858C1104.86 926.318 1107.28 925.046 1109.71 923.755C1112.16 922.458 1114.6 921.144 1118.45 918.531L1117.88 917.704C1114.08 920.288 1111.67 921.583 1109.25 922.871C1106.81 924.166 1104.35 925.457 1100.48 928.025L1101.03 928.858ZM1118.45 918.531C1128.89 911.418 1138.77 905.474 1148.24 900.392L1147.76 899.511C1138.27 904.609 1128.36 910.572 1117.88 917.704L1118.45 918.531ZM-622.532 879.979C-595.854 893.905 -572.849 888.854 -549.574 882.894C-526.284 876.93 -502.736 870.066 -474.684 880.007L-474.35 879.065C-502.732 869.006 -526.578 875.973 -549.822 881.925C-573.082 887.881 -595.752 892.83 -622.069 879.093L-622.532 879.979ZM-86.1494 798.478C-65.2611 797.459 -43.6061 804.747 -21.5345 816.127C0.535828 827.506 22.9658 842.944 45.4101 858.175C67.8408 873.397 90.285 888.411 112.339 898.893C134.393 909.375 156.114 915.353 177.092 912.442L176.955 911.452C156.254 914.324 134.743 908.434 112.769 897.99C90.7945 887.546 68.412 872.576 45.9716 857.348C23.5449 842.129 1.05939 826.651 -21.0763 815.238C-43.2108 803.826 -65.0526 796.447 -86.1981 797.479L-86.1494 798.478ZM177.092 912.442C219.049 906.621 243.019 927.355 266.988 947.347C278.961 957.334 290.952 967.149 305.161 973.268C319.392 979.396 335.829 981.812 356.695 977.058L356.472 976.083C335.813 980.79 319.593 978.394 305.557 972.35C291.5 966.296 279.615 956.577 267.629 946.579C243.678 926.602 219.393 905.564 176.955 911.452L177.092 912.442ZM356.695 977.058C381.23 971.469 394.22 972.102 407.156 972.401C420.139 972.701 433.05 972.662 457.344 965.702L457.068 964.741C432.897 971.666 420.093 971.699 407.179 971.401C394.218 971.102 381.13 970.466 356.472 976.083L356.695 977.058ZM457.344 965.702C474.92 960.664 484.005 959.193 493.053 957.543C502.123 955.89 511.142 954.059 528.55 948.304L528.236 947.354C510.879 953.092 501.906 954.913 492.874 956.559C483.821 958.21 474.695 959.688 457.068 964.741L457.344 965.702ZM528.55 948.304C571.243 934.195 590.555 922.415 609.451 909.604C628.315 896.816 646.738 883.021 687.708 864.831L687.302 863.917C646.242 882.148 627.752 895.989 608.89 908.777C590.059 921.542 570.83 933.279 528.237 947.354L528.55 948.304ZM687.708 864.831C727.787 847.048 761.988 863.32 795.93 878.752C829.815 894.159 863.447 908.726 901.987 886.787L901.493 885.918C863.443 907.577 830.272 893.268 796.344 877.842C762.473 862.442 727.852 845.925 687.302 863.917L687.708 864.831ZM901.987 886.787C904.481 885.368 905.994 884.812 907.524 884.245C909.075 883.669 910.642 883.083 913.197 881.606L912.696 880.74C910.211 882.177 908.703 882.741 907.176 883.307C905.627 883.882 904.056 884.459 901.493 885.918L901.987 886.787ZM913.197 881.606C956.545 856.543 989.395 853.593 1021.5 849.393C1053.64 845.188 1085.01 839.731 1125.21 809.575L1124.61 808.775C1084.61 838.782 1053.44 844.206 1021.37 848.401C989.269 852.601 956.235 855.567 912.696 880.74L913.197 881.606ZM1125.21 809.575C1133.84 803.104 1141.28 798.932 1148.2 795.781L1147.79 794.871C1140.81 798.05 1133.3 802.259 1124.61 808.775L1125.21 809.575ZM-771.839 841.368C-751.772 859.848 -732.553 860.816 -712.481 860.48C-692.416 860.145 -671.534 858.52 -647.811 871.575L-647.329 870.699C-671.325 857.494 -692.487 859.146 -712.497 859.48C-732.499 859.814 -751.386 858.844 -771.161 840.632L-771.839 841.368ZM-647.811 871.575C-628.081 882.43 -610.771 882.844 -594.571 877.726C-578.406 872.619 -563.363 862.007 -548.142 850.872C-517.635 828.556 -486.376 804.14 -443.423 816.347L-443.15 815.385C-486.648 803.023 -518.317 827.816 -548.732 850.065C-563.972 861.213 -578.888 871.722 -594.872 876.772C-610.819 881.811 -627.845 881.418 -647.329 870.699L-647.811 871.575ZM-443.423 816.347C-422.97 822.159 -409.253 830.356 -398.856 839.55C-388.449 848.752 -381.354 858.962 -374.136 868.861C-366.926 878.75 -359.596 888.323 -348.747 896.128C-337.89 903.939 -323.54 909.96 -302.307 912.82L-302.173 911.829C-323.274 908.987 -337.462 903.016 -348.163 895.317C-358.871 887.612 -366.121 878.157 -373.328 868.272C-380.527 858.398 -387.689 848.09 -398.194 838.801C-408.709 829.503 -422.561 821.236 -443.15 815.385L-443.423 816.347ZM-302.237 912.824C-266.625 912.634 -249.352 887.385 -236.514 861.477C-230.072 848.477 -224.773 835.378 -218.798 824.985C-212.825 814.596 -206.289 807.13 -197.508 805.287L-197.714 804.308C-206.947 806.246 -213.673 814.064 -219.664 824.486C-225.654 834.904 -231.023 848.143 -237.41 861.033C-250.229 886.903 -267.256 911.637 -302.243 911.824L-302.237 912.824ZM-17.4779 790.931C-2.37695 789.727 10.518 794.147 23.5082 798.481C36.4777 802.807 49.5386 807.044 64.8256 805.294L64.7119 804.301C49.672 806.022 36.8078 801.863 23.8247 797.532C10.8625 793.208 -2.22229 788.711 -17.5574 789.934L-17.4779 790.931ZM64.8255 805.294C78.1619 803.77 88.1802 805.614 96.5389 809.079C104.912 812.55 111.64 817.654 118.412 822.706C125.17 827.749 131.972 832.74 140.432 835.876C148.906 839.018 159.015 840.289 172.397 837.959L172.226 836.974C159.001 839.276 149.073 838.013 140.779 834.939C132.472 831.859 125.777 826.954 119.01 821.905C112.256 816.866 105.43 811.682 96.9218 808.155C88.3994 804.622 78.2095 802.758 64.712 804.301L64.8255 805.294ZM172.397 837.959C193.455 834.296 209.864 836.348 223.928 841.13C238.008 845.918 249.753 853.445 261.506 860.78C273.245 868.106 284.99 875.239 299.001 879.138C313.027 883.04 329.294 883.696 350.091 878.13L349.832 877.164C329.195 882.687 313.109 882.025 299.269 878.174C285.414 874.319 273.781 867.262 262.036 859.932C250.304 852.611 238.459 845.015 224.25 840.183C210.026 835.346 193.447 833.282 172.226 836.974L172.397 837.959ZM350.09 878.13C371.39 872.437 385.883 864.861 396.926 856.205C407.964 847.552 415.531 837.836 422.983 827.913C430.441 817.983 437.781 807.853 448.39 798.278C458.992 788.709 472.872 779.685 493.402 772.017L493.052 771.08C472.412 778.789 458.422 787.877 447.72 797.536C437.025 807.188 429.628 817.401 422.184 827.312C414.734 837.23 407.235 846.853 396.309 855.418C385.388 863.979 371.021 871.5 349.832 877.164L350.09 878.13ZM493.402 772.017C529.296 758.606 548.812 759.935 568.058 760.517C577.7 760.808 587.295 760.914 598.827 758.881C610.359 756.848 623.809 752.68 641.183 744.445L640.755 743.542C623.444 751.746 610.081 755.881 598.653 757.896C587.226 759.91 577.715 759.808 568.089 759.517C548.799 758.934 529.128 757.601 493.052 771.08L493.402 772.017ZM641.183 744.445C647.693 741.357 651.058 740.67 654.431 739.95C657.851 739.22 661.273 738.458 667.824 735.215L667.381 734.319C660.925 737.515 657.588 738.254 654.222 738.972C650.809 739.7 647.361 740.407 640.754 743.542L641.183 744.445ZM667.824 735.215C710.776 714.001 742.011 721.337 772.735 727.572C788.099 730.69 803.36 733.538 819.856 732.357C836.364 731.174 854.084 725.958 874.393 712.993L873.855 712.15C853.676 725.031 836.116 730.189 819.784 731.359C803.44 732.53 788.3 729.711 772.934 726.592C742.2 720.355 710.662 712.942 667.381 734.319L667.824 735.215ZM874.393 712.993C896.148 699.1 915.507 703.056 934.841 706.741C954.166 710.424 973.461 713.832 994.688 698.39L994.1 697.581C973.247 712.751 954.348 709.441 935.028 705.759C915.716 702.078 895.98 698.021 873.854 712.15L874.393 712.993ZM994.688 698.389C1015.4 683.316 1037.14 687.406 1058.89 691.247C1080.58 695.079 1102.27 698.661 1122.37 682.021L1121.73 681.251C1102.03 697.562 1080.8 694.102 1059.06 690.263C1037.38 686.433 1015.2 682.222 994.1 697.581L994.688 698.389ZM1122.37 682.021C1133.38 672.9 1141.74 664.242 1148.39 655.831L1147.6 655.211C1141 663.562 1132.7 672.171 1121.73 681.251L1122.37 682.021ZM-740.255 858.413C-720.843 869.936 -699.458 869.431 -677.014 862.639C-654.583 855.849 -631.025 842.758 -607.216 829.023C-583.385 815.275 -559.299 800.879 -535.747 791.412C-512.197 781.946 -489.256 777.44 -467.71 783.396L-467.444 782.432C-489.297 776.392 -512.484 780.984 -536.12 790.485C-559.754 799.985 -583.914 814.425 -607.715 828.156C-631.538 841.9 -655 854.931 -677.304 861.681C-699.596 868.428 -720.662 868.881 -739.745 857.553L-740.255 858.413ZM-467.71 783.396C-426.752 794.722 -409.075 800.241 -391.079 804.122C-373.072 808.004 -354.738 810.249 -312.448 815.041L-312.335 814.048C-354.64 809.254 -372.92 807.014 -390.868 803.144C-408.827 799.272 -426.445 793.769 -467.444 782.432L-467.71 783.396ZM-312.448 815.041C-270.752 819.77 -249.579 816.389 -228.347 811.743C-207.156 807.107 -185.946 801.221 -144.089 800.897L-144.096 799.897C-186.071 800.222 -207.376 806.131 -228.56 810.766C-249.702 815.393 -270.764 818.762 -312.335 814.048L-312.448 815.041ZM278.272 715.497C302.904 717.961 319.991 716.661 332.495 713.029C345.016 709.392 352.916 703.425 359.18 696.609C362.305 693.208 365.022 689.599 367.694 685.979C370.37 682.353 373 678.721 375.97 675.242C381.898 668.298 389.17 661.979 400.764 657.708L400.418 656.77C388.626 661.114 381.219 667.553 375.21 674.593C372.211 678.105 369.557 681.771 366.889 685.385C364.218 689.004 361.529 692.575 358.444 695.933C352.285 702.634 344.537 708.49 332.217 712.069C319.88 715.652 302.933 716.959 278.372 714.503L278.272 715.497ZM400.764 657.708C410.029 654.295 416.214 650.788 420.843 647.198C425.472 643.608 428.527 639.949 431.535 636.276C434.543 632.602 437.5 628.918 441.959 625.201C446.416 621.485 452.389 617.724 461.42 613.941L461.033 613.018C451.927 616.834 445.865 620.643 441.319 624.432C436.776 628.22 433.763 631.976 430.761 635.643C427.758 639.31 424.763 642.892 420.23 646.407C415.698 649.922 409.609 653.384 400.418 656.77L400.764 657.708ZM461.42 613.941C504.278 595.985 523.952 591.488 543.126 585.897C562.334 580.296 581.002 573.608 621.779 551.291L621.299 550.414C580.574 572.702 561.974 579.359 542.846 584.937C523.684 590.524 503.953 595.037 461.033 613.018L461.42 613.941ZM621.779 551.291C645.868 538.104 664.72 545.859 683.566 553.347C692.974 557.085 702.402 560.765 712.421 561.637C722.464 562.511 733.079 560.564 744.878 553.109L744.344 552.264C732.73 559.602 722.332 561.496 712.508 560.641C702.658 559.783 693.363 556.164 683.935 552.418C665.109 544.937 645.838 536.981 621.299 550.414L621.779 551.291ZM744.878 553.109C762.959 541.68 780.709 549.463 798.62 557.193C816.43 564.879 834.409 572.515 852.399 559.84L851.823 559.023C834.355 571.33 816.923 564.002 799.016 556.274C781.211 548.59 762.939 540.509 744.344 552.264L744.878 553.109ZM852.399 559.84C890.915 532.706 928.806 539.57 966.088 545.458C1003.34 551.341 1039.98 556.242 1075.52 524.679L1074.86 523.931C1039.7 555.156 1003.5 550.354 966.244 544.47C929.014 538.591 890.715 531.624 851.823 559.023L852.399 559.84ZM1075.52 524.679C1080.31 520.426 1083.31 518.329 1086.3 516.205C1089.31 514.072 1092.3 511.914 1097.06 507.551L1096.39 506.814C1091.67 511.138 1088.71 513.269 1085.72 515.39C1082.72 517.519 1079.69 519.641 1074.86 523.931L1075.52 524.679ZM1097.06 507.551C1135.09 472.698 1129.08 429.755 1121.82 385.976C1114.55 342.119 1106.02 297.418 1138.35 258.413L1137.58 257.775C1104.91 297.189 1113.58 342.383 1120.83 386.14C1128.1 429.975 1133.97 472.367 1096.39 506.814L1097.06 507.551ZM-772.5 301.667C-772.281 343.159 -759.246 364.653 -749.843 386.279C-745.145 397.083 -741.353 407.918 -740.472 421.329C-739.591 434.742 -741.622 450.767 -748.625 471.942L-747.676 472.256C-740.643 450.993 -738.583 434.837 -739.474 421.264C-740.365 407.688 -744.207 396.732 -748.926 385.88C-758.356 364.191 -771.282 342.905 -771.5 301.662L-772.5 301.667ZM-748.625 471.942C-761.101 509.647 -765.96 533.593 -764.116 557.041C-762.273 580.476 -753.737 603.371 -739.543 638.961L-738.614 638.59C-752.819 602.973 -761.29 580.22 -763.119 556.963C-764.946 533.72 -760.142 509.93 -747.676 472.256L-748.625 471.942ZM-739.543 638.961C-733.446 654.24 -729.155 667.619 -725.258 679.697C-721.363 691.77 -717.858 702.557 -713.337 712.617C-704.281 732.771 -691.162 749.983 -662.729 768.942L-662.174 768.11C-690.465 749.246 -703.452 732.176 -712.425 712.208C-716.919 702.206 -720.408 691.472 -724.307 679.39C-728.203 667.314 -732.503 653.905 -738.614 638.59L-739.543 638.961ZM-662.729 768.942C-647.946 778.8 -634.667 781.956 -622.006 781.469C-609.366 780.983 -597.372 776.867 -585.172 772.249C-560.745 763.003 -535.421 751.727 -501.841 762.778L-501.528 761.828C-535.496 750.649 -561.157 762.089 -585.526 771.314C-597.726 775.932 -609.583 779.991 -622.044 780.47C-634.485 780.948 -647.558 777.857 -662.174 768.11L-662.729 768.942ZM-501.841 762.778C-497.059 764.351 -493.378 764.739 -490.241 764.503C-487.108 764.267 -484.545 763.411 -482.026 762.544C-479.5 761.675 -477.023 760.797 -473.985 760.45C-470.955 760.105 -467.346 760.287 -462.593 761.581L-462.33 760.616C-467.191 759.293 -470.928 759.095 -474.098 759.457C-477.262 759.818 -479.84 760.735 -482.352 761.599C-484.87 762.465 -487.324 763.281 -490.315 763.506C-493.301 763.73 -496.85 763.367 -501.528 761.828L-501.841 762.778ZM-462.593 761.581C-421.636 772.724 -402.634 771.271 -383.288 767.999C-364.013 764.738 -344.456 759.687 -302.268 763.592L-302.176 762.597C-344.51 758.678 -364.185 763.753 -383.455 767.013C-402.655 770.26 -421.512 771.721 -462.33 760.616L-462.593 761.581ZM-302.268 763.592C-260.689 767.433 -242.143 777.487 -223.499 786.225C-214.161 790.602 -204.784 794.656 -192.495 797.422C-180.208 800.186 -165.028 801.658 -144.074 800.897L-144.111 799.898C-165 800.656 -180.09 799.188 -192.276 796.446C-204.459 793.705 -213.759 789.686 -223.075 785.32C-241.739 776.572 -260.415 766.454 -302.176 762.597L-302.268 763.592ZM-144.074 800.897C-60.0035 797.839 -64.9882 797.854 18.2385 785.712L18.0941 784.722C-65.1044 796.861 -60.083 796.841 -144.111 799.898L-144.074 800.897ZM18.2385 785.712C95.7111 774.405 103.479 778.124 182.758 778.124V777.124C103.521 777.124 95.6579 773.402 18.0941 784.722L18.2385 785.712ZM182.758 778.124C192.834 778.124 200.071 776.696 205.614 774.518C211.162 772.338 214.985 769.418 218.24 766.48C224.759 760.595 228.89 754.792 240.025 754.225L239.975 753.227C228.399 753.816 223.967 759.962 217.57 765.737C214.368 768.628 210.646 771.466 205.248 773.587C199.847 775.709 192.739 777.124 182.758 777.124V778.124ZM240.025 754.225C257.775 753.321 267.013 748.356 272.065 740.827C277.076 733.358 277.882 723.455 279.049 712.962C280.222 702.418 281.758 691.188 288.101 680.794C294.435 670.417 305.601 660.815 326.148 653.636L325.819 652.692C305.106 659.929 293.728 669.655 287.248 680.273C280.777 690.876 279.228 702.309 278.055 712.852C276.877 723.446 276.077 733.052 271.234 740.27C266.431 747.429 257.567 752.331 239.975 753.227L240.025 754.225ZM326.148 653.636C347.582 646.149 360.803 635.97 369.844 624.293C378.873 612.63 383.706 599.501 388.405 586.184C393.11 572.85 397.681 559.329 406.172 546.744C414.652 534.174 427.056 522.521 447.448 512.985L447.025 512.079C426.475 521.689 413.928 533.458 405.343 546.184C396.767 558.895 392.158 572.544 387.462 585.852C382.76 599.177 377.971 612.161 369.053 623.681C360.145 635.187 347.092 645.26 325.819 652.692L326.148 653.636ZM447.448 512.985C469.648 502.598 479.926 501.358 490.075 499.813C500.303 498.256 510.382 496.392 532.086 484.752L531.613 483.871C510.019 495.452 500.05 497.283 489.925 498.824C479.722 500.378 469.342 501.637 447.025 512.079L447.448 512.985ZM532.086 484.752C542.161 479.347 550.14 477.1 557.047 476.387C563.961 475.674 569.825 476.494 575.716 477.26C581.599 478.026 587.505 478.737 594.41 477.753C601.32 476.767 609.199 474.088 619.069 468.12L618.552 467.265C608.774 473.177 601.021 475.799 594.269 476.763C587.512 477.726 581.727 477.034 575.845 476.269C569.969 475.504 563.992 474.666 556.944 475.393C549.89 476.121 541.786 478.413 531.613 483.871L532.086 484.752ZM619.069 468.12C640.664 455.061 662.921 454.535 685.46 460.161C708.022 465.792 730.822 477.574 753.479 489.094C776.107 500.6 798.598 511.846 820.457 516.307C842.346 520.774 863.634 518.444 883.817 502.783L883.204 501.992C863.3 517.438 842.327 519.75 820.657 515.327C798.955 510.898 776.586 499.721 753.932 488.203C731.306 476.698 708.397 464.855 685.703 459.191C662.985 453.521 640.437 454.029 618.551 467.265L619.069 468.12ZM883.818 502.782C885.456 501.51 886.364 500.935 887.279 500.352C888.208 499.76 889.142 499.161 890.806 497.852L890.188 497.066C888.559 498.347 887.655 498.927 886.742 499.508C885.815 500.099 884.877 500.693 883.204 501.993L883.818 502.782ZM890.805 497.853C933.155 464.665 964.315 456.026 994.392 446.098C1024.51 436.155 1053.51 424.926 1091.37 386.531L1090.66 385.829C1052.95 424.072 1024.11 435.235 994.078 445.149C964.001 455.077 932.689 463.759 890.188 497.065L890.805 497.853ZM1091.37 386.531C1096.85 380.975 1098.74 376.853 1100.59 372.745C1102.41 368.676 1104.19 364.628 1109.44 359.096L1108.72 358.407C1103.35 364.062 1101.51 368.234 1099.67 372.335C1097.85 376.397 1096.02 380.396 1090.66 385.829L1091.37 386.531ZM1109.44 359.096C1146.69 319.865 1139.86 278.86 1131.7 236.974C1123.53 195.052 1114.04 152.249 1145.38 108.895L1144.57 108.31C1112.94 152.062 1122.56 195.304 1130.72 237.165C1138.88 279.062 1145.58 319.578 1108.72 358.407L1109.44 359.096ZM1145.38 108.896C1146.76 106.99 1147.67 105.729 1148.4 104.701L1147.59 104.122C1146.86 105.145 1145.95 106.402 1144.57 108.309L1145.38 108.896ZM-772.5 195.959C-772.5 239.238 -757.546 286.367 -744.763 333.349C-731.966 380.38 -721.338 427.275 -729.836 470.258L-728.855 470.452C-720.306 427.21 -731.006 380.1 -743.798 333.086C-756.603 286.024 -771.5 239.067 -771.5 195.959H-772.5ZM-729.836 470.258C-737.409 508.603 -739.248 537.831 -733.114 564.681C-726.979 591.537 -712.882 615.961 -688.686 644.727L-687.92 644.083C-712.062 615.383 -726.053 591.101 -732.139 564.458C-738.227 537.809 -736.418 508.744 -728.855 470.451L-729.836 470.258ZM-688.686 644.727C-680.73 654.19 -677.086 660.173 -672.949 665.794C-668.807 671.421 -664.223 676.606 -654.467 684.366L-653.845 683.583C-663.536 675.875 -668.057 670.753 -672.143 665.202C-676.233 659.645 -679.939 653.577 -687.92 644.083L-688.686 644.727ZM-654.467 684.366C-636.808 698.409 -621.428 704.692 -606.897 706.564C-592.377 708.435 -578.753 705.894 -564.634 702.371C-536.391 695.323 -506.096 684.336 -462.156 696.309L-461.893 695.345C-506.133 683.289 -536.701 694.37 -564.877 701.401C-578.968 704.917 -592.442 707.418 -606.769 705.572C-621.086 703.727 -636.301 697.535 -653.845 683.583L-654.467 684.366ZM-462.156 696.309C-441.751 701.871 -426.874 703.86 -414.713 703.801C-402.547 703.741 -393.122 701.631 -383.635 699.025C-364.702 693.823 -345.472 686.629 -303.349 689.671L-303.277 688.673C-345.586 685.618 -364.961 692.857 -383.9 698.061C-393.349 700.657 -402.677 702.742 -414.718 702.801C-426.763 702.859 -441.547 700.89 -461.893 695.345L-462.156 696.309ZM-303.349 689.671C-261.75 692.675 -242.902 704.773 -223.976 715.476C-214.498 720.836 -204.982 725.858 -192.596 729.19C-180.21 732.522 -164.979 734.159 -144.06 732.789L-144.125 731.792C-164.958 733.156 -180.077 731.523 -192.337 728.224C-204.597 724.926 -214.024 719.956 -223.484 714.606C-242.435 703.889 -261.445 691.694 -303.277 688.673L-303.349 689.671ZM-144.06 732.789C-102.065 730.035 -80.8848 738.324 -59.7871 745.452C-49.2239 749.021 -38.6642 752.306 -25.5411 753.753C-12.4173 755.2 3.2489 754.807 24.0405 751.05L23.8626 750.066C3.14801 753.809 -12.42 754.193 -25.4315 752.759C-38.4437 751.324 -48.9202 748.068 -59.467 744.505C-80.5897 737.369 -101.925 729.024 -144.125 731.792L-144.06 732.789ZM24.0405 751.05C66.2828 743.415 90.1617 749.404 113.857 754.348C137.609 759.304 161.147 763.201 202.576 751.273L202.3 750.312C161.08 762.179 137.719 758.306 114.061 753.369C90.3464 748.421 66.3064 742.395 23.8626 750.066L24.0405 751.05ZM202.576 751.273C245.432 738.943 255.297 701.685 264.76 663.798C274.247 625.81 283.337 587.179 324.22 571.092L323.854 570.161C282.416 586.467 273.249 625.679 263.789 663.556C254.304 701.534 244.531 738.162 202.3 750.312L202.576 751.273ZM324.22 571.092C331.466 568.241 336.067 564.714 339.324 560.819C342.573 556.933 344.465 552.702 346.316 548.505C348.174 544.296 349.99 540.123 353.087 536.228C356.175 532.345 360.554 528.72 367.553 525.67L367.154 524.753C360.017 527.863 355.502 531.584 352.304 535.606C349.114 539.617 347.251 543.91 345.401 548.102C343.546 552.307 341.704 556.414 338.557 560.177C335.419 563.931 330.962 567.365 323.854 570.161L324.22 571.092ZM367.553 525.67C381.699 519.503 389.979 511.565 395.273 502.666C400.555 493.786 402.844 483.978 405.061 474.136C407.282 464.271 409.431 454.372 414.398 445.167C419.355 435.982 427.133 427.47 440.645 420.437L440.184 419.55C426.499 426.673 418.573 435.326 413.518 444.693C408.474 454.04 406.3 464.079 404.085 473.916C401.865 483.775 399.603 493.431 394.413 502.155C389.236 510.859 381.124 518.663 367.154 524.753L367.553 525.67ZM440.645 420.437C462.163 409.238 480.207 405.883 496.427 406.295C512.665 406.707 527.096 410.89 541.43 414.815C555.749 418.735 569.968 422.396 585.681 421.677C601.408 420.957 618.595 415.853 638.881 402.316L638.326 401.484C618.17 414.934 601.157 419.968 585.635 420.678C570.098 421.389 556.018 417.772 541.694 413.85C527.387 409.933 512.834 405.711 496.453 405.295C480.055 404.879 461.845 408.276 440.184 419.55L440.645 420.437ZM638.881 402.316C641.394 400.638 643.392 399.726 645.127 399.187C646.864 398.647 648.354 398.476 649.887 398.296C651.417 398.116 652.989 397.927 654.818 397.337C656.649 396.747 658.72 395.761 661.281 394.003L660.715 393.178C658.22 394.891 656.235 395.829 654.511 396.386C652.785 396.942 651.3 397.123 649.77 397.302C648.242 397.482 646.666 397.661 644.83 398.232C642.99 398.804 640.906 399.762 638.326 401.484L638.881 402.316ZM661.282 394.002C680.234 380.972 702.549 381.304 726.564 388.29C750.587 395.279 776.208 408.895 801.703 422.307C827.171 435.704 852.516 448.898 875.91 454.959C899.32 461.024 920.876 459.969 938.668 444.745L938.018 443.985C920.572 458.913 899.404 460.013 876.161 453.991C852.901 447.965 827.663 434.833 802.169 421.422C776.702 408.025 750.984 394.353 726.843 387.33C702.694 380.305 680.022 379.904 660.715 393.178L661.282 394.002ZM938.668 444.744C953.615 431.95 963.567 426.285 973.396 420.437C983.247 414.576 992.963 408.539 1007.38 395.016L1006.7 394.287C992.35 407.743 982.701 413.738 972.885 419.577C963.049 425.429 953.034 431.131 938.018 443.985L938.668 444.744ZM1007.38 395.016C1036.1 368.071 1029.47 332.604 1022.29 296.871C1015.09 261.02 1007.34 224.887 1033.03 195.896L1032.28 195.233C1006.21 224.66 1014.14 261.344 1021.31 297.068C1028.51 332.91 1034.95 367.777 1006.7 394.287L1007.38 395.016ZM1033.03 195.896C1044.64 182.787 1064.33 172.497 1084.01 162.029C1103.62 151.591 1123.23 140.974 1134.42 127.21L1133.64 126.579C1122.61 140.154 1103.21 150.679 1083.54 161.146C1063.93 171.581 1044.04 181.957 1032.28 195.233L1033.03 195.896ZM-729.845 470.344C-731.179 530.927 -697.762 561.135 -656.96 605.015L-656.227 604.334C-697.109 560.37 -730.168 530.468 -728.846 470.366L-729.845 470.344ZM-656.96 605.015C-650.984 611.444 -645.425 615.238 -639.97 617.589C-634.519 619.937 -629.198 620.834 -623.73 621.5C-612.798 622.831 -601.232 623.252 -586.395 632.349L-585.873 631.497C-600.926 622.267 -612.719 621.833 -623.609 620.507C-629.052 619.844 -634.258 618.961 -639.574 616.67C-644.885 614.381 -650.333 610.675 -656.227 604.334L-656.96 605.015ZM-586.395 632.349C-573.47 640.272 -562.707 642.718 -552.911 642.153C-543.133 641.588 -534.367 638.023 -525.453 634.021C-507.615 626.011 -489.071 616.2 -460.049 624.329L-459.78 623.366C-489.192 615.128 -508.052 625.11 -525.862 633.108C-534.772 637.109 -543.391 640.602 -552.969 641.154C-562.529 641.706 -573.092 639.331 -585.873 631.497L-586.395 632.349ZM-460.049 624.329C-439.719 630.025 -424.966 630.178 -412.952 627.238C-400.944 624.3 -391.722 618.282 -382.458 611.738C-373.183 605.185 -363.874 598.113 -351.621 592.94C-339.381 587.773 -324.187 584.498 -303.176 585.605L-303.123 584.606C-324.274 583.492 -339.62 586.789 -352.01 592.019C-364.386 597.243 -373.794 604.393 -383.035 610.921C-392.287 617.457 -401.378 623.377 -413.189 626.267C-424.995 629.156 -439.568 629.028 -459.78 623.366L-460.049 624.329ZM-303.176 585.605C-261.629 587.797 -237.57 612.5 -213.388 635.826C-189.227 659.131 -164.945 681.05 -123.048 677.043L-123.143 676.047C-164.55 680.008 -188.534 658.41 -212.694 635.106C-236.833 611.821 -261.149 586.821 -303.123 584.606L-303.176 585.605ZM22.856 735.756C64.701 735.756 98.9855 726.424 127.01 716.606C141.005 711.702 153.482 706.662 164.502 702.623C175.547 698.575 185.153 695.524 193.513 694.543L193.397 693.55C184.909 694.546 175.207 697.635 164.158 701.684C153.084 705.742 140.68 710.757 126.679 715.662C98.7127 725.46 64.5466 734.756 22.856 734.756V735.756ZM193.612 694.521C236.513 680.344 249.925 644.839 262.865 608.583C275.825 572.268 288.317 535.199 329.133 517.143L328.728 516.228C287.46 534.485 274.857 572.005 261.923 608.246C248.967 644.546 235.684 679.565 193.298 693.572L193.612 694.521ZM329.133 517.143C350.657 507.626 363.976 496.54 373.107 484.518C382.23 472.505 387.149 459.585 391.906 446.463C396.667 433.327 401.267 419.994 409.742 407.031C418.209 394.081 430.558 381.486 450.832 369.886L450.336 369.018C429.932 380.692 417.463 393.394 408.905 406.484C400.354 419.562 395.718 433.012 390.965 446.122C386.208 459.246 381.332 472.035 372.31 483.913C363.296 495.782 350.12 506.77 328.728 516.228L329.133 517.143ZM450.832 369.886C453.599 368.305 457.883 366.958 462.979 365.725C468.063 364.495 473.903 363.391 479.757 362.277C485.605 361.165 491.466 360.044 496.569 358.785C501.66 357.528 506.051 356.12 508.93 354.416L508.421 353.555C505.678 355.179 501.413 356.559 496.329 357.814C491.257 359.066 485.424 360.182 479.57 361.295C473.724 362.407 467.857 363.516 462.744 364.753C457.642 365.988 453.236 367.361 450.336 369.018L450.832 369.886ZM508.93 354.416C527.534 343.411 543.04 341.114 556.928 343.026C570.844 344.942 583.169 351.085 595.436 357.059C607.676 363.019 619.862 368.812 633.39 369.875C646.949 370.94 661.801 367.253 679.395 354.389L678.805 353.582C661.369 366.33 646.75 369.921 633.469 368.878C620.158 367.832 608.136 362.131 595.874 356.16C583.638 350.202 571.167 343.977 557.064 342.035C542.934 340.09 527.202 342.446 508.421 353.555L508.93 354.416ZM679.395 354.389C690.731 346.097 703.64 345.165 717.38 347.922C731.138 350.682 745.661 357.126 760.18 363.513C774.672 369.887 789.163 376.207 802.771 378.637C816.401 381.072 829.209 379.616 840.278 370.377L839.638 369.609C828.867 378.599 816.392 380.055 802.947 377.653C789.479 375.248 775.102 368.984 760.583 362.597C746.093 356.223 731.463 349.728 717.577 346.942C703.673 344.152 690.446 345.067 678.805 353.582L679.395 354.389ZM840.278 370.377C860.195 353.749 875.952 349.68 891.526 345.305C907.14 340.92 922.553 336.229 941.596 318.306L940.911 317.578C922.041 335.338 906.809 339.974 891.255 344.343C875.661 348.723 859.727 352.837 839.638 369.609L840.278 370.377ZM941.596 318.306C966.486 294.878 961.838 265.004 956.794 234.995C951.735 204.889 946.28 174.64 968.84 149.785L968.1 149.113C945.161 174.385 950.767 205.162 955.808 235.161C960.866 265.257 965.359 294.565 940.911 317.578L941.596 318.306ZM968.84 149.785C987.895 128.787 985.605 102.443 983.007 76.0725C980.401 49.6172 977.486 23.1311 994.786 1.31066L994.002 0.689406C976.409 22.8807 979.415 49.8092 982.012 76.1705C984.618 102.616 986.813 128.491 968.1 149.113L968.84 149.785ZM-655.78 301.522C-664.106 329.602 -675.591 360.652 -683.223 391.589C-690.859 422.544 -694.676 453.513 -687.642 481.538L-686.672 481.294C-693.646 453.509 -689.876 422.732 -682.252 391.829C-674.624 360.908 -663.177 329.988 -654.821 301.807L-655.78 301.522ZM-687.642 481.538C-684.938 492.302 -682.593 497.141 -678.34 507.329L-677.417 506.943C-681.679 496.735 -683.99 491.97 -686.672 481.294L-687.642 481.538ZM-678.34 507.328C-669.817 527.794 -657.631 539.136 -642.651 545.029C-627.703 550.909 -610.024 551.341 -590.55 550.107C-551.541 547.635 -505.262 538.495 -458.401 552.401L-458.117 551.442C-505.202 537.47 -551.777 546.648 -590.614 549.109C-610.063 550.341 -627.554 549.893 -642.285 544.098C-656.984 538.316 -668.985 527.19 -677.417 506.944L-678.34 507.328ZM-458.401 552.401C-443.129 556.937 -431.973 555.454 -422.857 550.708C-413.773 545.978 -406.765 538.03 -399.744 529.772C-392.701 521.489 -385.639 512.887 -376.405 506.673C-367.195 500.474 -355.812 496.646 -340.123 497.976L-340.038 496.98C-355.959 495.63 -367.568 499.52 -376.964 505.843C-386.335 512.15 -393.49 520.873 -400.506 529.124C-407.543 537.4 -414.434 545.194 -423.319 549.821C-432.171 554.43 -443.053 555.917 -458.117 551.442L-458.401 552.401ZM-340.122 497.976C-334.612 498.44 -330.483 495.621 -326.409 491.384C-324.372 489.266 -322.324 486.767 -320.114 484.112C-317.899 481.451 -315.513 478.623 -312.781 475.818C-307.322 470.213 -300.488 464.706 -290.938 460.875C-281.387 457.044 -269.09 454.878 -252.691 455.999L-252.623 455.001C-269.146 453.872 -281.597 456.051 -291.31 459.947C-301.025 463.843 -307.971 469.446 -313.497 475.12C-316.259 477.955 -318.666 480.809 -320.882 483.472C-323.104 486.14 -325.124 488.605 -327.129 490.691C-331.139 494.86 -334.988 497.405 -340.038 496.98L-340.122 497.976ZM-257.593 771.962C-250.262 771.41 -240.803 772.924 -229.452 775.178C-218.126 777.427 -204.943 780.406 -190.247 782.741C-160.841 787.413 -125.304 789.519 -86.0341 778.104L-86.3133 777.143C-125.389 788.502 -160.763 786.413 -190.09 781.754C-204.761 779.423 -217.899 776.453 -229.258 774.197C-240.592 771.947 -250.181 770.402 -257.668 770.965L-257.593 771.962ZM-86.111 778.12C-64.9355 775.445 -50.8111 771.522 -40.2462 766.8C-29.6757 762.075 -22.6935 756.56 -15.8041 750.748C-8.9165 744.937 -2.13599 738.842 8.07745 732.877C18.288 726.914 31.944 721.074 52.5568 715.822L52.3099 714.853C31.6257 720.123 17.8795 725.995 7.57312 732.014C-2.73029 738.031 -9.58124 744.189 -16.449 749.984C-23.315 755.776 -30.2122 761.22 -40.6542 765.887C-51.102 770.557 -65.1235 774.461 -86.2364 777.128L-86.111 778.12ZM52.5568 715.822C95.1993 704.961 116.761 688.716 137.929 671.382C159.069 654.072 179.794 635.696 220.823 620.431L220.475 619.494C179.273 634.823 158.434 653.299 137.295 670.609C116.184 687.896 94.7538 704.042 52.3099 714.853L52.5568 715.822ZM220.823 620.431C263.833 604.432 273.895 568.933 283.46 532.696C293.038 496.406 302.122 459.377 342.849 439.527L342.41 438.628C301.216 458.706 292.053 496.22 282.493 532.441C272.919 568.714 262.951 603.693 220.475 619.494L220.823 620.431ZM342.849 439.527C344.36 438.789 345.053 438.361 345.739 437.938C346.408 437.525 347.071 437.116 348.543 436.397L348.104 435.499C346.593 436.237 345.9 436.664 345.214 437.087C344.545 437.5 343.882 437.909 342.41 438.628L342.849 439.527ZM348.544 436.397C369.36 426.163 382.994 415.81 392.956 405.256C402.916 394.703 409.187 383.968 415.286 373.013C427.47 351.13 439.017 328.278 478.066 303.742L477.534 302.895C438.264 327.57 426.616 350.608 414.412 372.526C408.318 383.472 402.098 394.114 392.229 404.569C382.362 415.023 368.83 425.309 348.103 435.499L348.544 436.397ZM478.066 303.742C506.169 286.079 532.69 296.585 559.144 306.724C585.526 316.836 611.848 326.582 639.027 306.563L638.434 305.758C611.745 325.416 585.946 315.926 559.502 305.79C533.129 295.682 506.119 284.929 477.534 302.895L478.066 303.742ZM639.027 306.563C653.423 295.963 663.023 293.635 672.565 291.152C682.163 288.654 691.689 286 705.791 274.716L705.167 273.935C691.216 285.097 681.84 287.705 672.313 290.184C662.73 292.678 652.983 295.045 638.434 305.758L639.027 306.563ZM705.791 274.716C741.58 246.098 768.434 240.022 794.574 233.052C820.764 226.069 846.208 218.192 878.986 185.921L878.285 185.209C845.679 217.31 820.42 225.126 794.316 232.086C768.161 239.06 741.13 245.178 705.167 273.935L705.791 274.716ZM878.986 185.921C882.727 182.24 889.23 179.094 897.199 176.208C905.151 173.329 914.484 170.735 923.831 168.123C933.167 165.514 942.516 162.887 950.465 159.947C958.396 157.012 965.015 153.738 968.829 149.797L968.111 149.101C964.466 152.867 958.038 156.079 950.118 159.009C942.215 161.933 932.907 164.549 923.561 167.16C914.226 169.769 904.854 172.373 896.859 175.268C888.88 178.157 882.193 181.362 878.285 185.208L878.986 185.921ZM-655.78 301.522C-667.762 341.932 -650.55 385.268 -617.518 423.825L-616.759 423.175C-649.693 384.732 -666.663 341.744 -654.821 301.807L-655.78 301.522ZM-617.518 423.825C-596.711 448.113 -571.426 455.934 -543.657 460.276C-515.857 464.623 -485.669 465.485 -454.721 475.792L-454.405 474.843C-485.456 464.502 -515.863 463.61 -543.503 459.288C-571.175 454.961 -596.178 447.197 -616.759 423.175L-617.518 423.825ZM-454.721 475.792C-434.814 482.422 -420.787 481.417 -409.643 476.125C-398.531 470.848 -390.361 461.337 -382.111 451.149C-373.841 440.935 -365.479 430.026 -353.947 421.754C-342.436 413.497 -327.75 407.859 -306.831 408.262L-306.812 407.262C-327.945 406.856 -342.842 412.558 -354.53 420.942C-366.195 429.31 -374.647 440.342 -382.889 450.52C-391.151 460.723 -399.192 470.055 -410.072 475.222C-420.922 480.374 -434.671 481.415 -454.405 474.843L-454.721 475.792ZM-306.831 408.262C-286.201 408.657 -269.551 426.218 -254.874 452.497C-240.217 478.738 -227.644 513.456 -215.08 547.775C-202.526 582.068 -189.981 615.969 -175.388 640.484C-160.815 664.965 -144.056 680.325 -123.018 677.039L-123.173 676.051C-143.533 679.231 -159.972 664.426 -174.528 639.973C-189.064 615.554 -201.578 581.751 -214.141 547.431C-226.695 513.139 -239.296 478.336 -254.001 452.01C-268.684 425.721 -285.581 407.668 -306.812 407.262L-306.831 408.262ZM-123.018 677.039C-80.5458 670.399 -57.276 659.123 -34.3388 646.492C-11.4262 633.875 11.1215 619.928 52.2208 607.869L51.9392 606.909C10.7175 619.005 -11.925 633.008 -34.8212 645.616C-57.6927 658.211 -80.8501 669.435 -123.173 676.051L-123.018 677.039ZM52.2208 607.869C86.179 597.909 103.763 588.6 121.078 578.556C138.372 568.524 155.373 557.774 188.215 544.885L187.85 543.954C154.926 556.875 137.862 567.664 120.576 577.691C103.312 587.705 85.8027 596.977 51.9393 606.909L52.2208 607.869ZM188.215 544.885C196.757 541.533 201.256 539.318 205.732 537.06C210.196 534.809 214.631 532.518 223.064 529L222.679 528.077C214.211 531.609 209.749 533.914 205.281 536.168C200.824 538.416 196.355 540.616 187.85 543.954L188.215 544.885ZM223.064 529C244.562 520.032 258.877 508.938 269.528 496.642C280.172 484.354 287.141 470.883 293.96 457.206C307.598 429.856 320.679 401.602 361.39 379.677L360.915 378.796C319.905 400.883 306.707 429.402 293.065 456.76C286.245 470.438 279.324 483.805 268.772 495.987C258.228 508.161 244.042 519.166 222.679 528.077L223.064 529ZM361.39 379.677C376.947 371.297 387.403 363.114 395.259 354.948C403.113 346.783 408.353 338.649 413.483 330.399C423.726 313.921 433.571 296.904 463.065 277.838L462.522 276.998C432.837 296.188 422.897 313.362 412.633 329.871C407.509 338.113 402.315 346.171 394.538 354.255C386.764 362.336 376.395 370.458 360.915 378.796L361.39 379.677ZM463.066 277.837C474.851 270.214 478.908 264.223 482.883 258.173C486.82 252.18 490.671 246.139 502.065 238.278L501.497 237.455C489.95 245.422 486.015 251.584 482.047 257.624C478.116 263.607 474.15 269.477 462.522 276.998L463.066 277.837ZM502.065 238.278C523.866 223.225 548.485 212.431 573.872 201.815C599.245 191.204 625.387 180.771 650.156 166.449C699.737 137.781 743.809 93.5393 765.586 1.11471L764.613 0.885361C742.902 93.0256 699.013 137.045 649.655 165.584C624.955 179.865 598.884 190.271 573.486 200.892C548.102 211.507 523.394 222.336 501.497 237.455L502.065 238.278ZM-574.852 119.665C-575.847 124.26 -573.973 129.005 -570.852 133.728C-567.725 138.458 -563.273 143.273 -558.951 148.027C-554.611 152.799 -550.404 157.506 -547.689 162.069C-544.973 166.634 -543.816 170.943 -545.392 174.969L-544.461 175.334C-542.717 170.879 -544.054 166.222 -546.829 161.558C-549.605 156.893 -553.886 152.11 -558.211 147.354C-562.553 142.578 -566.943 137.827 -570.017 133.176C-573.097 128.517 -574.782 124.066 -573.875 119.876L-574.852 119.665ZM-545.401 174.993C-556.331 207.77 -582.352 222.49 -606.53 237.484C-630.673 252.455 -652.984 267.711 -655.799 301.623L-654.802 301.706C-652.032 268.332 -630.152 253.309 -606.003 238.334C-581.89 223.381 -555.516 208.487 -544.452 175.309L-545.401 174.993ZM-655.799 301.623C-657.379 320.614 -649.952 334.307 -636.759 344.598C-623.599 354.864 -604.703 361.748 -583.309 367.211C-561.91 372.675 -537.932 376.737 -514.597 381.319C-491.245 385.904 -468.529 391.012 -449.583 398.57L-449.212 397.641C-468.253 390.045 -491.05 384.923 -514.404 380.338C-537.777 375.748 -561.699 371.697 -583.062 366.242C-604.429 360.786 -623.155 353.943 -636.144 343.81C-649.101 333.703 -656.351 320.324 -654.802 301.706L-655.799 301.623ZM-449.583 398.57C-447.786 399.286 -446.595 399.641 -445.705 399.802C-444.798 399.965 -444.216 399.924 -443.661 399.873C-443.128 399.825 -442.635 399.772 -441.834 399.874C-441.022 399.977 -439.878 400.243 -438.081 400.862L-437.755 399.917C-439.587 399.286 -440.802 398.997 -441.708 398.882C-442.625 398.765 -443.212 398.829 -443.751 398.878C-444.266 398.924 -444.747 398.958 -445.527 398.817C-446.324 398.674 -447.444 398.346 -449.213 397.641L-449.583 398.57ZM-438.08 400.863C-419.971 407.067 -407.529 405.381 -397.885 399.264C-388.288 393.178 -381.54 382.745 -374.71 371.679C-367.858 360.577 -360.908 348.81 -350.898 339.834C-340.913 330.88 -327.87 324.697 -308.809 324.827L-308.802 323.827C-328.119 323.696 -341.4 329.975 -351.566 339.09C-361.706 348.182 -368.733 360.091 -375.561 371.154C-382.412 382.253 -389.049 392.476 -398.42 398.42C-407.744 404.333 -419.853 406.05 -437.756 399.916L-438.08 400.863ZM-308.809 324.827C-298.49 324.898 -289.072 329.425 -280.317 337.331C-271.556 345.243 -263.482 356.517 -255.868 370.023C-240.639 397.037 -227.314 432.855 -214.011 468.229C-200.719 503.576 -187.446 538.485 -172.331 563.592C-164.773 576.146 -156.731 586.287 -147.963 592.809C-139.181 599.34 -129.658 602.247 -119.185 600.292L-119.368 599.309C-129.516 601.203 -138.763 598.406 -147.367 592.006C-155.984 585.597 -163.946 575.581 -171.474 563.076C-186.533 538.064 -199.773 503.25 -213.075 467.877C-226.368 432.53 -239.721 396.628 -254.997 369.532C-262.636 355.982 -270.772 344.603 -279.647 336.589C-288.526 328.571 -298.169 323.9 -308.802 323.827L-308.809 324.827ZM-119.185 600.292C-110.847 598.737 -105.936 596.936 -101.056 595.081C-96.1929 593.232 -91.3697 591.332 -83.1675 589.551L-83.3797 588.574C-91.66 590.372 -96.5424 592.295 -101.412 594.146C-106.266 595.992 -111.114 597.77 -119.368 599.309L-119.185 600.292ZM-83.1672 589.551C-48.9532 582.094 -32.0359 567.346 -15.4236 551.749C1.16339 536.175 17.4303 519.776 50.399 508.798L50.0831 507.849C16.8858 518.904 0.479004 535.446 -16.108 551.02C-32.6697 566.569 -49.4267 581.174 -83.3801 588.574L-83.1672 589.551ZM50.399 508.798C93.249 494.539 113.699 479.823 133.654 463.936C153.578 448.074 172.984 431.068 213.802 412.138L213.381 411.231C172.442 430.217 152.952 447.294 133.031 463.154C113.14 478.99 92.7925 493.637 50.0832 507.849L50.399 508.798ZM213.802 412.138C244.668 397.831 258.621 386.158 272.273 373.941C285.895 361.75 299.2 349.034 328.811 332.57L328.325 331.696C298.61 348.218 285.236 360.997 271.606 373.195C258.005 385.367 244.134 396.977 213.381 411.231L213.802 412.138ZM328.811 332.57C340.587 326.024 346.402 322.235 352.169 318.368C357.927 314.508 363.629 310.576 375.196 303.731L374.686 302.871C363.094 309.731 357.371 313.677 351.613 317.538C345.864 321.392 340.073 325.166 328.325 331.696L328.811 332.57ZM375.196 303.731C396.946 290.854 411.55 278.576 422.477 266.444C433.403 254.314 440.639 242.346 447.658 230.118C461.684 205.684 474.878 180.153 515.033 149.848L514.431 149.05C474.103 179.484 460.827 205.168 446.791 229.62C439.779 241.835 432.586 253.727 421.734 265.775C410.884 277.821 396.362 290.037 374.686 302.871L375.196 303.731ZM515.033 149.848C523.6 143.384 528.474 141.107 533.332 138.771C538.225 136.418 543.094 134.007 551.591 127.287L550.971 126.503C542.549 133.164 537.749 135.537 532.899 137.87C528.015 140.219 523.074 142.529 514.431 149.05L515.033 149.848ZM551.591 127.287C621.075 72.3022 624.026 62.5736 687.851 1.3609L687.159 0.639174C623.272 61.9111 620.405 71.5569 550.971 126.503L551.591 127.287ZM-574.813 119.551C-583.712 137.775 -593.201 152.994 -601.005 167.097C-608.797 181.177 -614.9 194.13 -616.925 207.719C-620.985 234.96 -608.637 264.536 -561.576 310.761L-560.875 310.048C-607.889 263.868 -619.921 234.603 -615.936 207.866C-613.939 194.466 -607.913 181.645 -600.13 167.581C-592.359 153.538 -582.826 138.241 -573.914 119.99L-574.813 119.551ZM-561.588 310.749C-552.489 320.282 -545.57 328.792 -539.972 335.643C-534.39 342.472 -530.08 347.708 -526.233 350.607L-525.631 349.808C-529.358 346.999 -533.582 341.881 -539.197 335.01C-544.795 328.16 -551.736 319.622 -560.864 310.059L-561.588 310.749ZM-526.233 350.607C-520.066 355.254 -513.837 355.779 -507.591 354.182C-501.383 352.594 -495.14 348.903 -488.9 345.127C-482.631 341.333 -476.359 337.449 -470.012 335.36C-463.689 333.279 -457.336 332.996 -450.884 336.37L-450.42 335.483C-457.176 331.951 -463.823 332.27 -470.325 334.41C-476.803 336.542 -483.181 340.498 -489.417 344.271C-495.682 348.063 -501.799 351.668 -507.839 353.213C-513.841 354.748 -519.746 354.243 -525.631 349.808L-526.233 350.607ZM-450.884 336.37C-432.626 345.926 -419.792 345.584 -409.538 339.531C-399.354 333.52 -391.819 321.923 -384.008 309.282C-368.33 283.912 -351.405 254.123 -309.77 254.177L-309.769 253.177C-352.037 253.122 -369.232 283.47 -384.859 308.757C-392.7 321.445 -400.113 332.807 -410.046 338.67C-419.908 344.491 -432.357 344.938 -450.42 335.484L-450.884 336.37ZM-309.77 254.177C-289.092 254.203 -271.955 270.872 -256.572 295.915C-241.208 320.927 -227.711 354.094 -214.248 386.761C-200.795 419.401 -187.373 451.549 -172.169 474.425C-156.982 497.277 -139.868 511.094 -119.006 506.599L-119.217 505.621C-139.416 509.974 -156.181 496.676 -171.336 473.872C-186.475 451.094 -199.86 419.047 -213.323 386.38C-226.775 353.74 -240.304 320.487 -255.72 295.392C-271.116 270.328 -288.512 253.204 -309.769 253.177L-309.77 254.177ZM-119.006 506.599C-76.1414 497.362 -58.3679 471.302 -41.1247 443.879C-23.8829 416.459 -7.17456 387.696 33.5159 372.547L33.1671 371.61C-7.88135 386.893 -24.7473 415.955 -41.9713 443.347C-59.1937 470.737 -76.7773 496.476 -119.217 505.621L-119.006 506.599ZM33.516 372.547C60.5438 362.48 75.0341 358.462 89.3411 353.933C103.659 349.401 117.764 344.366 143.979 332.28L143.561 331.372C117.382 343.441 103.316 348.46 89.0393 352.979C74.7523 357.502 60.2255 361.532 33.167 371.61L33.516 372.547ZM143.979 332.28C159.381 325.182 168.008 322.816 176.583 320.291C185.183 317.758 193.719 315.067 208.89 307.324L208.435 306.434C193.334 314.141 184.86 316.81 176.3 319.331C167.715 321.86 159.031 324.242 143.561 331.372L143.979 332.28ZM208.89 307.324C252.017 285.322 272.497 270.875 292.356 255.37C312.199 239.877 331.393 223.352 371.993 197.153L371.451 196.313C330.803 222.543 311.566 239.103 291.74 254.582C271.93 270.049 251.504 284.461 208.435 306.434L208.89 307.324ZM371.993 197.153C386.866 187.561 392.733 180.216 398.486 172.757C404.208 165.339 409.811 157.818 424.185 147.771L423.612 146.952C409.114 157.085 403.438 164.699 397.694 172.147C391.981 179.553 386.195 186.804 371.451 196.313L371.993 197.153ZM424.185 147.771C452.34 128.08 466.3 102.196 479.827 75.9137C493.362 49.6158 506.46 22.93 532.864 1.38745L532.232 0.612623C505.64 22.3084 492.457 49.1896 478.938 75.456C465.411 101.738 451.544 127.416 423.612 146.952L424.185 147.771ZM-617.585 1.22423C-616.829 2.73175 -615.346 4.36419 -613.372 6.10501C-611.39 7.85388 -608.872 9.74736 -606 11.7709C-603.126 13.7952 -599.887 15.9577 -596.46 18.2428C-593.031 20.5293 -589.413 22.9399 -585.773 25.4656C-578.492 30.5184 -571.143 36.0204 -565.088 41.8822C-559.029 47.7488 -554.304 53.941 -552.219 60.3659L-551.268 60.0573C-553.426 53.4063 -558.285 47.0777 -564.393 41.1638C-570.506 35.245 -577.908 29.7065 -585.203 24.644C-588.851 22.1121 -592.477 19.6963 -595.905 17.4109C-599.334 15.1241 -602.562 12.969 -605.424 10.9534C-608.286 8.93695 -610.769 7.068 -612.711 5.35512C-614.662 3.63419 -616.024 2.10554 -616.692 0.775774L-617.585 1.22423ZM-552.219 60.3659C-549.389 69.0874 -552.282 75.4685 -557.329 83.939C-562.373 92.4063 -569.516 102.879 -574.84 119.619L-573.887 119.922C-568.606 103.316 -561.535 92.9539 -556.47 84.4508C-551.406 75.9509 -548.292 69.2257 -551.268 60.0573L-552.219 60.3659ZM-441.858 184.781C-426.102 195.002 -414.779 200.658 -405.436 203.376C-396.073 206.101 -388.72 205.868 -380.926 204.361C-365.372 201.353 -348.187 193.321 -309.392 193.473L-309.388 192.473C-348.311 192.32 -365.742 200.406 -381.116 203.379C-388.785 204.863 -395.974 205.088 -405.157 202.416C-414.36 199.738 -425.588 194.144 -441.314 183.942L-441.858 184.781ZM-309.392 193.473C-288.689 193.558 -271.714 207.923 -256.592 229.349C-241.479 250.763 -228.315 279.088 -215.191 306.843C-202.081 334.569 -189.007 361.734 -174.09 380.72C-159.171 399.707 -142.289 410.656 -121.58 405.622L-121.816 404.65C-141.949 409.544 -158.471 398.98 -173.304 380.102C-188.138 361.222 -201.164 334.169 -214.287 306.415C-227.397 278.69 -240.601 250.273 -255.775 228.772C-270.942 207.282 -288.176 192.56 -309.388 192.473L-309.392 193.473ZM-121.58 405.622C-107.257 402.143 -100.357 395.259 -93.579 388.242C-86.8233 381.248 -80.1959 374.135 -66.3748 369.93L-66.6658 368.974C-80.752 373.259 -87.5324 380.543 -94.2983 387.547C-101.042 394.527 -107.777 401.24 -121.816 404.65L-121.58 405.622ZM-66.3746 369.93C-37.8928 361.259 -27.031 344.557 -16.4805 327.304C-5.94501 310.076 4.27557 292.318 31.4368 281.117L31.0556 280.193C3.56659 291.528 -6.79761 309.553 -17.3336 326.782C-27.8546 343.986 -38.5509 360.414 -66.6659 368.974L-66.3746 369.93ZM31.4367 281.117C117.546 245.629 120.716 246.196 202.008 200.802L201.521 199.929C120.282 245.293 117.157 244.708 31.0557 280.193L31.4367 281.117ZM202.008 200.802C240.005 179.59 239.918 177.731 276.818 154.8L276.29 153.951C239.328 176.92 239.495 178.73 201.521 199.929L202.008 200.802ZM276.818 154.8C300.562 140.042 306.133 122.907 320.913 99.0057C335.706 75.0823 359.836 44.1248 420.787 1.40949L420.213 0.590576C359.164 43.3752 334.935 74.4288 320.062 98.4798C305.176 122.553 299.774 139.355 276.29 153.951L276.818 154.8ZM-308.543 164.552C-287.834 164.957 -270.883 176.158 -255.812 192.504C-240.735 208.857 -227.603 230.289 -214.511 251.051C-201.436 271.786 -188.398 291.861 -173.535 305.379C-158.648 318.92 -141.876 325.93 -121.382 320.423L-121.642 319.457C-141.708 324.85 -158.142 318.029 -172.862 304.64C-187.606 291.228 -200.576 271.276 -213.665 250.518C-226.737 229.787 -239.924 208.262 -255.077 191.826C-270.236 175.384 -287.426 163.965 -308.523 163.552L-308.543 164.552ZM-121.382 320.423C-78.3334 308.853 -57.1725 293.784 -36.6437 277.029C-16.1436 260.297 3.69147 241.919 44.155 223.613L43.7428 222.702C3.14056 241.07 -16.7932 259.536 -37.2761 276.254C-57.7304 292.948 -78.767 307.934 -121.642 319.458L-121.382 320.423ZM44.1552 223.613C65.8587 213.786 75.8857 205.757 85.7244 197.396C95.5347 189.059 105.143 180.406 126.05 169.263L125.58 168.381C104.572 179.577 94.8962 188.289 85.0768 196.634C75.2858 204.955 65.3373 212.925 43.7427 222.702L44.1552 223.613ZM126.051 169.263C136.432 163.728 148.471 161.58 161.36 161.105C174.251 160.63 187.95 161.829 201.648 162.96C215.332 164.09 229.015 165.152 241.815 164.386C254.619 163.619 266.58 161.021 276.814 154.803L276.294 153.948C266.252 160.05 254.471 162.626 241.756 163.388C229.037 164.149 215.425 163.095 201.731 161.964C188.05 160.834 174.286 159.628 161.323 160.106C148.356 160.584 136.148 162.746 125.58 168.381L126.051 169.263ZM-545.372 175.377C-542.621 180.82 -537.731 184.642 -531.232 187.184C-524.739 189.725 -516.612 191.001 -507.323 191.346C-488.745 192.035 -465.398 188.999 -440.903 184.751C-416.43 180.505 -390.686 175.024 -367.454 170.833C-344.175 166.634 -323.362 163.718 -308.561 164.551L-308.505 163.553C-323.44 162.712 -344.363 165.652 -367.632 169.849C-390.948 174.055 -416.563 179.514 -441.074 183.765C-465.562 188.013 -488.821 191.031 -507.286 190.347C-516.518 190.004 -524.52 188.737 -530.868 186.253C-537.209 183.772 -541.869 180.09 -544.48 174.926L-545.372 175.377ZM-308.561 164.551C-267.276 166.879 -241.263 188.91 -215.398 207.577C-202.479 216.9 -189.587 225.387 -174.869 230.07C-160.136 234.758 -143.598 235.626 -123.395 229.767L-123.673 228.807C-143.693 234.612 -160.027 233.743 -174.566 229.117C-189.121 224.486 -201.903 216.082 -214.813 206.766C-240.606 188.151 -266.869 165.901 -308.505 163.553L-308.561 164.551ZM-123.395 229.767C-104.735 224.36 -94.6472 219.503 -84.705 214.252C-74.7792 209.01 -65.0233 203.391 -46.9816 196.425L-47.3419 195.492C-65.4487 202.484 -75.2588 208.133 -85.1719 213.368C-95.0687 218.594 -105.093 223.423 -123.673 228.807L-123.395 229.767ZM-46.9818 196.425C1.02618 177.901 6.6131 176.742 52.7903 154.033L52.349 153.135C6.21741 175.822 0.670349 176.966 -47.3417 195.492L-46.9818 196.425ZM52.7902 154.033C96.2134 132.689 126.244 107.763 155.493 81.5629C184.745 55.3606 213.196 27.9035 253.508 1.41788L252.958 0.582123C212.568 27.1192 184.05 54.6407 154.826 80.818C125.6 106.998 95.6495 131.852 52.3491 153.135L52.7902 154.033ZM-308.597 164.548C-268.033 169.785 -242.121 170.347 -216.39 166.529C-190.676 162.714 -165.158 154.524 -125.406 142.299L-125.7 141.343C-165.486 153.579 -190.916 161.739 -216.537 165.54C-242.14 169.339 -267.95 168.787 -308.469 163.556L-308.597 164.548ZM-125.406 142.299C-82.1435 129.002 -51.4703 132.544 -21.5092 134.115C8.48096 135.686 37.7101 135.272 77.9095 113.953L77.441 113.07C37.466 134.27 8.44269 134.683 -21.4569 133.116C-51.3857 131.547 -82.2396 127.985 -125.7 141.343L-125.406 142.299ZM77.9095 113.953C87.345 108.949 95.8483 100.757 103.851 90.9797C111.856 81.2006 119.386 69.8017 126.861 58.3587C134.341 46.9067 141.765 35.4118 149.575 25.4003C157.386 15.3875 165.557 6.89356 174.514 1.42679L173.993 0.573208C164.885 6.13185 156.627 14.7347 148.786 24.7853C140.945 34.8372 133.496 46.3722 126.023 57.8119C118.545 69.2606 111.043 80.6151 103.078 90.3463C95.111 100.079 86.7073 108.155 77.441 113.07L77.9095 113.953ZM-144.093 1.50003C-115.329 1.50002 -94.29 18.4687 -74.6319 32.9418C-64.827 40.1606 -55.3499 46.7662 -45.4595 50.225C-35.5402 53.694 -25.2053 53.9985 -13.709 48.6408L-14.1313 47.7344C-25.3666 52.9704 -35.4291 52.6734 -45.1295 49.281C-54.8588 45.8785 -64.2236 39.363 -74.039 32.1365C-93.6216 17.7189 -114.937 0.500017 -144.093 0.500035V1.50003ZM-13.709 48.6408C5.16339 39.8457 27.966 33.1865 50.639 26.1505C73.2895 19.1215 95.8059 11.7174 114.015 1.43539L113.524 0.564614C95.4207 10.7866 73.0034 18.1632 50.3427 25.1954C27.7046 32.2206 4.81848 38.9032 -14.1313 47.7344L-13.709 48.6408ZM-20.0577 754.208C-13.8017 752.486 -6.95093 748.269 0.228271 744.324C7.44916 740.356 15.0433 736.635 22.9117 735.753L22.8002 734.759C14.7171 735.665 6.97009 739.478 -0.253296 743.447C-7.51849 747.439 -14.2151 751.563 -20.3231 753.244L-20.0577 754.208Z" fill="white"/>
</svg>
