<svg width="10" height="70" viewBox="0 0 10 70" fill="none">
<path d="M9.91827 62.6179C9.80351 62.4229 9.58529 62.3013 9.34794 62.3013L5.65208 62.3013L5.65208 0.611912C5.65208 0.274136 5.35996 -2.02823e-07 5.00002 -2.18556e-07C4.64009 -2.34289e-07 4.34796 0.274136 4.34796 0.611912L4.34796 62.3013L0.652103 62.3013C0.413884 62.3013 0.195662 62.4229 0.0817691 62.6179C-0.033862 62.8129 -0.0260381 63.0511 0.100026 63.2396L4.44795 69.7144C4.56792 69.8923 4.77571 70 5.00002 70C5.22433 70 5.43212 69.8923 5.5521 69.7144L9.90002 63.2396C9.96609 63.1401 10 63.0267 10 62.9132C10 62.8121 9.97218 62.7101 9.91827 62.6179Z" fill="currentColor"/>
</svg>
