<svg width="129" height="102" fill="none" xmlns="http://www.w3.org/2000/svg"><path d="m3.209 73.023 1.781-2.708 3.089.85-2.016-2.471 1.73-2.674L4.802 67.2l-2.079-2.467.177 3.203L0 69.038l3.026.8.183 3.185Zm-.423-11.93 2.255-2.34 2.883 1.426-1.512-2.8 2.198-2.3-3.152.586-1.57-2.828-.417 3.18-3.083.534 2.82 1.368-.422 3.174Zm1.861-11.815 2.65-1.84 2.569 1.932-.97-3.047 2.62-1.823-3.22-.04-1-3.07-1.027 3.058-3.123-.074 2.512 1.868-1.01 3.036ZM17.94 27.172l1.655 2.765.229-3.162 3.1-.742-2.952-1.236.211-3.214-2.072 2.438-2.878-1.253 1.628 2.69-2.067 2.421 3.146-.707ZM56.201 8.256l2.375-2.116L61.3 7.79l-1.285-2.978 2.376-2.162-3.17.294L58.024.046l-.702 3.064-3.152.317 2.752 1.667-.72 3.162ZM10.785 95.549l.64-3.185 3.18-.385-2.781-1.53.6-3.122-2.336 2.208-2.837-1.495 1.37 2.898-2.29 2.133 3.095-.403 1.359 2.88ZM25.89 18.944 27 21.98l.834-3.082 3.174-.11-2.672-1.782.828-3.133-2.495 1.984-2.592-1.754 1.073 2.955-2.472 1.973 3.214-.087Zm9.387-6.588.496 3.19 1.422-2.863 3.134.506-2.295-2.27 1.405-2.91-2.85 1.472-2.192-2.22.514 3.094-2.814 1.483 3.18.518Zm10.339-1.438 1.918-2.541 2.997 1.092-1.82-2.668 1.923-2.575-3.066.88-1.73-2.594-.091 3.145-3.049.891 3.026 1.133-.108 3.237ZM5.133 81.59l.776 3.093 1.233-3.019 3.215.236-2.455-2.03 1.187-2.955-2.706 1.725-2.506-2.024.788 3.116-2.655 1.645 3.123.213Zm3.585-43.495 2.952-1.316 2.14 2.409-.365-3.174 2.895-1.293-3.134-.644-.4-3.214-1.593 2.788-3.043-.667 2.101 2.334-1.553 2.777Zm91.953-19.553.822 3.081 1.147-3.012 3.198.086-2.484-2.006 1.131-2.927-2.621 1.73-2.466-2 .81 3.14-2.7 1.764 3.163.144Zm5.007 7.037 3.089.73.211 3.191 1.678-2.754 3.135.719-2.061-2.45 1.661-2.656-2.889 1.19-2.061-2.426.211 3.237-2.974 1.219ZM91.274 12.413l1.387 2.857.537-3.168 3.168-.511-2.815-1.5.543-3.088-2.232 2.207-2.815-1.483 1.387 2.927-2.29 2.248 3.13-.49Zm23.967 23.1-.383 3.157 2.181-2.374 2.929 1.305-1.57-2.8 2.141-2.282-3.066.626-1.564-2.806-.4 3.22-3.14.615 2.872 1.34ZM77.879 9.28l3.003-1.075 1.902 2.57-.086-3.248 3.026-1.098-3.054-.931-.057-3.145-1.776 2.593-3.032-.926 1.924 2.616-1.85 2.644ZM126.1 67.35l.222-3.197-2.106 2.49-2.975-1.225 1.707 2.679-2.038 2.46 3.106-.805 1.753 2.709.205-3.203 3.026-.753-2.9-1.156Zm-2.13 13.66 3.123-.15-2.62-1.707.793-3.082-2.523 2.03-2.689-1.771 1.176 2.984-2.484 2 3.215-.19 1.21 2.99.799-3.104Zm-6.177 10.826.605 3.185 1.393-2.892 3.089.448-2.267-2.167L122 87.534l-2.866 1.5-2.323-2.253.588 3.122-2.786 1.506 3.18.426Zm-78.468-20.1c-.245-.201-3.26 2.886-5.23 5.042-.696.748-1.147 1.455-1.415 1.788 0 0-.868 1.443-1.33 2.053-.469.61-1.628 2.328-2.142 3.076-.177.247-.633 1.334-1.53 2.46-.445.564-.896 1.3-1.77 2.427-1.164 1.506-2.043 2.742-1.844 2.91.115.08 1.827-2.008 3.666-4.25.765-.937 1.593-1.897 2.295-2.811.342-.443 1.13-1.185 1.387-1.564.451-.673.943-1.184 1.136-1.346 1.022-.839 1.599-.902 1.93-1.38.154-.235 2.18-3.305 2.917-4.553.674-1.178 2.335-3.484 1.93-3.852Zm85.713-19.456-1.587 2.823-3.146-.62 2.186 2.328-1.524 2.776 2.889-1.38 2.226 2.317-.393-3.196 2.832-1.311-3.084-.575-.399-3.162Zm-7.736-8.354 2.586 1.846-.982 3.047 2.57-1.926 2.654 1.857-1.016-3.059 2.529-1.84-3.111.03-1.011-3.037-1.01 3.076-3.209.006ZM67.089 7.715l2.74-1.626 2.353 2.121-.69-3.15 2.733-1.65-3.168-.334L70.417 0l-1.255 2.88-3.152-.304 2.386 2.173-1.307 2.967Zm.411 56.051c.297.88 1.4 6.066 1.719 7.141.33 1.07.662 1.127.845 1.547.639 1.615 1.558 1.678 2.032 1.81 1.325.409 1.433 2.197 2.278 3.795.788 1.495 1.53 2.84 2.227 4.473.696 1.633 4.259 10.476 4.87 11.82.205.49 1.9.49 1.718 0-.428-.97-1.404-3.414-2.01-5.852-.382-1.58 1.085-.46.149-2.995-.434-1.162-1.256-2.317-1.718-2.789-.474-.465-.931-2.472-1.29-3.37-.383-.873-.19-.919-.977-3.029-.588-1.54 1.062-1.023.137-3.398-.6-1.546-3.648-7.135-4.002-7.71-.171-.316-.76-1.282-1.485-2.426-.685-1.087-1.25-2.248-1.575-2.754-.634-1.023-1.799-3.266-2.455-4.197-.65-.937-1.462-2.995-1.799-2.65-.33.304.982 3.392 1.519 5.358.565 1.96.154 2.76-.183 3.317-.314.553-.314.92 0 1.91Zm20.685 16.006c.896 1.501 1.136 1.202 1.507 1.22.845.023 2.735 2.07 3.112 2.627.36.563 3.402 3.616 4.184 4.364.343.327 2.752 4.248 3.06 3.967.326-.282-.924-2.185-1.113-2.61-.17-.414-.868-1.03-1.205-1.92-.313-.874-1.746-3.077-2.214-3.772-.463-.702-1.217-2.254-2.039-3.237-.76-.863-.154-1.098-.936-1.857a93.128 93.128 0 0 0-2.278-2.041 198.375 198.375 0 0 0-2.21-1.966c-.685-.587-2.329-1.737-2.272-2.473.023-.753-.337-2.184-.89-2.662-.4-.345-1.576-2.253-2.923-3.357-.68-.575-2.13-2.093-3.249-3.41-1.045-1.253-1.833-2.397-2.073-2.236-.353.23 1.217 2.438 1.376 2.702.166.253 1.981 3.415 2.153 4.243.188.84 3.574 6.577 4.299 8.36.416 1.04 2.734 2.431 3.71 4.058Zm14.787 5.549c.114-.138-.212-.564-.388-.885-.195-.323-1.348-1.61-1.565-1.973-.188-.339-1.684-2.483-2.21-3.185-.936-1.207-.08-1.65-.57-2.397-.2-.328-1.4-1.783-2.792-3.22-.72-.719-1.519-1.414-2.198-2.03-1.102-.988-1.935-1.724-2.072-1.603-.195.195.456.982.736 1.345.28.344.72.983 1.302 1.678.941 1.133.068 1.99.97 2.892.148.15 2.638 2.955 3.249 3.473.907.816 4.15 4.692 4.379 4.904.382.363 1.05 1.139 1.159 1.001ZM51.646 66.928c.182-.39.748-1.598.719-2.08 0-.087-.211-.236-.388-.058-.834.828-2.53 3.783-3.174 4.116-1.45.707-2.084 2.42-2.518 3.1-.309.5-.708 1.31-1.4 2.328-.604.88-1.295 2.196-1.552 2.65-.251.477-.343.914.126.914.468 0 .102.77-.469 1.616-.325.494-1.13 2.863-1.364 3.507-.308.793-.263 1.805-.371 2.144-.109.317-1.644 3.611-2.044 4.341-.251.46-.177.644-.274.897-.143.316.034.408.274.178.291-.293 1.935-2.806 2.438-3.104.49-.31.942-.77 1.016-1.852.074-1.08.77-1.374 1.29-2.006.543-.627 1.256-1.466 1.639-2.346.36-.908.822-.218 1.656-1.57.833-1.362 2.706-4.72 3.134-5.37.41-.65.108-1.586.057-2.362-.023-.408.034-1.415.274-2.484.24-.954.68-1.926.93-2.559Zm7.17-25.653c.691 0 1.702-1.27 2.25-2.375.565-1.195.85-1.868 1.558-3.398.029-.08-.04-.08-.114-.08-.805 0-1.69.828-2.255 1.495-.668.828-1.764 2.386-1.93 3.507-.12.604.143.85.492.85Zm17.836 1.075c.788.402 1.764-1.346 2.615-2.938.845-1.604 1.519-3.593.805-3.84-.805-.328-1.827 1.235-2.678 2.834-.84 1.598-1.478 3.587-.742 3.944Zm-30.47-1.075c.708 0 1.696-1.27 2.267-2.375.56-1.195.856-1.868 1.541-3.398.034-.08-.034-.08-.097-.08-.81 0-1.696.828-2.255 1.495-.668.828-1.776 2.386-1.941 3.507-.12.604.165.85.485.85ZM38.44 26.827c5.481.258 8.707 2.966 8.707 5.87-.006 5.191-8.181 6.077-8.181 6.077-1.422 7.192-7.086 9.935-11.008 9.895-5.264-.04-5.184-4.335-5.007-4.887.223-.639.548-1.22 1.21-1.22.657 0 1.205.541 1.205 1.22 0 .408-.2.793-.548.994-.69.431-.56.972-.56.972 0 2.282 2.93 2.46 3.7 2.46 7.839 0 6.937-13.005 13.85-17.426.315-.212.56 0 .366.219-2.158 2.725-2.969 7.117-2.969 7.117 3.335 0 5.538-3.196 5.538-5.421 0-3.812-3.408-5.393-6.303-5.393-8.072 0-11.578 5.68-11.578 8.773 0 3.1 1.941 4.22 3.346 4.22 1.958 0 2.569-1.316 2.33-1.96-.39-1.012.148-1.857.753-1.857.24 0 1.045-.04 1.045 1.386 0 1.374-1.936 2.76-4.077 2.76-2.112 0-5.2-1.15-5.2-4.549-.001-6.887 8.414-9.503 13.381-9.25Zm13.594 8.417c-.874 1.99-1.519 3.415-2.324 5.295-.068.178-.131.489.035.603.148.07.32.07.416 0 1.034-.5 1.941-1.713 2.655-3.093l1.273-2.828h1.793l-.491 1.069c-.04.057-.04.092 0 .057.56-.425 1.147-1.063 1.867-1.46.28-.132.947-.132.879.334-.034.413-.348.73-.525 1.127-.103.252-.212.569-.177.741.074.19.28.293.56.08.279-.178.496-.322.753-.534a7.242 7.242 0 0 1 1.644-1.184c1.273-.593 3.003-.978 4.27-.167-.885 1.995-1.552 3.478-2.397 5.358-.154.322-.029.426.074.5.108.07.314.104.6-.051.696-.293 1.929-1.679 2.42-2.754.468-1 .89-1.99 1.387-3.116h1.845l-.514 1.092.074.035c.491-.455 1.775-1.49 2.723-1.271.526.11.782.742.743 1.213.599-.443 1.215-.971 2.106-1.19 1.273-.316 1.77.575 1.376 1.432-.497 1.173-1.479 3.472-2.044 4.657-.068.12-.068.385 0 .443.143.114.394 0 .502-.058.634-.546.983-.897 1.473-1.598.137-1.242.805-2.386 1.73-3.34.982-1.099 2.535-1.956 4.025-1.45.52.173.874.708 1.017 1.237.068.281.137.425.137.747.782.575 1.804-.362 2.22-1.064.115-.287.258-.603.326-.822.445.035 1.319 0 1.838 0l-2.3 5.295c-.149.31-.183.489-.183.73 0 .196.211.23.434.196.633-.115 1.667-1.368 2.186-2.42.583-1.317 1.16-2.415 1.73-3.726h1.862c-.743 1.77-1.582 3.657-2.187 5.036-.143.282-.308.57-.217.96.074.184.32.15.474.081.805-.471 2.192-2.024 2.672-2.984.502-1.138.873-1.99 1.398-3.093h1.913l-.457 1.104c.714-.57 1.479-1.179 2.398-1.328.423-.058.948-.035 1.194.402.285.495.114 1.018-.098 1.495-.525 1.207-1.136 2.518-1.661 3.685-.097.288-.126.558.063.673.29.184 1.627-.638 2.306-2.133.588-1.311.988-2.087 1.513-3.363h-.982l.274-.575h.988l1.41-3.088h1.902l-1.371 3.087h1.433l-.268.576h-1.41c-.811 1.73-1.49 3.19-2.198 4.823-.274.558-.56 1.495-.411 2.064.108.317.496.397.85.276 1.085-.38 1.827-1.31 2.461-2.305.034-.11.611-.035.565.046-.748 1.483-2.363 2.984-3.91 2.943-.463 0-.966-.287-1.24-.684a2.174 2.174 0 0 1-.285-.627c-.097-.402-.068-.856 0-1.287-.84.644-1.644 1.42-2.706 1.638-.463.07-1.056-.103-1.165-.603a2.198 2.198 0 0 1 .109-1.173 115.473 115.473 0 0 0 1.895-4.3c.052-.07 0-.323-.074-.357-.103-.098-.417-.098-.696.115-1.302.989-1.97 2.27-2.53 3.581-.4.88-.827 1.771-1.244 2.634h-1.873c.217-.53.531-1.242.777-1.817 0-.034-.035-.034-.035 0-.77.77-1.764 1.656-2.74 1.92-.394.104-.788-.028-.988-.402-.222-.35-.285-.874-.097-1.351 0-.023-.017-.023-.057 0-.696.719-1.376 1.35-2.312 1.679-1.068.327-2.027-.426-1.353-1.99.183-.42.714-1.598 1.296-3.012-.485.2-1.08.2-1.399.103-.04 0-.04 0-.04.035-.411 1.983-1.581 3.788-3.38 4.65-.879.432-1.878.541-2.752-.063-.422-.281-.673-.971-.707-1.57-.908.927-1.942 2.093-3.346 1.892-.211-.046-.388-.235-.497-.43-.32-.535-.132-1.11.069-1.57.674-1.415 1.227-2.737 1.9-4.33.11-.224-.194-.385-.41-.281-.668.322-1.08.644-1.45 1.218-.2.311-.4.667-.56 1.006-.623 1.363-1.273 2.777-1.838 4.151h-1.913c.857-1.937 1.662-3.823 2.506-5.737.08-.178.035-.431-.068-.489-.166-.092-.468.058-.662.173a3.767 3.767 0 0 0-1.165 1.282c-.32.529-.61 1.058-.834 1.633l-1.427 3.139h-1.867c.183-.414.531-1.242.742-1.656 0-.034-.034-.063-.034-.034-1.022.85-2.33 1.954-3.283 1.77-.32-.034-.593-.316-.668-.603a2.283 2.283 0 0 1 .035-.99c0-.04-.035-.04-.074 0-.817.783-1.548 1.427-2.575 1.674-.588.132-1.142-.247-1.33-.684-.263-.489-.326-1.276.096-2.168.252-.569.526-1.167.874-1.661-.206.109-.622.143-.908.109-.24-.035-.497-.224-.622-.408-.149-.161-.183-.483-.183-.696.034-.04-.074-.04-.148 0-.56.454-.81.995-1.09 1.593l-1.622 3.697H50.84l.702-1.57c.035-.029 0-.063-.034-.029-.993.886-2.18 1.892-3.14 1.702-.274-.046-.565-.322-.634-.598-.068-.333-.04-.69 0-1h-.068c-.777.782-1.519 1.414-2.53 1.632-.576.184-1.096-.166-1.319-.66-.28-.725-.176-1.461.075-2.145.73-1.926 2.084-3.3 3.91-4.341 1.16-.667 2.964-.868 4.23-.207ZM11.042 64.99c0 8.124 2.14 17.277 5.96 24.785 6.903-6.485 25.012-27.067 27.09-29.46 3.158-3.639 4.522-1.322 6.218-3.357.908-1.115 1.438-1.54 1.838-1.765.651-.39 1.393-1.322 1.764-1.598.371-.282 1.21-1.403 1.862-1.967.656-.557 1.94-1.402 3.248-2.518 1.302-1.127 3.517-3.737 5.932-3.737 2.872 0 4.07 1.96 4.328 2.196.205.225 1.975 1.8 2.26 2.099.314.356 2.21 1.863 3.237 1.863 1.017 0 1.77 1.12 2.319 1.679 1.216 1.115 6.24 6.433 7.89 7.56.736.511 1.433.42 1.98.851.566.42.846.69 1.165.788.309.086 1.388-.19 2.644 1.391.582.402.736.472.736.472s1.707 1.558 2.318 2.656c.554.948 13.28 17.972 17.836 24.061a54.004 54.004 0 0 0 6.64-26.01c0-29.845-24.025-54.01-53.644-54.01-29.62.017-53.621 24.193-53.621 54.02ZM108.55 98.2v.603h1.159V102h.736v-3.197h1.153V98.2h-3.048Zm6.954 0-1.023 2.696-1.05-2.697h-1.056V102h.685v-2.973h.017l1.142 2.973h.508l1.119-2.973h.029V102h.679v-3.8h-1.05Z" fill="#211E1E"/></svg>