<svg width="446" height="53" fill="none" xmlns="http://www.w3.org/2000/svg"><path d="M6.995 29.762c-.785 0-1.44-.647-1.44-1.432V7.781c0-.78.65-1.432 1.44-1.432h9.21c6.703 0 12.11 4.167 12.374 11.112-.26 7.091-5.67 12.305-12.297 12.305l-9.287-.004ZM4.037 50.91c.692 0 1.481-.352 1.518-.97V35.287c0-.78.65-1.432 1.44-1.432h11.158c8.518 0 15.58-6.533 15.58-15.452l-.02-.486.02-.485c0-8.786-7.058-15.266-15.65-15.266H2.102a1.469 1.469 0 0 0-1.024.419c-.273.268-.43.631-.436 1.013v45.774c0 .95.935 1.525 1.74 1.525l1.656.012ZM86.616 2.175H58.29a1.468 1.468 0 0 0-1.024.419c-.274.268-.43.631-.436 1.013V49.38c0 .801.65 1.432 1.464 1.432H86.62c.785 0 1.44-.63 1.44-1.432v-.97c0-.781-.651-1.433-1.44-1.433H63.27c-.805 0-1.464-.63-1.464-1.432V29.245c0-.801.65-1.432 1.464-1.432h19.957c.785 0 1.44-.648 1.44-1.432v-.073c0-.15 0 0 .02-.372l-.02-.526v-.073c0-.801-.65-1.432-1.44-1.432H63.27c-.805 0-1.464-.631-1.464-1.432V7.526c0-.8.65-1.432 1.464-1.432h23.35c.785 0 1.44-.647 1.44-1.432V3.62c0-.781-.651-1.432-1.44-1.432l-.004-.012ZM117.52 28.33a1.47 1.47 0 0 1-1.025-.419 1.455 1.455 0 0 1-.436-1.013V7.725c0-.801.651-1.432 1.465-1.432h11.439c6.533 0 11.158 4.134 11.439 10.355-.285 6.497-4.906 11.73-11.382 11.73l-11.5-.048Zm-2.828 22.491c.806 0 1.31-.404 1.31-.873V33.864c0-.78.635-1.432 1.44-1.432h11.496c.468.057.895.316 1.139.728l9.478 16.848c.338.615.619.817 1.44.817h3.633s1.481 0 .317-2.196l-9.193-16.047c-.407-.78.675-1.153.675-1.153 5.484-1.768 9.714-8.434 9.491-14.967.162-5.259-2.376-10.501-9.324-13.292-.354-.15-2.644-.987-6.533-.987h-18.086a.855.855 0 0 0-.899.873V49.39c0 .801.651 1.432 1.464 1.432h2.152Zm59.4-.008h.691c.692 0 1.123-.404 1.123-.874V31.065c0-.78.651-1.416 1.44-1.416h20.576c1.049 0 .895-1.23.895-1.99.02-.352 0-.688 0-.97a.9.9 0 0 0-.895-.89h-20.576c-.785 0-1.44-.632-1.44-1.433V7.518c0-.8.651-1.432 1.44-1.432h23.419c.785 0 1.44-.647 1.44-1.432V3.611c0-.781-.651-1.432-1.44-1.432H172.44a1.469 1.469 0 0 0-1.024.419 1.45 1.45 0 0 0-.436 1.013v45.774c0 .801.651 1.432 1.464 1.432h.692l.956-.004Zm50.377-30.957c.364-.957.802-1.885 1.31-2.775l-1.628-1.473c6.346-7.556 14.621-9.83 21.939-8.506 1.497.202 2.994.558 4.474 1.1 10.483 3.871 15.784 15.36 11.85 25.67a21.425 21.425 0 0 1-1.403 2.925l1.777 1.509c-7.037 8.284-16.418 10.201-24.224 7.888l-2.245-.672c-10.463-3.871-15.784-15.36-11.85-25.67v.004ZM260.266 2.17l-3.661 3.478a26.917 26.917 0 0 0-3.946-1.82c-11.906-4.393-24.407.579-31.355 9.83-3.612 5.307-5.748 11.84-5.223 18.559 0 0 .02 12.64 11.797 20.088l2.977-4.057a28.132 28.132 0 0 0 4.158 1.953c13.477 4.976 28.418-1.375 33.304-14.166 0 0 3.579-7.799 2.44-16.326 0 0-.915-11.504-10.352-17.535l-.139-.004Zm36.961 26.16a1.469 1.469 0 0 1-1.024-.42 1.451 1.451 0 0 1-.436-1.013V7.725c0-.801.651-1.432 1.464-1.432h11.439c6.533 0 11.159 4.134 11.439 10.355-.285 6.497-4.906 11.73-11.382 11.73l-11.5-.048ZM294.4 50.82c.806 0 1.31-.404 1.31-.873V33.864c0-.78.651-1.432 1.44-1.432h11.496c.468.057.895.316 1.139.728l9.454 16.848a1.347 1.347 0 0 0 1.464.817h3.633s1.48 0 .317-2.196l-9.193-16.047c-.407-.78.675-1.153.675-1.153 5.483-1.768 9.714-8.434 9.49-14.967.163-5.259-2.375-10.501-9.323-13.292-.354-.15-2.644-.987-6.533-.987h-18.074a.862.862 0 0 0-.642.24.839.839 0 0 0-.257.633V49.39c0 .801.651 1.432 1.464 1.432h2.14Zm97.52-9.797c.561.502 1.721 1.768.541 2.698-5.15 4.045-10.747 6.61-16.906 6.61-.301 0-.582-.02-.863-.04l-.805.04c-13.851 0-25.067-10.76-25.067-24.461l.021-.485-.021-.486c0-13.632 11.216-24.594 25.067-24.594l.618.02 1.05-.02c7.058 0 12.317 2.305 16.829 6.33 1.403 1.214.073 2.217.073 2.217l-1.066 1.011c-.407.405-1.554 1.303-2.034.817l-.805-.744.805.745-.805-.745c-3.743-3.297-8.441-5.34-13.758-5.542a21.515 21.515 0 0 0-20.799 21.035c.26 11.225 9.234 20.42 20.779 20.849 5.54-.203 9.763-2.44 13.778-5.68 0 0 1.708-1.302 3.409.465l-.041-.04Zm52.252-38.809h-28.325a1.469 1.469 0 0 0-1.024.42c-.273.267-.43.63-.436 1.012v45.775c0 .8.651 1.432 1.464 1.432h28.325c.806 0 1.465-.631 1.465-1.432v-.971a1.455 1.455 0 0 0-.436-1.013 1.469 1.469 0 0 0-1.025-.42h-23.35c-.805 0-1.464-.63-1.464-1.431V29.285c0-.8.651-1.432 1.464-1.432h19.958c.785 0 1.44-.647 1.44-1.432v-.113c0-.15 0 0 .02-.372l-.02-.526v-.073c0-.801-.651-1.432-1.44-1.432H420.83c-.805 0-1.464-.631-1.464-1.432V7.526c0-.8.651-1.432 1.464-1.432h23.35a1.47 1.47 0 0 0 1.025-.419c.273-.268.429-.631.436-1.013V3.62a1.455 1.455 0 0 0-.436-1.013 1.47 1.47 0 0 0-1.025-.42" fill="#fff"/></svg>