<svg width="1920" height="884" fill="none" xmlns="http://www.w3.org/2000/svg"><rect width="1905.54" height="816.818" rx="4" transform="matrix(.9994 -.0349 .05415 .99853 -21 67.537)" fill="#2B2B38"/><mask id="a" style="mask-type:alpha" maskUnits="userSpaceOnUse" x="-19" y="1" width="1944" height="883"><rect width="1905.79" height="816.623" rx="4" transform="matrix(.9994 -.0349 .04767 .99886 -18.479 67.504)" fill="#2B2B38"/></mask><g mask="url(#a)" fill="#363647"><path d="M91.693 743.209l.321-.384-.033-.027-.037-.022-.25.433zm217.642-29.804l-.155.475.001.001.154-.476zm6.968 3.058l.152-.477h-.001l-.151.477zm-165.454-58.188l.222-.448-.222.448zm179.954-66.293l-.15.477.014.005.014.003.122-.485zM1462.12 709.431l.13.481.03-.007.02-.011-.18-.463zm2.65-1.008l.19.465-.19-.465zm201.88-12.608l.24.443-.24-.443zm190.41-52.411l-.28-.417.28.417zm17.41-10.324l.28.413-.28-.413zm-1420.407-5.793l-.067.496.035.004h.034l-.002-.5zm479.263-.377l.069.495-.069-.495zm179.564 64.623l-.11-.487.11.487zm100.62-11.349l.14.481-.14-.481zm71.19-17.392l-.16-.475.16.475zm159.11-83.456l-.21-.457.21.457zm214.23 21.979l-.24-.434.24.434zm11.21-5.18l-.25-.432.25.432zm211.96-71.997l-.3-.401v.001l.3.4zM108.733 586.099l-.241.438.241-.438zm204.283-55.271l-.136.481.136-.481zm508.055-11.068l-.056-.497.056.497zm107.543 32.67l-.086-.493.086.493zm177.646 40.18l-.13-.483.13.483zm143.27-106.099l.17.468-.17-.468zm147.74-27.555l.22.452-.22-.452zm26.64-9.226l-.23-.449.23.449zm206.52-22.196l.27.422-.27-.422zm120.27-14.586l.29.404-.29-.404zm127.65-16.349l.32.385-.32-.385zM288.726 497.877l.133-.482-.133.482zm155.185 31.63l.057-.497-.057.497zM612.21 515.36l.018.5-.018-.5zm166.949-65.142v-.5h-.028l-.028.004.056.496zm377.731-78.016l-.17-.469.17.469zm60.64-43.76l-.19-.461.19.461zm160.31-62.627l.24.439-.24-.439zm123.07 1.834l.27.423-.27-.423zm107.5 6.745l-.28-.409.28.409zm223.08-35.126l-.33-.374.33.374zm21.54-17.123l.34.368-.34-.368zM8.152 187.062l.475.157-.475-.157zm9.072 166.676l-.464.186.464-.186zm76.627 129.751l.278-.416-.278.416zm160.767-6.223l-.156.475.156-.475zm39.223-1.205l-.131.482.131-.482zm160.24 1.996l-.046.498.046-.498zm320.388 22.123l.072.494-.072-.494zm221.834-31.492l.025.5-.025-.5zm85.987-100.561l-.17-.472.17.472zm121.25-140.633l.21.453-.21-.453zm84.61-28.22l.24.441-.24-.441zm86.96-16.619l.26.428-.26-.428zm264.7 34.695l.31.395-.31-.395zm6.99-4.928l-.31-.394v.001l.31.393zm200.52-111.279l-.36-.352v.001l.36.351zm18.06-27.429l.36.344-.36-.344zm35.9-250.149l-.41-.293.41.293zM26.957 185.317l-.49-.097.49.097zM68 359.368l.382-.322-.382.322zm34.147 39.569l-.311.391.311-.391zm192.131 11.853l.132-.483-.132.483zm158.711-6.655l.036-.499-.036.499zm159.221 43.118l.033.499-.033-.499zm168.044 18.268l.089.492-.089-.492zm178.487.234l-.138-.481h-.001l.139.481zm121.599-180.166l-.18-.465.18.465zm43.32-45.415l.2.459-.2-.459zm73.06-105.218l.23.444-.23-.444zm198.19-18.094l.27.416-.27-.416zm22.39-8.309l.28.412-.28-.412zm277.35 50.774l.32.38-.32-.38zm68.69-49.713l.34.365-.34-.365zm25.62-199.087l-.38-.331.38.331zM99.71 319.637l.365-.34v-.001l-.366.341zm70.459 27.249l-.262.426h.001l.261-.426zm126.219-8.076l.135-.481-.135.481zm156.765-38.742l.026-.499-.026.499zm180.054 91.44l.077.494-.077-.494zm316.551 17.501l.058.497.051-.006.048-.016-.157-.475zm135.472-177.361l-.2-.457.2.457zm121.66-147.233l-.25-.435.25.434zm58.09-15.467l-.26-.43.26.43zm170.42 0l.3.404-.3-.404zm160.86 16.008l.32.384-.32-.384zm101.3-52.052l.34.364-.34-.364zm27.21-168.492l.37.336-.37-.336zM101.002 16.627l.499.042-.499-.042zM69.146 196.38l-.485.122.485-.122zm9.278 25.72l.462-.193-.462.193zm219.62 44.785l.142-.479-.142.479zm118.178-54.444l-.042.499.042-.499zm253.907 280.146l-.063-.496-.039.005-.038.011.14.48zm138.607-62.285l-.123-.485.123.485zm168.216-95.376l-.175-.469.175.469zM1098.93 154.04l.22.449-.22-.449zm5.7-3.13l.22.45v-.001l-.22-.449zM1234.1 18.281l.27.424-.27-.424zm160.93 2.842l-.29-.402.29.402zm66.75-31.835l-.31-.39.31.39zm173.16-88.76l-.35-.357.35.356zM139.164 138.463l-.379.325.379-.325zM301.74 190.28l-.158.475.158-.475zm147.741-67.555l-.009.5.009-.5zm358.902 199.627l-.141-.48.141.48zm135.952-62.969l.183.465-.183-.465zm34.839-15.882l-.192-.462v.001l.192.461zM1117.46 94.199l.23.44-.23-.44zM1219.1-7.62l.27.42-.27-.42zm38.98-39.55l.29.41-.29-.41zM211.376-109.887l-.465-.182-.005.012-.004.012.474.158zm95.529 222.954l-.185.464.185-.464zm11.48 2.284l-.163.473h.001l.162-.473zM447.497 39.29l.003-.5-.003.5zm189.529 275.473l-.091-.492h-.001l.092.492zm36.003-10.738l.106.489h.001l-.107-.489zm133.515-80.739l-.158-.474.158.474zm163.35-96.639l-.21-.453.21.453zm114.976-79.552l-.24-.437.24.438zm46.37-28.831l.26.43-.26-.43zm139.79-153.852l-.3-.399.3.399zm36.55-22.555l.31.393v-.001l-.31-.392zM195.077 25.367l.362-.345-.006-.006-.006-.006-.35.357zM230.37 65.17l-.301.4.301-.4zm75.281-14.28l.232-.444-.232.443zm140.883-82.25v-.5.5zm190.657 252.432l-.105-.488.105.488zM789.644 87.041l.175.469-.175-.469zm110.429-40.253l-.21-.454.21.454zm64.892-24.946l-.227-.446.227.446zM1128.02-88.304l-.27-.42.27.42zm52.18-49.372l.29.41-.29-.41zm-975.64-87.15l.475-.154-.475.154zM446.913-92.064l.002-.5-.002.5zm187.692 212.163l-.118-.486.118.486zm55.177-35.684l.146.478-.146-.478zm97.767-88.798l-.191-.462.191.462zm170.518-80.289l-.243-.436h-.001l.244.436zm74.793-45.99l.26.425-.26-.425zM634.791 34.903l.13.483-.13-.483zm165.461-96.782l.206.455-.206-.456zm81.866-54.336l.235.441-.235-.441zM632.769-55.75l-.139-.48.139.48zm76.372-33.329l-.18-.466.18.466zm99.731-42.374l-.22-.449.22.449zm-178.123-11.763l-.147-.478.147.478zm203.229-28.31l.234.442-.234-.442zm-91.595-65.324l-.212-.453.212.453zm-6.403 705.056a.5.5 0 00.265.965l-.265-.965zm-751.464 306.65c3.333 2.336 4.836 3.116 6.344 3.881 1.477.75 2.954 1.481 6.27 3.732l.561-.828c-3.361-2.281-4.877-3.034-6.379-3.796-1.47-.746-2.933-1.503-6.222-3.808l-.574.819zm11.477-19.001c3.93 2.738 7.02 4.226 9.704 5.071 2.683.845 4.937 1.039 7.158 1.211 2.221.172 4.404.323 7.025 1.061 2.619.736 5.694 2.064 9.658 4.61l.54-.841c-4.031-2.589-7.196-3.964-9.927-4.732-2.73-.768-5.006-.923-7.219-1.095-2.214-.172-4.369-.359-6.935-1.168-2.566-.808-5.566-2.244-9.432-4.938l-.572.821zm-9.854-17.421c10.257 7.413 19.308 9.878 27.8 9.772 8.47-.106 16.347-2.772 24.231-5.537 7.907-2.773 15.822-5.646 24.471-6.271 8.628-.624 18.004.989 28.802 7.243l.5-.865c-10.969-6.354-20.544-8.014-29.374-7.376-8.807.637-16.852 3.563-24.73 6.325-7.9 2.771-15.63 5.377-23.912 5.481-8.259.104-17.103-2.283-27.203-9.582l-.585.81zm105.233 5.158c24.136 20.212 45.631 24.544 64.341 28.267 18.7 3.721 34.512 6.822 47.632 24.403l.801-.598c-13.373-17.92-29.553-21.068-48.238-24.786-18.676-3.716-39.96-8.01-63.894-28.053l-.642.767zm74.188-79.18c40.448 19.779 54.934 25.188 70.042 29.133 15.085 3.939 30.717 6.402 73.578 20.335l.31-.951c-42.899-13.945-58.602-16.426-73.635-20.352-15.009-3.918-29.421-9.291-69.856-29.064l-.439.899zm143.621 49.469c2.095.678 2.727 1.083 3.365 1.483.706.442 1.417.878 3.605 1.575l.303-.953c-2.105-.67-2.74-1.07-3.376-1.469-.703-.441-1.409-.882-3.589-1.588l-.308.952zm6.97 3.058c39.004 12.43 54.143 32.204 70.875 48.982 8.374 8.395 17.152 16.043 29.509 21.584 12.356 5.54 28.253 8.958 50.849 8.958v-1c-22.495 0-38.244-3.402-50.439-8.87-12.194-5.468-20.872-13.017-29.211-21.379-16.691-16.735-32.001-36.711-71.279-49.228l-.304.953zm-331.627-69.061c10.889 7.301 23.847 10.16 37.844 10.727 13.993.567 29.069-1.156 44.21-3.055 15.158-1.901 30.38-3.978 44.726-4.141 14.345-.162 27.766 1.59 39.323 7.314l.444-.896c-11.757-5.824-25.358-7.581-39.778-7.417-14.418.163-29.706 2.25-44.84 4.148-15.149 1.9-30.146 3.611-44.045 3.048-13.895-.563-26.648-3.399-37.327-10.559l-.556.831zm166.103 10.845c20.251 10.035 36.352 9.203 50.433 2.681 14.034-6.5 26.024-18.638 38.105-31.091 12.11-12.483 24.32-25.291 38.849-33.314 14.495-8.004 31.305-11.245 52.639-4.54l.3-.954c-21.61-6.792-38.703-3.51-53.423 4.618-14.685 8.11-27.002 21.041-39.083 33.493-12.108 12.481-23.972 24.472-37.807 30.88-13.787 6.386-29.57 7.241-49.569-2.669l-.444.896zm180.054-66.256c67.393 16.85 96.527 67.649 119.018 114.404 11.231 23.348 20.827 45.739 32.709 62.267 11.903 16.557 26.164 27.325 46.753 27.325v-1c-20.151 0-34.147-10.503-45.941-26.909-11.815-16.434-21.355-38.697-32.62-62.117-22.504-46.781-51.81-97.972-119.676-114.94l-.243.97zm927.539 203.976c42.61-12.304 60.97-24.836 84.98-38.828 23.99-13.975 53.69-29.448 119.05-47.703l-.27-.963c-65.45 18.278-95.22 33.786-119.28 47.802-24.03 13.998-42.28 26.466-84.76 38.731l.28.961zm204.08-86.549c.64-.257.97-.376 1.31-.496.34-.122.68-.246 1.35-.51l-.37-.929c-.65.258-.99.377-1.32.497-.34.123-.69.247-1.34.511l.37.927zm2.66-1.006c42.01-16.756 72.25-9.44 102.13-3.136 29.91 6.31 59.45 11.597 99.8-9.494l-.47-.886c-40.03 20.925-69.27 15.699-99.12 9.401-29.89-6.304-60.4-13.692-102.71 3.186l.37.929zm201.93-12.63c39.07-20.441 68.18-21.325 96.79-23.195 28.64-1.873 56.75-4.738 93.65-29.243l-.55-.833c-36.69 24.364-64.6 27.21-93.17 29.078-28.61 1.87-57.91 2.758-97.19 23.307l.47.886zm190.44-52.437c3.83-2.54 6.25-3.813 8.69-5.104 2.44-1.296 4.89-2.61 8.73-5.224l-.56-.826c-3.8 2.584-6.21 3.878-8.64 5.167-2.44 1.295-4.9 2.585-8.77 5.153l.55.834zm17.42-10.328c10.44-7.112 20.33-13.057 29.79-18.138l-.47-.881c-9.5 5.098-19.41 11.061-29.88 18.193l.56.826zM133.771 594.942c26.678 13.925 49.683 8.874 72.957 2.914 23.291-5.963 46.839-12.828 74.89-2.886l.334-.943c-28.382-10.058-52.228-3.091-75.472 2.861-23.259 5.956-45.929 10.904-72.246-2.833l-.463.887zm536.382-81.502c20.889-1.019 42.544 6.27 64.615 17.649 22.071 11.379 44.5 26.818 66.945 42.049 22.43 15.222 44.875 30.236 66.929 40.718 22.054 10.482 43.774 16.459 64.753 13.549l-.138-.991c-20.7 2.872-42.211-3.017-64.186-13.461-21.974-10.444-44.356-25.414-66.797-40.642-22.426-15.22-44.912-30.698-67.048-42.111-22.134-11.412-43.976-18.79-65.121-17.758l.048.998zm263.242 113.965c41.957-5.821 65.927 14.913 89.895 34.905 11.97 9.987 23.96 19.802 38.17 25.921 14.23 6.128 30.67 8.543 51.54 3.79l-.22-.975c-20.66 4.706-36.88 2.311-50.92-3.734-14.06-6.053-25.94-15.772-37.93-25.77-23.949-19.977-48.234-41.016-90.673-35.128l.138.991zM1113 692.021c24.53-5.589 37.52-4.956 50.46-4.658 12.98.3 25.89.262 50.19-6.698l-.28-.962c-24.17 6.925-36.97 6.959-49.89 6.661-12.96-.3-26.05-.935-50.7 4.682l.22.975zm100.65-11.356c17.57-5.038 26.66-6.509 35.71-8.159 9.07-1.654 18.08-3.485 35.49-9.24l-.31-.949c-17.36 5.738-26.33 7.558-35.36 9.205-9.06 1.651-18.18 3.129-35.81 8.181l.28.962zm71.2-17.399c42.7-14.108 62.01-25.889 80.9-38.699 18.87-12.789 37.29-26.583 78.26-44.774l-.41-.914c-41.06 18.231-59.54 32.073-78.41 44.86-18.83 12.766-38.06 24.502-80.65 38.578l.31.949zm159.16-83.473c40.08-17.782 74.28-1.511 108.22 13.922 33.89 15.406 67.52 29.973 106.06 8.035l-.49-.869c-38.05 21.659-71.23 7.35-105.15-8.076-33.87-15.4-68.5-31.917-109.05-13.926l.41.914zm214.28 21.957c2.49-1.419 4.01-1.975 5.54-2.542 1.55-.576 3.11-1.163 5.67-2.64l-.5-.865c-2.49 1.436-3.99 2-5.52 2.567-1.55.575-3.12 1.152-5.68 2.611l.49.869zm11.21-5.182c43.35-25.062 76.2-28.013 108.3-32.213 32.15-4.204 63.51-9.661 103.71-39.818l-.6-.799c-40 30.006-71.17 35.431-103.23 39.626-32.11 4.199-65.14 7.166-108.68 32.339l.5.865zm212.01-72.03c8.63-6.471 16.08-10.643 22.99-13.795l-.41-.91c-6.98 3.18-14.49 7.389-23.18 13.904l.6.801zM-15.536 556.33c20.067 18.48 39.285 19.448 59.358 19.113 20.065-.335 40.947-1.96 64.67 11.094l.482-.876c-23.996-13.205-45.158-11.552-65.169-11.218-20.002.334-38.888-.637-58.663-18.848l-.678.735zm124.028 30.207c19.73 10.855 37.04 11.27 53.24 6.151 16.164-5.107 31.208-15.719 46.429-26.853 30.507-22.316 61.766-46.733 104.719-34.526l.273-.962c-43.498-12.362-75.167 12.432-105.582 34.681-15.24 11.147-30.156 21.657-46.14 26.707-15.948 5.038-32.974 4.645-52.457-6.074l-.482.876zm204.388-55.228c20.453 5.813 34.17 14.01 44.567 23.203 10.407 9.203 17.502 19.413 24.72 29.312 7.21 9.889 14.54 19.461 25.389 27.267 10.857 7.811 25.207 13.832 46.44 16.692l.133-.992c-21.1-2.841-35.288-8.813-45.989-16.512-10.708-7.704-17.958-17.16-25.165-27.044-7.2-9.874-14.361-20.183-24.866-29.472-10.515-9.298-24.367-17.565-44.956-23.416l-.273.962zm141.185 96.478c35.613-.19 52.886-25.439 65.724-51.347 6.442-13 11.741-26.099 17.716-36.493 5.973-10.389 12.508-17.855 21.29-19.698l-.206-.978c-9.233 1.938-15.959 9.755-21.951 20.178-5.989 10.417-11.358 23.657-17.745 36.547-12.819 25.87-29.846 50.604-64.833 50.791l.005 1zm284.76-121.893c15.101-1.205 27.996 3.216 40.986 7.549 12.969 4.327 26.03 8.564 41.317 6.814l-.113-.994c-15.04 1.722-27.904-2.437-40.888-6.768-12.962-4.324-26.047-8.821-41.382-7.598l.08.997zm82.303 14.363c13.337-1.524 23.355.32 31.714 3.785 8.373 3.471 15.1 8.574 21.872 13.627 6.759 5.043 13.561 10.034 22.021 13.17 8.474 3.141 18.583 4.413 31.965 2.083l-.172-.985c-13.224 2.302-23.153 1.039-31.446-2.036-8.307-3.079-15.003-7.984-21.77-13.033-6.753-5.04-13.58-10.223-22.087-13.75-8.523-3.533-18.713-5.397-32.21-3.855l.113.994zM928.7 552.922c21.058-3.664 37.467-1.612 51.531 3.171 14.08 4.788 25.829 12.315 37.579 19.65 11.74 7.326 23.48 14.459 37.49 18.357 14.03 3.903 30.3 4.558 51.09-1.007l-.26-.966c-20.63 5.523-36.72 4.861-50.56 1.01-13.85-3.855-25.49-10.912-37.23-18.242-11.73-7.322-23.578-14.917-37.787-19.749-14.224-4.837-30.803-6.901-52.025-3.209l.172.985zm177.69 40.171c21.3-5.694 35.8-13.269 46.84-21.926 11.04-8.653 18.6-18.369 26.06-28.291 7.45-9.93 14.79-20.06 25.4-29.635 10.6-9.569 24.49-18.593 45.01-26.262l-.35-.937c-20.63 7.71-34.63 16.798-45.33 26.456-10.69 9.653-18.09 19.866-25.53 29.777-7.45 9.918-14.95 19.54-25.88 28.105-10.92 8.561-25.29 16.083-46.48 21.747l.26.966zm143.31-106.114c35.9-13.41 55.41-12.081 74.66-11.5 9.64.292 19.24.397 30.77-1.636 11.53-2.033 24.98-6.2 42.36-14.435l-.43-.904c-17.31 8.205-30.68 12.34-42.1 14.354-11.43 2.015-20.94 1.913-30.57 1.622-19.29-.583-38.96-1.916-75.04 11.562l.35.937zm147.79-27.571c6.51-3.089 9.87-3.776 13.24-4.495 3.42-.73 6.85-1.492 13.4-4.735l-.45-.897c-6.45 3.196-9.79 3.936-13.16 4.654-3.41.728-6.86 1.435-13.46 4.569l.43.904zm26.64-9.23c42.95-21.214 74.18-13.879 104.91-7.643 15.36 3.118 30.62 5.966 47.12 4.784 16.51-1.183 34.23-6.398 54.54-19.363l-.54-.843c-20.18 12.881-37.74 18.039-54.07 19.209-16.35 1.171-31.49-1.649-46.85-4.767-30.74-6.238-62.28-13.65-105.56 7.726l.45.897zm206.57-22.222c21.75-13.893 41.11-9.937 60.44-6.252 19.33 3.683 38.62 7.09 59.85-8.352l-.59-.808c-20.85 15.169-39.75 11.859-59.07 8.177-19.31-3.68-39.05-7.737-61.17 6.392l.54.843zm120.29-14.604c20.71-15.073 42.45-10.983 64.2-7.142 21.69 3.832 43.38 7.414 63.48-9.226l-.64-.77c-19.7 16.311-40.93 12.851-62.67 9.011-21.68-3.829-43.86-8.04-64.96 7.319l.59.808zm127.68-16.368c11.02-9.121 19.37-17.779 26.02-26.191l-.79-.62c-6.59 8.352-14.9 16.96-25.87 26.041l.64.77zM16.047 573.375c19.413 11.524 40.798 11.019 63.241 4.226 22.432-6.789 45.989-19.88 69.799-33.616 23.831-13.748 47.916-28.143 71.469-37.61 23.55-9.466 46.491-13.972 68.037-8.016l.266-.964c-21.853-6.041-45.04-1.448-68.676 8.052-23.635 9.5-47.794 23.941-71.596 37.672-23.823 13.743-47.284 26.774-69.588 33.525-22.292 6.747-43.358 7.199-62.441-4.128l-.51.859zm272.545-75.016c40.959 11.325 58.636 16.845 76.632 20.725 18.007 3.883 36.341 6.128 78.631 10.92l.113-.994c-42.305-4.794-60.585-7.033-78.533-10.903-17.959-3.873-35.577-9.375-76.576-20.712l-.267.964zm155.263 31.645c41.696 4.728 62.868 1.348 84.101-3.298 21.19-4.637 42.401-10.523 84.258-10.846l-.008-1c-41.974.324-63.279 6.233-84.464 10.869-21.142 4.626-42.203 7.996-83.774 3.281l-.113.994zm590.715-99.544c24.64 2.464 41.72 1.164 54.23-2.468 12.52-3.637 20.42-9.605 26.68-16.42 3.13-3.401 5.84-7.011 8.52-10.631 2.67-3.626 5.3-7.257 8.27-10.737 5.93-6.943 13.2-13.262 24.8-17.533l-.35-.938c-11.79 4.344-19.2 10.783-25.21 17.822-3 3.513-5.65 7.179-8.32 10.792-2.67 3.62-5.36 7.191-8.44 10.548-6.16 6.701-13.91 12.558-26.23 16.137-12.34 3.583-29.28 4.89-53.85 2.433l-.1.995zm122.5-57.789c9.26-3.413 15.45-6.921 20.08-10.511 4.62-3.589 7.68-7.248 10.69-10.921 3.01-3.674 5.96-7.358 10.42-11.076 4.46-3.715 10.43-7.476 19.46-11.26l-.38-.922c-9.11 3.815-15.17 7.624-19.72 11.414-4.54 3.787-7.55 7.544-10.56 11.21-3 3.668-5.99 7.25-10.53 10.765-4.53 3.515-10.62 6.977-19.81 10.363l.35.938zm60.65-43.768c42.86-17.955 62.53-22.453 81.71-28.044 19.21-5.6 37.87-12.289 78.65-34.605l-.48-.878c-40.72 22.289-59.32 28.946-78.45 34.523-19.16 5.588-38.89 10.101-81.81 28.082l.38.922zm160.36-62.649c24.09-13.187 42.94-5.433 61.79 2.056 9.41 3.738 18.84 7.417 28.85 8.289 10.05.875 20.66-1.072 32.46-8.527l-.53-.845c-11.62 7.338-22.01 9.231-31.84 8.376-9.85-.857-19.14-4.477-28.57-8.223-18.83-7.48-38.1-15.436-62.64-2.004l.48.878zm123.1 1.818c18.08-11.429 35.83-3.647 53.74 4.083 17.81 7.686 35.79 15.323 53.78 2.648l-.57-.818c-17.47 12.308-34.9 4.98-52.81-2.748-17.81-7.684-36.08-15.765-54.67-4.01l.53.845zm107.52 6.731c38.52-27.135 76.41-20.27 113.69-14.382 37.25 5.883 73.89 10.784 109.43-20.78l-.66-.747c-35.16 31.225-71.35 26.423-108.61 20.539-37.23-5.88-75.53-12.847-114.42 14.552l.57.818zm223.12-35.162c4.79-4.253 7.79-6.349 10.78-8.473 3.01-2.133 6.01-4.291 10.77-8.655l-.68-.737c-4.72 4.324-7.68 6.456-10.66 8.576-3.01 2.13-6.04 4.251-10.87 8.542l.66.747zm21.55-17.128c38.02-34.852 32.01-77.796 24.75-121.574-7.27-43.858-15.79-88.558 16.54-127.563l-.77-.638c-32.67 39.413-24.01 84.607-16.75 128.364 7.27 43.836 13.13 86.227-24.45 120.674l.68.737zM-16.197 16.63c.219 41.492 13.254 62.985 22.656 84.611 4.698 10.805 8.491 21.64 9.372 35.051.88 13.413-1.15 29.438-8.153 50.613l.949.314c7.032-21.263 9.093-37.42 8.202-50.993-.892-13.575-4.734-24.531-9.452-35.383-9.43-21.689-22.356-42.975-22.574-84.218l-1 .005zM7.678 186.905C-4.8 224.61-9.657 248.555-7.812 272.004c1.842 23.435 10.378 46.33 24.572 81.92l.929-.371c-14.205-35.617-22.676-58.37-24.505-81.627-1.828-23.244 2.977-47.033 15.443-84.707l-.95-.314zm9.082 167.019c6.096 15.279 10.387 28.658 14.284 40.736 3.896 12.073 7.401 22.86 11.921 32.92 9.057 20.154 22.175 37.365 50.609 56.325l.555-.832c-28.291-18.865-41.279-35.935-50.251-55.903-4.494-10.001-7.984-20.735-11.882-32.817-3.896-12.076-8.197-25.485-14.307-40.8l-.929.371zm76.814 129.981c14.782 9.858 28.061 13.013 40.723 12.527 12.64-.486 24.634-4.602 36.833-9.22 24.427-9.247 49.751-20.523 83.332-9.471l.313-.95c-33.969-11.179-59.629.261-83.999 9.486-12.199 4.618-24.057 8.677-36.518 9.155-12.44.478-25.513-2.612-40.13-12.359l-.554.832zm160.888-6.164c4.782 1.573 8.463 1.96 11.6 1.725 3.133-.236 5.696-1.092 8.215-1.959 2.525-.869 5.003-1.747 8.041-2.094 3.03-.346 6.638-.164 11.392 1.13l.263-.965c-4.861-1.323-8.598-1.52-11.769-1.159-3.163.361-5.742 1.278-8.253 2.143-2.518.866-4.973 1.681-7.964 1.906-2.986.225-6.534-.138-11.212-1.677l-.313.95zm39.248-1.198c40.957 11.143 59.959 9.691 79.304 6.418 19.275-3.26 38.832-8.311 81.021-4.406l.092-.996c-42.334-3.918-62.009 1.157-81.279 4.416-19.201 3.248-38.057 4.709-78.875-6.397l-.263.965zm160.325 2.012c41.579 3.841 60.125 13.894 78.769 22.633 9.338 4.377 18.714 8.431 31.003 11.196 12.288 2.765 27.468 4.237 48.421 3.476l-.036-1c-20.889.759-35.98-.71-48.165-3.451-12.184-2.742-21.483-6.76-30.799-11.126-18.664-8.749-37.341-18.866-79.101-22.724l-.092.996zm158.193 37.305c84.071-3.059 79.087-3.043 162.313-15.186l-.144-.989c-83.199 12.138-78.177 12.119-162.205 15.175l.036 1zm162.313-15.186c77.473-11.306 85.241-7.588 164.52-7.588v-1c-79.238 0-87.1-3.721-164.664 7.599l.144.989zm164.52-7.588c10.075 0 17.312-1.428 22.856-3.606 5.547-2.179 9.371-5.099 12.626-8.038 6.519-5.885 10.65-11.687 21.785-12.254l-.051-.999c-11.575.59-16.008 6.736-22.404 12.511-3.203 2.891-6.924 5.729-12.322 7.849-5.401 2.123-12.509 3.537-22.49 3.537v1zm57.267-23.898c17.752-.904 26.992-5.869 32.042-13.398 5.01-7.469 5.81-17.373 6.98-27.865 1.17-10.544 2.71-21.774 9.05-32.168 6.34-10.377 17.5-19.979 38.05-27.158l-.33-.944c-20.71 7.236-32.09 16.963-38.57 27.581-6.47 10.602-8.02 22.036-9.19 32.578-1.18 10.594-1.98 20.2-6.82 27.419-4.81 7.159-13.67 12.06-31.263 12.956l.051.999zm86.122-100.589c21.43-7.488 34.66-17.666 43.7-29.343 9.03-11.663 13.86-24.793 18.56-38.109 4.7-13.335 9.27-26.855 17.76-39.441 8.48-12.57 20.89-24.222 41.28-33.759l-.42-.906c-20.55 9.61-33.1 21.38-41.68 34.106-8.58 12.711-13.19 26.36-17.89 39.667-4.7 13.326-9.49 26.31-18.4 37.829-8.91 11.506-21.96 21.58-43.24 29.012l.33.944zm121.3-140.652c22.2-10.386 32.48-11.626 42.63-13.171 10.23-1.557 20.31-3.422 42.01-15.061l-.47-.881c-21.6 11.58-31.57 13.412-41.69 14.953-10.21 1.553-20.59 2.813-42.9 13.254l.42.906zm84.64-28.232c10.07-5.406 18.05-7.652 24.96-8.365 6.91-.713 12.78.106 18.67.873 5.88.765 11.79 1.477 18.69.492 6.91-.985 14.79-3.664 24.66-9.632l-.52-.856c-9.77 5.912-17.53 8.535-24.28 9.498-6.76.964-12.54.272-18.42-.494-5.88-.764-11.86-1.603-18.9-.876-7.06.728-15.16 3.021-25.33 8.479l.47.881zm86.98-16.632c21.6-13.06 43.85-13.585 66.39-7.96 22.57 5.632 45.36 17.414 68.02 28.934 22.63 11.505 45.12 22.752 66.98 27.213 21.89 4.467 43.18 2.137 63.36-13.525l-.61-.79c-19.91 15.445-40.88 17.758-62.55 13.335-21.7-4.429-44.07-15.606-66.73-27.125-22.62-11.504-45.53-23.347-68.22-29.012-22.72-5.67-45.27-5.161-67.16 8.074l.52.856zm264.75 34.662c1.64-1.272 2.55-1.848 3.46-2.431.93-.592 1.86-1.19 3.53-2.499l-.62-.786c-1.63 1.281-2.53 1.86-3.45 2.442-.92.591-1.86 1.185-3.53 2.484l.61.79zm6.99-4.93c42.35-33.188 73.51-41.826 103.58-51.754 30.13-9.943 59.12-21.172 96.98-59.567l-.71-.702c-37.71 38.243-66.55 49.406-96.58 59.319-30.08 9.929-61.39 18.611-103.89 51.917l.62.787zm200.56-111.321c5.49-5.556 7.37-9.679 9.22-13.787 1.82-4.068 3.6-8.117 8.85-13.649l-.72-.688c-5.37 5.655-7.2 9.826-9.04 13.928-1.83 4.062-3.66 8.06-9.02 13.493l.71.703zm18.07-27.436c37.25-39.23 30.42-80.235 22.26-122.122-8.17-41.922-17.66-84.725 13.68-128.078l-.81-.586c-31.63 43.753-22.01 86.995-13.85 128.856 8.16 41.897 14.87 82.413-22 121.242l.72.688zm35.94-250.199c1.38-1.907 2.29-3.168 3.02-4.195l-.81-.579c-.73 1.023-1.64 2.28-3.02 4.187l.81.587zM-16.197-89.079c0 43.28 14.953 90.408 27.737 137.39 12.797 47.031 23.424 93.926 14.927 136.909l.98.194c8.55-43.242-2.15-90.351-14.942-137.365C-.3.986-15.197-45.971-15.197-89.08h-1zM26.467 185.22c-7.573 38.346-9.412 67.573-3.278 94.424 6.134 26.856 20.232 51.28 44.428 80.045l.765-.643c-24.14-28.7-38.133-52.982-44.219-79.625-6.087-26.649-4.278-55.714 3.285-94.007l-.981-.194zm41.15 174.469c7.956 9.464 11.6 15.447 15.737 21.068 4.142 5.627 8.725 10.811 18.482 18.571l.622-.782c-9.691-7.709-14.213-12.83-18.299-18.382-4.09-5.556-7.796-11.624-15.777-21.118l-.765.643zm34.219 39.639c17.658 14.043 33.039 20.326 47.569 22.199 14.52 1.87 28.145-.67 42.263-4.193 28.244-7.048 58.539-18.036 102.479-6.062l.263-.965c-44.24-12.055-74.808-.974-102.984 6.057-14.092 3.516-27.566 6.017-41.893 4.171-14.317-1.845-29.531-8.037-47.075-21.989l-.622.782zm192.311 11.944c20.405 5.561 35.281 7.551 47.443 7.491 12.166-.059 21.591-2.169 31.078-4.776 18.933-5.201 38.163-12.396 80.285-9.354l.072-.997c-42.308-3.055-61.683 4.184-80.622 9.387-9.449 2.596-18.777 4.682-30.818 4.74-12.046.059-26.829-1.911-47.175-7.456l-.263.965zm158.806-6.639c41.599 3.004 60.448 15.103 79.373 25.806 9.478 5.36 18.994 10.381 31.38 13.714 12.387 3.332 27.618 4.969 48.537 3.599l-.066-.998c-20.833 1.364-35.951-.269-48.211-3.567-12.26-3.298-21.687-8.269-31.147-13.619-18.951-10.717-37.962-22.911-79.794-25.932l-.072.997zm159.29 43.119c41.995-2.754 63.175 5.535 84.273 12.663 10.563 3.569 21.123 6.853 34.246 8.3 13.123 1.447 28.79 1.055 49.581-2.702l-.178-.984c-20.714 3.743-36.282 4.127-49.294 2.692-13.012-1.435-23.488-4.69-34.035-8.253-21.123-7.137-42.459-15.481-84.659-12.714l.066.998zm168.1 18.261c42.243-7.635 66.121-1.646 89.816 3.298 23.752 4.956 47.291 8.852 88.72-3.076l-.277-.961c-41.219 11.868-64.58 7.994-88.238 3.058-23.715-4.948-47.755-10.974-90.199-3.303l.178.984zm178.536.222c42.851-12.329 52.721-49.587 62.181-87.474 9.49-37.988 18.58-76.619 59.46-92.706l-.36-.931c-41.44 16.305-50.61 55.518-60.07 93.395-9.48 37.978-19.26 74.606-61.487 86.755l.276.961zm121.641-180.18c7.25-2.851 11.85-6.378 15.11-10.274 3.25-3.886 5.14-8.117 6.99-12.313 1.86-4.209 3.67-8.383 6.77-12.277 3.09-3.884 7.47-7.508 14.47-10.558l-.4-.917c-7.14 3.11-11.65 6.831-14.85 10.853-3.19 4.011-5.06 8.303-6.91 12.495-1.85 4.206-3.69 8.313-6.84 12.076-3.14 3.753-7.6 7.187-14.7 9.984l.36.931zm43.34-45.422c14.14-6.167 22.42-14.105 27.72-23.004 5.28-8.88 7.57-18.689 9.78-28.531 2.22-9.864 4.37-19.763 9.34-28.968 4.96-9.185 12.74-17.697 26.25-24.73l-.46-.887c-13.69 7.122-21.61 15.776-26.67 25.142-5.04 9.347-7.22 19.387-9.43 29.224-2.22 9.859-4.48 19.515-9.67 28.238-5.18 8.705-13.29 16.509-27.26 22.599l.4.917zm73.09-105.233c21.52-11.199 39.56-14.554 55.78-14.143 16.24.412 30.67 4.596 45 8.521 14.32 3.92 28.54 7.581 44.25 6.862 15.73-.72 32.92-5.824 53.2-19.362l-.55-.831c-20.16 13.45-37.17 18.483-52.69 19.194-15.54.711-29.62-2.906-43.94-6.828-14.31-3.917-28.86-8.14-45.24-8.555-16.4-.416-34.61 2.981-56.27 14.255l.46.887zm198.23-18.122c2.52-1.677 4.51-2.589 6.25-3.128 1.74-.54 3.23-.712 4.76-.892 1.53-.18 3.1-.368 4.93-.958 1.83-.591 3.9-1.577 6.46-3.335l-.56-.824c-2.5 1.713-4.48 2.651-6.21 3.207-1.72.557-3.21.737-4.74.917-1.53.18-3.1.359-4.94.93-1.84.571-3.92 1.529-6.5 3.252l.55.831zm22.4-8.313c18.96-13.03 41.27-12.698 65.29-5.712 24.02 6.988 49.64 20.605 75.14 34.016 25.46 13.397 50.81 26.592 74.2 32.653 23.41 6.065 44.97 5.01 62.76-10.215l-.65-.76c-17.45 14.929-38.61 16.028-61.86 10.007-23.26-6.026-48.49-19.159-73.99-32.57-25.47-13.396-51.18-27.069-75.32-34.091-24.15-7.026-46.83-7.426-66.13 5.848l.56.824zm277.39 50.742c14.95-12.794 24.9-18.459 34.73-24.307 9.85-5.861 19.57-11.898 33.98-25.421l-.68-.73c-14.35 13.456-24 19.452-33.81 25.291-9.84 5.852-19.85 11.554-34.87 24.407l.65.76zm68.71-49.728c28.72-26.945 22.09-62.412 14.92-98.145-7.2-35.852-14.96-71.984 10.73-100.975l-.75-.663c-26.07 29.427-18.14 66.11-10.96 101.835 7.2 35.842 13.64 70.709-14.62 97.218l.68.73zm25.65-199.12c11.62-13.11 31.3-23.399 50.98-33.868 19.62-10.437 39.22-21.054 50.41-34.818l-.77-.631c-11.04 13.575-30.44 24.1-50.11 34.566-19.61 10.435-39.5 20.812-51.26 34.088l.75.663zM26.458 185.306c-1.334 60.584 32.082 90.792 72.885 134.671l.732-.681c-40.881-43.964-73.94-73.866-72.618-133.968l-1-.022zm72.885 134.671c5.976 6.429 11.535 10.223 16.99 12.574 5.451 2.349 10.771 3.245 16.24 3.911 10.932 1.332 22.498 1.753 37.334 10.85l.523-.852c-15.054-9.231-26.846-9.664-37.736-10.99-5.443-.663-10.649-1.546-15.965-3.837-5.311-2.289-10.759-5.995-16.654-12.336l-.732.68zm70.565 27.335c12.925 7.922 23.688 10.369 33.484 9.803 9.778-.564 18.544-4.129 27.458-8.132 17.837-8.01 36.381-17.82 65.403-9.691l.27-.963c-29.412-8.239-48.272 1.744-66.083 9.742-8.91 4.001-17.528 7.493-27.106 8.046-9.56.552-20.123-1.824-32.904-9.657l-.522.852zm126.345-8.02c20.331 5.695 35.084 5.849 47.098 2.909 12.008-2.938 21.23-8.956 30.494-15.501 9.275-6.552 18.584-13.625 30.837-18.797 12.24-5.167 27.434-8.442 48.445-7.335l.052-.999c-21.15-1.114-36.497 2.182-48.886 7.412-12.376 5.225-21.784 12.374-31.025 18.902-9.252 6.536-18.343 12.456-30.155 15.347-11.805 2.888-26.378 2.761-46.59-2.901l-.27.963zm156.874-38.724c41.547 2.192 65.606 26.895 89.788 50.22 24.161 23.306 48.443 45.225 90.34 41.217l-.095-.995c-41.407 3.96-65.392-17.638-89.551-40.942-24.139-23.284-48.455-48.284-90.43-50.499l-.052.999zm326.032 150.15c41.845 0 76.129-9.331 104.154-19.15 13.995-4.903 26.472-9.944 37.492-13.983 11.045-4.048 20.65-7.098 29.011-8.079l-.116-.993c-8.489.995-18.191 4.084-29.239 8.133-11.074 4.059-23.479 9.074-37.479 13.978-27.967 9.798-62.133 19.094-103.823 19.094v1zm170.756-41.234c42.9-14.177 56.315-49.682 69.255-85.939 12.96-36.315 25.45-73.383 66.27-91.44l-.41-.914c-41.27 18.257-53.87 55.777-66.8 92.018-12.96 36.3-26.243 71.318-68.629 85.325l.314.95zm135.525-177.379c21.52-9.517 34.84-20.602 43.97-32.624 9.12-12.013 14.04-24.933 18.8-38.055 4.76-13.136 9.36-26.47 17.83-39.432 8.47-12.951 20.82-25.546 41.1-37.145l-.5-.868c-20.41 11.674-32.87 24.376-41.43 37.466-8.55 13.078-13.19 26.527-17.94 39.638-4.76 13.124-9.64 25.912-18.66 37.791-9.01 11.869-22.19 22.856-43.58 32.315l.41.914zm121.69-147.256c2.77-1.581 7.06-2.928 12.15-4.16 5.09-1.231 10.93-2.336 16.78-3.449 5.85-1.112 11.71-2.233 16.81-3.493 5.09-1.257 9.48-2.664 12.36-4.368l-.51-.861c-2.74 1.623-7 3.003-12.09 4.258-5.07 1.253-10.9 2.368-16.76 3.482-5.84 1.112-11.71 2.221-16.82 3.458-5.11 1.234-9.51 2.608-12.41 4.264l.49.869zm58.1-15.47c18.61-11.005 34.11-13.303 48-11.39 13.92 1.915 26.24 8.06 38.51 14.033 12.24 5.96 24.42 11.753 37.95 12.815 13.56 1.065 28.41-2.621 46.01-15.485l-.59-.807c-17.44 12.748-32.06 16.339-45.34 15.295-13.31-1.045-25.33-6.746-37.59-12.718-12.24-5.958-24.71-12.183-38.81-14.124-14.13-1.946-29.86.41-48.65 11.52l.51.86zm170.47-.027c11.33-8.293 24.24-9.224 37.98-6.467 13.76 2.76 28.28 9.203 42.8 15.59 14.49 6.375 28.99 12.695 42.59 15.125 13.63 2.434 26.44.979 37.51-8.26l-.64-.768c-10.77 8.99-23.25 10.445-36.69 8.044-13.47-2.406-27.85-8.67-42.36-15.056-14.49-6.374-29.12-12.87-43.01-15.656-13.9-2.79-27.13-1.875-38.77 6.64l.59.808zm160.88 15.988c19.92-16.628 35.67-20.698 51.25-25.072 15.61-4.386 31.03-9.076 50.07-27l-.69-.728c-18.87 17.761-34.1 22.396-49.65 26.765-15.6 4.38-31.53 8.495-51.62 25.267l.64.768zm101.32-52.072c24.89-23.427 20.24-53.302 15.2-83.31-5.06-30.106-10.52-60.355 12.04-85.21l-.74-.672c-22.94 25.271-17.33 56.048-12.29 86.048 5.06 30.095 9.55 59.404-14.9 82.416l.69.728zm27.24-168.52c19.06-20.998 16.77-47.342 14.17-73.713-2.61-26.455-5.52-52.941 11.78-74.762l-.79-.621c-17.59 22.191-14.58 49.12-11.98 75.481 2.6 26.446 4.8 52.321-13.92 72.943l.74.672zM100.523 16.485c-8.326 28.08-19.811 59.13-27.443 90.067-7.637 30.955-11.453 61.924-4.42 89.949l.97-.244c-6.973-27.786-3.203-58.563 4.42-89.466 7.629-30.92 19.075-61.84 27.432-90.022l-.959-.284zM68.661 196.501c2.703 10.763 5.049 15.603 9.302 25.79l.922-.385c-4.261-10.209-6.573-14.973-9.254-25.649l-.97.244zm9.301 25.79c8.524 20.465 20.71 31.808 35.69 37.701 14.948 5.88 32.627 6.311 52.1 5.078 39.009-2.472 85.289-11.612 132.15 2.294l.284-.959c-47.085-13.973-93.66-4.794-132.497-2.333-19.45 1.232-36.941.784-51.671-5.011-14.7-5.782-26.7-16.909-35.132-37.155l-.924.385zm219.939 45.073c15.273 4.536 26.429 3.053 35.545-1.694 9.084-4.73 16.091-12.678 23.113-20.936 7.042-8.282 14.105-16.884 23.339-23.099 9.209-6.198 20.593-10.027 36.282-8.696l.085-.997c-15.921-1.35-27.53 2.54-36.926 8.864-9.371 6.307-16.526 15.03-23.542 23.281-7.037 8.276-13.928 16.07-22.813 20.696-8.852 4.609-19.734 6.096-34.798 1.622l-.285.959zm118.279-54.425c5.51.464 9.64-2.356 13.714-6.593 2.037-2.118 4.085-4.617 6.295-7.272 2.215-2.661 4.601-5.489 7.333-8.293 5.459-5.606 12.293-11.113 21.843-14.943 9.551-3.831 21.848-5.997 38.247-4.877l.068-.997c-16.523-1.129-28.974 1.05-38.688 4.946-9.714 3.896-16.66 9.499-22.187 15.173-2.761 2.835-5.168 5.689-7.385 8.351-2.221 2.669-4.241 5.134-6.247 7.219-4.009 4.17-7.858 6.715-12.909 6.289l-.084.997zm82.53 273.986c7.331-.552 16.79.962 28.14 3.216 11.327 2.249 24.51 5.228 39.206 7.563 29.406 4.672 64.942 6.778 104.213-4.638l-.28-.96c-39.075 11.359-74.45 9.269-103.776 4.61-14.671-2.331-27.809-5.301-39.168-7.556-11.334-2.251-20.923-3.796-28.41-3.232l.075.997zm171.482 6.157c21.175-2.675 35.3-6.597 45.865-11.319 10.57-4.725 17.552-10.24 24.442-16.052 6.887-5.812 13.668-11.906 23.881-17.871 10.211-5.963 23.867-11.803 44.48-17.055l-.247-.969c-20.685 5.27-34.431 11.141-44.737 17.16-10.304 6.018-17.155 12.176-24.022 17.97-6.866 5.793-13.763 11.236-24.206 15.904-10.447 4.67-24.469 8.573-45.582 11.24l.126.992zm138.667-62.297c42.643-10.862 64.205-27.106 85.373-44.44 21.14-17.311 41.865-35.686 82.894-50.951l-.349-.938c-41.201 15.33-62.04 33.805-83.179 51.115-21.111 17.288-42.541 33.434-84.985 44.245l.246.969zm168.267-95.391c43.014-15.999 53.074-51.498 62.634-87.735 9.58-36.29 18.67-73.319 59.39-93.17l-.44-.899c-41.19 20.079-50.35 57.593-59.91 93.814-9.58 36.273-19.55 71.252-62.023 87.052l.349.938zm122.024-180.905c1.51-.738 2.21-1.165 2.89-1.588.67-.413 1.33-.822 2.81-1.541l-.44-.899c-1.51.738-2.21 1.165-2.89 1.589-.67.413-1.33.822-2.81 1.541l.44.898zm5.7-3.13c20.81-10.233 34.45-20.586 44.41-31.14 9.96-10.553 16.23-21.288 22.33-32.243 12.18-21.883 23.73-44.736 62.78-69.271l-.53-.847c-39.27 24.674-50.92 47.713-63.12 69.631-6.1 10.945-12.32 21.587-22.19 32.043-9.87 10.454-23.4 20.74-44.12 30.93l.44.897zm129.52-132.654c28.1-17.664 54.62-7.158 81.08 2.982 26.38 10.112 52.7 19.858 79.88-.161l-.59-.805c-26.69 19.658-52.49 10.168-78.94.032-26.37-10.108-53.38-20.862-81.96-2.895l.53.847zm160.96 2.82c14.4-10.6 24-12.927 33.54-15.41 9.6-2.498 19.12-5.152 33.22-16.436l-.62-.781c-13.95 11.162-23.33 13.77-32.85 16.249-9.59 2.494-19.33 4.86-33.88 15.574l.59.805zm66.76-31.846c35.79-28.618 62.65-34.695 88.79-41.664 26.19-6.984 51.63-14.86 84.41-47.131l-.7-.713c-32.61 32.101-57.87 39.917-83.97 46.877-26.16 6.974-53.19 13.092-89.15 41.85l.62.78zm173.2-88.795c3.74-3.681 10.24-6.827 18.21-9.713 7.95-2.88 17.29-5.473 26.63-8.085 9.34-2.609 18.69-5.236 26.64-8.177 7.93-2.934 14.55-6.209 18.36-10.15l-.72-.695c-3.64 3.766-10.07 6.977-17.99 9.907-7.9 2.924-17.21 5.54-26.56 8.152-9.33 2.609-18.7 5.213-26.7 8.108-7.98 2.889-14.66 6.094-18.57 9.94l.7.713zM100.523 16.485c-11.982 40.41 5.229 83.746 38.262 122.303l.759-.651c-32.934-38.443-49.905-81.43-38.062-121.368l-.959-.284zm38.262 122.303c20.807 24.288 46.092 32.109 73.86 36.451 27.801 4.347 57.988 5.209 88.937 15.516l.316-.949c-31.052-10.341-61.458-11.233-89.098-15.555-27.673-4.327-52.676-12.091-73.256-36.114l-.759.651zm162.797 51.967c19.907 6.629 33.934 5.624 45.077.333 11.113-5.278 19.282-14.788 27.532-24.977 8.271-10.213 16.632-21.122 28.165-29.394 11.511-8.257 26.197-13.895 47.116-13.492l.019-1c-21.133-.407-36.03 5.296-47.718 13.679-11.666 8.368-20.117 19.4-28.359 29.578-8.262 10.204-16.303 19.535-27.184 24.702-10.849 5.153-24.598 6.194-44.332-.378l-.316.949zm147.89-67.53c20.63.394 37.279 17.956 51.957 44.235 14.657 26.241 27.23 60.958 39.794 95.278 12.553 34.293 25.099 68.193 39.692 92.709 14.573 24.481 31.332 39.84 52.369 36.555l-.154-.989c-20.36 3.181-36.799-11.624-51.356-36.078-14.535-24.419-27.049-58.222-39.612-92.541-12.554-34.292-25.156-69.096-39.86-95.422-14.683-26.288-31.58-44.341-52.811-44.747l-.019 1zm183.812 268.777c42.473-6.64 65.743-17.916 88.68-30.547 22.913-12.617 45.46-26.564 86.56-38.624l-.282-.959c-41.222 12.095-63.864 26.099-86.76 38.707-22.872 12.594-46.029 23.818-88.352 30.434l.154.989zm175.239-69.171c33.959-9.96 51.542-19.268 68.858-29.312 17.293-10.032 34.295-20.782 67.137-33.671l-.365-.931c-32.924 12.921-49.988 23.709-67.274 33.737-17.264 10.014-34.774 19.285-68.637 29.218l.281.959zm135.995-62.983c8.542-3.353 13.041-5.568 17.516-7.825 4.465-2.252 8.9-4.543 17.333-8.061l-.385-.922c-8.468 3.532-12.93 5.837-17.398 8.09-4.457 2.248-8.927 4.449-17.431 7.787l.365.931zm34.849-15.886c21.503-8.967 35.813-20.062 46.463-32.358 10.64-12.287 17.61-25.758 24.43-39.435 13.64-27.351 26.72-55.605 67.43-77.53l-.47-.88c-41.01 22.087-54.21 50.605-67.85 77.964-6.82 13.678-13.74 27.045-24.3 39.227-10.54 12.173-24.73 23.179-46.088 32.089l.385.923zM1117.69 94.639c15.56-8.38 26.02-16.562 33.87-24.728 7.86-8.165 13.1-16.3 18.23-24.55 10.24-16.477 20.08-33.494 49.58-52.56l-.54-.84c-29.69 19.19-39.63 36.363-49.89 52.872-5.13 8.243-10.32 16.3-18.1 24.384-7.77 8.082-18.14 16.204-33.62 24.542l.47.88zM1219.37-7.2c11.78-7.623 15.84-13.615 19.82-19.664 3.93-5.993 7.78-12.034 19.18-19.895l-.57-.823c-11.55 7.966-15.48 14.129-19.45 20.169-3.93 5.982-7.9 11.852-19.52 19.373l.54.84zm39-39.56c21.8-15.052 46.42-25.846 71.8-36.463 25.38-10.61 51.52-21.044 76.29-35.365 49.58-28.668 93.65-72.91 115.43-165.335l-.97-.229c-21.72 92.14-65.6 136.16-114.96 164.698-24.7 14.282-50.77 24.688-76.17 35.309-25.38 10.615-50.09 21.444-71.99 36.563l.57.823zM181.45-165.372c-.994 4.596.88 9.341 4.001 14.063 3.127 4.73 7.579 9.546 11.901 14.299 4.34 4.772 8.547 9.48 11.262 14.043 2.716 4.565 3.873 8.874 2.297 12.9l.931.364c1.744-4.454.406-9.111-2.369-13.775-2.776-4.666-7.056-9.448-11.381-14.205-4.343-4.775-8.732-9.526-11.807-14.177-3.079-4.659-4.764-9.11-3.857-13.3l-.978-.212zm29.452 55.329c-10.93 32.777-36.951 47.497-61.13 62.49-24.143 14.972-46.453 30.228-49.268 64.14l.997.083c2.77-33.374 24.649-48.397 48.798-63.373 24.114-14.953 50.488-29.846 61.552-63.024l-.949-.316zM100.504 16.586c-1.58 18.99 5.847 32.683 19.039 42.975 13.161 10.266 32.056 17.15 53.451 22.613 21.399 5.464 45.377 9.526 68.712 14.108 23.352 4.585 46.068 9.693 65.014 17.25l.37-.929c-19.04-7.595-41.837-12.717-65.192-17.303-23.372-4.589-47.294-8.64-68.657-14.095-21.367-5.457-40.093-12.3-53.082-22.433-12.957-10.107-20.207-23.485-18.658-42.103l-.997-.083zm206.216 96.946c1.797.716 2.987 1.072 3.878 1.232.906.164 1.488.122 2.044.072.532-.048 1.025-.102 1.826 0 .813.104 1.956.37 3.754.989l.326-.946c-1.832-.63-3.047-.92-3.953-1.035-.918-.117-1.504-.052-2.043-.004-.515.047-.996.081-1.777-.06-.796-.143-1.916-.472-3.685-1.177l-.37.929zm11.503 2.293c18.108 6.205 30.55 4.519 40.195-1.598 9.597-6.087 16.345-16.52 23.174-27.585 6.853-11.103 13.802-22.87 23.813-31.845 9.985-8.954 23.028-15.137 42.088-15.007l.007-1c-19.316-.132-32.598 6.147-42.763 15.262-10.14 9.093-17.167 21.001-23.995 32.064-6.851 11.1-13.489 21.323-22.86 27.266-9.323 5.913-21.432 7.631-39.335 1.497l-.324.946zm129.27-76.035c10.32.07 19.737 4.597 28.493 12.504 8.761 7.912 16.834 19.186 24.448 32.692 15.23 27.014 28.555 62.832 41.858 98.206 13.292 35.347 26.564 70.256 41.68 95.362 7.558 12.554 15.599 22.696 24.367 29.217 8.782 6.532 18.306 9.438 28.779 7.484l-.184-.984c-10.148 1.895-19.394-.903-27.998-7.302-8.618-6.41-16.579-16.426-24.108-28.93-15.058-25.012-28.298-59.826-41.6-95.199-13.293-35.348-26.646-71.249-41.923-98.345-7.638-13.55-15.775-24.929-24.649-32.943-8.879-8.019-18.522-12.69-29.156-12.762l-.007 1zm189.625 275.465c8.337-1.555 13.249-3.356 18.128-5.211 4.864-1.85 9.687-3.749 17.889-5.53l-.212-.977c-8.28 1.798-13.163 3.72-18.032 5.572-4.854 1.845-9.703 3.623-17.956 5.162l.183.984zm36.018-10.741c34.213-7.457 51.131-22.205 67.743-37.803 16.587-15.573 32.854-31.972 65.823-42.95l-.316-.949c-33.197 11.054-49.604 27.597-66.191 43.17-16.562 15.55-33.319 30.155-67.272 37.555l.213.977zm133.566-80.753c42.85-14.26 63.299-28.975 83.254-44.862 19.925-15.863 39.331-32.869 80.149-51.798l-.421-.907c-40.939 18.985-60.429 36.063-80.35 51.923-19.892 15.836-40.239 30.482-82.948 44.695l.316.949zm163.403-96.66c30.865-14.307 44.815-25.98 58.475-38.198 13.62-12.19 26.92-24.906 56.53-41.37l-.48-.875c-29.72 16.523-43.09 29.302-56.72 41.5-13.6 12.172-27.47 23.781-58.226 38.036l.421.907zm115.005-79.569c11.78-6.545 17.59-10.334 23.36-14.2 5.76-3.861 11.46-7.793 23.03-14.638l-.51-.86c-11.59 6.86-17.32 10.806-23.07 14.666-5.75 3.854-11.54 7.628-23.29 14.158l.48.874zm46.39-28.838c21.75-12.877 36.35-25.156 47.28-37.287 10.93-12.13 18.16-24.099 25.18-36.326 14.03-24.435 27.22-49.966 67.38-80.27l-.61-.798c-40.32 30.434-53.6 56.118-67.64 80.57-7.01 12.215-14.2 24.107-25.05 36.154-10.85 12.047-25.38 24.263-47.05 37.097l.51.86zm139.84-153.883c8.56-6.464 13.44-8.741 18.3-11.077 4.89-2.354 9.76-4.764 18.25-11.484l-.62-.785c-8.42 6.661-13.22 9.035-18.07 11.367-4.88 2.349-9.82 4.659-18.47 11.181l.61.798zm36.55-22.562c69.49-54.984 72.44-64.713 136.26-125.925l-.69-.722c-63.88 61.272-66.75 70.918-136.19 125.863l.62.784zm-1126.4-7.735c-8.899 18.224-18.388 33.443-26.192 47.545-7.793 14.081-13.895 27.034-15.92 40.622-4.06 27.241 8.288 56.817 55.349 103.043l.7-.714c-47.013-46.179-59.045-75.444-55.06-102.181 1.997-13.4 8.022-26.221 15.805-40.285 7.772-14.043 17.304-29.34 26.216-47.592l-.898-.438zm13.225 191.198c9.098 9.532 16.017 18.043 21.616 24.893 5.582 6.83 9.892 12.066 13.738 14.964l.602-.798c-3.726-2.809-7.95-7.927-13.565-14.798-5.599-6.85-12.54-15.388-21.667-24.951l-.724.69zm35.354 39.857c6.168 4.648 12.397 5.173 18.643 3.575 6.207-1.588 12.451-5.278 18.691-9.054 6.269-3.794 12.54-7.679 18.887-9.767 6.324-2.081 12.677-2.365 19.129 1.01l.464-.887c-6.756-3.533-13.403-3.213-19.905-1.073-6.478 2.132-12.857 6.087-19.093 9.861-6.265 3.791-12.382 7.396-18.421 8.941-6.002 1.536-11.907 1.03-17.793-3.404l-.602.798zm75.35-14.237c18.258 9.557 31.092 9.215 41.346 3.162 10.183-6.011 17.718-17.609 25.53-30.249 15.678-25.37 32.603-55.16 74.238-55.106l.001-1c-42.268-.054-59.464 30.293-75.09 55.58-7.841 12.689-15.255 24.05-25.187 29.914-9.862 5.82-22.311 6.268-40.374-3.187l-.464.886zM446.533-30.86c20.677.027 37.815 16.696 53.198 41.739 15.364 25.011 28.86 58.178 42.324 90.846 13.452 32.64 26.874 64.787 42.078 87.664 15.188 22.851 32.302 36.669 53.163 32.173l-.21-.977c-20.2 4.353-36.964-8.946-52.12-31.749-15.138-22.779-28.523-54.825-41.987-87.492-13.452-32.64-26.98-65.893-42.396-90.989-15.396-25.063-32.793-42.188-54.049-42.215l-.001 1zm190.763 252.422c42.865-9.236 60.639-35.297 77.882-62.719 17.242-27.42 33.95-56.183 74.641-71.332l-.349-.938c-41.049 15.283-57.915 44.346-75.139 71.738-17.222 27.389-34.806 53.129-77.245 62.274l.21.977zM789.819 87.51c27.028-10.067 41.518-14.086 55.825-18.615 14.317-4.532 28.423-9.566 54.638-21.652l-.419-.909c-26.178 12.07-40.244 17.089-54.521 21.608-14.287 4.523-28.814 8.553-55.872 18.63l.349.938zm110.463-40.268c15.402-7.097 24.029-9.463 32.603-11.989 8.601-2.533 17.137-5.223 32.308-12.966l-.455-.89c-15.101 7.707-23.576 10.376-32.135 12.897-8.585 2.529-17.269 4.911-32.74 12.04l.419.908zm64.911-24.955c43.127-22.003 63.607-36.45 83.467-51.954 19.84-15.493 39.04-32.018 79.64-58.217l-.55-.84c-40.64 26.23-59.88 42.79-79.71 58.269-19.81 15.466-40.23 29.878-83.302 51.851l.455.891zM1128.3-87.884c14.87-9.592 20.74-16.937 26.49-24.396 5.72-7.418 11.32-14.939 25.7-24.986l-.58-.82c-14.49 10.134-20.17 17.748-25.91 25.195-5.72 7.407-11.5 14.658-26.25 24.166l.55.84zm52.19-49.382c28.15-19.692 42.11-45.576 55.64-71.858 13.54-26.298 26.63-52.983 53.04-74.526l-.64-.775c-26.59 21.696-39.77 48.577-53.29 74.844-13.53 26.282-27.39 51.959-55.33 71.495l.58.82zM138.717-283.813c.757 1.507 2.24 3.14 4.213 4.881 1.983 1.749 4.501 3.642 7.373 5.666 2.874 2.024 6.113 4.186 9.54 6.471 3.429 2.287 7.047 4.698 10.687 7.223 7.281 5.053 14.63 10.555 20.684 16.417 6.06 5.866 10.785 12.059 12.87 18.484l.951-.309c-2.158-6.651-7.017-12.98-13.125-18.894-6.113-5.918-13.515-11.457-20.81-16.519-3.649-2.532-7.275-4.948-10.702-7.233-3.429-2.287-6.658-4.442-9.519-6.458-2.862-2.016-5.346-3.885-7.287-5.598-1.951-1.721-3.314-3.25-3.981-4.58l-.894.449zm65.367 59.142c2.83 8.721-.064 15.102-5.11 23.573-5.044 8.467-12.187 18.939-17.512 35.679l.953.304c5.282-16.606 12.352-26.968 17.418-35.472 5.064-8.499 8.177-15.225 5.202-24.393l-.951.309zm110.36 124.414c15.756 10.222 27.08 15.877 36.422 18.596 9.364 2.724 16.717 2.492 24.511.985 15.554-3.009 32.739-11.04 71.534-10.888l.004-1c-38.923-.153-56.354 7.932-71.728 10.906-7.67 1.483-14.858 1.708-24.041-.963-9.204-2.678-20.431-8.273-36.157-18.474l-.545.838zm132.467 8.693c20.703.084 37.678 14.45 52.799 35.875 15.114 21.414 28.278 49.74 41.402 77.494 13.11 27.727 26.183 54.891 41.101 73.877 14.919 18.988 31.8 29.937 52.51 24.903l-.236-.972c-20.133 4.894-36.655-5.671-51.488-24.549-14.834-18.88-27.86-45.932-40.983-73.686-13.11-27.725-26.314-56.142-41.489-77.643-15.166-21.49-32.4-36.213-53.612-36.299l-.004 1zm187.812 212.149c14.323-3.479 21.222-10.364 28.001-17.381 6.755-6.993 13.383-14.107 27.204-18.311l-.291-.957c-14.086 4.285-20.867 11.57-27.633 18.573-6.743 6.981-13.478 13.694-27.517 17.104l.236.972zm55.205-35.692c28.482-8.671 39.344-25.374 49.894-42.626C750.358 25.039 760.578 7.28 787.74-3.92l-.382-.925c-27.489 11.336-37.853 29.361-48.389 46.59-10.521 17.204-21.217 33.632-49.332 42.191l.291.957zM787.739-3.92c86.11-35.488 89.279-34.922 170.572-80.315l-.488-.873C876.584-39.745 873.46-40.33 787.358-4.845l.381.925zm170.572-80.315c37.997-21.212 37.91-23.071 74.809-46.002l-.53-.85c-36.959 22.97-36.792 24.779-74.766 45.979l.487.873zm74.809-46.002c23.74-14.758 29.32-31.893 44.1-55.795 14.79-23.923 38.92-54.881 99.87-97.596l-.57-.819c-61.05 42.785-85.28 73.838-100.16 97.889-14.88 24.073-20.28 40.876-43.77 55.471l.53.85zm-585.36 9.751c20.709.406 37.66 11.606 52.731 27.953 15.076 16.353 28.209 37.785 41.301 58.547 13.074 20.734 26.113 40.81 40.976 54.328 14.886 13.54 31.659 20.551 52.153 15.044l-.26-.966c-20.066 5.392-36.5-1.428-51.22-14.818-14.745-13.41-27.714-33.364-40.803-54.122-13.072-20.73-26.259-42.255-41.412-58.69-15.159-16.443-32.35-27.862-53.447-28.275l-.019.999zM634.921 35.386c43.048-11.57 64.209-26.64 84.738-43.395 20.5-16.731 40.335-35.11 80.799-53.415l-.412-.911c-40.603 18.368-60.536 36.834-81.019 53.552-20.455 16.694-41.491 31.68-84.366 43.203l.26.966zm165.537-96.81c21.703-9.827 31.73-17.856 41.569-26.217 9.81-8.337 19.419-16.99 40.326-28.133l-.47-.883c-21.008 11.196-30.684 19.909-40.503 28.254-9.791 8.32-19.74 16.29-41.335 26.068l.413.911zm81.895-54.35c10.381-5.535 22.42-7.683 35.309-8.158 12.892-.475 26.591.724 40.289 1.855 13.684 1.13 27.367 2.192 40.167 1.425 12.802-.766 24.762-3.364 35.002-9.583l-.52-.854c-10.05 6.102-21.83 8.678-34.542 9.439-12.718.762-26.33-.293-40.025-1.424-13.68-1.129-27.444-2.335-40.408-1.857-12.966.478-25.174 2.64-35.742 8.274l.47.883zm-671.423 6.113c2.752 5.444 7.642 9.265 14.141 11.808 6.493 2.54 14.62 3.817 23.909 4.161 18.577.69 41.925-2.346 66.42-6.595 24.473-4.245 50.217-9.726 73.449-13.917 23.279-4.199 44.091-7.115 58.892-6.282l.057-.999c-14.935-.84-35.858 2.099-59.127 6.297-23.316 4.206-48.931 9.664-73.442 13.916-24.488 4.248-47.747 7.266-66.212 6.581-9.232-.342-17.235-1.61-23.582-4.093-6.341-2.481-11.002-6.164-13.612-11.328l-.893.451zm236.811-10.825c41.286 2.328 67.299 24.359 93.163 43.025 12.92 9.324 25.812 17.81 40.529 22.493 14.734 4.688 31.271 5.557 51.475-.302l-.278-.96c-20.02 5.805-36.355 4.935-50.893.31-14.556-4.632-27.338-13.035-40.247-22.352-25.793-18.614-52.056-40.865-93.692-43.213l-.057.999zM632.908-55.27c18.66-5.407 28.748-10.265 38.69-15.515 9.925-5.242 19.681-10.861 37.723-17.827l-.36-.933c-18.107 6.991-27.917 12.64-37.83 17.876-9.897 5.226-19.921 10.054-38.501 15.439l.278.96zm76.413-33.342c48.008-18.525 53.595-19.683 99.772-42.393l-.441-.897c-46.132 22.687-51.679 23.831-99.691 42.357l.36.933zm99.772-42.393c43.423-21.343 73.454-46.269 102.703-72.469 29.251-26.203 57.703-53.66 98.014-80.145l-.55-.836c-40.389 26.537-68.908 54.058-98.131 80.236-29.227 26.179-59.177 51.034-102.477 72.317l.441.897zM447.705-120.49c40.565 5.237 66.477 5.8 92.208 1.982 25.714-3.815 51.231-12.005 90.983-24.23l-.294-.956c-39.785 12.236-65.216 20.395-90.836 24.197-25.603 3.799-51.413 3.247-91.932-1.984l-.129.991zm183.191-22.248c43.263-13.297 73.936-9.755 103.898-8.185 29.99 1.572 59.219 1.158 99.418-20.161l-.468-.884c-39.975 21.2-68.999 21.613-98.898 20.047-29.929-1.569-60.783-5.131-104.244 8.227l.294.956zm203.316-28.346c9.436-5.005 17.939-13.196 25.942-22.974 8.005-9.779 15.535-21.178 23.009-32.621 7.481-11.452 14.905-22.947 22.715-32.958 7.811-10.013 15.982-18.507 24.939-23.974l-.521-.853c-9.108 5.558-17.366 14.161-25.207 24.212-7.841 10.052-15.29 21.587-22.763 33.027-7.478 11.448-14.98 22.803-22.946 32.534-7.966 9.733-16.37 17.809-25.636 22.723l.468.884zM612.21-283.537c28.764 0 49.803 16.968 69.461 31.441 9.805 7.219 19.282 13.825 29.172 17.284 9.92 3.469 20.254 3.773 31.751-1.585l-.423-.906c-11.235 5.236-21.297 4.939-30.998 1.547-9.729-3.403-19.094-9.918-28.909-17.145-19.583-14.417-40.899-31.636-70.054-31.636v1zm130.384 47.14c18.872-8.795 41.675-15.454 64.348-22.49 22.65-7.029 45.167-14.433 63.376-24.715l-.492-.871c-18.103 10.222-40.52 17.599-63.181 24.631-22.638 7.025-45.524 13.708-64.474 22.539l.423.906zm-6.349 705.568c6.256-1.722 13.107-5.94 20.286-9.885 7.221-3.967 14.815-7.688 22.683-8.571l-.111-.993c-8.083.906-15.83 4.719-23.054 8.688-7.265 3.992-13.961 8.115-20.069 9.796l.265.965z"/><path d="M91.693 1664.25l.321-.38-.033-.03-.037-.02-.25.43zm217.642-29.8l-.155.47h.001l.154-.47zm6.968 3.06l.152-.48h-.001l-.151.48zm-165.454-58.19l.222-.45-.222.45zm179.954-66.29l-.15.47.014.01h.014l.122-.48zm1131.317 117.44l.13.49.03-.01.02-.01-.18-.47zm2.65-1l.19.46-.19-.46zm201.88-12.61l.24.44-.24-.44zm190.41-52.41l-.28-.42.28.42zm17.41-10.33l.28.42-.28-.42zm-1420.407-5.79l-.067.5h.069l-.002-.5zm479.263-.38l.069.5-.069-.5zm179.564 64.63l-.11-.49.11.49zm100.62-11.35l.14.48-.14-.48zm71.19-17.4l-.16-.47.16.47zm159.11-83.45l-.21-.46.21.46zm214.23 21.98l-.24-.44.24.44zm11.21-5.18l-.25-.43.25.43zm211.96-72l-.3-.4.3.4zm-1772.477 61.96l-.241.44.241-.44zm204.283-55.27l-.136.48.136-.48zm508.055-11.07l-.056-.49.056.49zm107.543 32.67l-.086-.49.086.49zm177.646 40.18l-.13-.48.13.48zm143.27-106.1l.17.47-.17-.47zm147.74-27.55l.22.45-.22-.45zm26.64-9.23l-.23-.45.23.45zm206.52-22.19l.27.42-.27-.42zm120.27-14.59l.29.41-.29-.41zm127.65-16.35l.32.39-.32-.39zM288.726 1418.92l.133-.48-.133.48zm155.185 31.63l.057-.5-.057.5zm168.299-14.15l.018.5-.018-.5zm166.949-65.14v-.5h-.056l.056.5zm377.731-78.02l-.17-.46.17.46zm60.64-43.76l-.19-.46.19.46zm160.31-62.62l.24.44-.24-.44zm123.07 1.83l.27.42-.27-.42zm107.5 6.75l-.28-.41.28.41zm223.08-35.13l-.33-.37.33.37zm21.54-17.12l.34.37-.34-.37zM8.152 1108.1l.475.16-.475-.16zm9.072 166.68l-.464.19.464-.19zm76.627 129.75l.278-.41-.278.41zm160.767-6.22l-.156.47.156-.47zm39.223-1.21l-.131.49.131-.49zm160.24 2l-.046.5.046-.5zm320.388 22.12l.072.5-.072-.5zm221.834-31.49l.025.5-.025-.5zm85.987-100.56l-.17-.47.17.47zm121.25-140.63l.21.45-.21-.45zm84.61-28.22l.24.44-.24-.44zm86.96-16.62l.26.43-.26-.43zm264.7 34.69l.31.4-.31-.4zm6.99-4.93l-.31-.39.31.39zm200.52-111.27l-.36-.36.36.36zm18.06-27.433l.36.344-.36-.344zm35.9-250.149l-.41-.294v.001l.41.293zM26.957 1106.36l-.49-.1.49.1zM68 1280.41l.382-.32-.382.32zm34.147 39.57l-.311.39.311-.39zm192.131 11.85l.132-.48-.132.48zm158.711-6.65l.036-.5-.036.5zm159.221 43.12l.033.49-.033-.49zm168.044 18.26l.089.5-.089-.5zm178.487.24l-.138-.48h-.001l.139.48zm121.599-180.17l-.18-.46.18.46zm43.32-45.41l.2.46-.2-.46zm73.06-105.22l.23.44-.23-.44zm198.19-18.09l.27.41-.27-.41zm22.39-8.31l.28.41-.28-.41zm277.35 50.77l.32.38-.32-.38zm68.69-49.71l.34.36-.34-.36zm25.62-199.09l-.38-.331.38.331zM99.71 1240.68l.365-.34-.366.34zm70.459 27.25l-.262.43h.001l.261-.43zm126.219-8.08l.135-.48-.135.48zm156.765-38.74l.026-.5-.026.5zm180.054 91.44l.077.49-.077-.49zm316.551 17.5l.058.5.051-.01.048-.01-.157-.48zm135.472-177.36l-.2-.46.2.46zm121.66-147.23l-.25-.44.25.44zm58.09-15.469l-.26-.43.26.43zm170.42 0l.3.404-.3-.404zM1596.26 1006l.32.38-.32-.38zm101.3-52.053l.34.364-.34-.364zm27.21-168.492l.37.336-.37-.336zM101.002 937.67l.499.042-.499-.042zm-31.856 179.75l-.485.12.485-.12zm9.278 25.72l.462-.19-.462.19zm219.62 44.79l.142-.48-.142.48zm118.178-54.45l-.042.5.042-.5zm253.907 280.15l-.063-.5-.039.01-.038.01.14.48zm138.607-62.29l-.123-.48.123.48zm168.216-95.37l-.175-.47.175.47zm121.978-180.89l.22.45-.22-.45zm5.7-3.13l.22.45-.22-.45zm129.47-132.626l.27.424-.27-.424zm160.93 2.842l-.29-.402.29.402zm66.75-31.835l-.31-.39.31.39zm173.16-88.761l-.35-.356.35.356zM139.164 1059.51l-.379.32.379-.32zm162.576 51.81l-.158.48.158-.48zm147.741-67.55l-.009.5.009-.5zm358.902 199.62l-.141-.48.141.48zm135.952-62.96l.183.46-.183-.46zm34.839-15.89l-.192-.46.192.46zm138.286-149.3l.23.44-.23-.44zm101.64-101.817l.27.42-.27-.42zm38.98-39.551l.29.412-.29-.412zM211.376 811.157l-.465-.182-.005.011-.004.013.474.158zm95.529 222.953l-.185.47.185-.47zm11.48 2.29l-.163.47h.001l.162-.47zm129.112-76.067l.003-.5-.003.5zm189.529 275.477l-.091-.5h-.001l.092.5zm36.003-10.74l.106.49h.001l-.107-.49zm133.515-80.74l-.158-.48.158.48zm163.35-96.64l-.21-.45.21.45zm114.976-79.552l-.24-.437v.001l.24.436zm46.37-28.831l.26.43-.26-.43zm139.79-153.852l-.3-.399.3.399zm36.55-22.555l.31.393v-.001l-.31-.392zM195.077 946.41l.362-.345-.006-.006-.006-.006-.35.357zm35.293 39.803l-.301.399.301-.399zm75.281-14.281l.232-.443-.232.443zm140.883-82.25v-.5.5zm190.657 252.438l-.105-.49.105.49zm152.453-134.04l.175.47-.175-.47zm110.429-40.249l-.21-.454.21.454zm64.892-24.946l-.227-.446.227.446zm163.055-110.146l-.27-.421.27.421zm52.18-49.372l.29.41-.29-.41zm-975.64-87.15l.475-.154-.475.154zm242.353 132.762l.002-.5-.002.5zm187.692 212.161l-.118-.48.118.48zm55.177-35.68l.146.48-.146-.48zm97.767-88.8l-.191-.462.191.462zm170.518-80.289l-.243-.436h-.001l.244.436zm74.793-45.99l.26.425-.26-.425zM634.791 955.946l.13.483-.13-.483zm165.461-96.783l.206.456-.206-.456zm81.866-54.335l.235.441-.235-.441zm-249.349 60.465l-.139-.48.139.48zm76.372-33.328l-.18-.467.18.467zm99.731-42.375l-.22-.449.22.449zm-178.123-11.763l-.147-.478.147.478zm203.229-28.31l.234.442-.234-.442zm-91.595-65.324l-.212-.453.212.453zm-6.403 705.057a.496.496 0 00-.35.61c.074.27.349.43.615.35l-.265-.96zM-15.484 1695.9c3.333 2.33 4.836 3.12 6.344 3.88 1.477.75 2.954 1.48 6.27 3.73l.561-.83c-3.361-2.28-4.877-3.03-6.379-3.79-1.47-.75-2.933-1.5-6.222-3.81l-.574.82zm11.477-19c3.93 2.74 7.02 4.22 9.704 5.07 2.683.84 4.937 1.04 7.158 1.21 2.221.17 4.404.32 7.025 1.06 2.619.74 5.694 2.06 9.658 4.61l.54-.84c-4.031-2.59-7.196-3.96-9.927-4.73-2.73-.77-5.006-.93-7.219-1.1-2.214-.17-4.369-.36-6.935-1.16-2.566-.81-5.566-2.25-9.432-4.94l-.572.82zm-9.854-17.42c10.257 7.41 19.308 9.88 27.8 9.77 8.47-.11 16.347-2.77 24.231-5.54 7.907-2.77 15.822-5.64 24.471-6.27 8.628-.62 18.004.99 28.802 7.24l.5-.86c-10.969-6.35-20.544-8.02-29.374-7.38-8.807.64-16.852 3.57-24.73 6.33-7.9 2.77-15.63 5.38-23.912 5.48-8.259.1-17.103-2.28-27.203-9.58l-.585.81zm105.233 5.16c24.136 20.21 45.631 24.54 64.341 28.26 18.7 3.72 34.512 6.82 47.632 24.4l.801-.59c-13.373-17.92-29.553-21.07-48.238-24.79-18.676-3.71-39.96-8.01-63.894-28.05l-.642.77zm74.188-79.19c40.448 19.78 54.934 25.19 70.042 29.14 15.085 3.94 30.717 6.4 73.578 20.33l.31-.95c-42.899-13.94-58.602-16.42-73.635-20.35-15.009-3.92-29.421-9.29-69.856-29.06l-.439.89zm143.621 49.47c2.095.68 2.727 1.09 3.365 1.49.706.44 1.417.88 3.605 1.57l.303-.95c-2.105-.67-2.74-1.07-3.376-1.47-.703-.44-1.409-.88-3.589-1.59l-.308.95zm6.97 3.06c39.004 12.43 54.143 32.21 70.875 48.98 8.374 8.4 17.152 16.05 29.509 21.59 12.356 5.54 28.253 8.96 50.849 8.96v-1c-22.495 0-38.244-3.41-50.439-8.87-12.194-5.47-20.872-13.02-29.211-21.38-16.691-16.74-32.001-36.71-71.279-49.23l-.304.95zm-331.627-69.06c10.889 7.3 23.847 10.16 37.844 10.73 13.993.57 29.069-1.16 44.21-3.06 15.158-1.9 30.38-3.97 44.726-4.14 14.345-.16 27.766 1.59 39.323 7.32l.444-.9c-11.757-5.82-25.358-7.58-39.778-7.42-14.418.17-29.706 2.25-44.84 4.15-15.149 1.9-30.146 3.61-44.045 3.05-13.895-.56-26.648-3.4-37.327-10.56l-.556.83zm166.103 10.85c20.251 10.03 36.352 9.2 50.433 2.68 14.034-6.5 26.024-18.64 38.105-31.09 12.11-12.49 24.32-25.3 38.849-33.32 14.495-8 31.305-11.24 52.639-4.54l.3-.95c-21.61-6.79-38.703-3.51-53.423 4.62-14.685 8.11-27.002 21.04-39.083 33.49-12.108 12.48-23.972 24.47-37.807 30.88-13.787 6.38-29.57 7.24-49.569-2.67l-.444.9zm180.054-66.26c67.393 16.85 96.527 67.65 119.018 114.4 11.231 23.35 20.827 45.74 32.709 62.27 11.903 16.56 26.164 27.33 46.753 27.33v-1c-20.151 0-34.147-10.51-45.941-26.91-11.815-16.44-21.355-38.7-32.62-62.12-22.504-46.78-51.81-97.97-119.676-114.94l-.243.97zm927.539 203.98c42.61-12.31 60.97-24.84 84.98-38.83 23.99-13.98 53.69-29.45 119.05-47.7l-.27-.97c-65.45 18.28-95.22 33.79-119.28 47.8-24.03 14-42.28 26.47-84.76 38.74l.28.96zm204.08-86.55c.64-.26.97-.38 1.31-.5.34-.12.68-.25 1.35-.51l-.37-.93c-.65.26-.99.38-1.32.5-.34.12-.69.25-1.34.51l.37.93zm2.66-1.01c42.01-16.76 72.25-9.44 102.13-3.14 29.91 6.32 59.45 11.6 99.8-9.49l-.47-.88c-40.03 20.92-69.27 15.69-99.12 9.4-29.89-6.31-60.4-13.7-102.71 3.18l.37.93zm201.93-12.63c39.07-20.44 68.18-21.32 96.79-23.19 28.64-1.88 56.75-4.74 93.65-29.25l-.55-.83c-36.69 24.36-64.6 27.21-93.17 29.08-28.61 1.87-57.91 2.76-97.19 23.31l.47.88zm190.44-52.44c3.83-2.54 6.25-3.81 8.69-5.1 2.44-1.3 4.89-2.61 8.73-5.22l-.56-.83c-3.8 2.58-6.21 3.88-8.64 5.17-2.44 1.29-4.9 2.58-8.77 5.15l.55.83zm17.42-10.32c10.44-7.12 20.33-13.06 29.79-18.14l-.47-.88c-9.5 5.09-19.41 11.06-29.88 18.19l.56.83zm-1740.979-38.56c26.678 13.93 49.683 8.88 72.957 2.92 23.291-5.96 46.839-12.83 74.89-2.89l.334-.94c-28.382-10.06-52.228-3.09-75.472 2.86-23.259 5.96-45.929 10.91-72.246-2.83l-.463.88zm536.382-81.5c20.889-1.02 42.544 6.27 64.615 17.65 22.071 11.38 44.5 26.82 66.945 42.05 22.43 15.22 44.875 30.24 66.929 40.72 22.054 10.48 43.774 16.46 64.753 13.55l-.138-.99c-20.7 2.87-42.211-3.02-64.186-13.46-21.974-10.45-44.356-25.42-66.797-40.65-22.426-15.22-44.912-30.69-67.048-42.11-22.134-11.41-43.976-18.79-65.121-17.76l.048 1zm263.242 113.97c41.957-5.82 65.927 14.91 89.895 34.9 11.97 9.99 23.96 19.8 38.17 25.92 14.23 6.13 30.67 8.55 51.54 3.79l-.22-.97c-20.66 4.71-36.88 2.31-50.92-3.73-14.06-6.06-25.94-15.78-37.93-25.78-23.949-19.97-48.234-41.01-90.673-35.12l.138.99zM1113 1613.06c24.53-5.59 37.52-4.95 50.46-4.65 12.98.3 25.89.26 50.19-6.7l-.28-.96c-24.17 6.92-36.97 6.95-49.89 6.66-12.96-.3-26.05-.94-50.7 4.68l.22.97zm100.65-11.35c17.57-5.04 26.66-6.51 35.71-8.16 9.07-1.65 18.08-3.49 35.49-9.24l-.31-.95c-17.36 5.74-26.33 7.56-35.36 9.2-9.06 1.66-18.18 3.13-35.81 8.19l.28.96zm71.2-17.4c42.7-14.11 62.01-25.89 80.9-38.7 18.87-12.79 37.29-26.58 78.26-44.77l-.41-.92c-41.06 18.23-59.54 32.07-78.41 44.86-18.83 12.77-38.06 24.5-80.65 38.58l.31.95zm159.16-83.47c40.08-17.79 74.28-1.51 108.22 13.92 33.89 15.4 67.52 29.97 106.06 8.03l-.49-.87c-38.05 21.66-71.23 7.35-105.15-8.07-33.87-15.4-68.5-31.92-109.05-13.93l.41.92zm214.28 21.95c2.49-1.42 4.01-1.97 5.54-2.54 1.55-.57 3.11-1.16 5.67-2.64l-.5-.86c-2.49 1.43-3.99 2-5.52 2.56-1.55.58-3.12 1.16-5.68 2.61l.49.87zm11.21-5.18c43.35-25.06 76.2-28.01 108.3-32.21 32.15-4.21 63.51-9.66 103.71-39.82l-.6-.8c-40 30.01-71.17 35.43-103.23 39.63-32.11 4.2-65.14 7.16-108.68 32.34l.5.86zm212.01-72.03c8.63-6.47 16.08-10.64 22.99-13.79l-.41-.91c-6.98 3.18-14.49 7.39-23.18 13.9l.6.8zm-1897.046 31.79c20.067 18.48 39.285 19.45 59.358 19.12 20.065-.34 40.947-1.96 64.67 11.09l.482-.88c-23.996-13.2-45.158-11.55-65.169-11.21-20.002.33-38.888-.64-58.663-18.85l-.678.73zm124.028 30.21c19.73 10.86 37.04 11.27 53.24 6.15 16.164-5.11 31.208-15.72 46.429-26.85 30.507-22.32 61.766-46.73 104.719-34.53l.273-.96c-43.498-12.36-75.167 12.43-105.582 34.68-15.24 11.15-30.156 21.66-46.14 26.71-15.948 5.04-32.974 4.64-52.457-6.08l-.482.88zm204.388-55.23c20.453 5.81 34.17 14.01 44.567 23.21 10.407 9.2 17.502 19.41 24.72 29.31 7.21 9.89 14.54 19.46 25.389 27.26 10.857 7.82 25.207 13.84 46.44 16.7l.133-1c-21.1-2.84-35.288-8.81-45.989-16.51-10.708-7.7-17.958-17.16-25.165-27.04-7.2-9.88-14.361-20.18-24.866-29.47-10.515-9.3-24.367-17.57-44.956-23.42l-.273.96zm141.185 96.48c35.613-.19 52.886-25.44 65.724-51.35 6.442-13 11.741-26.1 17.716-36.49 5.973-10.39 12.508-17.85 21.29-19.7l-.206-.98c-9.233 1.94-15.959 9.76-21.951 20.18-5.989 10.42-11.358 23.66-17.745 36.55-12.819 25.87-29.846 50.6-64.833 50.79l.005 1zm284.76-121.89c15.101-1.21 27.996 3.21 40.986 7.55 12.969 4.32 26.03 8.56 41.317 6.81l-.113-.99c-15.04 1.72-27.904-2.44-40.888-6.77-12.962-4.33-26.047-8.82-41.382-7.6l.08 1zm82.303 14.36c13.337-1.52 23.355.32 31.714 3.78 8.373 3.48 15.1 8.58 21.872 13.63 6.759 5.04 13.561 10.04 22.021 13.17 8.474 3.14 18.583 4.41 31.965 2.09l-.172-.99c-13.224 2.3-23.153 1.04-31.446-2.04-8.307-3.08-15.003-7.98-21.77-13.03-6.753-5.04-13.58-10.22-22.087-13.75-8.523-3.53-18.713-5.4-32.21-3.85l.113.99zm107.572 32.67c21.058-3.67 37.467-1.62 51.531 3.17 14.08 4.78 25.829 12.31 37.579 19.65 11.74 7.32 23.48 14.45 37.49 18.35 14.03 3.91 30.3 4.56 51.09-1l-.26-.97c-20.63 5.52-36.72 4.86-50.56 1.01-13.85-3.86-25.49-10.91-37.23-18.24-11.73-7.32-23.578-14.92-37.787-19.75-14.224-4.84-30.803-6.9-52.025-3.21l.172.99zm177.69 40.17c21.3-5.7 35.8-13.27 46.84-21.93 11.04-8.65 18.6-18.37 26.06-28.29 7.45-9.93 14.79-20.06 25.4-29.64 10.6-9.57 24.49-18.59 45.01-26.26l-.35-.93c-20.63 7.71-34.63 16.79-45.33 26.45-10.69 9.65-18.09 19.87-25.53 29.78-7.45 9.92-14.95 19.54-25.88 28.1-10.92 8.56-25.29 16.09-46.48 21.75l.26.97zm143.31-106.12c35.9-13.41 55.41-12.08 74.66-11.5 9.64.29 19.24.4 30.77-1.63 11.53-2.04 24.98-6.2 42.36-14.44l-.43-.9c-17.31 8.2-30.68 12.34-42.1 14.35-11.43 2.02-20.94 1.91-30.57 1.62-19.29-.58-38.96-1.91-75.04 11.57l.35.93zm147.79-27.57c6.51-3.09 9.87-3.77 13.24-4.49 3.42-.73 6.85-1.5 13.4-4.74l-.45-.9c-6.45 3.2-9.79 3.94-13.16 4.66-3.41.73-6.86 1.43-13.46 4.57l.43.9zm26.64-9.23c42.95-21.21 74.18-13.88 104.91-7.64 15.36 3.12 30.62 5.96 47.12 4.78 16.51-1.18 34.23-6.4 54.54-19.36l-.54-.84c-20.18 12.88-37.74 18.03-54.07 19.2-16.35 1.18-31.49-1.64-46.85-4.76-30.74-6.24-62.28-13.65-105.56 7.72l.45.9zM1630.7 1349c21.75-13.89 41.11-9.94 60.44-6.25 19.33 3.68 38.62 7.09 59.85-8.35l-.59-.81c-20.85 15.17-39.75 11.86-59.07 8.17-19.31-3.68-39.05-7.73-61.17 6.4l.54.84zm120.29-14.6c20.71-15.08 42.45-10.99 64.2-7.15 21.69 3.83 43.38 7.42 63.48-9.22l-.64-.77c-19.7 16.31-40.93 12.85-62.67 9.01-21.68-3.83-43.86-8.04-64.96 7.32l.59.81zm127.68-16.37c11.02-9.12 19.37-17.78 26.02-26.19l-.79-.62c-6.59 8.35-14.9 16.96-25.87 26.04l.64.77zM16.047 1494.42c19.413 11.52 40.798 11.02 63.241 4.22 22.432-6.78 45.989-19.88 69.799-33.61 23.831-13.75 47.916-28.14 71.469-37.61 23.55-9.47 46.491-13.97 68.037-8.02l.266-.96c-21.853-6.04-45.04-1.45-68.676 8.05-23.635 9.5-47.794 23.94-71.596 37.67-23.823 13.75-47.284 26.78-69.588 33.53-22.292 6.74-43.358 7.2-62.441-4.13l-.51.86zm272.545-75.02c40.959 11.33 58.636 16.85 76.632 20.73 18.007 3.88 36.341 6.12 78.631 10.92l.113-1c-42.305-4.79-60.585-7.03-78.533-10.9-17.959-3.87-35.577-9.38-76.576-20.71l-.267.96zm155.263 31.65c41.696 4.73 62.868 1.34 84.101-3.3 21.19-4.64 42.401-10.52 84.258-10.85l-.008-1c-41.974.33-63.279 6.24-84.464 10.87-21.142 4.63-42.203 8-83.774 3.28l-.113 1zm590.715-99.55c24.64 2.47 41.72 1.17 54.23-2.47 12.52-3.63 20.42-9.6 26.68-16.42 3.13-3.4 5.84-7.01 8.52-10.63 2.67-3.62 5.3-7.25 8.27-10.73 5.93-6.95 13.2-13.26 24.8-17.54l-.35-.93c-11.79 4.34-19.2 10.78-25.21 17.82-3 3.51-5.65 7.18-8.32 10.79-2.67 3.62-5.36 7.19-8.44 10.55-6.16 6.7-13.91 12.56-26.23 16.13-12.34 3.59-29.28 4.89-53.85 2.44l-.1.99zm122.5-57.79c9.26-3.41 15.45-6.92 20.08-10.51 4.62-3.59 7.68-7.25 10.69-10.92s5.96-7.36 10.42-11.07c4.46-3.72 10.43-7.48 19.46-11.26l-.38-.93c-9.11 3.82-15.17 7.63-19.72 11.42-4.54 3.79-7.55 7.54-10.56 11.21-3 3.67-5.99 7.25-10.53 10.76-4.53 3.52-10.62 6.98-19.81 10.37l.35.93zm60.65-43.76c42.86-17.96 62.53-22.46 81.71-28.05 19.21-5.6 37.87-12.29 78.65-34.6l-.48-.88c-40.72 22.29-59.32 28.95-78.45 34.52-19.16 5.59-38.89 10.1-81.81 28.08l.38.93zm160.36-62.65c24.09-13.19 42.94-5.44 61.79 2.05 9.41 3.74 18.84 7.42 28.85 8.29 10.05.88 20.66-1.07 32.46-8.53l-.53-.84c-11.62 7.34-22.01 9.23-31.84 8.38-9.85-.86-19.14-4.48-28.57-8.23-18.83-7.48-38.1-15.43-62.64-2l.48.88zm123.1 1.81c18.08-11.42 35.83-3.64 53.74 4.09 17.81 7.68 35.79 15.32 53.78 2.65l-.57-.82c-17.47 12.31-34.9 4.98-52.81-2.75-17.81-7.68-36.08-15.76-54.67-4.01l.53.84zm107.52 6.74c38.52-27.14 76.41-20.27 113.69-14.39 37.25 5.89 73.89 10.79 109.43-20.78l-.66-.74c-35.16 31.22-71.35 26.42-108.61 20.54-37.23-5.88-75.53-12.85-114.42 14.55l.57.82zm223.12-35.17c4.79-4.25 7.79-6.35 10.78-8.47 3.01-2.13 6.01-4.29 10.77-8.65l-.68-.74c-4.72 4.32-7.68 6.45-10.66 8.58-3.01 2.12-6.04 4.25-10.87 8.54l.66.74zm21.55-17.12c38.02-34.86 32.01-77.8 24.75-121.58-7.27-43.856-15.79-88.556 16.54-127.561l-.77-.638c-32.67 39.413-24.01 84.607-16.75 128.369 7.27 43.83 13.13 86.22-24.45 120.67l.68.74zM-16.197 937.673c.219 41.492 13.254 62.987 22.656 84.607 4.698 10.81 8.491 21.64 9.372 35.05.88 13.42-1.15 29.44-8.153 50.62l.949.31c7.032-21.26 9.093-37.42 8.202-50.99-.892-13.58-4.734-24.53-9.452-35.38-9.43-21.69-22.356-42.979-22.574-84.222l-1 .005zM7.678 1107.95c-12.477 37.7-17.335 61.65-15.49 85.1 1.842 23.43 10.378 46.33 24.572 81.92l.929-.37c-14.205-35.62-22.676-58.37-24.505-81.63-1.828-23.24 2.977-47.03 15.443-84.71l-.95-.31zm9.082 167.02c6.096 15.28 10.387 28.65 14.284 40.73 3.896 12.08 7.401 22.86 11.921 32.92 9.057 20.16 22.175 37.37 50.609 56.33l.555-.83c-28.291-18.87-41.279-35.94-50.251-55.91-4.494-10-7.984-20.73-11.882-32.81-3.896-12.08-8.197-25.49-14.307-40.8l-.929.37zm76.814 129.98c14.782 9.86 28.061 13.01 40.723 12.52 12.64-.48 24.634-4.6 36.833-9.21 24.427-9.25 49.751-20.53 83.332-9.48l.313-.95c-33.969-11.18-59.629.26-83.999 9.49-12.199 4.62-24.057 8.68-36.518 9.16-12.44.47-25.513-2.62-40.13-12.36l-.554.83zm160.888-6.17c4.782 1.58 8.463 1.96 11.6 1.73 3.133-.24 5.696-1.09 8.215-1.96 2.525-.87 5.003-1.75 8.041-2.09 3.03-.35 6.638-.17 11.392 1.13l.263-.97c-4.861-1.32-8.598-1.52-11.769-1.16-3.163.36-5.742 1.28-8.253 2.14-2.518.87-4.973 1.69-7.964 1.91-2.986.23-6.534-.14-11.212-1.68l-.313.95zm39.248-1.19c40.957 11.14 59.959 9.69 79.304 6.41 19.275-3.26 38.832-8.31 81.021-4.4l.092-1c-42.334-3.92-62.009 1.16-81.279 4.42-19.201 3.25-38.057 4.71-78.875-6.4l-.263.97zm160.325 2.01c41.579 3.84 60.125 13.89 78.769 22.63 9.338 4.38 18.714 8.43 31.003 11.2 12.288 2.76 27.468 4.23 48.421 3.47l-.036-1c-20.889.76-35.98-.71-48.165-3.45-12.184-2.74-21.483-6.76-30.799-11.12-18.664-8.75-37.341-18.87-79.101-22.73l-.092 1zm158.193 37.3c84.071-3.06 79.087-3.04 162.313-15.18l-.144-.99c-83.199 12.14-78.177 12.12-162.205 15.17l.036 1zm162.313-15.18c77.473-11.31 85.241-7.59 164.52-7.59v-1c-79.238 0-87.1-3.72-164.664 7.6l.144.99zm164.52-7.59c10.075 0 17.312-1.43 22.856-3.61 5.547-2.18 9.371-5.1 12.626-8.03 6.519-5.89 10.65-11.69 21.785-12.26l-.051-1c-11.575.59-16.008 6.74-22.404 12.51-3.203 2.89-6.924 5.73-12.322 7.85-5.401 2.12-12.509 3.54-22.49 3.54v1zm57.267-23.9c17.752-.9 26.992-5.87 32.042-13.4 5.01-7.47 5.81-17.37 6.98-27.86 1.17-10.55 2.71-21.78 9.05-32.17 6.34-10.38 17.5-19.98 38.05-27.16l-.33-.94c-20.71 7.23-32.09 16.96-38.57 27.58-6.47 10.6-8.02 22.03-9.19 32.58-1.18 10.59-1.98 20.2-6.82 27.42-4.81 7.15-13.67 12.06-31.263 12.95l.051 1zm86.122-100.59c21.43-7.49 34.66-17.66 43.7-29.34 9.03-11.66 13.86-24.79 18.56-38.11 4.7-13.33 9.27-26.86 17.76-39.44 8.48-12.57 20.89-24.22 41.28-33.76l-.42-.91c-20.55 9.61-33.1 21.38-41.68 34.11-8.58 12.71-13.19 26.36-17.89 39.67-4.7 13.32-9.49 26.31-18.4 37.83-8.91 11.5-21.96 21.58-43.24 29.01l.33.94zm121.3-140.65c22.2-10.39 32.48-11.63 42.63-13.17 10.23-1.56 20.31-3.42 42.01-15.06l-.47-.88c-21.6 11.58-31.57 13.41-41.69 14.95-10.21 1.55-20.59 2.81-42.9 13.25l.42.91zm84.64-28.23c10.07-5.41 18.05-7.65 24.96-8.37 6.91-.71 12.78.11 18.67.88 5.88.76 11.79 1.47 18.69.49 6.91-.99 14.79-3.67 24.66-9.63l-.52-.86c-9.77 5.91-17.53 8.54-24.28 9.5-6.76.96-12.54.27-18.42-.5-5.88-.76-11.86-1.6-18.9-.87-7.06.73-15.16 3.02-25.33 8.48l.47.88zm86.98-16.63c21.6-13.06 43.85-13.59 66.39-7.96 22.57 5.63 45.36 17.41 68.02 28.93 22.63 11.51 45.12 22.75 66.98 27.21 21.89 4.47 43.18 2.14 63.36-13.52l-.61-.79c-19.91 15.44-40.88 17.76-62.55 13.33-21.7-4.43-44.07-15.6-66.73-27.12-22.62-11.51-45.53-23.35-68.22-29.01-22.72-5.67-45.27-5.17-67.16 8.07l.52.86zm264.75 34.66c1.64-1.27 2.55-1.85 3.46-2.43.93-.59 1.86-1.19 3.53-2.5l-.62-.79c-1.63 1.28-2.53 1.86-3.45 2.44-.92.59-1.86 1.19-3.53 2.49l.61.79zm6.99-4.93c42.35-33.19 73.51-41.83 103.58-51.76 30.13-9.94 59.12-21.17 96.98-59.56l-.71-.71c-37.71 38.25-66.55 49.41-96.58 59.32-30.08 9.93-61.39 18.61-103.89 51.92l.62.79zm200.56-111.32c5.49-5.56 7.37-9.68 9.22-13.79 1.82-4.07 3.6-8.12 8.85-13.649l-.72-.688c-5.37 5.657-7.2 9.827-9.04 13.927-1.83 4.06-3.66 8.06-9.02 13.49l.71.71zm18.07-27.439c37.25-39.23 30.42-80.235 22.26-122.122-8.17-41.922-17.66-84.725 13.68-128.078l-.81-.586c-31.63 43.753-22.01 86.995-13.85 128.856 8.16 41.897 14.87 82.413-22 121.242l.72.688zm35.94-250.199c1.38-1.907 2.29-3.168 3.02-4.195l-.81-.579c-.73 1.023-1.64 2.28-3.02 4.186l.81.588zM-16.197 831.965c0 43.278 14.953 90.407 27.737 137.389 12.797 47.036 23.424 93.926 14.927 136.906l.98.2c8.55-43.24-2.15-90.35-14.942-137.368C-.3 922.029-15.197 875.073-15.197 831.965h-1zm42.664 274.295c-7.573 38.35-9.412 67.58-3.278 94.43 6.134 26.85 20.232 51.28 44.428 80.04l.765-.64c-24.14-28.7-38.133-52.98-44.219-79.63-6.087-26.64-4.278-55.71 3.285-94l-.981-.2zm41.15 174.47c7.956 9.47 11.6 15.45 15.737 21.07 4.142 5.63 8.725 10.81 18.482 18.57l.622-.78c-9.691-7.71-14.213-12.83-18.299-18.38-4.09-5.56-7.796-11.63-15.777-21.12l-.765.64zm34.219 39.64c17.658 14.04 33.039 20.33 47.569 22.2 14.52 1.87 28.145-.67 42.263-4.19 28.244-7.05 58.539-18.04 102.479-6.06l.263-.97c-44.24-12.06-74.808-.97-102.984 6.06-14.092 3.51-27.566 6.01-41.893 4.17-14.317-1.85-29.531-8.04-47.075-21.99l-.622.78zm192.311 11.95c20.405 5.56 35.281 7.55 47.443 7.49 12.166-.06 21.591-2.17 31.078-4.78 18.933-5.2 38.163-12.4 80.285-9.35l.072-1c-42.308-3.06-61.683 4.18-80.622 9.39-9.449 2.59-18.777 4.68-30.818 4.74-12.046.06-26.829-1.91-47.175-7.46l-.263.97zm158.806-6.64c41.599 3 60.448 15.1 79.373 25.8 9.478 5.36 18.994 10.38 31.38 13.72 12.387 3.33 27.618 4.96 48.537 3.59l-.066-.99c-20.833 1.36-35.951-.27-48.211-3.57-12.26-3.3-21.687-8.27-31.147-13.62-18.951-10.72-37.962-22.91-79.794-25.93l-.072 1zm159.29 43.11c41.995-2.75 63.175 5.54 84.273 12.67 10.563 3.57 21.123 6.85 34.246 8.3 13.123 1.45 28.79 1.05 49.581-2.7l-.178-.99c-20.714 3.74-36.282 4.13-49.294 2.69-13.012-1.43-23.488-4.69-34.035-8.25-21.123-7.14-42.459-15.48-84.659-12.71l.066.99zm168.1 18.27c42.243-7.64 66.121-1.65 89.816 3.29 23.752 4.96 47.291 8.86 88.72-3.07l-.277-.96c-41.219 11.86-64.58 7.99-88.238 3.05-23.715-4.94-47.755-10.97-90.199-3.3l.178.99zm178.536.22c42.851-12.33 52.721-49.59 62.181-87.48 9.49-37.98 18.58-76.62 59.46-92.7l-.36-.93c-41.44 16.3-50.61 55.51-60.07 93.39-9.48 37.98-19.26 74.61-61.487 86.76l.276.96zm121.641-180.18c7.25-2.85 11.85-6.38 15.11-10.28 3.25-3.88 5.14-8.11 6.99-12.31 1.86-4.21 3.67-8.38 6.77-12.28 3.09-3.88 7.47-7.5 14.47-10.55l-.4-.92c-7.14 3.11-11.65 6.83-14.85 10.85-3.19 4.01-5.06 8.31-6.91 12.5-1.85 4.2-3.69 8.31-6.84 12.07-3.14 3.76-7.6 7.19-14.7 9.99l.36.93zm43.34-45.42c14.14-6.17 22.42-14.11 27.72-23.01 5.28-8.88 7.57-18.69 9.78-28.53 2.22-9.86 4.37-19.76 9.34-28.97 4.96-9.18 12.74-17.69 26.25-24.73l-.46-.88c-13.69 7.12-21.61 15.77-26.67 25.14-5.04 9.35-7.22 19.38-9.43 29.22-2.22 9.86-4.48 19.52-9.67 28.24-5.18 8.7-13.29 16.51-27.26 22.6l.4.92zm73.09-105.24c21.52-11.2 39.56-14.55 55.78-14.14 16.24.41 30.67 4.6 45 8.52 14.32 3.92 28.54 7.58 44.25 6.86 15.73-.72 32.92-5.82 53.2-19.36l-.55-.83c-20.16 13.45-37.17 18.48-52.69 19.19-15.54.71-29.62-2.9-43.94-6.82-14.31-3.92-28.86-8.14-45.24-8.56-16.4-.42-34.61 2.98-56.27 14.26l.46.88zm198.23-18.12c2.52-1.68 4.51-2.59 6.25-3.13 1.74-.54 3.23-.71 4.76-.89 1.53-.18 3.1-.37 4.93-.96 1.83-.59 3.9-1.57 6.46-3.33l-.56-.83c-2.5 1.72-4.48 2.66-6.21 3.21-1.72.56-3.21.74-4.74.92-1.53.18-3.1.36-4.94.93-1.84.57-3.92 1.53-6.5 3.25l.55.83zm22.4-8.31c18.96-13.03 41.27-12.7 65.29-5.71 24.02 6.98 49.64 20.6 75.14 34.01 25.46 13.4 50.81 26.59 74.2 32.65 23.41 6.07 44.97 5.01 62.76-10.21l-.65-.76c-17.45 14.93-38.61 16.03-61.86 10.01-23.26-6.03-48.49-19.16-73.99-32.57-25.47-13.4-51.18-27.07-75.32-34.09-24.15-7.03-46.83-7.43-66.13 5.84l.56.83zm277.39 50.74c14.95-12.79 24.9-18.46 34.73-24.31 9.85-5.86 19.57-11.9 33.98-25.42l-.68-.73c-14.35 13.46-24 19.45-33.81 25.29-9.84 5.85-19.85 11.56-34.87 24.41l.65.76zm68.71-49.73c28.72-26.94 22.09-62.41 14.92-98.143-7.2-35.852-14.96-71.984 10.73-100.975l-.75-.663c-26.07 29.427-18.14 66.111-10.96 101.835 7.2 35.842 13.64 70.706-14.62 97.216l.68.73zm25.65-199.118c11.62-13.11 31.3-23.399 50.98-33.868 19.62-10.437 39.22-21.054 50.41-34.818l-.77-.631c-11.04 13.575-30.44 24.1-50.11 34.566-19.61 10.435-39.5 20.812-51.26 34.088l.75.663zM26.458 1106.35c-1.334 60.58 32.082 90.79 72.885 134.67l.732-.68c-40.881-43.96-73.94-73.87-72.618-133.97l-1-.02zm72.885 134.67c5.976 6.43 11.535 10.22 16.99 12.57 5.451 2.35 10.771 3.25 16.24 3.92 10.932 1.33 22.498 1.75 37.334 10.85l.523-.86c-15.054-9.23-26.846-9.66-37.736-10.99-5.443-.66-10.649-1.54-15.965-3.83-5.311-2.29-10.759-6-16.654-12.34l-.732.68zm70.565 27.34c12.925 7.92 23.688 10.36 33.484 9.8 9.778-.57 18.544-4.13 27.458-8.13 17.837-8.01 36.381-17.82 65.403-9.7l.27-.96c-29.412-8.24-48.272 1.75-66.083 9.74-8.91 4-17.528 7.5-27.106 8.05-9.56.55-20.123-1.82-32.904-9.66l-.522.86zm126.345-8.03c20.331 5.7 35.084 5.85 47.098 2.91 12.008-2.93 21.23-8.95 30.494-15.5 9.275-6.55 18.584-13.62 30.837-18.79 12.24-5.17 27.434-8.45 48.445-7.34l.052-1c-21.15-1.11-36.497 2.18-48.886 7.41-12.376 5.23-21.784 12.38-31.025 18.91-9.252 6.53-18.343 12.45-30.155 15.34-11.805 2.89-26.378 2.76-46.59-2.9l-.27.96zm156.874-38.72c41.547 2.19 65.606 26.9 89.788 50.22 24.161 23.31 48.443 45.23 90.34 41.22l-.095-1c-41.407 3.96-65.392-17.63-89.551-40.94-24.139-23.28-48.455-48.28-90.43-50.5l-.052 1zm326.032 150.15c41.845 0 76.129-9.33 104.154-19.15 13.995-4.9 26.472-9.94 37.492-13.98 11.045-4.05 20.65-7.1 29.011-8.08l-.116-.99c-8.489.99-18.191 4.08-29.239 8.13-11.074 4.06-23.479 9.07-37.479 13.98-27.967 9.8-62.133 19.09-103.823 19.09v1zm170.756-41.23c42.9-14.18 56.315-49.69 69.255-85.94 12.96-36.32 25.45-73.38 66.27-91.44l-.41-.92c-41.27 18.26-53.87 55.78-66.8 92.02-12.96 36.3-26.243 71.32-68.629 85.33l.314.95zm135.525-177.38c21.52-9.52 34.84-20.6 43.97-32.63 9.12-12.01 14.04-24.93 18.8-38.05 4.76-13.14 9.36-26.47 17.83-39.43 8.47-12.95 20.82-25.55 41.1-37.15l-.5-.87c-20.41 11.68-32.87 24.38-41.43 37.47-8.55 13.08-13.19 26.53-17.94 39.64-4.76 13.12-9.64 25.91-18.66 37.79-9.01 11.87-22.19 22.86-43.58 32.31l.41.92zm121.69-147.26c2.77-1.58 7.06-2.93 12.15-4.16 5.09-1.23 10.93-2.334 16.78-3.447 5.85-1.112 11.71-2.233 16.81-3.493 5.09-1.257 9.48-2.664 12.36-4.369l-.51-.86c-2.74 1.623-7 3.003-12.09 4.258-5.07 1.253-10.9 2.368-16.76 3.482-5.84 1.112-11.71 2.221-16.82 3.459-5.11 1.23-9.51 2.61-12.41 4.26l.49.87zm58.1-15.468c18.61-11.005 34.11-13.303 48-11.391 13.92 1.916 26.24 8.06 38.51 14.033 12.24 5.961 24.42 11.756 37.95 12.816 13.56 1.07 28.41-2.62 46.01-15.485l-.59-.807c-17.44 12.752-32.06 16.342-45.34 15.292-13.31-1.04-25.33-6.743-37.59-12.715-12.24-5.958-24.71-12.183-38.81-14.124-14.13-1.946-29.86.41-48.65 11.52l.51.861zm170.47-.027c11.33-8.293 24.24-9.224 37.98-6.467 13.76 2.76 28.28 9.203 42.8 15.59 14.49 6.372 28.99 12.692 42.59 15.122 13.63 2.44 26.44.98 37.51-8.26l-.64-.77c-10.77 8.99-23.25 10.45-36.69 8.05-13.47-2.41-27.85-8.67-42.36-15.057-14.49-6.374-29.12-12.87-43.01-15.656-13.9-2.789-27.13-1.875-38.77 6.641l.59.807zm160.88 15.985c19.92-16.625 35.67-20.695 51.25-25.069 15.61-4.386 31.03-9.076 50.07-27l-.69-.728c-18.87 17.761-34.1 22.396-49.65 26.765-15.6 4.381-31.53 8.495-51.62 25.262l.64.77zm101.32-52.069c24.89-23.427 20.24-53.302 15.2-83.31-5.06-30.106-10.52-60.355 12.04-85.21l-.74-.673c-22.94 25.272-17.33 56.049-12.29 86.048 5.06 30.096 9.55 59.405-14.9 82.417l.69.728zm27.24-168.52c19.06-20.998 16.77-47.342 14.17-73.713-2.61-26.455-5.52-52.941 11.78-74.762l-.79-.621c-17.59 22.191-14.58 49.12-11.98 75.481 2.6 26.446 4.8 52.321-13.92 72.943l.74.672zM100.523 937.528c-8.326 28.079-19.811 59.13-27.443 90.062-7.637 30.96-11.453 61.93-4.42 89.95l.97-.24c-6.973-27.79-3.203-58.56 4.42-89.47 7.629-30.917 19.075-61.837 27.432-90.018l-.959-.284zM68.661 1117.54c2.703 10.77 5.049 15.61 9.302 25.79l.922-.38c-4.261-10.21-6.573-14.97-9.254-25.65l-.97.24zm9.301 25.79c8.524 20.47 20.71 31.81 35.69 37.7 14.948 5.88 32.627 6.32 52.1 5.08 39.009-2.47 85.289-11.61 132.15 2.3l.284-.96c-47.085-13.97-93.66-4.8-132.497-2.34-19.45 1.24-36.941.79-51.671-5.01-14.7-5.78-26.7-16.9-35.132-37.15l-.924.38zm219.939 45.08c15.273 4.53 26.429 3.05 35.545-1.7 9.084-4.73 16.091-12.67 23.113-20.93 7.042-8.29 14.105-16.89 23.339-23.1 9.209-6.2 20.593-10.03 36.282-8.7l.085-.99c-15.921-1.35-27.53 2.54-36.926 8.86-9.371 6.31-16.526 15.03-23.542 23.28-7.037 8.28-13.928 16.07-22.813 20.7-8.852 4.61-19.734 6.09-34.798 1.62l-.285.96zm118.279-54.43c5.51.47 9.64-2.35 13.714-6.59 2.037-2.12 4.085-4.62 6.295-7.27 2.215-2.66 4.601-5.49 7.333-8.3 5.459-5.6 12.293-11.11 21.843-14.94 9.551-3.83 21.848-6 38.247-4.88l.068-.99c-16.523-1.13-28.974 1.05-38.688 4.94-9.714 3.9-16.66 9.5-22.187 15.18-2.761 2.83-5.168 5.69-7.385 8.35-2.221 2.67-4.241 5.13-6.247 7.22-4.009 4.17-7.858 6.71-12.909 6.29l-.084.99zm82.53 273.99c7.331-.55 16.79.96 28.14 3.21 11.327 2.25 24.51 5.23 39.206 7.57 29.406 4.67 64.942 6.77 104.213-4.64l-.28-.96c-39.075 11.36-74.45 9.27-103.776 4.61-14.671-2.33-27.809-5.3-39.168-7.56-11.334-2.25-20.923-3.79-28.41-3.23l.075 1zm171.482 6.16c21.175-2.68 35.3-6.6 45.865-11.32 10.57-4.73 17.552-10.24 24.442-16.06 6.887-5.81 13.668-11.9 23.881-17.87 10.211-5.96 23.867-11.8 44.48-17.05l-.247-.97c-20.685 5.27-34.431 11.14-44.737 17.16-10.304 6.02-17.155 12.17-24.022 17.97-6.866 5.79-13.763 11.24-24.206 15.9-10.447 4.67-24.469 8.58-45.582 11.24l.126 1zm138.667-62.3c42.643-10.86 64.205-27.11 85.373-44.44 21.14-17.31 41.865-35.69 82.894-50.95l-.349-.94c-41.201 15.33-62.04 33.8-83.179 51.11-21.111 17.29-42.541 33.44-84.985 44.25l.246.97zm168.267-95.39c43.014-16 53.074-51.5 62.634-87.74 9.58-36.29 18.67-73.32 59.39-93.17l-.44-.9c-41.19 20.08-50.35 57.6-59.91 93.82-9.58 36.27-19.55 71.25-62.023 87.05l.349.94zm122.024-180.91c1.51-.74 2.21-1.16 2.89-1.59.67-.41 1.33-.82 2.81-1.54l-.44-.9c-1.51.74-2.21 1.17-2.89 1.59-.67.42-1.33.82-2.81 1.54l.44.9zm5.7-3.13c20.81-10.23 34.45-20.58 44.41-31.14 9.96-10.55 16.23-21.29 22.33-32.24 12.18-21.884 23.73-44.737 62.78-69.272l-.53-.847c-39.27 24.674-50.92 47.713-63.12 69.629-6.1 10.95-12.32 21.59-22.19 32.05-9.87 10.45-23.4 20.73-44.12 30.92l.44.9zm129.52-132.652c28.1-17.664 54.62-7.158 81.08 2.982 26.38 10.112 52.7 19.858 79.88-.161l-.59-.805c-26.69 19.658-52.49 10.168-78.94.032-26.37-10.108-53.38-20.862-81.96-2.895l.53.847zm160.96 2.821c14.4-10.6 24-12.928 33.54-15.411 9.6-2.498 19.12-5.152 33.22-16.436l-.62-.781c-13.95 11.162-23.33 13.769-32.85 16.249-9.59 2.494-19.33 4.86-33.88 15.574l.59.805zm66.76-31.847c35.79-28.618 62.65-34.695 88.79-41.664 26.19-6.984 51.63-14.861 84.41-47.131l-.7-.713c-32.61 32.101-57.87 39.917-83.97 46.877-26.16 6.974-53.19 13.092-89.15 41.85l.62.781zm173.2-88.795c3.74-3.681 10.24-6.827 18.21-9.713 7.95-2.88 17.29-5.473 26.63-8.085 9.34-2.609 18.69-5.236 26.64-8.177 7.93-2.934 14.55-6.209 18.36-10.15l-.72-.695c-3.64 3.766-10.07 6.977-17.99 9.907-7.9 2.924-17.21 5.54-26.56 8.152-9.33 2.608-18.7 5.213-26.7 8.108-7.98 2.889-14.66 6.094-18.57 9.94l.7.713zM100.523 937.528c-11.982 40.409 5.229 83.742 38.262 122.302l.759-.65c-32.934-38.44-49.905-81.431-38.062-121.368l-.959-.284zm38.262 122.302c20.807 24.29 46.092 32.11 73.86 36.45 27.801 4.35 57.988 5.21 88.937 15.52l.316-.95c-31.052-10.34-61.458-11.23-89.098-15.56-27.673-4.32-52.676-12.09-73.256-36.11l-.759.65zm162.797 51.97c19.907 6.63 33.934 5.62 45.077.33 11.113-5.28 19.282-14.79 27.532-24.98 8.271-10.21 16.632-21.12 28.165-29.39 11.511-8.26 26.197-13.89 47.116-13.49l.019-1c-21.133-.41-36.03 5.29-47.718 13.68-11.666 8.37-20.117 19.4-28.359 29.58-8.262 10.2-16.303 19.53-27.184 24.7-10.849 5.15-24.598 6.19-44.332-.38l-.316.95zm147.89-67.53c20.63.39 37.279 17.95 51.957 44.23 14.657 26.24 27.23 60.96 39.794 95.28 12.553 34.29 25.099 68.19 39.692 92.71 14.573 24.48 31.332 39.84 52.369 36.55l-.154-.98c-20.36 3.18-36.799-11.63-51.356-36.08-14.535-24.42-27.049-58.22-39.612-92.54-12.554-34.3-25.156-69.1-39.86-95.42-14.683-26.29-31.58-44.35-52.811-44.75l-.019 1zm183.812 268.77c42.473-6.64 65.743-17.91 88.68-30.54 22.913-12.62 45.46-26.57 86.56-38.63l-.282-.96c-41.222 12.1-63.864 26.1-86.76 38.71-22.872 12.6-46.029 23.82-88.352 30.44l.154.98zm175.239-69.17c33.959-9.96 51.542-19.26 68.858-29.31 17.293-10.03 34.295-20.78 67.137-33.67l-.365-.93c-32.924 12.92-49.988 23.71-67.274 33.74-17.264 10.01-34.774 19.28-68.637 29.21l.281.96zm135.995-62.98c8.542-3.35 13.041-5.57 17.516-7.82 4.465-2.26 8.9-4.55 17.333-8.06l-.385-.93c-8.468 3.54-12.93 5.84-17.398 8.09-4.457 2.25-8.927 4.45-17.431 7.79l.365.93zm34.849-15.88c21.503-8.97 35.813-20.07 46.463-32.36 10.64-12.29 17.61-25.76 24.43-39.44 13.64-27.35 26.72-55.6 67.43-77.53l-.47-.88c-41.01 22.09-54.21 50.61-67.85 77.97-6.82 13.67-13.74 27.04-24.3 39.22-10.54 12.18-24.73 23.18-46.088 32.09l.385.93zm138.323-149.33c15.56-8.38 26.02-16.56 33.87-24.727 7.86-8.164 13.1-16.298 18.23-24.549 10.24-16.477 20.08-33.495 49.58-52.561l-.54-.84c-29.69 19.19-39.63 36.364-49.89 52.873-5.13 8.243-10.32 16.301-18.1 24.384-7.77 8.082-18.14 16.2-33.62 24.54l.47.88zm101.68-101.837c11.78-7.623 15.84-13.615 19.82-19.664 3.93-5.993 7.78-12.034 19.18-19.895l-.57-.823c-11.55 7.966-15.48 14.129-19.45 20.169-3.93 5.982-7.9 11.852-19.52 19.373l.54.84zm39-39.559c21.8-15.053 46.42-25.847 71.8-36.464 25.38-10.61 51.52-21.044 76.29-35.365 49.58-28.668 93.65-72.91 115.43-165.335l-.97-.229c-21.72 92.14-65.6 136.16-114.96 164.698-24.7 14.282-50.77 24.688-76.17 35.309-25.38 10.615-50.09 21.444-71.99 36.563l.57.823zM181.45 755.67c-.994 4.596.88 9.341 4.001 14.063 3.127 4.73 7.579 9.546 11.901 14.299 4.34 4.772 8.547 9.48 11.262 14.043 2.716 4.565 3.873 8.874 2.297 12.9l.931.364c1.744-4.455.406-9.111-2.369-13.775-2.776-4.666-7.056-9.448-11.381-14.205-4.343-4.775-8.732-9.526-11.807-14.177-3.079-4.659-4.764-9.11-3.857-13.3l-.978-.212zm29.452 55.329c-10.93 32.777-36.951 47.497-61.13 62.491-24.143 14.971-46.453 30.227-49.268 64.139l.997.083c2.77-33.374 24.649-48.397 48.798-63.373 24.114-14.953 50.488-29.847 61.552-63.024l-.949-.316zm-110.398 126.63c-1.58 18.99 5.847 32.683 19.039 42.975 13.161 10.266 32.056 17.149 53.451 22.616 21.399 5.46 45.377 9.52 68.712 14.1 23.352 4.59 46.068 9.7 65.014 17.26l.37-.93c-19.04-7.6-41.837-12.72-65.192-17.31-23.372-4.59-47.294-8.64-68.657-14.09-21.367-5.459-40.093-12.302-53.082-22.435-12.957-10.107-20.207-23.485-18.658-42.103l-.997-.083zm206.216 96.951c1.797.71 2.987 1.07 3.878 1.23.906.16 1.488.12 2.044.07.532-.05 1.025-.1 1.826 0 .813.1 1.956.37 3.754.99l.326-.95c-1.832-.63-3.047-.92-3.953-1.03-.918-.12-1.504-.06-2.043-.01-.515.05-.996.08-1.777-.06-.796-.14-1.916-.47-3.685-1.17l-.37.93zm11.503 2.29c18.108 6.2 30.55 4.52 40.195-1.6 9.597-6.09 16.345-16.52 23.174-27.59 6.853-11.098 13.802-22.864 23.813-31.84 9.985-8.954 23.028-15.137 42.088-15.007l.007-1c-19.316-.132-32.598 6.147-42.763 15.262-10.14 9.093-17.167 21.001-23.995 32.065-6.851 11.1-13.489 21.32-22.86 27.27-9.323 5.91-21.432 7.63-39.335 1.49l-.324.95zm129.27-76.037c10.32.07 19.737 4.597 28.493 12.504 8.761 7.911 16.834 19.186 24.448 32.693 15.23 27.01 28.555 62.83 41.858 98.2 13.292 35.35 26.564 70.26 41.68 95.37 7.558 12.55 15.599 22.69 24.367 29.21 8.782 6.54 18.306 9.44 28.779 7.49l-.184-.99c-10.148 1.9-19.394-.9-27.998-7.3-8.618-6.41-16.579-16.42-24.108-28.93-15.058-25.01-28.298-59.82-41.6-95.2-13.293-35.34-26.646-71.25-41.923-98.34-7.638-13.552-15.775-24.931-24.649-32.945-8.879-8.019-18.522-12.689-29.156-12.762l-.007 1zM637.118 1236.3c8.337-1.56 13.249-3.36 18.128-5.21 4.864-1.85 9.687-3.75 17.889-5.53l-.212-.98c-8.28 1.8-13.163 3.72-18.032 5.57-4.854 1.85-9.703 3.63-17.956 5.16l.183.99zm36.018-10.74c34.213-7.46 51.131-22.21 67.743-37.81 16.587-15.57 32.854-31.97 65.823-42.95l-.316-.95c-33.197 11.06-49.604 27.6-66.191 43.18-16.562 15.55-33.319 30.15-67.272 37.55l.213.98zm133.566-80.76c42.85-14.26 63.299-28.97 83.254-44.86 19.925-15.86 39.331-32.87 80.149-51.8l-.421-.9c-40.939 18.98-60.429 36.06-80.35 51.92-19.892 15.84-40.239 30.48-82.948 44.69l.316.95zm163.403-96.66c30.865-14.3 44.815-25.98 58.475-38.19 13.62-12.195 26.92-24.91 56.53-41.375l-.48-.873c-29.72 16.521-43.09 29.301-56.72 41.498-13.6 12.17-27.47 23.78-58.226 38.04l.421.9zm115.005-79.564c11.78-6.546 17.59-10.335 23.36-14.202 5.76-3.86 11.46-7.792 23.03-14.637l-.51-.861c-11.59 6.861-17.32 10.807-23.07 14.667-5.75 3.854-11.54 7.628-23.29 14.158l.48.875zm46.39-28.839c21.75-12.877 36.35-25.156 47.28-37.287 10.93-12.13 18.16-24.099 25.18-36.327 14.03-24.434 27.22-49.965 67.38-80.269l-.61-.798c-40.32 30.434-53.6 56.118-67.64 80.57-7.01 12.215-14.2 24.107-25.05 36.155-10.85 12.046-25.38 24.262-47.05 37.096l.51.86zm139.84-153.883c8.56-6.464 13.44-8.741 18.3-11.077 4.89-2.354 9.76-4.764 18.25-11.484l-.62-.785c-8.42 6.661-13.22 9.035-18.07 11.367-4.88 2.349-9.82 4.659-18.47 11.181l.61.798zm36.55-22.562c69.49-54.984 72.44-64.713 136.26-125.925l-.69-.722c-63.88 61.272-66.75 70.917-136.19 125.863l.62.784zm-1126.4-7.735c-8.899 18.224-18.388 33.443-26.192 47.545-7.793 14.081-13.895 27.034-15.92 40.622-4.06 27.241 8.288 56.817 55.349 103.043l.7-.714c-47.013-46.179-59.045-75.444-55.06-102.181 1.997-13.401 8.022-26.221 15.805-40.285 7.772-14.043 17.304-29.34 26.216-47.592l-.898-.438zm13.225 191.198c9.098 9.532 16.017 18.043 21.616 24.893 5.582 6.83 9.892 12.065 13.738 14.964l.602-.798c-3.726-2.809-7.95-7.927-13.565-14.798-5.599-6.85-12.54-15.388-21.667-24.951l-.724.69zm35.354 39.857c6.168 4.648 12.397 5.173 18.643 3.575 6.207-1.588 12.451-5.278 18.691-9.054 6.269-3.794 12.54-7.679 18.887-9.767 6.324-2.082 12.677-2.365 19.129 1.009l.464-.886c-6.756-3.533-13.403-3.213-19.905-1.073-6.478 2.132-12.857 6.087-19.093 9.861-6.265 3.791-12.382 7.396-18.421 8.941-6.002 1.536-11.907 1.031-17.793-3.404l-.602.798zm75.35-14.237c18.258 9.557 31.092 9.215 41.346 3.162 10.183-6.011 17.718-17.609 25.53-30.249 15.678-25.371 32.603-55.159 74.238-55.106l.001-1c-42.268-.054-59.464 30.293-75.09 55.58-7.841 12.689-15.255 24.05-25.187 29.914-9.862 5.821-22.311 6.268-40.374-3.187l-.464.886zm141.114-82.193c20.677.027 37.815 16.696 53.198 41.739 15.364 25.011 28.86 58.178 42.324 90.849 13.452 32.64 26.874 64.78 42.078 87.66 15.188 22.85 32.302 36.67 53.163 32.17l-.21-.97c-20.2 4.35-36.964-8.95-52.12-31.75-15.138-22.78-28.523-54.83-41.987-87.49-13.452-32.644-26.98-65.897-42.396-90.993-15.396-25.063-32.793-42.187-54.049-42.215l-.001 1zM637.296 1142.6c42.865-9.23 60.639-35.29 77.882-62.72 17.242-27.42 33.95-56.18 74.641-71.33l-.349-.93c-41.049 15.28-57.915 44.34-75.139 71.73-17.222 27.39-34.806 53.13-77.245 62.28l.21.97zm152.523-134.05c27.028-10.064 41.518-14.083 55.825-18.612 14.317-4.532 28.423-9.566 54.638-21.653l-.419-.908c-26.178 12.069-40.244 17.089-54.521 21.608-14.287 4.523-28.814 8.553-55.872 18.635l.349.93zm110.463-40.265c15.402-7.097 24.029-9.463 32.603-11.989 8.601-2.533 17.137-5.223 32.308-12.966l-.455-.891c-15.101 7.708-23.576 10.377-32.135 12.898-8.585 2.529-17.269 4.911-32.74 12.04l.419.908zm64.911-24.955c43.127-22.003 63.607-36.449 83.467-51.954 19.84-15.493 39.04-32.018 79.64-58.217l-.55-.841c-40.64 26.23-59.88 42.791-79.71 58.27-19.81 15.466-40.23 29.878-83.302 51.851l.455.891zM1128.3 833.159c14.87-9.592 20.74-16.937 26.49-24.396 5.72-7.418 11.32-14.939 25.7-24.986l-.58-.82c-14.49 10.134-20.17 17.748-25.91 25.195-5.72 7.407-11.5 14.658-26.25 24.166l.55.841zm52.19-49.382c28.15-19.692 42.11-45.576 55.64-71.858 13.54-26.298 26.63-52.983 53.04-74.526l-.64-.775c-26.59 21.696-39.77 48.577-53.29 74.844-13.53 26.282-27.39 51.959-55.33 71.495l.58.82zM138.717 637.23c.757 1.507 2.24 3.14 4.213 4.881 1.983 1.748 4.501 3.642 7.373 5.666 2.874 2.024 6.113 4.186 9.54 6.471 3.429 2.287 7.047 4.697 10.687 7.223 7.281 5.053 14.63 10.555 20.684 16.417 6.06 5.866 10.785 12.059 12.87 18.484l.951-.309c-2.158-6.651-7.017-12.98-13.125-18.894-6.113-5.918-13.515-11.457-20.81-16.519-3.649-2.532-7.275-4.948-10.702-7.234-3.429-2.286-6.658-4.441-9.519-6.457-2.862-2.016-5.346-3.885-7.287-5.598-1.951-1.721-3.314-3.25-3.981-4.58l-.894.449zm65.367 59.142c2.83 8.721-.064 15.102-5.11 23.573-5.044 8.467-12.187 18.939-17.512 35.679l.953.304c5.282-16.606 12.352-26.968 17.418-35.472 5.064-8.499 8.177-15.225 5.202-24.393l-.951.309zm110.36 124.414c15.756 10.222 27.08 15.877 36.422 18.596 9.364 2.724 16.717 2.492 24.511.985 15.554-3.009 32.739-11.041 71.534-10.888l.004-1c-38.923-.153-56.354 7.932-71.728 10.906-7.67 1.483-14.858 1.708-24.041-.963-9.204-2.678-20.431-8.273-36.157-18.474l-.545.838zm132.467 8.693c20.703.084 37.678 14.45 52.799 35.875 15.114 21.414 28.278 49.74 41.402 77.494 13.11 27.727 26.183 54.891 41.101 73.882 14.919 18.98 31.8 29.93 52.51 24.9l-.236-.97c-20.133 4.89-36.655-5.67-51.488-24.55-14.834-18.882-27.86-45.935-40.983-73.689-13.11-27.725-26.314-56.142-41.489-77.643-15.166-21.49-32.4-36.213-53.612-36.299l-.004 1zm187.812 212.151c14.323-3.48 21.222-10.37 28.001-17.38 6.755-7 13.383-14.11 27.204-18.31l-.291-.96c-14.086 4.28-20.867 11.57-27.633 18.57-6.743 6.98-13.478 13.7-27.517 17.11l.236.97zm55.205-35.69c28.482-8.675 39.344-25.378 49.894-42.63 10.536-17.228 20.756-34.987 47.918-46.187l-.382-.925c-27.489 11.336-37.853 29.361-48.389 46.59-10.521 17.204-21.217 33.632-49.332 42.192l.291.96zm97.811-88.817c86.11-35.488 89.279-34.922 170.572-80.315l-.488-.873c-81.239 45.363-84.363 44.778-170.465 80.263l.381.925zm170.572-80.315c37.997-21.212 37.91-23.071 74.809-46.002l-.53-.85c-36.959 22.97-36.792 24.779-74.766 45.979l.487.873zm74.809-46.002c23.74-14.758 29.32-31.893 44.1-55.795 14.79-23.923 38.92-54.881 99.87-97.596l-.57-.819c-61.05 42.785-85.28 73.838-100.16 97.889-14.88 24.073-20.28 40.876-43.77 55.471l.53.85zm-585.36 9.751c20.709.406 37.66 11.606 52.731 27.953 15.076 16.353 28.209 37.785 41.301 58.547 13.074 20.734 26.113 40.809 40.976 54.328 14.886 13.54 31.659 20.551 52.153 15.044l-.26-.966c-20.066 5.392-36.5-1.429-51.22-14.818-14.745-13.411-27.714-33.364-40.803-54.122-13.072-20.73-26.259-42.255-41.412-58.691-15.159-16.442-32.35-27.861-53.447-28.274l-.019.999zm187.161 155.872c43.048-11.571 64.209-26.64 84.738-43.395 20.5-16.731 40.335-35.11 80.799-53.415l-.412-.911c-40.603 18.368-60.536 36.834-81.019 53.552-20.455 16.694-41.491 31.68-84.366 43.203l.26.966zm165.537-96.81c21.703-9.827 31.73-17.856 41.569-26.217 9.81-8.337 19.419-16.99 40.326-28.133l-.47-.883c-21.008 11.196-30.684 19.909-40.503 28.254-9.791 8.321-19.74 16.29-41.335 26.068l.413.911zm81.895-54.35c10.381-5.535 22.42-7.683 35.309-8.158 12.892-.475 26.591.724 40.289 1.855 13.684 1.13 27.367 2.192 40.167 1.425 12.802-.766 24.762-3.364 35.002-9.583l-.52-.854c-10.05 6.102-21.83 8.678-34.542 9.439-12.718.762-26.33-.293-40.025-1.424-13.68-1.129-27.444-2.335-40.408-1.857-12.966.478-25.174 2.64-35.742 8.274l.47.883zm-671.423 6.113c2.752 5.444 7.642 9.265 14.141 11.808 6.493 2.541 14.62 3.817 23.909 4.161 18.577.689 41.925-2.346 66.42-6.595 24.473-4.245 50.217-9.726 73.449-13.917 23.279-4.199 44.091-7.115 58.892-6.282l.057-.999c-14.935-.84-35.858 2.099-59.127 6.297-23.316 4.206-48.931 9.664-73.442 13.916-24.488 4.248-47.747 7.266-66.212 6.581-9.232-.342-17.235-1.61-23.582-4.093-6.341-2.481-11.002-6.164-13.612-11.328l-.893.451zm236.811-10.825c41.286 2.328 67.299 24.359 93.163 43.025 12.92 9.324 25.812 17.81 40.529 22.493 14.734 4.688 31.271 5.557 51.475-.302l-.278-.96c-20.02 5.805-36.355 4.935-50.893.309-14.556-4.631-27.338-13.034-40.247-22.351-25.793-18.614-52.056-40.865-93.692-43.213l-.057.999zm185.167 65.216c18.66-5.407 28.748-10.265 38.69-15.515 9.925-5.242 19.681-10.861 37.723-17.827l-.36-.933c-18.107 6.991-27.917 12.64-37.83 17.876-9.897 5.226-19.921 10.054-38.501 15.439l.278.96zm76.413-33.342c48.008-18.525 53.595-19.683 99.772-42.393l-.441-.897c-46.132 22.687-51.679 23.831-99.691 42.357l.36.933zm99.772-42.393c43.423-21.343 73.454-46.269 102.703-72.469 29.251-26.203 57.703-53.66 98.014-80.146l-.55-.835c-40.389 26.537-68.908 54.058-98.131 80.236-29.227 26.179-59.177 51.034-102.477 72.317l.441.897zm-361.388 10.515c40.565 5.237 66.477 5.8 92.208 1.982 25.714-3.815 51.231-12.005 90.983-24.23l-.294-.956c-39.785 12.236-65.216 20.395-90.836 24.197-25.603 3.799-51.413 3.247-91.932-1.984l-.129.991zm183.191-22.248c43.263-13.297 73.936-9.755 103.898-8.185 29.99 1.572 59.219 1.158 99.418-20.161l-.468-.884c-39.975 21.2-68.999 21.613-98.898 20.046-29.929-1.568-60.783-5.13-104.244 8.228l.294.956zm203.316-28.346c9.436-5.005 17.939-13.196 25.942-22.974 8.005-9.779 15.535-21.178 23.009-32.621 7.481-11.452 14.905-22.947 22.715-32.958 7.811-10.013 15.982-18.507 24.939-23.974l-.521-.853c-9.108 5.558-17.366 14.161-25.207 24.212-7.841 10.052-15.29 21.587-22.763 33.026-7.478 11.449-14.98 22.804-22.946 32.535-7.966 9.733-16.37 17.809-25.636 22.723l.468.884zM612.21 637.506c28.764 0 49.803 16.968 69.461 31.441 9.805 7.219 19.282 13.825 29.172 17.284 9.92 3.469 20.254 3.773 31.751-1.585l-.423-.906c-11.235 5.236-21.297 4.939-30.998 1.547-9.729-3.403-19.094-9.918-28.909-17.145-19.583-14.417-40.899-31.636-70.054-31.636v1zm130.384 47.14c18.872-8.795 41.675-15.454 64.348-22.49 22.65-7.029 45.167-14.433 63.376-24.715l-.492-.871c-18.103 10.222-40.52 17.599-63.181 24.631-22.638 7.025-45.524 13.708-64.474 22.539l.423.906zm-6.349 705.564c6.256-1.72 13.107-5.94 20.286-9.88 7.221-3.97 14.815-7.69 22.683-8.57l-.111-1c-8.083.91-15.83 4.72-23.054 8.69-7.265 4-13.961 8.12-20.069 9.8l.265.96z"/></g></svg>