<svg width="24" height="21" viewBox="0 0 24 21" fill="none" xmlns="http://www.w3.org/2000/svg"><g opacity=".2" fill="#fff"><path d="M12 21C2.118 21 0 19.147 0 10.5c0-2.376.16-4.24.597-5.692 1.12 1.07 2.532 2.359 4.066 3.506 2.176 1.628 4.812 3.14 7.337 3.14 2.525 0 5.16-1.512 7.337-3.14 1.534-1.147 2.947-2.435 4.066-3.506C23.84 6.26 24 8.124 24 10.5 24 19.147 21.882 21 12 21z"/><path d="M22.531 2.933c-1.171 1.14-2.726 2.606-4.428 3.879C15.96 8.415 13.794 9.545 12 9.545c-1.794 0-3.96-1.13-6.103-2.733C4.195 5.539 2.64 4.073 1.469 2.933 3.057.642 6.184 0 12 0c5.816 0 8.943.642 10.531 2.933z"/></g></svg>