<svg width="24" height="21" viewBox="0 0 24 21" fill="none" xmlns="http://www.w3.org/2000/svg">
<g opacity="0.2">
<path d="M12 21C2.118 21 0 19.1467 0 10.5C0 8.12357 0.159982 6.26028 0.597155 4.80757C1.71653 5.87879 3.12906 7.16695 4.66327 8.31433C6.83922 9.94164 9.47452 11.4545 12 11.4545C14.5255 11.4545 17.1608 9.94164 19.3367 8.31433C20.8709 7.16695 22.2835 5.87879 23.4028 4.80757C23.84 6.26028 24 8.12357 24 10.5C24 19.1467 21.882 21 12 21Z" fill="#211E1E"/>
<path d="M22.5313 2.93342C21.3596 4.07334 19.8054 5.53859 18.1033 6.81154C15.9592 8.415 13.7945 9.54545 12 9.54545C10.2055 9.54545 8.04078 8.415 5.89673 6.81154C4.1946 5.53859 2.64042 4.07334 1.46866 2.93342C3.0569 0.642026 6.1836 0 12 0C17.8164 0 20.9431 0.642026 22.5313 2.93342Z" fill="#211E1E"/>
</g>
</svg>
