<svg width="375" height="1082" viewBox="0 0 375 1082" fill="none" xmlns="http://www.w3.org/2000/svg">
<path opacity="0.07" d="M-89.6095 1028.25L-89.2885 1027.86L-89.3215 1027.84L-89.3589 1027.81L-89.6095 1028.25ZM128.032 998.442L127.878 998.918L127.878 998.918L128.032 998.442ZM135 1001.5L135.152 1001.02L135.152 1001.02L135 1001.5ZM-30.4541 943.312L-30.2321 942.864L-30.2322 942.864L-30.4541 943.312ZM149.5 877.02L149.35 877.497L149.364 877.501L149.379 877.505L149.5 877.02ZM1280.81 994.468L1280.95 994.95L1280.97 994.942L1281 994.932L1280.81 994.468ZM1283.47 993.461L1283.65 993.925L1283.65 993.925L1283.47 993.461ZM1485.35 980.853L1485.58 981.296L1485.58 981.296L1485.35 980.853ZM1675.75 928.441L1675.48 928.025L1675.48 928.025L1675.75 928.441ZM1693.16 918.117L1693.45 918.531L1693.45 918.531L1693.16 918.117ZM272.76 912.324L272.693 912.82L272.728 912.825L272.763 912.824L272.76 912.324ZM752.023 911.947L752.092 912.442L752.023 911.947ZM931.583 976.57L931.472 976.083L931.583 976.57ZM1032.21 965.221L1032.34 965.702H1032.34L1032.21 965.221ZM1103.39 947.829L1103.24 947.354H1103.24L1103.39 947.829ZM1262.51 864.374L1262.3 863.917L1262.3 863.917L1262.51 864.374ZM1476.74 886.353L1476.49 885.918V885.918L1476.74 886.353ZM1487.95 881.173L1487.7 880.74L1487.95 881.173ZM1699.91 809.175L1699.61 808.775L1699.61 808.775L1699.91 809.175ZM-72.5701 871.137L-72.8112 871.575H-72.8111L-72.5701 871.137ZM131.714 815.866L131.577 816.347L131.714 815.866ZM639.769 804.797L639.712 804.301H639.712L639.769 804.797ZM747.311 837.467L747.226 836.974H747.226L747.311 837.467ZM924.961 877.647L924.832 877.164H924.832L924.961 877.647ZM1068.23 771.548L1068.4 772.017H1068.4L1068.23 771.548ZM1215.97 743.993L1216.18 744.445L1216.18 744.445L1215.97 743.993ZM1242.6 734.767L1242.38 734.319L1242.38 734.319L1242.6 734.767ZM1449.12 712.572L1449.39 712.993L1449.39 712.993L1449.12 712.572ZM1569.39 697.985L1569.69 698.39L1569.69 698.389L1569.39 697.985ZM1697.05 681.636L1697.37 682.021L1697.37 682.021L1697.05 681.636ZM107.423 782.914L107.556 782.432H107.556L107.423 782.914ZM262.609 814.545L262.665 814.048H262.665L262.609 814.545ZM430.907 800.397L430.926 800.897H430.926L430.907 800.397ZM597.856 735.256V734.756H597.828L597.8 734.759L597.856 735.256ZM975.591 657.239L975.418 656.77L975.591 657.239ZM1036.23 613.479L1036.03 613.018L1036.23 613.479ZM1196.54 550.852L1196.78 551.291H1196.78L1196.54 550.852ZM1319.61 552.687L1319.88 553.109H1319.88L1319.61 552.687ZM1427.11 559.431L1426.82 559.023L1427.11 559.431ZM1650.19 524.305L1649.86 523.931L1649.86 523.931L1650.19 524.305ZM1671.73 507.182L1672.06 507.551L1671.73 507.182ZM-173.15 472.099L-172.676 472.256L-172.676 472.256L-173.15 472.099ZM-164.078 638.776L-164.543 638.961L-164.543 638.961L-164.078 638.776ZM-87.4515 768.526L-87.1741 768.11H-87.1741L-87.4515 768.526ZM73.3156 762.303L73.1593 762.778L73.1594 762.778L73.3156 762.303ZM112.539 761.098L112.407 761.581L112.407 761.581L112.539 761.098ZM272.778 763.095L272.732 763.592H272.732L272.778 763.095ZM593.166 785.217L593.238 785.712L593.166 785.217ZM815 753.726L815.025 754.225L815 753.726ZM900.984 653.164L900.819 652.692L900.984 653.164ZM1022.24 512.532L1022.45 512.985L1022.45 512.985L1022.24 512.532ZM1106.85 484.312L1107.09 484.752V484.752L1106.85 484.312ZM1193.81 467.693L1194.07 468.12H1194.07L1193.81 467.693ZM1458.51 502.387L1458.82 502.783L1458.82 502.782L1458.51 502.387ZM1465.5 497.459L1465.19 497.065L1465.19 497.066L1465.5 497.459ZM1666.01 386.18L1665.66 385.829L1665.66 385.829L1666.01 386.18ZM1684.08 358.751L1684.44 359.096V359.096L1684.08 358.751ZM1719.97 108.602L1719.57 108.309L1719.57 108.31L1719.97 108.602ZM-154.345 470.355L-154.836 470.258L-154.836 470.258L-154.345 470.355ZM-113.303 644.405L-112.92 644.083L-112.92 644.083L-113.303 644.405ZM-79.1558 683.974L-79.467 684.366L-79.467 684.366L-79.1558 683.974ZM112.975 695.827L113.107 695.345L112.975 695.827ZM271.687 689.172L271.723 688.673L271.687 689.172ZM430.907 732.29L430.94 732.789H430.94L430.907 732.29ZM598.952 750.558L599.04 751.05L598.952 750.558ZM777.438 750.792L777.3 750.312L777.3 750.312L777.438 750.792ZM899.037 570.627L898.854 570.161L899.037 570.627ZM942.353 525.212L942.553 525.67L942.553 525.67L942.353 525.212ZM1015.41 419.994L1015.65 420.437V420.437L1015.41 419.994ZM1213.6 401.9L1213.88 402.316L1213.6 401.9ZM1236 393.59L1236.28 394.003L1236.28 394.002L1236 393.59ZM1513.34 444.365L1513.67 444.745L1513.67 444.744L1513.34 444.365ZM1582.04 394.651L1582.38 395.016V395.016L1582.04 394.651ZM1607.65 195.565L1607.28 195.233L1607.65 195.565ZM-81.5935 604.674L-81.2273 604.334L-81.2273 604.334L-81.5935 604.674ZM-11.1339 631.923L-11.3953 632.349H-11.3952L-11.1339 631.923ZM115.086 623.847L115.22 623.366H115.22L115.086 623.847ZM271.85 585.106L271.877 584.606H271.877L271.85 585.106ZM451.904 676.545L451.982 677.039H451.982L451.904 676.545ZM768.455 694.046L768.513 694.543L768.564 694.537L768.612 694.521L768.455 694.046ZM903.931 516.685L903.728 516.228H903.728L903.931 516.685ZM1025.58 369.452L1025.34 369.018L1025.34 369.018L1025.58 369.452ZM1083.68 353.986L1083.42 353.555L1083.42 353.555L1083.68 353.986ZM1254.1 353.986L1254.4 354.389V354.389L1254.1 353.986ZM1414.96 369.993L1415.28 370.377V370.377L1414.96 369.993ZM1516.25 317.942L1516.6 318.306V318.306L1516.25 317.942ZM1543.47 149.449L1543.84 149.785V149.785L1543.47 149.449ZM-80.3003 301.665L-79.802 301.706L-79.802 301.706L-80.3003 301.665ZM-112.157 481.416L-112.642 481.538L-112.642 481.538L-112.157 481.416ZM-102.879 507.136L-102.417 506.944L-102.417 506.943L-102.879 507.136ZM116.741 551.922L116.883 551.442L116.883 551.442L116.741 551.922ZM234.92 497.478L234.877 497.976L234.878 497.976L234.92 497.478ZM488.826 777.624L488.764 777.128L488.725 777.132L488.687 777.143L488.826 777.624ZM627.433 715.338L627.31 714.853L627.31 714.853L627.433 715.338ZM795.649 619.962L795.475 619.494H795.475L795.649 619.962ZM917.63 439.077L917.849 439.527L917.849 439.527L917.63 439.077ZM923.324 435.948L923.543 436.397L923.544 436.397L923.324 435.948ZM1052.8 303.319L1053.07 303.742L1053.07 303.742L1052.8 303.319ZM1213.73 306.161L1213.43 305.758V305.758L1213.73 306.161ZM1280.48 274.326L1280.17 273.935L1280.17 273.935L1280.48 274.326ZM1453.64 185.565L1453.28 185.208L1453.28 185.209L1453.64 185.565ZM-42.1384 423.5L-42.5181 423.825L-42.1384 423.5ZM120.437 475.318L120.279 475.792L120.437 475.318ZM268.179 407.762L268.169 408.262H268.169L268.179 407.762ZM627.08 607.389L626.939 606.909H626.939L627.08 607.389ZM763.033 544.42L763.215 544.885L763.033 544.42ZM797.871 528.538L797.679 528.077V528.077L797.871 528.538ZM936.152 379.236L936.39 379.677V379.677L936.152 379.236ZM1037.79 277.418L1038.07 277.838L1038.07 277.837L1037.79 277.418ZM1076.78 237.867L1077.06 238.278L1077.06 238.278L1076.78 237.867ZM30.0738 175.151L29.6082 174.969L29.6035 174.981L29.5994 174.993L30.0738 175.151ZM125.602 398.105L125.417 398.57L125.417 398.57L125.602 398.105ZM137.082 400.389L136.919 400.862L136.92 400.863L137.082 400.389ZM266.194 324.327L266.198 323.827H266.198L266.194 324.327ZM455.723 599.8L455.632 599.309H455.632L455.723 599.8ZM491.726 589.063L491.832 589.551L491.833 589.551L491.726 589.063ZM625.241 508.323L625.083 507.849L625.083 507.849L625.241 508.323ZM788.592 411.685L788.381 411.231L788.381 411.231L788.592 411.685ZM903.568 332.133L903.325 331.696V331.696L903.568 332.133ZM949.941 303.301L950.196 303.731L950.196 303.731L949.941 303.301ZM1089.73 149.449L1089.43 149.05V149.05L1089.73 149.449ZM1126.28 126.895L1126.59 127.287L1126.59 127.287L1126.28 126.895ZM13.7742 310.404L14.1359 310.059L14.1303 310.053L14.1245 310.048L13.7742 310.404ZM49.0677 350.207L48.7668 350.607L49.0677 350.207ZM124.348 335.927L124.58 335.484L124.58 335.483L124.348 335.927ZM265.231 253.677L265.231 253.177L265.231 253.677ZM455.888 506.11L455.783 505.621L455.888 506.11ZM608.341 372.078L608.516 372.547H608.516L608.341 372.078ZM718.77 331.826L718.561 331.372L718.561 331.372L718.77 331.826ZM783.663 306.879L783.435 306.434L783.435 306.434L783.663 306.879ZM946.722 196.733L946.451 196.313L946.451 196.313L946.722 196.733ZM998.898 147.361L999.185 147.771L999.185 147.771L998.898 147.361ZM23.2568 60.2116L23.7324 60.0573L23.2568 60.2116ZM265.61 192.973L265.612 192.473H265.612L265.61 192.973ZM453.302 405.136L453.184 404.65L453.184 404.65L453.302 405.136ZM508.48 369.452L508.625 369.93L508.625 369.93L508.48 369.452ZM606.246 280.655L606.056 280.193L606.056 280.193L606.246 280.655ZM776.765 200.366L776.521 199.929L776.521 199.929L776.765 200.366ZM851.554 154.375L851.818 154.8V154.8L851.554 154.375ZM453.488 319.94L453.618 320.423V320.423L453.488 319.94ZM618.949 223.158L619.155 223.613L619.155 223.613L618.949 223.158ZM700.815 168.822L701.05 169.263L701.051 169.263L700.815 168.822ZM451.466 229.287L451.327 228.807L451.327 228.807L451.466 229.287ZM527.838 195.959L527.658 195.492L527.658 195.492L527.838 195.959ZM627.57 153.584L627.349 153.135L627.349 153.135L627.57 153.584ZM449.447 141.821L449.3 141.343L449.3 141.343L449.447 141.821ZM652.675 113.511L652.909 113.953V113.953L652.675 113.511ZM561.08 48.1876L560.869 47.7344L561.08 48.1876ZM554.677 753.244C554.411 753.317 554.254 753.592 554.328 753.859C554.401 754.125 554.676 754.281 554.942 754.208L554.677 753.244ZM-196.787 1059.89C-193.454 1062.23 -191.951 1063.01 -190.443 1063.77C-188.966 1064.52 -187.489 1065.26 -184.173 1067.51L-183.612 1066.68C-186.973 1064.4 -188.489 1063.64 -189.99 1062.88C-191.461 1062.14 -192.923 1061.38 -196.213 1059.07L-196.787 1059.89ZM-185.309 1040.89C-181.38 1043.63 -178.29 1045.12 -175.606 1045.96C-172.923 1046.81 -170.669 1047 -168.448 1047.17C-166.227 1047.35 -164.044 1047.5 -161.423 1048.23C-158.804 1048.97 -155.729 1050.3 -151.765 1052.85L-151.225 1052C-155.256 1049.41 -158.421 1048.04 -161.152 1047.27C-163.881 1046.5 -166.157 1046.35 -168.371 1046.18C-170.584 1046.01 -172.74 1045.82 -175.306 1045.01C-177.872 1044.2 -180.872 1042.77 -184.738 1040.07L-185.309 1040.89ZM-195.164 1023.47C-184.906 1030.88 -175.856 1033.35 -167.363 1033.24C-158.894 1033.14 -151.017 1030.47 -143.132 1027.71C-135.225 1024.93 -127.31 1022.06 -118.661 1021.44C-110.034 1020.81 -100.658 1022.42 -89.8601 1028.68L-89.3589 1027.81C-100.328 1021.46 -109.904 1019.8 -118.733 1020.44C-127.54 1021.07 -135.586 1024 -143.463 1026.76C-151.363 1029.53 -159.093 1032.14 -167.376 1032.24C-175.635 1032.35 -184.478 1029.96 -194.578 1022.66L-195.164 1023.47ZM-89.9305 1028.63C-65.7948 1048.84 -44.2993 1053.17 -25.59 1056.9C-6.88942 1060.62 8.92181 1063.72 22.0421 1081.3L22.8435 1080.7C9.47072 1062.78 -6.70972 1059.63 -25.3948 1055.92C-44.0711 1052.2 -65.3552 1047.9 -89.2885 1027.86L-89.9305 1028.63ZM-15.7432 949.449C24.7056 969.228 39.1912 974.637 54.2997 978.582C69.3842 982.521 85.0163 984.985 127.878 998.918L128.187 997.967C85.2887 984.022 69.5848 981.54 54.5523 977.615C39.5437 973.696 25.1312 968.323 -15.3039 948.551L-15.7432 949.449ZM127.878 998.918C129.974 999.597 130.605 1000 131.244 1000.4C131.949 1000.84 132.66 1001.28 134.848 1001.98L135.152 1001.02C133.046 1000.35 132.411 999.953 131.775 999.554C131.072 999.114 130.366 998.673 128.186 997.967L127.878 998.918ZM134.848 1001.98C173.852 1014.41 188.991 1034.18 205.724 1050.96C214.097 1059.35 222.876 1067 235.233 1072.54C247.588 1078.08 263.485 1081.5 286.082 1081.5V1080.5C263.586 1080.5 247.837 1077.1 235.642 1071.63C223.448 1066.16 214.771 1058.61 206.432 1050.25C189.74 1033.52 174.43 1013.54 135.152 1001.02L134.848 1001.98ZM-196.778 932.915C-185.89 940.216 -172.932 943.075 -158.935 943.643C-144.942 944.21 -129.866 942.486 -114.725 940.587C-99.5672 938.686 -84.3457 936.61 -69.9983 936.447C-55.6534 936.284 -42.2328 938.036 -30.6761 943.76L-30.2322 942.864C-41.9892 937.041 -55.5893 935.283 -70.0096 935.447C-84.4273 935.611 -99.7153 937.697 -114.849 939.595C-129.999 941.495 -144.996 943.207 -158.895 942.643C-172.789 942.08 -185.543 939.245 -196.221 932.085L-196.778 932.915ZM-30.6762 943.76C-10.4248 953.796 5.67625 952.963 19.7577 946.441C33.791 939.941 45.7809 927.803 57.8624 915.35C69.9721 902.868 82.1818 890.059 96.7109 882.036C111.206 874.032 128.017 870.791 149.35 877.497L149.65 876.543C128.04 869.75 110.947 873.033 96.2275 881.161C81.5418 889.27 69.225 902.202 57.1447 914.654C45.0362 927.135 33.1727 939.125 19.3374 945.534C5.55022 951.919 -10.2326 952.775 -30.2321 942.864L-30.6762 943.76ZM149.379 877.505C216.771 894.354 245.905 945.154 268.396 991.908C279.627 1015.26 289.224 1037.65 301.105 1054.18C313.008 1070.73 327.27 1081.5 347.858 1081.5V1080.5C327.707 1080.5 313.712 1070 301.917 1053.59C290.103 1037.16 280.563 1014.89 269.297 991.474C246.793 944.693 217.487 893.502 149.621 876.535L149.379 877.505ZM1076.92 1081.48C1119.53 1069.18 1137.89 1056.64 1161.9 1042.65C1185.89 1028.68 1215.58 1013.2 1280.95 994.95L1280.68 993.987C1215.23 1012.26 1185.45 1027.77 1161.4 1041.79C1137.37 1055.79 1119.12 1068.25 1076.64 1080.52L1076.92 1081.48ZM1281 994.932C1281.64 994.674 1281.97 994.555 1282.3 994.435C1282.64 994.313 1282.99 994.189 1283.65 993.925L1283.28 992.996C1282.64 993.254 1282.3 993.373 1281.97 993.494C1281.62 993.617 1281.28 993.741 1280.63 994.005L1281 994.932ZM1283.65 993.925C1325.66 977.169 1355.91 984.485 1385.79 990.789C1415.7 997.1 1445.24 1002.39 1485.58 981.296L1485.12 980.409C1445.09 1001.33 1415.85 996.108 1385.99 989.81C1356.11 983.506 1325.6 976.119 1283.28 992.996L1283.65 993.925ZM1485.58 981.296C1524.66 960.854 1553.77 959.971 1582.37 958.1C1611.01 956.227 1639.13 953.363 1676.03 928.858L1675.48 928.025C1638.79 952.388 1610.88 955.234 1582.31 957.102C1553.7 958.973 1524.4 959.861 1485.12 980.409L1485.58 981.296ZM1676.03 928.858C1679.86 926.318 1682.28 925.046 1684.71 923.755C1687.16 922.458 1689.6 921.144 1693.45 918.531L1692.88 917.704C1689.08 920.288 1686.67 921.583 1684.25 922.871C1681.81 924.166 1679.35 925.457 1675.48 928.025L1676.03 928.858ZM1693.45 918.531C1703.89 911.418 1713.77 905.474 1723.24 900.392L1722.76 899.511C1713.27 904.609 1703.36 910.572 1692.88 917.704L1693.45 918.531ZM-47.5318 879.979C-20.8539 893.905 2.15079 888.854 25.4257 882.894C48.7163 876.93 72.2644 870.066 100.316 880.007L100.65 879.065C72.2677 869.006 48.4217 875.973 25.1777 881.925C1.91806 887.881 -20.7522 892.83 -47.0691 879.093L-47.5318 879.979ZM488.851 798.478C509.739 797.459 531.394 804.747 553.465 816.127C575.536 827.506 597.966 842.944 620.41 858.175C642.841 873.397 665.285 888.411 687.339 898.893C709.393 909.375 731.114 915.353 752.092 912.442L751.955 911.452C731.254 914.324 709.743 908.434 687.769 897.99C665.794 887.546 643.412 872.576 620.972 857.348C598.545 842.129 576.059 826.651 553.924 815.238C531.789 803.826 509.947 796.447 488.802 797.479L488.851 798.478ZM752.092 912.442C794.049 906.621 818.019 927.355 841.988 947.347C853.961 957.334 865.952 967.149 880.161 973.268C894.392 979.396 910.829 981.812 931.695 977.058L931.472 976.083C910.813 980.79 894.593 978.394 880.557 972.35C866.5 966.296 854.615 956.577 842.629 946.579C818.678 926.602 794.393 905.564 751.955 911.452L752.092 912.442ZM931.695 977.058C956.23 971.469 969.22 972.102 982.156 972.401C995.139 972.701 1008.05 972.662 1032.34 965.702L1032.07 964.741C1007.9 971.666 995.093 971.699 982.179 971.401C969.218 971.102 956.13 970.466 931.472 976.083L931.695 977.058ZM1032.34 965.702C1049.92 960.664 1059 959.193 1068.05 957.543C1077.12 955.89 1086.14 954.059 1103.55 948.304L1103.24 947.354C1085.88 953.092 1076.91 954.913 1067.87 956.559C1058.82 958.21 1049.69 959.688 1032.07 964.741L1032.34 965.702ZM1103.55 948.304C1146.24 934.195 1165.55 922.415 1184.45 909.604C1203.32 896.816 1221.74 883.021 1262.71 864.831L1262.3 863.917C1221.24 882.148 1202.75 895.989 1183.89 908.777C1165.06 921.542 1145.83 933.279 1103.24 947.354L1103.55 948.304ZM1262.71 864.831C1302.79 847.048 1336.99 863.32 1370.93 878.752C1404.81 894.159 1438.45 908.726 1476.99 886.787L1476.49 885.918C1438.44 907.577 1405.27 893.268 1371.34 877.842C1337.47 862.442 1302.85 845.925 1262.3 863.917L1262.71 864.831ZM1476.99 886.787C1479.48 885.368 1480.99 884.812 1482.52 884.245C1484.08 883.669 1485.64 883.083 1488.2 881.606L1487.7 880.74C1485.21 882.177 1483.7 882.741 1482.18 883.307C1480.63 883.882 1479.06 884.459 1476.49 885.918L1476.99 886.787ZM1488.2 881.606C1531.54 856.543 1564.39 853.593 1596.5 849.393C1628.64 845.188 1660.01 839.731 1700.21 809.575L1699.61 808.775C1659.61 838.782 1628.44 844.206 1596.37 848.401C1564.27 852.601 1531.24 855.567 1487.7 880.74L1488.2 881.606ZM1700.21 809.575C1708.84 803.104 1716.28 798.932 1723.2 795.781L1722.79 794.871C1715.81 798.05 1708.3 802.259 1699.61 808.775L1700.21 809.575ZM-196.839 841.368C-176.772 859.848 -157.553 860.816 -137.481 860.48C-117.416 860.145 -96.5343 858.52 -72.8112 871.575L-72.329 870.699C-96.3249 857.494 -117.487 859.146 -137.497 859.48C-157.499 859.814 -176.386 858.844 -196.161 840.632L-196.839 841.368ZM-72.8111 871.575C-53.0808 882.43 -35.7709 882.844 -19.5705 877.726C-3.40628 872.619 11.637 862.007 26.8583 850.872C57.3653 828.556 88.6245 804.14 131.577 816.347L131.85 815.385C88.3519 803.023 56.6832 827.816 26.2679 850.065C11.0282 861.213 -3.88818 871.722 -19.8718 876.772C-35.8193 881.811 -52.8455 881.418 -72.3291 870.699L-72.8111 871.575ZM131.577 816.347C152.03 822.159 165.747 830.356 176.144 839.55C186.551 848.752 193.646 858.962 200.864 868.861C208.074 878.75 215.404 888.323 226.253 896.128C237.11 903.939 251.46 909.96 272.693 912.82L272.827 911.829C251.726 908.987 237.538 903.016 226.837 895.317C216.129 887.612 208.879 878.157 201.672 868.272C194.473 858.398 187.311 848.09 176.806 838.801C166.291 829.503 152.439 821.236 131.85 815.385L131.577 816.347ZM272.763 912.824C308.375 912.634 325.648 887.385 338.486 861.477C344.928 848.477 350.227 835.378 356.202 824.985C362.175 814.596 368.711 807.13 377.492 805.287L377.286 804.308C368.053 806.246 361.327 814.064 355.336 824.486C349.346 834.904 343.977 848.143 337.59 861.033C324.771 886.903 307.744 911.637 272.757 911.824L272.763 912.824ZM557.522 790.931C572.623 789.727 585.518 794.147 598.508 798.481C611.478 802.807 624.539 807.044 639.826 805.294L639.712 804.301C624.672 806.022 611.808 801.863 598.825 797.532C585.863 793.208 572.778 788.711 557.443 789.934L557.522 790.931ZM639.826 805.294C653.162 803.77 663.18 805.614 671.539 809.079C679.912 812.55 686.64 817.654 693.412 822.706C700.17 827.749 706.972 832.74 715.432 835.876C723.906 839.018 734.015 840.289 747.397 837.959L747.226 836.974C734.001 839.276 724.073 838.013 715.779 834.939C707.472 831.859 700.777 826.954 694.01 821.905C687.256 816.866 680.43 811.682 671.922 808.155C663.399 804.622 653.209 802.758 639.712 804.301L639.826 805.294ZM747.397 837.959C768.455 834.296 784.864 836.348 798.928 841.13C813.008 845.918 824.753 853.445 836.506 860.78C848.245 868.106 859.99 875.239 874.001 879.138C888.027 883.04 904.294 883.696 925.091 878.13L924.832 877.164C904.195 882.687 888.109 882.025 874.269 878.174C860.414 874.319 848.781 867.262 837.036 859.932C825.304 852.611 813.459 845.015 799.25 840.183C785.026 835.346 768.447 833.282 747.226 836.974L747.397 837.959ZM925.09 878.13C946.39 872.437 960.883 864.861 971.926 856.205C982.964 847.552 990.531 837.836 997.983 827.913C1005.44 817.983 1012.78 807.853 1023.39 798.278C1033.99 788.709 1047.87 779.685 1068.4 772.017L1068.05 771.08C1047.41 778.789 1033.42 787.877 1022.72 797.536C1012.03 807.188 1004.63 817.401 997.184 827.312C989.734 837.23 982.235 846.853 971.309 855.418C960.388 863.979 946.021 871.5 924.832 877.164L925.09 878.13ZM1068.4 772.017C1104.3 758.606 1123.81 759.935 1143.06 760.517C1152.7 760.808 1162.29 760.914 1173.83 758.881C1185.36 756.848 1198.81 752.68 1216.18 744.445L1215.75 743.542C1198.44 751.746 1185.08 755.881 1173.65 757.896C1162.23 759.91 1152.72 759.808 1143.09 759.517C1123.8 758.934 1104.13 757.601 1068.05 771.08L1068.4 772.017ZM1216.18 744.445C1222.69 741.357 1226.06 740.67 1229.43 739.95C1232.85 739.22 1236.27 738.458 1242.82 735.215L1242.38 734.319C1235.92 737.515 1232.59 738.254 1229.22 738.972C1225.81 739.7 1222.36 740.407 1215.75 743.542L1216.18 744.445ZM1242.82 735.215C1285.78 714.001 1317.01 721.337 1347.74 727.572C1363.1 730.69 1378.36 733.538 1394.86 732.357C1411.36 731.174 1429.08 725.958 1449.39 712.993L1448.85 712.15C1428.68 725.031 1411.12 730.189 1394.78 731.359C1378.44 732.53 1363.3 729.711 1347.93 726.592C1317.2 720.355 1285.66 712.942 1242.38 734.319L1242.82 735.215ZM1449.39 712.993C1471.15 699.1 1490.51 703.056 1509.84 706.741C1529.17 710.424 1548.46 713.832 1569.69 698.39L1569.1 697.581C1548.25 712.751 1529.35 709.441 1510.03 705.759C1490.72 702.078 1470.98 698.021 1448.85 712.15L1449.39 712.993ZM1569.69 698.389C1590.4 683.316 1612.14 687.406 1633.89 691.247C1655.58 695.079 1677.27 698.661 1697.37 682.021L1696.73 681.251C1677.03 697.562 1655.8 694.102 1634.06 690.263C1612.38 686.433 1590.2 682.222 1569.1 697.581L1569.69 698.389ZM1697.37 682.021C1708.38 672.9 1716.74 664.242 1723.39 655.831L1722.6 655.211C1716 663.562 1707.7 672.171 1696.73 681.251L1697.37 682.021ZM-165.255 858.413C-145.843 869.936 -124.458 869.431 -102.014 862.639C-79.5831 855.849 -56.0253 842.758 -32.2158 829.023C-8.38499 815.275 15.7006 800.879 39.253 791.412C62.8034 781.946 85.7444 777.44 107.29 783.396L107.556 782.432C85.7034 776.392 62.5163 780.984 38.88 790.485C15.2457 799.985 -8.91393 814.425 -32.7155 828.156C-56.5384 841.9 -80 854.931 -102.304 861.681C-124.596 868.428 -145.662 868.881 -164.745 857.553L-165.255 858.413ZM107.29 783.396C148.248 794.722 165.925 800.241 183.921 804.122C201.928 808.004 220.262 810.249 262.552 815.041L262.665 814.048C220.36 809.254 202.08 807.014 184.132 803.144C166.173 799.272 148.555 793.769 107.556 782.432L107.29 783.396ZM262.552 815.041C304.248 819.77 325.421 816.389 346.653 811.743C367.844 807.107 389.054 801.221 430.911 800.897L430.904 799.897C388.929 800.222 367.624 806.131 346.44 810.766C325.298 815.393 304.236 818.762 262.665 814.048L262.552 815.041ZM853.272 715.497C877.904 717.961 894.991 716.661 907.495 713.029C920.016 709.392 927.916 703.425 934.18 696.609C937.305 693.208 940.022 689.599 942.694 685.979C945.37 682.353 948 678.721 950.97 675.242C956.898 668.298 964.17 661.979 975.764 657.708L975.418 656.77C963.626 661.114 956.219 667.553 950.21 674.593C947.211 678.105 944.557 681.771 941.889 685.385C939.218 689.004 936.529 692.575 933.444 695.933C927.285 702.634 919.537 708.49 907.217 712.069C894.88 715.652 877.933 716.959 853.372 714.503L853.272 715.497ZM975.764 657.708C985.029 654.295 991.214 650.788 995.843 647.198C1000.47 643.608 1003.53 639.949 1006.53 636.276C1009.54 632.602 1012.5 628.918 1016.96 625.201C1021.42 621.485 1027.39 617.724 1036.42 613.941L1036.03 613.018C1026.93 616.834 1020.86 620.643 1016.32 624.432C1011.78 628.22 1008.76 631.976 1005.76 635.643C1002.76 639.31 999.763 642.892 995.23 646.407C990.698 649.922 984.609 653.384 975.418 656.77L975.764 657.708ZM1036.42 613.941C1079.28 595.985 1098.95 591.488 1118.13 585.897C1137.33 580.296 1156 573.608 1196.78 551.291L1196.3 550.414C1155.57 572.702 1136.97 579.359 1117.85 584.937C1098.68 590.524 1078.95 595.037 1036.03 613.018L1036.42 613.941ZM1196.78 551.291C1220.87 538.104 1239.72 545.859 1258.57 553.347C1267.97 557.085 1277.4 560.765 1287.42 561.637C1297.46 562.511 1308.08 560.564 1319.88 553.109L1319.34 552.264C1307.73 559.602 1297.33 561.496 1287.51 560.641C1277.66 559.783 1268.36 556.164 1258.94 552.418C1240.11 544.937 1220.84 536.981 1196.3 550.414L1196.78 551.291ZM1319.88 553.109C1337.96 541.68 1355.71 549.463 1373.62 557.193C1391.43 564.879 1409.41 572.515 1427.4 559.84L1426.82 559.023C1409.35 571.33 1391.92 564.002 1374.02 556.274C1356.21 548.59 1337.94 540.509 1319.34 552.264L1319.88 553.109ZM1427.4 559.84C1465.92 532.706 1503.81 539.57 1541.09 545.458C1578.34 551.341 1614.98 556.242 1650.52 524.679L1649.86 523.931C1614.7 555.156 1578.5 550.354 1541.24 544.47C1504.01 538.591 1465.71 531.624 1426.82 559.023L1427.4 559.84ZM1650.52 524.679C1655.31 520.426 1658.31 518.329 1661.3 516.205C1664.31 514.072 1667.3 511.914 1672.06 507.551L1671.39 506.814C1666.67 511.138 1663.71 513.269 1660.72 515.39C1657.72 517.519 1654.69 519.641 1649.86 523.931L1650.52 524.679ZM1672.06 507.551C1710.09 472.698 1704.08 429.755 1696.82 385.976C1689.55 342.119 1681.02 297.418 1713.35 258.413L1712.58 257.775C1679.91 297.189 1688.58 342.383 1695.83 386.14C1703.1 429.975 1708.97 472.367 1671.39 506.814L1672.06 507.551ZM-197.5 301.667C-197.281 343.159 -184.246 364.653 -174.843 386.279C-170.145 397.083 -166.353 407.918 -165.472 421.329C-164.591 434.742 -166.622 450.767 -173.625 471.942L-172.676 472.256C-165.643 450.993 -163.583 434.837 -164.474 421.264C-165.365 407.688 -169.207 396.732 -173.926 385.88C-183.356 364.191 -196.282 342.905 -196.5 301.662L-197.5 301.667ZM-173.625 471.942C-186.101 509.647 -190.96 533.593 -189.116 557.041C-187.273 580.476 -178.737 603.371 -164.543 638.961L-163.614 638.59C-177.819 602.973 -186.29 580.22 -188.119 556.963C-189.946 533.72 -185.142 509.93 -172.676 472.256L-173.625 471.942ZM-164.543 638.961C-158.446 654.24 -154.155 667.619 -150.258 679.697C-146.363 691.77 -142.858 702.557 -138.337 712.617C-129.281 732.771 -116.162 749.983 -87.7289 768.942L-87.1741 768.11C-115.465 749.246 -128.452 732.176 -137.425 712.208C-141.919 702.206 -145.408 691.472 -149.307 679.39C-153.203 667.314 -157.503 653.905 -163.614 638.59L-164.543 638.961ZM-87.7289 768.942C-72.9464 778.8 -59.6674 781.956 -47.006 781.469C-34.3655 780.983 -22.3716 776.867 -10.1724 772.249C14.2546 763.003 39.5787 751.727 73.1593 762.778L73.4719 761.828C39.5037 750.649 13.8433 762.089 -10.5265 771.314C-22.7257 775.932 -34.5833 779.991 -47.0444 780.47C-59.4847 780.948 -72.5576 777.857 -87.1741 768.11L-87.7289 768.942ZM73.1594 762.778C77.941 764.351 81.6218 764.739 84.7595 764.503C87.8918 764.267 90.4548 763.411 92.9738 762.544C95.4995 761.675 97.9773 760.797 101.015 760.45C104.045 760.105 107.654 760.287 112.407 761.581L112.67 760.616C107.809 759.293 104.072 759.095 100.902 759.457C97.7383 759.818 95.1597 760.735 92.6484 761.599C90.1304 762.465 87.6757 763.281 84.6845 763.506C81.6987 763.73 78.1502 763.367 73.4718 761.828L73.1594 762.778ZM112.407 761.581C153.364 772.724 172.366 771.271 191.712 767.999C210.987 764.738 230.544 759.687 272.732 763.592L272.824 762.597C230.49 758.678 210.815 763.753 191.545 767.013C172.345 770.26 153.488 771.721 112.67 760.616L112.407 761.581ZM272.732 763.592C314.311 767.433 332.857 777.487 351.501 786.225C360.839 790.602 370.216 794.656 382.505 797.422C394.792 800.186 409.972 801.658 430.926 800.897L430.889 799.898C410 800.656 394.91 799.188 382.724 796.446C370.541 793.705 361.241 789.686 351.925 785.32C333.261 776.572 314.585 766.454 272.824 762.597L272.732 763.592ZM430.926 800.897C514.997 797.839 510.012 797.854 593.238 785.712L593.094 784.722C509.896 796.861 514.917 796.841 430.889 799.898L430.926 800.897ZM593.238 785.712C670.711 774.405 678.479 778.124 757.758 778.124V777.124C678.521 777.124 670.658 773.402 593.094 784.722L593.238 785.712ZM757.758 778.124C767.834 778.124 775.071 776.696 780.614 774.518C786.162 772.338 789.985 769.418 793.24 766.48C799.759 760.595 803.89 754.792 815.025 754.225L814.975 753.227C803.399 753.816 798.967 759.962 792.57 765.737C789.368 768.628 785.646 771.466 780.248 773.587C774.847 775.709 767.739 777.124 757.758 777.124V778.124ZM815.025 754.225C832.775 753.321 842.013 748.356 847.065 740.827C852.076 733.358 852.882 723.455 854.049 712.962C855.222 702.418 856.758 691.188 863.101 680.794C869.435 670.417 880.601 660.815 901.148 653.636L900.819 652.692C880.106 659.929 868.728 669.655 862.248 680.273C855.777 690.876 854.228 702.309 853.055 712.852C851.877 723.446 851.077 733.052 846.234 740.27C841.431 747.429 832.567 752.331 814.975 753.227L815.025 754.225ZM901.148 653.636C922.582 646.149 935.803 635.97 944.844 624.293C953.873 612.63 958.706 599.501 963.405 586.184C968.11 572.85 972.681 559.329 981.172 546.744C989.652 534.174 1002.06 522.521 1022.45 512.985L1022.02 512.079C1001.47 521.689 988.928 533.458 980.343 546.184C971.767 558.895 967.158 572.544 962.462 585.852C957.76 599.177 952.971 612.161 944.053 623.681C935.145 635.187 922.092 645.26 900.819 652.692L901.148 653.636ZM1022.45 512.985C1044.65 502.598 1054.93 501.358 1065.08 499.813C1075.3 498.256 1085.38 496.392 1107.09 484.752L1106.61 483.871C1085.02 495.452 1075.05 497.283 1064.92 498.824C1054.72 500.378 1044.34 501.637 1022.02 512.079L1022.45 512.985ZM1107.09 484.752C1117.16 479.347 1125.14 477.1 1132.05 476.387C1138.96 475.674 1144.83 476.494 1150.72 477.26C1156.6 478.026 1162.51 478.737 1169.41 477.753C1176.32 476.767 1184.2 474.088 1194.07 468.12L1193.55 467.265C1183.77 473.177 1176.02 475.799 1169.27 476.763C1162.51 477.726 1156.73 477.034 1150.84 476.269C1144.97 475.504 1138.99 474.666 1131.94 475.393C1124.89 476.121 1116.79 478.413 1106.61 483.871L1107.09 484.752ZM1194.07 468.12C1215.66 455.061 1237.92 454.535 1260.46 460.161C1283.02 465.792 1305.82 477.574 1328.48 489.094C1351.11 500.6 1373.6 511.846 1395.46 516.307C1417.35 520.774 1438.63 518.444 1458.82 502.783L1458.2 501.992C1438.3 517.438 1417.33 519.75 1395.66 515.327C1373.95 510.898 1351.59 499.721 1328.93 488.203C1306.31 476.698 1283.4 464.855 1260.7 459.191C1237.99 453.521 1215.44 454.029 1193.55 467.265L1194.07 468.12ZM1458.82 502.782C1460.46 501.51 1461.36 500.935 1462.28 500.352C1463.21 499.76 1464.14 499.161 1465.81 497.852L1465.19 497.066C1463.56 498.347 1462.66 498.927 1461.74 499.508C1460.82 500.099 1459.88 500.693 1458.2 501.993L1458.82 502.782ZM1465.81 497.853C1508.15 464.665 1539.32 456.026 1569.39 446.098C1599.51 436.155 1628.51 424.926 1666.37 386.531L1665.66 385.829C1627.95 424.072 1599.11 435.235 1569.08 445.149C1539 455.077 1507.69 463.759 1465.19 497.065L1465.81 497.853ZM1666.37 386.531C1671.85 380.975 1673.74 376.853 1675.59 372.745C1677.41 368.676 1679.19 364.628 1684.44 359.096L1683.72 358.407C1678.35 364.062 1676.51 368.234 1674.67 372.335C1672.85 376.397 1671.02 380.396 1665.66 385.829L1666.37 386.531ZM1684.44 359.096C1721.69 319.865 1714.86 278.86 1706.7 236.974C1698.53 195.052 1689.04 152.249 1720.38 108.895L1719.57 108.31C1687.94 152.062 1697.56 195.304 1705.72 237.165C1713.88 279.062 1720.58 319.578 1683.72 358.407L1684.44 359.096ZM1720.38 108.896C1721.76 106.99 1722.67 105.729 1723.4 104.701L1722.59 104.122C1721.86 105.145 1720.95 106.402 1719.57 108.309L1720.38 108.896ZM-197.5 195.959C-197.5 239.238 -182.546 286.367 -169.763 333.349C-156.966 380.38 -146.338 427.275 -154.836 470.258L-153.855 470.452C-145.306 427.21 -156.006 380.1 -168.798 333.086C-181.603 286.024 -196.5 239.067 -196.5 195.959H-197.5ZM-154.836 470.258C-162.409 508.603 -164.248 537.831 -158.114 564.681C-151.979 591.537 -137.882 615.961 -113.686 644.727L-112.92 644.083C-137.062 615.383 -151.053 591.101 -157.139 564.458C-163.227 537.809 -161.418 508.744 -153.855 470.451L-154.836 470.258ZM-113.686 644.727C-105.73 654.19 -102.086 660.173 -97.9488 665.794C-93.8073 671.421 -89.2233 676.606 -79.467 684.366L-78.8445 683.583C-88.536 675.875 -93.0573 670.753 -97.1434 665.202C-101.233 659.645 -104.939 653.577 -112.92 644.083L-113.686 644.727ZM-79.467 684.366C-61.8085 698.409 -46.4275 704.692 -31.8973 706.564C-17.3772 708.435 -3.75253 705.894 10.3656 702.371C38.609 695.323 68.9042 684.336 112.844 696.309L113.107 695.345C68.8673 683.289 38.2995 694.37 10.1234 701.401C-3.96825 704.917 -17.4424 707.418 -31.7695 705.572C-46.0863 703.727 -61.3006 697.535 -78.8445 683.583L-79.467 684.366ZM112.844 696.309C133.249 701.871 148.126 703.86 160.287 703.801C172.453 703.741 181.878 701.631 191.365 699.025C210.298 693.823 229.528 686.629 271.651 689.671L271.723 688.673C229.414 685.618 210.039 692.857 191.1 698.061C181.651 700.657 172.323 702.742 160.282 702.801C148.237 702.859 133.453 700.89 113.107 695.345L112.844 696.309ZM271.651 689.671C313.25 692.675 332.098 704.773 351.024 715.476C360.502 720.836 370.018 725.858 382.404 729.19C394.79 732.522 410.021 734.159 430.94 732.789L430.875 731.792C410.042 733.156 394.923 731.523 382.663 728.224C370.403 724.926 360.976 719.956 351.516 714.606C332.565 703.889 313.555 691.694 271.723 688.673L271.651 689.671ZM430.94 732.789C472.935 730.035 494.115 738.324 515.213 745.452C525.776 749.021 536.336 752.306 549.459 753.753C562.583 755.2 578.249 754.807 599.04 751.05L598.863 750.066C578.148 753.809 562.58 754.193 549.568 752.759C536.556 751.324 526.08 748.068 515.533 744.505C494.41 737.369 473.075 729.024 430.875 731.792L430.94 732.789ZM599.04 751.05C641.283 743.415 665.162 749.404 688.857 754.348C712.609 759.304 736.147 763.201 777.576 751.273L777.3 750.312C736.08 762.179 712.719 758.306 689.061 753.369C665.346 748.421 641.306 742.395 598.863 750.066L599.04 751.05ZM777.576 751.273C820.432 738.943 830.297 701.685 839.76 663.798C849.247 625.81 858.337 587.179 899.22 571.092L898.854 570.161C857.416 586.467 848.249 625.679 838.789 663.556C829.304 701.534 819.531 738.162 777.3 750.312L777.576 751.273ZM899.22 571.092C906.466 568.241 911.067 564.714 914.324 560.819C917.573 556.933 919.465 552.702 921.316 548.505C923.174 544.296 924.99 540.123 928.087 536.228C931.175 532.345 935.554 528.72 942.553 525.67L942.154 524.753C935.017 527.863 930.502 531.584 927.304 535.606C924.114 539.617 922.251 543.91 920.401 548.102C918.546 552.307 916.704 556.414 913.557 560.177C910.419 563.931 905.962 567.365 898.854 570.161L899.22 571.092ZM942.553 525.67C956.699 519.503 964.979 511.565 970.273 502.666C975.555 493.786 977.844 483.978 980.061 474.136C982.282 464.271 984.431 454.372 989.398 445.167C994.355 435.982 1002.13 427.47 1015.65 420.437L1015.18 419.55C1001.5 426.673 993.573 435.326 988.518 444.693C983.474 454.04 981.3 464.079 979.085 473.916C976.865 483.775 974.603 493.431 969.413 502.155C964.236 510.859 956.124 518.663 942.154 524.753L942.553 525.67ZM1015.65 420.437C1037.16 409.238 1055.21 405.883 1071.43 406.295C1087.66 406.707 1102.1 410.89 1116.43 414.815C1130.75 418.735 1144.97 422.396 1160.68 421.677C1176.41 420.957 1193.59 415.853 1213.88 402.316L1213.33 401.484C1193.17 414.934 1176.16 419.968 1160.64 420.678C1145.1 421.389 1131.02 417.772 1116.69 413.85C1102.39 409.933 1087.83 405.711 1071.45 405.295C1055.06 404.879 1036.85 408.276 1015.18 419.55L1015.65 420.437ZM1213.88 402.316C1216.39 400.638 1218.39 399.726 1220.13 399.187C1221.86 398.647 1223.35 398.476 1224.89 398.296C1226.42 398.116 1227.99 397.927 1229.82 397.337C1231.65 396.747 1233.72 395.761 1236.28 394.003L1235.72 393.178C1233.22 394.891 1231.24 395.829 1229.51 396.386C1227.78 396.942 1226.3 397.123 1224.77 397.302C1223.24 397.482 1221.67 397.661 1219.83 398.232C1217.99 398.804 1215.91 399.762 1213.33 401.484L1213.88 402.316ZM1236.28 394.002C1255.23 380.972 1277.55 381.304 1301.56 388.29C1325.59 395.279 1351.21 408.895 1376.7 422.307C1402.17 435.704 1427.52 448.898 1450.91 454.959C1474.32 461.024 1495.88 459.969 1513.67 444.745L1513.02 443.985C1495.57 458.913 1474.4 460.013 1451.16 453.991C1427.9 447.965 1402.66 434.833 1377.17 421.422C1351.7 408.025 1325.98 394.353 1301.84 387.33C1277.69 380.305 1255.02 379.904 1235.72 393.178L1236.28 394.002ZM1513.67 444.744C1528.62 431.95 1538.57 426.285 1548.4 420.437C1558.25 414.576 1567.96 408.539 1582.38 395.016L1581.7 394.287C1567.35 407.743 1557.7 413.738 1547.89 419.577C1538.05 425.429 1528.03 431.131 1513.02 443.985L1513.67 444.744ZM1582.38 395.016C1611.1 368.071 1604.47 332.604 1597.29 296.871C1590.09 261.02 1582.34 224.887 1608.03 195.896L1607.28 195.233C1581.21 224.66 1589.14 261.344 1596.31 297.068C1603.51 332.91 1609.95 367.777 1581.7 394.287L1582.38 395.016ZM1608.03 195.896C1619.64 182.787 1639.33 172.497 1659.01 162.029C1678.62 151.591 1698.23 140.974 1709.42 127.21L1708.64 126.579C1697.61 140.154 1678.21 150.679 1658.54 161.146C1638.93 171.581 1619.04 181.957 1607.28 195.233L1608.03 195.896ZM-154.845 470.344C-156.179 530.927 -122.762 561.135 -81.9596 605.015L-81.2273 604.334C-122.109 560.37 -155.168 530.468 -153.846 470.366L-154.845 470.344ZM-81.9597 605.015C-75.9836 611.444 -70.4248 615.238 -64.9696 617.589C-59.5191 619.937 -54.1984 620.834 -48.73 621.5C-37.7982 622.831 -26.2318 623.252 -11.3953 632.349L-10.8725 631.497C-25.9263 622.267 -37.7191 621.833 -48.6092 620.507C-54.0518 619.844 -59.2576 618.961 -64.5738 616.67C-69.8852 614.381 -75.3328 610.675 -81.2273 604.334L-81.9597 605.015ZM-11.3952 632.349C1.52997 640.272 12.293 642.718 22.0888 642.153C31.8668 641.588 40.6333 638.023 49.5473 634.021C67.3847 626.011 85.9286 616.2 114.951 624.329L115.22 623.366C85.8083 615.128 66.9484 625.11 49.1377 633.108C40.2276 637.109 31.6088 640.602 22.0312 641.154C12.4713 641.706 1.9082 639.331 -10.8726 631.497L-11.3952 632.349ZM114.951 624.329C135.281 630.025 150.034 630.178 162.048 627.238C174.056 624.3 183.278 618.282 192.542 611.738C201.817 605.185 211.126 598.113 223.379 592.94C235.619 587.773 250.813 584.498 271.824 585.605L271.877 584.606C250.726 583.492 235.38 586.789 222.99 592.019C210.614 597.243 201.206 604.393 191.965 610.921C182.713 617.457 173.622 623.377 161.811 626.267C150.005 629.156 135.432 629.028 115.22 623.366L114.951 624.329ZM271.824 585.605C313.371 587.797 337.43 612.5 361.612 635.826C385.773 659.131 410.055 681.05 451.952 677.043L451.857 676.047C410.45 680.008 386.466 658.41 362.306 635.106C338.167 611.821 313.851 586.821 271.877 584.606L271.824 585.605ZM597.856 735.756C639.701 735.756 673.985 726.424 702.01 716.606C716.005 711.702 728.482 706.662 739.502 702.623C750.547 698.575 760.153 695.524 768.513 694.543L768.397 693.55C759.909 694.546 750.207 697.635 739.158 701.684C728.084 705.742 715.68 710.757 701.679 715.662C673.713 725.46 639.547 734.756 597.856 734.756V735.756ZM768.612 694.521C811.513 680.344 824.925 644.839 837.865 608.583C850.825 572.268 863.317 535.199 904.133 517.143L903.728 516.228C862.46 534.485 849.857 572.005 836.923 608.246C823.967 644.546 810.684 679.565 768.298 693.572L768.612 694.521ZM904.133 517.143C925.657 507.626 938.976 496.54 948.107 484.518C957.23 472.505 962.149 459.585 966.906 446.463C971.667 433.327 976.267 419.994 984.742 407.031C993.209 394.081 1005.56 381.486 1025.83 369.886L1025.34 369.018C1004.93 380.692 992.463 393.394 983.905 406.484C975.354 419.562 970.718 433.012 965.965 446.122C961.208 459.246 956.332 472.035 947.31 483.913C938.296 495.782 925.12 506.77 903.728 516.228L904.133 517.143ZM1025.83 369.886C1028.6 368.305 1032.88 366.958 1037.98 365.725C1043.06 364.495 1048.9 363.391 1054.76 362.277C1060.6 361.165 1066.47 360.044 1071.57 358.785C1076.66 357.528 1081.05 356.12 1083.93 354.416L1083.42 353.555C1080.68 355.179 1076.41 356.559 1071.33 357.814C1066.26 359.066 1060.42 360.182 1054.57 361.295C1048.72 362.407 1042.86 363.516 1037.74 364.753C1032.64 365.988 1028.24 367.361 1025.34 369.018L1025.83 369.886ZM1083.93 354.416C1102.53 343.411 1118.04 341.114 1131.93 343.026C1145.84 344.942 1158.17 351.085 1170.44 357.059C1182.68 363.019 1194.86 368.812 1208.39 369.875C1221.95 370.94 1236.8 367.253 1254.4 354.389L1253.8 353.582C1236.37 366.33 1221.75 369.921 1208.47 368.878C1195.16 367.832 1183.14 362.131 1170.87 356.16C1158.64 350.202 1146.17 343.977 1132.06 342.035C1117.93 340.09 1102.2 342.446 1083.42 353.555L1083.93 354.416ZM1254.4 354.389C1265.73 346.097 1278.64 345.165 1292.38 347.922C1306.14 350.682 1320.66 357.126 1335.18 363.513C1349.67 369.887 1364.16 376.207 1377.77 378.637C1391.4 381.072 1404.21 379.616 1415.28 370.377L1414.64 369.609C1403.87 378.599 1391.39 380.055 1377.95 377.653C1364.48 375.248 1350.1 368.984 1335.58 362.597C1321.09 356.223 1306.46 349.728 1292.58 346.942C1278.67 344.152 1265.45 345.067 1253.8 353.582L1254.4 354.389ZM1415.28 370.377C1435.19 353.749 1450.95 349.68 1466.53 345.305C1482.14 340.92 1497.55 336.229 1516.6 318.306L1515.91 317.578C1497.04 335.338 1481.81 339.974 1466.26 344.343C1450.66 348.723 1434.73 352.837 1414.64 369.609L1415.28 370.377ZM1516.6 318.306C1541.49 294.878 1536.84 265.004 1531.79 234.995C1526.73 204.889 1521.28 174.64 1543.84 149.785L1543.1 149.113C1520.16 174.385 1525.77 205.162 1530.81 235.161C1535.87 265.257 1540.36 294.565 1515.91 317.578L1516.6 318.306ZM1543.84 149.785C1562.89 128.787 1560.61 102.443 1558.01 76.0725C1555.4 49.6172 1552.49 23.1311 1569.79 1.31066L1569 0.689406C1551.41 22.8807 1554.42 49.8092 1557.01 76.1705C1559.62 102.616 1561.81 128.491 1543.1 149.113L1543.84 149.785ZM-80.7797 301.522C-89.1058 329.602 -100.591 360.652 -108.223 391.589C-115.859 422.544 -119.676 453.513 -112.642 481.538L-111.672 481.294C-118.646 453.509 -114.876 422.732 -107.252 391.829C-99.6242 360.908 -88.1773 329.988 -79.8209 301.807L-80.7797 301.522ZM-112.642 481.538C-109.938 492.302 -107.593 497.141 -103.34 507.329L-102.417 506.943C-106.679 496.735 -108.99 491.97 -111.672 481.294L-112.642 481.538ZM-103.34 507.328C-94.8168 527.794 -82.631 539.136 -67.6512 545.029C-52.7032 550.909 -35.0235 551.341 -15.5504 550.107C23.4585 547.635 69.7382 538.495 116.599 552.401L116.883 551.442C69.7979 537.47 23.2231 546.648 -15.6137 549.109C-35.0634 550.341 -52.5544 549.893 -67.2852 544.098C-81.9841 538.316 -93.9852 527.19 -102.417 506.944L-103.34 507.328ZM116.599 552.401C131.871 556.937 143.027 555.454 152.143 550.708C161.227 545.978 168.235 538.03 175.256 529.772C182.299 521.489 189.361 512.887 198.595 506.673C207.805 500.474 219.188 496.646 234.877 497.976L234.962 496.98C219.041 495.63 207.432 499.52 198.036 505.843C188.665 512.15 181.51 520.873 174.494 529.124C167.457 537.4 160.566 545.194 151.681 549.821C142.829 554.43 131.947 555.917 116.883 551.442L116.599 552.401ZM234.878 497.976C240.388 498.44 244.517 495.621 248.591 491.384C250.628 489.266 252.676 486.767 254.886 484.112C257.101 481.451 259.487 478.623 262.219 475.818C267.678 470.213 274.512 464.706 284.062 460.875C293.613 457.044 305.91 454.878 322.309 455.999L322.377 455.001C305.854 453.872 293.403 456.051 283.69 459.947C273.975 463.843 267.029 469.446 261.503 475.12C258.741 477.955 256.334 480.809 254.118 483.472C251.896 486.14 249.876 488.605 247.871 490.691C243.861 494.86 240.012 497.405 234.962 496.98L234.878 497.976ZM317.407 771.962C324.738 771.41 334.197 772.924 345.548 775.178C356.874 777.427 370.057 780.406 384.753 782.741C414.159 787.413 449.696 789.519 488.966 778.104L488.687 777.143C449.611 788.502 414.237 786.413 384.91 781.754C370.239 779.423 357.101 776.453 345.742 774.197C334.408 771.947 324.819 770.402 317.332 770.965L317.407 771.962ZM488.889 778.12C510.065 775.445 524.189 771.522 534.754 766.8C545.324 762.075 552.306 756.56 559.196 750.748C566.083 744.937 572.864 738.842 583.077 732.877C593.288 726.914 606.944 721.074 627.557 715.822L627.31 714.853C606.626 720.123 592.879 725.995 582.573 732.014C572.27 738.031 565.419 744.189 558.551 749.984C551.685 755.776 544.788 761.22 534.346 765.887C523.898 770.557 509.877 774.461 488.764 777.128L488.889 778.12ZM627.557 715.822C670.199 704.961 691.761 688.716 712.929 671.382C734.069 654.072 754.794 635.696 795.823 620.431L795.475 619.494C754.273 634.823 733.434 653.299 712.295 670.609C691.184 687.896 669.754 704.042 627.31 714.853L627.557 715.822ZM795.823 620.431C838.833 604.432 848.895 568.933 858.46 532.696C868.038 496.406 877.122 459.377 917.849 439.527L917.41 438.628C876.216 458.706 867.053 496.22 857.493 532.441C847.919 568.714 837.951 603.693 795.475 619.494L795.823 620.431ZM917.849 439.527C919.36 438.789 920.053 438.361 920.739 437.938C921.408 437.525 922.071 437.116 923.543 436.397L923.104 435.499C921.593 436.237 920.9 436.664 920.214 437.087C919.545 437.5 918.882 437.909 917.41 438.628L917.849 439.527ZM923.544 436.397C944.36 426.163 957.994 415.81 967.956 405.256C977.916 394.703 984.187 383.968 990.286 373.013C1002.47 351.13 1014.02 328.278 1053.07 303.742L1052.53 302.895C1013.26 327.57 1001.62 350.608 989.412 372.526C983.318 383.472 977.098 394.114 967.229 404.569C957.362 415.023 943.83 425.309 923.103 435.499L923.544 436.397ZM1053.07 303.742C1081.17 286.079 1107.69 296.585 1134.14 306.724C1160.53 316.836 1186.85 326.582 1214.03 306.563L1213.43 305.758C1186.75 325.416 1160.95 315.926 1134.5 305.79C1108.13 295.682 1081.12 284.929 1052.53 302.895L1053.07 303.742ZM1214.03 306.563C1228.42 295.963 1238.02 293.635 1247.57 291.152C1257.16 288.654 1266.69 286 1280.79 274.716L1280.17 273.935C1266.22 285.097 1256.84 287.705 1247.31 290.184C1237.73 292.678 1227.98 295.045 1213.43 305.758L1214.03 306.563ZM1280.79 274.716C1316.58 246.098 1343.43 240.022 1369.57 233.052C1395.76 226.069 1421.21 218.192 1453.99 185.921L1453.28 185.209C1420.68 217.31 1395.42 225.126 1369.32 232.086C1343.16 239.06 1316.13 245.178 1280.17 273.935L1280.79 274.716ZM1453.99 185.921C1457.73 182.24 1464.23 179.094 1472.2 176.208C1480.15 173.329 1489.48 170.735 1498.83 168.123C1508.17 165.514 1517.52 162.887 1525.46 159.947C1533.4 157.012 1540.01 153.738 1543.83 149.797L1543.11 149.101C1539.47 152.867 1533.04 156.079 1525.12 159.009C1517.21 161.933 1507.91 164.549 1498.56 167.16C1489.23 169.769 1479.85 172.373 1471.86 175.268C1463.88 178.157 1457.19 181.362 1453.28 185.208L1453.99 185.921ZM-80.7797 301.522C-92.762 341.932 -75.5503 385.268 -42.5181 423.825L-41.7587 423.175C-74.6932 384.732 -91.6632 341.744 -79.8209 301.807L-80.7797 301.522ZM-42.5181 423.825C-21.7106 448.113 3.57425 455.934 31.3426 460.276C59.1435 464.623 89.3306 465.485 120.279 475.792L120.595 474.843C89.5437 464.502 59.137 463.61 31.4971 459.288C3.82463 454.961 -21.1783 447.197 -41.7587 423.175L-42.5181 423.825ZM120.279 475.792C140.186 482.422 154.213 481.417 165.357 476.125C176.469 470.848 184.639 461.337 192.889 451.149C201.159 440.935 209.521 430.026 221.053 421.754C232.564 413.497 247.25 407.859 268.169 408.262L268.188 407.262C247.055 406.856 232.158 412.558 220.47 420.942C208.805 429.31 200.353 440.342 192.111 450.52C183.849 460.723 175.808 470.055 164.928 475.222C154.078 480.374 140.329 481.415 120.595 474.843L120.279 475.792ZM268.169 408.262C288.799 408.657 305.449 426.218 320.126 452.497C334.783 478.738 347.356 513.456 359.92 547.775C372.474 582.068 385.019 615.969 399.612 640.484C414.185 664.965 430.944 680.325 451.982 677.039L451.827 676.051C431.467 679.231 415.028 664.426 400.472 639.973C385.936 615.554 373.422 581.751 360.859 547.431C348.305 513.139 335.704 478.336 320.999 452.01C306.316 425.721 289.419 407.668 268.188 407.262L268.169 408.262ZM451.982 677.039C494.454 670.399 517.724 659.123 540.661 646.492C563.574 633.875 586.122 619.928 627.221 607.869L626.939 606.909C585.717 619.005 563.075 633.008 540.179 645.616C517.307 658.211 494.15 669.435 451.827 676.051L451.982 677.039ZM627.221 607.869C661.179 597.909 678.763 588.6 696.078 578.556C713.372 568.524 730.373 557.774 763.215 544.885L762.85 543.954C729.926 556.875 712.862 567.664 695.576 577.691C678.312 587.705 660.803 596.977 626.939 606.909L627.221 607.869ZM763.215 544.885C771.757 541.533 776.256 539.318 780.732 537.06C785.196 534.809 789.631 532.518 798.064 529L797.679 528.077C789.211 531.609 784.749 533.914 780.281 536.168C775.824 538.416 771.355 540.616 762.85 543.954L763.215 544.885ZM798.064 529C819.562 520.032 833.877 508.938 844.528 496.642C855.172 484.354 862.141 470.883 868.96 457.206C882.598 429.856 895.679 401.602 936.39 379.677L935.915 378.796C894.905 400.883 881.707 429.402 868.065 456.76C861.245 470.438 854.324 483.805 843.772 495.987C833.228 508.161 819.042 519.166 797.679 528.077L798.064 529ZM936.39 379.677C951.947 371.297 962.403 363.114 970.259 354.948C978.113 346.783 983.353 338.649 988.483 330.399C998.726 313.921 1008.57 296.904 1038.07 277.838L1037.52 276.998C1007.84 296.188 997.897 313.362 987.633 329.871C982.509 338.113 977.315 346.171 969.538 354.255C961.764 362.336 951.395 370.458 935.915 378.796L936.39 379.677ZM1038.07 277.837C1049.85 270.214 1053.91 264.223 1057.88 258.173C1061.82 252.18 1065.67 246.139 1077.06 238.278L1076.5 237.455C1064.95 245.422 1061.01 251.584 1057.05 257.624C1053.12 263.607 1049.15 269.477 1037.52 276.998L1038.07 277.837ZM1077.06 238.278C1098.87 223.225 1123.49 212.431 1148.87 201.815C1174.25 191.204 1200.39 180.771 1225.16 166.449C1274.74 137.781 1318.81 93.5393 1340.59 1.11471L1339.61 0.885361C1317.9 93.0256 1274.01 137.045 1224.66 165.584C1199.96 179.865 1173.88 190.271 1148.49 200.892C1123.1 211.507 1098.39 222.336 1076.5 237.455L1077.06 238.278ZM0.147537 119.665C-0.846893 124.26 1.02705 129.005 4.14844 133.728C7.2749 138.458 11.7271 143.273 16.0493 148.027C20.3888 152.799 24.596 157.506 27.3111 162.069C30.0271 166.634 31.1843 170.943 29.6082 174.969L30.5394 175.334C32.2834 170.879 30.9456 166.222 28.1705 161.558C25.3945 156.893 21.1144 152.11 16.7892 147.354C12.4467 142.578 8.05684 137.827 4.98268 133.176C1.90346 128.517 0.218231 124.066 1.12492 119.876L0.147537 119.665ZM29.5994 174.993C18.6688 207.77 -7.35156 222.49 -31.5304 237.484C-55.6733 252.455 -77.9837 267.711 -80.7986 301.623L-79.802 301.706C-77.0318 268.332 -55.1525 253.309 -31.0034 238.334C-6.89012 223.381 19.484 208.487 30.5481 175.309L29.5994 174.993ZM-80.7986 301.623C-82.3786 320.614 -74.9522 334.307 -61.7593 344.598C-48.5992 354.864 -29.7034 361.748 -8.30894 367.211C13.0899 372.675 37.0684 376.737 60.4031 381.319C83.7555 385.904 106.471 391.012 125.417 398.57L125.788 397.641C106.747 390.045 83.9503 384.923 60.5957 380.338C37.2235 375.748 13.3011 371.697 -8.06152 366.242C-29.4285 360.786 -48.1548 353.943 -61.1442 343.81C-74.1007 333.703 -81.3511 320.324 -79.802 301.706L-80.7986 301.623ZM125.417 398.57C127.214 399.286 128.405 399.641 129.295 399.802C130.202 399.965 130.784 399.924 131.339 399.873C131.872 399.825 132.365 399.772 133.166 399.874C133.978 399.977 135.122 400.243 136.919 400.862L137.245 399.917C135.413 399.286 134.198 398.997 133.292 398.882C132.375 398.765 131.788 398.829 131.249 398.878C130.734 398.924 130.253 398.958 129.473 398.817C128.676 398.674 127.556 398.346 125.787 397.641L125.417 398.57ZM136.92 400.863C155.029 407.067 167.471 405.381 177.115 399.264C186.712 393.178 193.46 382.745 200.29 371.679C207.142 360.577 214.092 348.81 224.102 339.834C234.087 330.88 247.13 324.697 266.191 324.827L266.198 323.827C246.881 323.696 233.6 329.975 223.434 339.09C213.294 348.182 206.267 360.091 199.439 371.154C192.588 382.253 185.951 392.476 176.58 398.42C167.256 404.333 155.147 406.05 137.244 399.916L136.92 400.863ZM266.191 324.827C276.51 324.898 285.928 329.425 294.683 337.331C303.444 345.243 311.518 356.517 319.132 370.023C334.361 397.037 347.686 432.855 360.989 468.229C374.281 503.576 387.554 538.485 402.669 563.592C410.227 576.146 418.269 586.287 427.037 592.809C435.819 599.34 445.342 602.247 455.815 600.292L455.632 599.309C445.484 601.203 436.237 598.406 427.633 592.006C419.016 585.597 411.054 575.581 403.526 563.076C388.467 538.064 375.227 503.25 361.925 467.877C348.632 432.53 335.279 396.628 320.003 369.532C312.364 355.982 304.228 344.603 295.353 336.589C286.474 328.571 276.831 323.9 266.198 323.827L266.191 324.827ZM455.815 600.292C464.153 598.737 469.064 596.936 473.944 595.081C478.807 593.232 483.63 591.332 491.832 589.551L491.62 588.574C483.34 590.372 478.458 592.295 473.588 594.146C468.734 595.992 463.886 597.77 455.632 599.309L455.815 600.292ZM491.833 589.551C526.047 582.094 542.964 567.346 559.576 551.749C576.163 536.175 592.43 519.776 625.399 508.798L625.083 507.849C591.886 518.904 575.479 535.446 558.892 551.02C542.33 566.569 525.573 581.174 491.62 588.574L491.833 589.551ZM625.399 508.798C668.249 494.539 688.699 479.823 708.654 463.936C728.578 448.074 747.984 431.068 788.802 412.138L788.381 411.231C747.442 430.217 727.952 447.294 708.031 463.154C688.14 478.99 667.792 493.637 625.083 507.849L625.399 508.798ZM788.802 412.138C819.668 397.831 833.621 386.158 847.273 373.941C860.895 361.75 874.2 349.034 903.811 332.57L903.325 331.696C873.61 348.218 860.236 360.997 846.606 373.195C833.005 385.367 819.134 396.977 788.381 411.231L788.802 412.138ZM903.811 332.57C915.587 326.024 921.402 322.235 927.169 318.368C932.927 314.508 938.629 310.576 950.196 303.731L949.686 302.871C938.094 309.731 932.371 313.677 926.613 317.538C920.864 321.392 915.073 325.166 903.325 331.696L903.811 332.57ZM950.196 303.731C971.946 290.854 986.55 278.576 997.477 266.444C1008.4 254.314 1015.64 242.346 1022.66 230.118C1036.68 205.684 1049.88 180.153 1090.03 149.848L1089.43 149.05C1049.1 179.484 1035.83 205.168 1021.79 229.62C1014.78 241.835 1007.59 253.727 996.734 265.775C985.884 277.821 971.362 290.037 949.686 302.871L950.196 303.731ZM1090.03 149.848C1098.6 143.384 1103.47 141.107 1108.33 138.771C1113.23 136.418 1118.09 134.007 1126.59 127.287L1125.97 126.503C1117.55 133.164 1112.75 135.537 1107.9 137.87C1103.01 140.219 1098.07 142.529 1089.43 149.05L1090.03 149.848ZM1126.59 127.287C1196.07 72.3022 1199.03 62.5736 1262.85 1.3609L1262.16 0.639174C1198.27 61.9111 1195.41 71.5569 1125.97 126.503L1126.59 127.287ZM0.186935 119.551C-8.71156 137.775 -18.2011 152.994 -26.0052 167.097C-33.7974 181.177 -39.9 194.13 -41.9251 207.719C-45.9848 234.96 -33.6369 264.536 13.4238 310.761L14.1245 310.048C-32.8892 263.868 -44.9207 234.603 -40.936 207.866C-38.9389 194.466 -32.9134 181.645 -25.1303 167.581C-17.3592 153.538 -7.82645 138.241 1.08553 119.99L0.186935 119.551ZM13.4125 310.749C22.5105 320.282 29.4296 328.792 35.0285 335.643C40.6099 342.472 44.9203 347.708 48.7668 350.607L49.3686 349.808C45.6418 346.999 41.4184 341.881 35.8028 335.01C30.2048 328.16 23.2637 319.622 14.1359 310.059L13.4125 310.749ZM48.7668 350.607C54.9339 355.254 61.1633 355.779 67.4088 354.182C73.6167 352.594 79.8603 348.903 86.1004 345.127C92.3695 341.333 98.6407 337.449 104.988 335.36C111.311 333.279 117.664 332.996 124.116 336.37L124.58 335.483C117.824 331.951 111.177 332.27 104.675 334.41C98.1968 336.542 91.8186 340.498 85.5826 344.271C79.3177 348.063 73.2006 351.668 67.161 353.213C61.159 354.748 55.254 354.243 49.3686 349.808L48.7668 350.607ZM124.116 336.37C142.374 345.926 155.208 345.584 165.462 339.531C175.646 333.52 183.181 321.923 190.992 309.282C206.67 283.912 223.595 254.123 265.23 254.177L265.231 253.177C222.963 253.122 205.768 283.47 190.141 308.757C182.3 321.445 174.887 332.807 164.954 338.67C155.092 344.491 142.643 344.938 124.58 335.484L124.116 336.37ZM265.23 254.177C285.908 254.203 303.045 270.872 318.428 295.915C333.792 320.927 347.289 354.094 360.752 386.761C374.205 419.401 387.627 451.549 402.831 474.425C418.018 497.277 435.132 511.094 455.994 506.599L455.783 505.621C435.584 509.974 418.819 496.676 403.664 473.872C388.525 451.094 375.14 419.047 361.677 386.38C348.225 353.74 334.696 320.487 319.28 295.392C303.884 270.328 286.488 253.204 265.231 253.177L265.23 254.177ZM455.994 506.599C498.859 497.362 516.632 471.302 533.875 443.879C551.117 416.459 567.825 387.696 608.516 372.547L608.167 371.61C567.119 386.893 550.253 415.955 533.029 443.347C515.806 470.737 498.223 496.476 455.783 505.621L455.994 506.599ZM608.516 372.547C635.544 362.48 650.034 358.462 664.341 353.933C678.659 349.401 692.764 344.366 718.979 332.28L718.561 331.372C692.382 343.441 678.316 348.46 664.039 352.979C649.752 357.502 635.225 361.532 608.167 371.61L608.516 372.547ZM718.979 332.28C734.381 325.182 743.008 322.816 751.583 320.291C760.183 317.758 768.719 315.067 783.89 307.324L783.435 306.434C768.334 314.141 759.86 316.81 751.3 319.331C742.715 321.86 734.031 324.242 718.561 331.372L718.979 332.28ZM783.89 307.324C827.017 285.322 847.497 270.875 867.356 255.37C887.199 239.877 906.393 223.352 946.993 197.153L946.451 196.313C905.803 222.543 886.566 239.103 866.74 254.582C846.93 270.049 826.504 284.461 783.435 306.434L783.89 307.324ZM946.993 197.153C961.866 187.561 967.733 180.216 973.486 172.757C979.208 165.339 984.811 157.818 999.185 147.771L998.612 146.952C984.114 157.085 978.438 164.699 972.694 172.147C966.981 179.553 961.195 186.804 946.451 196.313L946.993 197.153ZM999.185 147.771C1027.34 128.08 1041.3 102.196 1054.83 75.9137C1068.36 49.6158 1081.46 22.93 1107.86 1.38745L1107.23 0.612623C1080.64 22.3084 1067.46 49.1896 1053.94 75.456C1040.41 101.738 1026.54 127.416 998.612 146.952L999.185 147.771ZM-42.5853 1.22423C-41.8289 2.73175 -40.3456 4.36419 -38.3725 6.10501C-36.3901 7.85388 -33.8719 9.74736 -30.9995 11.7709C-28.1259 13.7952 -24.8865 15.9577 -21.4596 18.2428C-18.0308 20.5293 -14.4125 22.9399 -10.7729 25.4656C-3.4917 30.5184 3.85725 36.0204 9.91156 41.8822C15.9708 47.7488 20.6963 53.941 22.7812 60.3659L23.7324 60.0573C21.5741 53.4063 16.7153 47.0777 10.6071 41.1638C4.49399 35.245 -2.90779 29.7065 -10.2028 24.644C-13.8513 22.1121 -17.4775 19.6963 -20.9048 17.4109C-24.3341 15.1241 -27.5624 12.969 -30.4236 10.9534C-33.2859 8.93695 -35.7693 7.068 -37.7109 5.35512C-39.6615 3.63419 -41.0243 2.10554 -41.6915 0.775774L-42.5853 1.22423ZM22.7812 60.3659C25.6114 69.0874 22.7176 75.4685 17.6713 83.939C12.627 92.4063 5.48421 102.879 0.159744 119.619L1.11272 119.922C6.39449 103.316 13.4647 92.9539 18.5304 84.4508C23.5942 75.9509 26.7076 69.2257 23.7324 60.0573L22.7812 60.3659ZM133.142 184.781C148.898 195.002 160.221 200.658 169.564 203.376C178.927 206.101 186.28 205.868 194.074 204.361C209.628 201.353 226.813 193.321 265.608 193.473L265.612 192.473C226.689 192.32 209.258 200.406 193.884 203.379C186.215 204.863 179.026 205.088 169.843 202.416C160.64 199.738 149.412 194.144 133.686 183.942L133.142 184.781ZM265.608 193.473C286.311 193.558 303.286 207.923 318.408 229.349C333.521 250.763 346.685 279.088 359.809 306.843C372.919 334.569 385.993 361.734 400.91 380.72C415.829 399.707 432.711 410.656 453.42 405.622L453.184 404.65C433.051 409.544 416.529 398.98 401.696 380.102C386.862 361.222 373.836 334.169 360.713 306.415C347.603 278.69 334.399 250.273 319.225 228.772C304.058 207.282 286.824 192.56 265.612 192.473L265.608 193.473ZM453.42 405.622C467.743 402.143 474.643 395.259 481.421 388.242C488.177 381.248 494.804 374.135 508.625 369.93L508.334 368.974C494.248 373.259 487.468 380.543 480.702 387.547C473.958 394.527 467.223 401.24 453.184 404.65L453.42 405.622ZM508.625 369.93C537.107 361.259 547.969 344.557 558.52 327.304C569.055 310.076 579.276 292.318 606.437 281.117L606.056 280.193C578.567 291.528 568.202 309.553 557.666 326.782C547.145 343.986 536.449 360.414 508.334 368.974L508.625 369.93ZM606.437 281.117C692.546 245.629 695.716 246.196 777.008 200.802L776.521 199.929C695.282 245.293 692.157 244.708 606.056 280.193L606.437 281.117ZM777.008 200.802C815.005 179.59 814.918 177.731 851.818 154.8L851.29 153.951C814.328 176.92 814.495 178.73 776.521 199.929L777.008 200.802ZM851.818 154.8C875.562 140.042 881.133 122.907 895.913 99.0057C910.706 75.0823 934.836 44.1248 995.787 1.40949L995.213 0.590576C934.164 43.3752 909.935 74.4288 895.062 98.4798C880.176 122.553 874.774 139.355 851.29 153.951L851.818 154.8ZM266.457 164.552C287.166 164.957 304.117 176.158 319.188 192.504C334.265 208.857 347.397 230.289 360.489 251.051C373.564 271.786 386.602 291.861 401.465 305.379C416.352 318.92 433.124 325.93 453.618 320.423L453.358 319.457C433.292 324.85 416.858 318.029 402.138 304.64C387.394 291.228 374.424 271.276 361.335 250.518C348.263 229.787 335.076 208.262 319.923 191.826C304.764 175.384 287.574 163.965 266.477 163.552L266.457 164.552ZM453.618 320.423C496.667 308.853 517.828 293.784 538.356 277.029C558.856 260.297 578.691 241.919 619.155 223.613L618.743 222.702C578.141 241.07 558.207 259.536 537.724 276.254C517.27 292.948 496.233 307.934 453.358 319.458L453.618 320.423ZM619.155 223.613C640.859 213.786 650.886 205.757 660.724 197.396C670.535 189.059 680.143 180.406 701.05 169.263L700.58 168.381C679.572 179.577 669.896 188.289 660.077 196.634C650.286 204.955 640.337 212.925 618.743 222.702L619.155 223.613ZM701.051 169.263C711.432 163.728 723.471 161.58 736.36 161.105C749.251 160.63 762.95 161.829 776.648 162.96C790.332 164.09 804.015 165.152 816.815 164.386C829.619 163.619 841.58 161.021 851.814 154.803L851.294 153.948C841.252 160.05 829.471 162.626 816.756 163.388C804.037 164.149 790.425 163.095 776.731 161.964C763.05 160.834 749.286 159.628 736.323 160.106C723.356 160.584 711.148 162.746 700.58 168.381L701.051 169.263ZM29.6275 175.377C32.3792 180.82 37.269 184.642 43.768 187.184C50.2611 189.725 58.3883 191.001 67.6773 191.346C86.2546 192.035 109.602 188.999 134.097 184.751C158.57 180.505 184.314 175.024 207.546 170.833C230.825 166.634 251.638 163.718 266.439 164.551L266.495 163.553C251.56 162.712 230.637 165.652 207.368 169.849C184.052 174.055 158.437 179.514 133.926 183.765C109.438 188.013 86.1791 191.031 67.7143 190.347C58.4822 190.004 50.4796 188.737 44.1324 186.253C37.7913 183.772 33.1305 180.09 30.52 174.926L29.6275 175.377ZM266.439 164.551C307.724 166.879 333.737 188.91 359.602 207.577C372.521 216.9 385.413 225.387 400.131 230.07C414.864 234.758 431.402 235.626 451.605 229.767L451.327 228.807C431.307 234.612 414.973 233.743 400.434 229.117C385.879 224.486 373.097 216.082 360.187 206.766C334.394 188.151 308.131 165.901 266.495 163.553L266.439 164.551ZM451.605 229.767C470.265 224.36 480.353 219.503 490.295 214.252C500.221 209.01 509.977 203.391 528.018 196.425L527.658 195.492C509.551 202.484 499.741 208.133 489.828 213.368C479.931 218.594 469.907 223.423 451.327 228.807L451.605 229.767ZM528.018 196.425C576.026 177.901 581.613 176.742 627.79 154.033L627.349 153.135C581.217 175.822 575.67 176.966 527.658 195.492L528.018 196.425ZM627.79 154.033C671.213 132.689 701.244 107.763 730.493 81.5629C759.745 55.3606 788.196 27.9035 828.508 1.41788L827.958 0.582123C787.568 27.1192 759.05 54.6407 729.826 80.818C700.6 106.998 670.65 131.852 627.349 153.135L627.79 154.033ZM266.403 164.548C306.967 169.785 332.879 170.347 358.61 166.529C384.324 162.714 409.842 154.524 449.594 142.299L449.3 141.343C409.514 153.579 384.084 161.739 358.463 165.54C332.86 169.339 307.05 168.787 266.531 163.556L266.403 164.548ZM449.594 142.299C492.857 129.002 523.53 132.544 553.491 134.115C583.481 135.686 612.71 135.272 652.909 113.953L652.441 113.07C612.466 134.27 583.443 134.683 553.543 133.116C523.614 131.547 492.76 127.985 449.3 141.343L449.594 142.299ZM652.909 113.953C662.345 108.949 670.848 100.757 678.851 90.9797C686.856 81.2006 694.386 69.8017 701.861 58.3587C709.341 46.9067 716.765 35.4118 724.575 25.4003C732.386 15.3875 740.557 6.89356 749.514 1.42679L748.993 0.573208C739.885 6.13185 731.627 14.7347 723.786 24.7853C715.945 34.8372 708.496 46.3722 701.023 57.8119C693.545 69.2606 686.043 80.6151 678.078 90.3463C670.111 100.079 661.707 108.155 652.441 113.07L652.909 113.953ZM430.907 1.50003C459.671 1.50002 480.71 18.4687 500.368 32.9418C510.173 40.1606 519.65 46.7662 529.54 50.225C539.46 53.694 549.795 53.9985 561.291 48.6408L560.869 47.7344C549.633 52.9704 539.571 52.6734 529.871 49.281C520.141 45.8785 510.776 39.363 500.961 32.1365C481.378 17.7189 460.063 0.500017 430.907 0.500035V1.50003ZM561.291 48.6408C580.163 39.8457 602.966 33.1865 625.639 26.1505C648.289 19.1215 670.806 11.7174 689.015 1.43539L688.524 0.564614C670.421 10.7866 648.003 18.1632 625.343 25.1954C602.705 32.2206 579.818 38.9032 560.869 47.7344L561.291 48.6408ZM554.942 754.208C561.198 752.486 568.049 748.269 575.228 744.324C582.449 740.356 590.043 736.635 597.912 735.753L597.8 734.759C589.717 735.665 581.97 739.478 574.747 743.447C567.482 747.439 560.785 751.563 554.677 753.244L554.942 754.208Z" fill="white"/>
</svg>
