<svg width="32" height="30" viewBox="0 0 32 30" fill="none">
    <path d="M32 15.092C32 6.757 24.837 0 16 0S0 6.757 0 15.092C0 22.624 5.85 28.868 13.5 30V19.454H9.437v-4.362H13.5v-3.325c0-3.783 2.389-5.872 6.043-5.872 1.75 0 3.582.295 3.582.295v3.714h-2.017c-1.988 0-2.608 1.163-2.608 2.358v2.83h4.438l-.71 4.362H18.5V30C26.15 28.868 32 22.624 32 15.092z" fill="#fff"/><path fill-rule="evenodd" clip-rule="evenodd" d="M3.2 0C1.433 0 0 1.343 0 3v24c0 1.657 1.433 3 3.2 3h10.3V19.454H9.437v-4.362H13.5v-3.325c0-3.783 2.389-5.872 6.043-5.872 1.75 0 3.582.295 3.582.295v3.714h-2.017c-1.988 0-2.608 1.163-2.608 2.358v2.83h4.438l-.71 4.362H18.5V30h10.3c1.767 0 3.2-1.343 3.2-3V3c0-1.657-1.433-3-3.2-3H3.2z" fill="currentColor"/>
</svg>