<svg width="16" height="20" viewBox="0 0 16 20" fill="none" xmlns="http://www.w3.org/2000/svg"><path fill-rule="evenodd" clip-rule="evenodd" d="M10.13 12.06H8.516v1.662c0 .393-.307.71-.69.71a.706.706 0 01-.698-.71V12.06H5.526a.706.706 0 01-.699-.71c0-.404.317-.72.699-.72h1.603V8.97c0-.394.317-.71.699-.71.382 0 .69.316.69.71v1.66h1.611c.382 0 .7.317.7.72 0 .394-.318.71-.7.71zm5.45-5.32c-.4 0-.875.009-1.164.009-.429 0-.988-.01-1.696-.01-1.705-.01-3.113-1.45-3.113-3.206V.442A.434.434 0 009.18 0H4.203C1.883 0 0 1.949 0 4.33v11.148C0 17.974 1.976 20 4.398 20h7.409C14.127 20 16 18.07 16 15.69V7.17a.424.424 0 00-.42-.432z" fill="#8F8F95"/><path d="M13.174 4.93c.65.006 1.552.009 2.318.006.392-.001.592-.484.32-.775L12.06.141c-.279-.298-.766-.093-.766.321v2.53c0 1.063.849 1.937 1.88 1.937z" fill="#8F8F95"/></svg>