<svg width="20" height="23" viewBox="0 0 20 23" fill="none" xmlns="http://www.w3.org/2000/svg">
<path opacity="0.4" d="M18.871 11.7664C19.4633 11.7664 19.9492 12.2214 19.9963 12.8L20 12.8924V19.3006C20 21.2962 18.4155 22.9228 16.4326 22.9973L16.2903 23H3.70968C1.70853 23 0.0774601 21.4198 0.0026789 19.4425L0 19.3006V12.8924C0 12.2705 0.505485 11.7664 1.12903 11.7664C1.7214 11.7664 2.20722 12.2214 2.25432 12.8L2.25806 12.8924V19.3006C2.25806 20.0667 2.85494 20.6939 3.61029 20.7448L3.70968 20.7482H16.2903C17.0586 20.7482 17.6875 20.1529 17.7386 19.3997L17.7419 19.3006V12.8924C17.7419 12.2705 18.2474 11.7664 18.871 11.7664ZM9.67671 0.0106017L9.77276 0.00101394L9.88549 0L9.98517 0.0083698L10.0999 0.0291271L10.1445 0.0408691C10.2705 0.07556 10.3916 0.132791 10.5015 0.212228L10.5786 0.273364L10.6386 0.328873L15.6568 5.33321C16.0977 5.77291 16.0977 6.4858 15.6568 6.9255C15.2418 7.33933 14.5841 7.36367 14.1406 6.99853L14.0601 6.9255L10.9677 3.84137V16.2445C10.9677 16.8352 10.5115 17.3197 9.93131 17.3667L9.83871 17.3704C9.24634 17.3704 8.76052 16.9155 8.71342 16.3368L8.70968 16.2445V3.84395L5.62042 6.9255C5.20544 7.33933 4.5478 7.36367 4.10427 6.99853L4.02373 6.9255C3.60875 6.51166 3.58434 5.85583 3.9505 5.41353L4.02373 5.33321L9.02503 0.344456C9.06108 0.307094 9.0997 0.272209 9.14059 0.240083L9.2137 0.188119C9.23803 0.171036 9.26349 0.155519 9.28959 0.141005L9.30172 0.1351C9.41597 0.0725863 9.54253 0.0298285 9.67671 0.0106017Z" fill="#211E1E"/>
</svg>
