<svg width="35" height="35" viewBox="0 0 35 35" fill="none" xmlns="http://www.w3.org/2000/svg">
<path fill-rule="evenodd" clip-rule="evenodd" d="M4.05703 0.696043C3.12898 -0.232014 1.62431 -0.232014 0.696262 0.696043C-0.231789 1.6241 -0.231788 3.12878 0.696263 4.05683L14.1392 17.4999L0.696038 30.9432C-0.232013 31.8712 -0.232013 33.3759 0.696038 34.304C1.62409 35.232 3.12876 35.232 4.05681 34.304L17.5 20.8607L30.9432 34.304C31.8712 35.232 33.3759 35.232 34.304 34.304C35.232 33.3759 35.232 31.8712 34.304 30.9432L20.8608 17.4999L34.3037 4.05684C35.2318 3.12878 35.2318 1.6241 34.3037 0.696045C33.3757 -0.232012 31.871 -0.232012 30.943 0.696045L17.5 14.1391L4.05703 0.696043ZM17.5 14.1391L14.1392 17.4999L17.5 20.8607L20.8608 17.4999L17.5 14.1391Z" fill="#211E1E"/>
<path d="M17.5 14.1391L14.1392 17.4999L17.5 20.8607L20.8608 17.4999L17.5 14.1391Z" fill="#211E1E"/>
</svg>
