<svg width="20" height="23" viewBox="0 0 20 23" fill="none" xmlns="http://www.w3.org/2000/svg"><path d="M18.871 11.766c.592 0 1.078.455 1.125 1.034l.004.092v6.409a3.704 3.704 0 01-3.567 3.696L16.29 23H3.71a3.705 3.705 0 01-3.707-3.558L0 19.302v-6.409c0-.621.505-1.126 1.129-1.126.592 0 1.078.455 1.125 1.034l.004.092v6.409a1.45 1.45 0 001.352 1.444l.1.003h12.58a1.45 1.45 0 001.45-1.349l.003-.1v-6.408c0-.621.505-1.126 1.129-1.126zM9.677.011L9.773 0h.112l.1.008.115.021.045.012c.126.035.247.092.357.171l.077.061.06.056 5.018 5.004c.44.44.44 1.153 0 1.593a1.132 1.132 0 01-1.516.073l-.08-.073-3.093-3.085v12.403c0 .591-.457 1.076-1.037 1.123l-.092.003a1.128 1.128 0 01-1.126-1.033l-.003-.093v-12.4L5.62 6.926a1.131 1.131 0 01-1.516.073l-.08-.073a1.124 1.124 0 01-.074-1.512l.074-.08L9.025.343C9.061.307 9.1.272 9.141.24l.073-.052A.854.854 0 019.29.141l.012-.006c.114-.062.24-.105.375-.124z" fill="#fff"/></svg>