<svg width="32" height="30" viewBox="0 0 32 30" fill="none">
    <path d="M29.631 0H2.363C1.056 0 0 .967 0 2.162v25.67C0 29.027 1.056 30 2.362 30h27.27C30.936 30 32 29.027 32 27.838V2.162C32 .967 30.937 0 29.631 0zM9.494 25.564h-4.75v-14.32h4.75v14.32zM7.119 9.293c-1.525 0-2.756-1.154-2.756-2.578s1.23-2.578 2.756-2.578c1.518 0 2.75 1.154 2.75 2.578 0 1.418-1.232 2.578-2.75 2.578zm20.15 16.271h-4.744v-6.96c0-1.659-.031-3.797-2.469-3.797-2.469 0-2.844 1.81-2.844 3.68v7.078h-4.737v-14.32h4.55V13.2h.063c.63-1.125 2.18-2.314 4.487-2.314 4.806 0 5.694 2.965 5.694 6.82v7.857z" fill="currentColor"/>
</svg>