<svg width="30" height="30" viewBox="0 0 30 30" fill="none">
    <path d="M15.009 2.702c4.01 0 4.485.017 6.062.088 1.466.064 2.257.31 2.785.515a4.64 4.64 0 011.723 1.12c.528.527.85 1.025 1.12 1.723.205.527.452 1.324.516 2.783.07 1.583.088 2.058.088 6.06 0 4.009-.018 4.483-.088 6.06-.064 1.465-.31 2.256-.516 2.784a4.64 4.64 0 01-1.12 1.723 4.616 4.616 0 01-1.723 1.12c-.528.204-1.325.45-2.785.515-1.583.07-2.058.088-6.062.088-4.01 0-4.485-.018-6.062-.088-1.466-.065-2.258-.31-2.785-.516a4.642 4.642 0 01-1.724-1.12 4.614 4.614 0 01-1.12-1.722c-.205-.528-.451-1.325-.516-2.784-.07-1.582-.088-2.057-.088-6.06 0-4.008.018-4.483.088-6.06.065-1.465.311-2.256.516-2.783a4.64 4.64 0 011.12-1.723 4.617 4.617 0 011.724-1.12c.527-.205 1.325-.45 2.785-.515 1.577-.07 2.052-.088 6.062-.088zm0-2.702c-4.075 0-4.585.018-6.185.088-1.595.07-2.691.328-3.641.697-.991.387-1.83.897-2.662 1.735A7.35 7.35 0 00.786 5.175C.416 6.13.158 7.22.088 8.815.018 10.42 0 10.93 0 15.002c0 4.073.018 4.583.088 6.183.07 1.594.328 2.69.698 3.64.387.99.897 1.828 1.735 2.66a7.336 7.336 0 002.656 1.729c.956.369 2.046.627 3.64.697 1.601.07 2.111.088 6.186.088 4.075 0 4.585-.018 6.185-.088 1.595-.07 2.691-.328 3.641-.697a7.337 7.337 0 002.656-1.73 7.333 7.333 0 001.73-2.654c.369-.955.627-2.045.697-3.64.07-1.6.088-2.11.088-6.182 0-4.073-.018-4.583-.088-6.183-.07-1.594-.328-2.69-.698-3.64a7.027 7.027 0 00-1.717-2.666A7.336 7.336 0 0024.84.791C23.885.422 22.795.164 21.2.094 19.593.018 19.083 0 15.009 0z" fill="currentColor"/>
    <path d="M15.009 7.296a7.71 7.71 0 00-7.71 7.707 7.71 7.71 0 0015.42 0 7.71 7.71 0 00-7.71-7.707zm0 12.706a5 5 0 01-5.001-5 5 5 0 0110.002 0 5 5 0 01-5.001 5zm9.814-13.01a1.8 1.8 0 11-1.8-1.8c.991 0 1.8.81 1.8 1.8z" fill="currentColor"/>
</svg>