<svg width="59" height="51" viewBox="0 0 59 51" fill="none" xmlns="http://www.w3.org/2000/svg">
<path d="M29.3594 50.1777C5.47788 50.1777 0.359375 45.7652 0.359375 25.1777C0.359375 19.5196 0.745999 15.0832 1.8025 11.6243C4.50766 14.1749 7.92126 17.2419 11.6289 19.9738C16.8875 23.8483 23.2561 27.4505 29.3594 27.4505C35.4626 27.4505 41.8313 23.8483 47.0898 19.9738C50.7975 17.2419 54.2111 14.1749 56.9163 11.6243C57.9728 15.0832 58.3594 19.5196 58.3594 25.1777C58.3594 45.7652 53.2409 50.1777 29.3594 50.1777Z" fill="url(#paint0_linear_1_2343)"/>
<path d="M54.8101 7.16207C51.9784 9.87617 48.2224 13.3648 44.1089 16.3957C38.9275 20.2135 33.6961 22.905 29.3594 22.905C25.0226 22.905 19.7913 20.2135 14.6098 16.3957C10.4963 13.3648 6.74038 9.87617 3.90864 7.16207C7.74689 1.70637 15.3031 0.177734 29.3594 0.177734C43.4157 0.177734 50.9719 1.70637 54.8101 7.16207Z" fill="url(#paint1_linear_1_2343)"/>
<defs>
<linearGradient id="paint0_linear_1_2343" x1="-11.5306" y1="-18.9889" x2="17.5055" y2="76.0738" gradientUnits="userSpaceOnUse">
<stop stop-color="#E24B7E"/>
<stop offset="1" stop-color="#5956AB"/>
</linearGradient>
<linearGradient id="paint1_linear_1_2343" x1="-11.5306" y1="-18.9889" x2="17.5055" y2="76.0738" gradientUnits="userSpaceOnUse">
<stop stop-color="#E24B7E"/>
<stop offset="1" stop-color="#5956AB"/>
</linearGradient>
</defs>
</svg>
