<svg width="64" height="32" viewBox="0 0 64 32" fill="none" xmlns="http://www.w3.org/2000/svg"><path fill-rule="evenodd" clip-rule="evenodd" d="M49.636 22.527a6.024 6.024 0 01-6.026-6.023 6.024 6.024 0 016.026-6.022 6.024 6.024 0 016.026 6.022 6.024 6.024 0 01-6.026 6.023zm-26.489 1.608a.352.352 0 01-.358.347H5.763c-.345 0-.517 0-.671-.095a.738.738 0 01-.28-.366c-.05-.174-.015-.304.057-.565a4.106 4.106 0 015.62-2.668c.562.25.843.374.97.377.164.004.18 0 .323-.079.112-.061.287-.279.636-.714a6.024 6.024 0 0110.73 3.763zm39.347-7.612c.68-.244 1.02-.367 1.16-.488a.804.804 0 00.28-.397c.066-.174.066-.431.066-.947V9.28C64 4.175 59.822 0 54.716 0H9.284C4.683 0 .838 3.39.122 7.795c-.057.348.243.638.596.638 1.903 0 3.6.882 4.704 2.26.349.434.523.652.635.713.143.079.16.083.323.079.127-.003.408-.128.97-.377a4.105 4.105 0 015.62 2.668c.072.261.108.392.057.565a.737.737 0 01-.28.366c-.153.095-.326.095-.67.095H1.023c-.358 0-.538 0-.675.07a.64.64 0 00-.28.28C0 15.287 0 15.466 0 15.825v6.895C0 27.825 4.178 32 9.284 32h9.469c.156 0 .235 0 .308-.018a.639.639 0 00.185-.076c.065-.04.12-.095.23-.206l9.031-9.026a4.929 4.929 0 016.947 0l9.031 9.026c.11.11.166.166.23.206a.64.64 0 00.186.076c.073.018.151.018.308.018h9.507C59.822 32 64 27.825 64 22.721v-.526c0-.358 0-.538-.07-.675a.64.64 0 00-.28-.28c-.136-.069-.316-.069-.674-.069h-2.76c-.35 0-.526 0-.677-.09a.72.72 0 01-.28-.35c-.056-.168-.024-.309.039-.59a5.025 5.025 0 013.196-3.618z" fill="url(#paint0_linear_101_145)"/><defs><linearGradient id="paint0_linear_101_145" x1="-13.12" y1="-12.267" x2="-1.695" y2="52.225" gradientUnits="userSpaceOnUse"><stop stop-color="#E24B7E"/><stop offset="1" stop-color="#5956AB"/></linearGradient></defs></svg>