<svg width="220" height="50" viewBox="0 0 220 50" fill="none" xmlns="http://www.w3.org/2000/svg"><path fill-rule="evenodd" clip-rule="evenodd" d="M77.556 35.198c-5.2 0-9.415-4.213-9.415-9.41s4.215-9.41 9.415-9.41c5.2 0 9.415 4.213 9.415 9.41s-4.215 9.41-9.415 9.41zm-41.389 2.513a.55.55 0 01-.559.541H9.004c-.538 0-.807 0-1.048-.148a1.153 1.153 0 01-.436-.571c-.08-.272-.024-.476.088-.883a6.415 6.415 0 018.781-4.169c.878.39 1.317.584 1.517.589.255.006.28 0 .504-.123.175-.096.447-.436.992-1.116a9.396 9.396 0 017.35-3.53c5.2 0 9.415 4.212 9.415 9.41zm62.31-12.14c.635-.153.953-.228 1.116-.349a.875.875 0 00.328-.415c.079-.187.079-.453.079-.985v-9.324C100 6.524 93.472 0 85.494 0H14.506C7.317 0 1.309 5.298.19 12.18c-.089.543.38.996.93.996a9.396 9.396 0 017.35 3.53c.546.68.818 1.02.993 1.116.224.123.249.13.504.123.2-.005.639-.2 1.516-.589a6.415 6.415 0 018.782 4.168c.112.409.168.613.088.884-.06.205-.254.46-.436.572-.24.148-.51.148-1.049.148H1.6c-.56 0-.84 0-1.054.109a1 1 0 00-.437.437C0 23.888 0 24.168 0 24.728v10.774C0 43.476 6.528 50 14.506 50H29.3c.245 0 .367 0 .482-.028a1 1 0 00.289-.12c.1-.061.187-.147.36-.32l14.11-14.103c2.986-2.983 7.87-2.983 10.855 0l14.111 14.103c.173.173.26.259.36.32.09.056.187.096.29.12.114.028.237.028.481.028h14.855C93.472 50 100 43.476 100 35.502v-.822c0-.56 0-.84-.109-1.054a1 1 0 00-.437-.437c-.214-.11-.494-.11-1.054-.11h-4.313c-.547 0-.821 0-1.058-.14a1.125 1.125 0 01-.438-.548c-.086-.261-.036-.481.062-.92a7.849 7.849 0 015.823-5.9z" fill="url(#paint0_linear_101_858)"/><path d="M182.187 34.861l8.976-19.275h-7.587l-6.045 13.446-6.43-13.446h-8.282l9.671 19.275h9.697zm19.243-14.585h8.385c1.646 0 2.212.725 2.212 1.632v.025c0 .933-.592 1.659-2.212 1.659h-8.385v-3.316zm0 7.979h6.996c2.881 0 3.884 1.14 3.884 3.342v2.254c0 .544.051.803.231 1.01H220v-.13c-.18-.336-.36-.829-.36-2.176v-2.85c0-2.486-1.569-4.04-3.935-4.585 1.44-.337 3.858-1.503 3.858-4.3v-.285c0-3.135-2.469-4.949-8.051-4.949h-17.387v19.275h7.305v-6.606zm-74.151-11.511c0-.483 0-.725-.094-.91a.86.86 0 00-.374-.377c-.184-.094-.424-.094-.904-.094h-4.535c-.48 0-.72 0-.904.094a.867.867 0 00-.375.377c-.093.185-.093.427-.093.91v16.512c0 .483 0 .725.093.91a.867.867 0 00.375.377c.184.094.424.094.904.094h4.535c.48 0 .72 0 .904-.094a.86.86 0 00.374-.377c.094-.185.094-.427.094-.91V16.744zM145.692 35c11.523 0 13.323-5.44 13.323-7.953a.413.413 0 00-.411-.415h-6.064c-.346 0-.519 0-.642.038a.635.635 0 00-.297.162c-.099.082-.255.322-.566.802-.61.938-2.11 2.159-5.883 2.159-5.144 0-6.43-2.72-6.43-4.793v-.31c0-2.151 1.132-4.509 6.404-4.509 3.797 0 5.276 1.138 5.88 2.023.301.44.451.66.549.74a.646.646 0 00.292.155c.12.036.28.036.601.036h6.233a.335.335 0 00.334-.337c0-2.487-1.697-7.798-13.323-7.798h-1.003c-11.934 0-13.529 5.88-13.529 9.56v.75c0 3.654 1.775 9.69 13.529 9.69h1.003z" fill="#fff"/><defs><linearGradient id="paint0_linear_101_858" x1="-20.5" y1="-19.167" x2="-2.648" y2="81.602" gradientUnits="userSpaceOnUse"><stop stop-color="#E24B7E"/><stop offset="1" stop-color="#5956AB"/></linearGradient></defs></svg>