<svg width="220" height="50" viewBox="0 0 220 50" fill="none" xmlns="http://www.w3.org/2000/svg">
<path fill-rule="evenodd" clip-rule="evenodd" d="M77.5561 35.198C72.3561 35.198 68.1409 30.985 68.1409 25.7879C68.1409 20.5908 72.3561 16.3779 77.5561 16.3779C82.7558 16.3779 86.9713 20.5908 86.9713 25.7879C86.9713 30.985 82.7558 35.198 77.5561 35.198ZM36.1673 37.7105C36.1673 38.0149 35.9126 38.2525 35.6083 38.2525H9.00448C8.46585 38.2525 8.19653 38.2525 7.95557 38.1043C7.77403 37.9926 7.57933 37.7375 7.51955 37.533C7.44021 37.2614 7.49601 37.0575 7.60761 36.6495C8.35116 33.9315 10.8386 31.9336 13.794 31.9336C14.718 31.9336 15.5961 32.1293 16.3894 32.4811C17.2672 32.8704 17.7061 33.0651 17.9056 33.0698C18.1611 33.0758 18.1856 33.0699 18.4098 32.947C18.5847 32.8511 18.8573 32.5111 19.4025 31.831C21.1274 29.6789 23.7782 28.3005 26.7521 28.3005C31.9518 28.3005 36.1673 32.5134 36.1673 37.7105ZM98.4762 25.5701C99.1119 25.4184 99.4298 25.3426 99.5933 25.222C99.7591 25.0998 99.8403 24.997 99.9207 24.8073C100 24.6203 100 24.3541 100 23.8217V14.498C100 6.52417 93.4724 0 85.4941 0H14.5059C7.31712 0 1.3095 5.29775 0.190522 12.1793C0.102103 12.7231 0.570837 13.1758 1.12174 13.1758C4.0955 13.1758 6.74634 14.5543 8.47136 16.7063C9.01652 17.3865 9.2891 17.7265 9.46402 17.8224C9.68823 17.9452 9.71272 17.9512 9.96832 17.9452C10.1677 17.9404 10.6066 17.7458 11.4843 17.3564C12.2777 17.0045 13.1558 16.8088 14.0798 16.8088C17.0354 16.8088 19.5228 18.8067 20.2663 21.5249C20.3778 21.9329 20.4336 22.1369 20.3543 22.4084C20.2945 22.6129 20.0998 22.868 19.9183 22.9797C19.6773 23.1278 19.408 23.1278 18.8693 23.1278H1.6C1.03995 23.1278 0.759921 23.1278 0.546009 23.2368C0.357847 23.3327 0.204867 23.4857 0.108993 23.6738C0 23.8878 0 24.1678 0 24.7278V35.502C0 43.4758 6.52775 50 14.5059 50H29.3012C29.5457 50 29.6679 50 29.783 49.9724C29.885 49.9479 29.9825 49.9075 30.0719 49.8527C30.1728 49.7909 30.2593 49.7045 30.4322 49.5317L44.5427 35.4289C47.5278 32.4455 52.4125 32.4455 55.3975 35.4289L69.508 49.5317C69.681 49.7045 69.7674 49.7909 69.8683 49.8527C69.9578 49.9075 70.0553 49.9479 70.1573 49.9724C70.2723 50 70.3946 50 70.6391 50H85.4941C93.4724 50 100 43.4758 100 35.502V34.6798C100 34.1198 100 33.8398 99.891 33.6258C99.7951 33.4377 99.6422 33.2847 99.454 33.1888C99.2401 33.0798 98.96 33.0798 98.4 33.0798H94.0869C93.5396 33.0798 93.266 33.0798 93.0294 32.9389C92.8464 32.8298 92.6575 32.5939 92.5911 32.3913C92.5054 32.1297 92.5546 31.91 92.6532 31.4706C93.3061 28.5597 95.5788 26.2615 98.4762 25.5701Z" fill="url(#paint0_linear_801_4178)"/>
<path d="M182.187 34.861L191.163 15.5864H183.576L177.531 29.032L171.101 15.5864H162.819L172.49 34.861H182.187Z" fill="white"/>
<path d="M201.43 20.2755H209.815C211.461 20.2755 212.027 21.0009 212.027 21.9076V21.9335C212.027 22.8662 211.435 23.5916 209.815 23.5916H201.43V20.2755ZM201.43 28.2548H208.426C211.307 28.2548 212.31 29.3947 212.31 31.5967V33.8506C212.31 34.3947 212.361 34.6537 212.541 34.861H220V34.7315C219.82 34.3947 219.64 33.9024 219.64 32.5553V29.7055C219.64 27.2185 218.071 25.6641 215.705 25.1201C217.145 24.7833 219.563 23.6175 219.563 20.8195V20.5346C219.563 17.3998 217.094 15.5864 211.512 15.5864H194.125V34.861H201.43V28.2548Z" fill="white"/>
<path d="M127.279 16.7444C127.279 16.2607 127.279 16.0189 127.185 15.8342C127.103 15.6717 126.972 15.5396 126.811 15.4568C126.627 15.3627 126.387 15.3627 125.907 15.3627H121.372C120.892 15.3627 120.652 15.3627 120.468 15.4568C120.307 15.5396 120.176 15.6717 120.093 15.8342C120 16.0189 120 16.2607 120 16.7444V33.2556C120 33.7393 120 33.9811 120.093 34.1658C120.176 34.3283 120.307 34.4604 120.468 34.5432C120.652 34.6373 120.892 34.6373 121.372 34.6373H125.907C126.387 34.6373 126.627 34.6373 126.811 34.5432C126.972 34.4604 127.103 34.3283 127.185 34.1658C127.279 33.9811 127.279 33.7393 127.279 33.2556V16.7444Z" fill="#211E1E"/>
<path d="M145.692 35C157.215 35 159.015 29.5596 159.015 27.0466C159.015 26.8177 158.831 26.6321 158.604 26.6321H152.54C152.194 26.6321 152.021 26.6321 151.898 26.67C151.751 26.7155 151.719 26.7325 151.601 26.8318C151.502 26.9145 151.346 27.1543 151.035 27.6339C150.425 28.5722 148.925 29.7927 145.152 29.7927C140.008 29.7927 138.722 27.0725 138.722 25V24.6891C138.722 22.5389 139.854 20.1813 145.126 20.1813C148.923 20.1813 150.402 21.3189 151.006 22.2044C151.307 22.6445 151.457 22.8646 151.555 22.9438C151.669 23.0367 151.706 23.0561 151.847 23.0985C151.967 23.1347 152.127 23.1347 152.448 23.1347H158.681C158.866 23.1347 159.015 22.9839 159.015 22.7979C159.015 20.3109 157.318 15 145.692 15H144.689C132.755 15 131.16 20.8808 131.16 24.5596V25.3109C131.16 28.9637 132.935 35 144.689 35H145.692Z" fill="#211E1E"/>
<path d="M182.187 34.861L191.163 15.5864H183.576L177.531 29.032L171.101 15.5864H162.819L172.49 34.861H182.187Z" fill="#211E1E"/>
<path d="M201.43 20.2755H209.815C211.461 20.2755 212.027 21.0009 212.027 21.9076V21.9335C212.027 22.8662 211.435 23.5916 209.815 23.5916H201.43V20.2755ZM201.43 28.2548H208.426C211.307 28.2548 212.31 29.3947 212.31 31.5967V33.8506C212.31 34.3947 212.361 34.6537 212.541 34.861H220V34.7315C219.82 34.3947 219.64 33.9024 219.64 32.5553V29.7055C219.64 27.2185 218.071 25.6641 215.705 25.1201C217.145 24.7833 219.563 23.6175 219.563 20.8195V20.5346C219.563 17.3998 217.094 15.5864 211.512 15.5864H194.125V34.861H201.43V28.2548Z" fill="#211E1E"/>
<path d="M127.279 16.7444C127.279 16.2607 127.279 16.0189 127.185 15.8342C127.103 15.6717 126.972 15.5396 126.811 15.4568C126.627 15.3627 126.387 15.3627 125.907 15.3627H121.372C120.892 15.3627 120.652 15.3627 120.468 15.4568C120.307 15.5396 120.176 15.6717 120.093 15.8342C120 16.0189 120 16.2607 120 16.7444V33.2556C120 33.7393 120 33.9811 120.093 34.1658C120.176 34.3283 120.307 34.4604 120.468 34.5432C120.652 34.6373 120.892 34.6373 121.372 34.6373H125.907C126.387 34.6373 126.627 34.6373 126.811 34.5432C126.972 34.4604 127.103 34.3283 127.185 34.1658C127.279 33.9811 127.279 33.7393 127.279 33.2556V16.7444Z" fill="#211E1E"/>
<path d="M145.692 35C157.215 35 159.015 29.5596 159.015 27.0466C159.015 26.8177 158.831 26.6321 158.604 26.6321H152.54C152.194 26.6321 152.021 26.6321 151.898 26.67C151.751 26.7155 151.719 26.7325 151.601 26.8318C151.502 26.9145 151.346 27.1543 151.035 27.6339C150.425 28.5722 148.925 29.7927 145.152 29.7927C140.008 29.7927 138.722 27.0725 138.722 25V24.6891C138.722 22.5389 139.854 20.1813 145.126 20.1813C148.923 20.1813 150.402 21.3189 151.006 22.2044C151.307 22.6445 151.457 22.8646 151.555 22.9438C151.669 23.0367 151.706 23.0561 151.847 23.0985C151.967 23.1347 152.127 23.1347 152.448 23.1347H158.681C158.866 23.1347 159.015 22.9839 159.015 22.7979C159.015 20.3109 157.318 15 145.692 15H144.689C132.755 15 131.16 20.8808 131.16 24.5596V25.3109C131.16 28.9637 132.935 35 144.689 35H145.692Z" fill="#211E1E"/>
<defs>
<linearGradient id="paint0_linear_801_4178" x1="-20.5" y1="-19.1667" x2="-2.64816" y2="81.6024" gradientUnits="userSpaceOnUse">
<stop stop-color="#E24B7E"/>
<stop offset="1" stop-color="#5956AB"/>
</linearGradient>
</defs>
</svg>
