<svg width="24" height="22" viewBox="0 0 24 22" fill="none" xmlns="http://www.w3.org/2000/svg"><path opacity=".2" d="M5.445 1.996C4.016 3.22 3.216 4.948 3.038 7.066.576 7.332 0 8.492 0 12c0 3.49.57 4.656 3.002 4.93A5 5 0 008 22h1a1 1 0 100-2H8a3 3 0 01-3-3v-.006C8.278 16.91 9 15.925 9 12c0-3.904-.714-4.9-3.947-4.993.176-1.578.783-2.712 1.694-3.493C7.864 2.556 9.589 2 11.967 2c2.38 0 4.124.55 5.258 1.509.924.78 1.543 1.915 1.721 3.498C15.715 7.1 15 8.097 15 12c0 4.117.794 5 4.5 5s4.5-.883 4.5-5c0-3.508-.576-4.668-3.039-4.934-.18-2.134-.999-3.863-2.445-5.085C16.893.61 14.62 0 11.966 0c-2.653 0-4.912.617-6.52 1.996z" fill="#fff"/></svg>