<svg width="375" height="869" viewBox="0 0 375 869" fill="none" xmlns="http://www.w3.org/2000/svg">
<path opacity="0.05" d="M-404.609 1027.25L-404.288 1026.86L-404.322 1026.84L-404.359 1026.81L-404.609 1027.25ZM-186.968 997.442L-187.122 997.918L-187.122 997.918L-186.968 997.442ZM-180 1000.5L-179.848 1000.02L-179.848 1000.02L-180 1000.5ZM-345.454 942.312L-345.232 941.864L-345.232 941.864L-345.454 942.312ZM-165.5 876.02L-165.65 876.497L-165.636 876.501L-165.621 876.505L-165.5 876.02ZM965.813 993.468L965.948 993.95L965.974 993.942L966 993.932L965.813 993.468ZM968.469 992.461L968.654 992.925L968.654 992.925L968.469 992.461ZM1170.35 979.853L1170.58 980.296L1170.58 980.296L1170.35 979.853ZM1360.75 927.441L1360.48 927.025L1360.48 927.025L1360.75 927.441ZM1378.16 917.117L1378.45 917.531L1378.45 917.531L1378.16 917.117ZM-42.24 911.324L-42.3068 911.82L-42.2722 911.825L-42.2373 911.824L-42.24 911.324ZM437.023 910.947L437.092 911.442L437.023 910.947ZM616.583 975.57L616.472 975.083L616.583 975.57ZM717.206 964.221L717.344 964.702H717.344L717.206 964.221ZM788.393 946.829L788.237 946.354H788.236L788.393 946.829ZM947.505 863.374L947.302 862.917L947.302 862.917L947.505 863.374ZM1161.74 885.353L1161.49 884.918V884.918L1161.74 885.353ZM1172.95 880.173L1172.7 879.74L1172.95 880.173ZM1384.91 808.175L1384.61 807.775L1384.61 807.775L1384.91 808.175ZM-387.57 870.137L-387.811 870.575H-387.811L-387.57 870.137ZM-183.286 814.866L-183.423 815.347L-183.286 814.866ZM324.769 803.797L324.712 803.301H324.712L324.769 803.797ZM432.311 836.467L432.226 835.974H432.226L432.311 836.467ZM609.961 876.647L609.832 876.164H609.832L609.961 876.647ZM753.227 770.548L753.402 771.017H753.402L753.227 770.548ZM900.969 742.993L901.183 743.445L901.183 743.445L900.969 742.993ZM927.602 733.767L927.381 733.319L927.381 733.319L927.602 733.767ZM1134.12 711.572L1134.39 711.993L1134.39 711.993L1134.12 711.572ZM1254.39 696.985L1254.69 697.39L1254.69 697.389L1254.39 696.985ZM1382.05 680.636L1382.37 681.021L1382.37 681.021L1382.05 680.636ZM-207.577 781.914L-207.444 781.432H-207.444L-207.577 781.914ZM-52.3913 813.545L-52.335 813.048H-52.335L-52.3913 813.545ZM115.907 799.397L115.926 799.897H115.926L115.907 799.397ZM282.856 734.256V733.756H282.828L282.8 733.759L282.856 734.256ZM660.591 656.239L660.418 655.77L660.591 656.239ZM721.227 612.479L721.033 612.018L721.227 612.479ZM881.539 549.852L881.779 550.291H881.779L881.539 549.852ZM1004.61 551.687L1004.88 552.109H1004.88L1004.61 551.687ZM1112.11 558.431L1111.82 558.023L1112.11 558.431ZM1335.19 523.305L1334.86 522.931L1334.86 522.931L1335.19 523.305ZM1356.73 506.182L1357.06 506.551L1356.73 506.182ZM-488.15 471.099L-487.676 471.256L-487.676 471.256L-488.15 471.099ZM-479.078 637.776L-479.543 637.961L-479.543 637.961L-479.078 637.776ZM-402.452 767.526L-402.174 767.11H-402.174L-402.452 767.526ZM-241.684 761.303L-241.841 761.778L-241.841 761.778L-241.684 761.303ZM-202.461 760.098L-202.593 760.581L-202.593 760.581L-202.461 760.098ZM-42.2219 762.095L-42.268 762.592H-42.2679L-42.2219 762.095ZM278.166 784.217L278.238 784.712L278.166 784.217ZM500 752.726L500.025 753.225L500 752.726ZM585.984 652.164L585.819 651.692L585.984 652.164ZM707.236 511.532L707.448 511.985L707.448 511.985L707.236 511.532ZM791.85 483.312L792.086 483.752V483.752L791.85 483.312ZM878.81 466.693L879.069 467.12H879.069L878.81 466.693ZM1143.51 501.387L1143.82 501.783L1143.82 501.782L1143.51 501.387ZM1150.5 496.459L1150.19 496.065L1150.19 496.066L1150.5 496.459ZM1351.01 385.18L1350.66 384.829L1350.66 384.829L1351.01 385.18ZM1369.08 357.751L1369.44 358.096V358.096L1369.08 357.751ZM1404.97 107.602L1404.57 107.309L1404.57 107.31L1404.97 107.602ZM-469.345 469.355L-469.836 469.258L-469.836 469.258L-469.345 469.355ZM-428.303 643.405L-427.92 643.083L-427.92 643.083L-428.303 643.405ZM-394.156 682.974L-394.467 683.366L-394.467 683.366L-394.156 682.974ZM-202.025 694.827L-201.893 694.345L-202.025 694.827ZM-43.3133 688.172L-43.2773 687.673L-43.3133 688.172ZM115.907 731.29L115.94 731.789H115.94L115.907 731.29ZM283.952 749.558L284.04 750.05L283.952 749.558ZM462.438 749.792L462.3 749.312L462.3 749.312L462.438 749.792ZM584.037 569.627L583.854 569.161L584.037 569.627ZM627.353 524.212L627.553 524.67L627.553 524.67L627.353 524.212ZM700.414 418.994L700.645 419.437V419.437L700.414 418.994ZM898.603 400.9L898.881 401.316L898.603 400.9ZM920.998 392.59L921.281 393.003L921.282 393.002L920.998 392.59ZM1198.34 443.365L1198.67 443.745L1198.67 443.744L1198.34 443.365ZM1267.04 393.651L1267.38 394.016V394.016L1267.04 393.651ZM1292.65 194.565L1292.28 194.233L1292.65 194.565ZM-396.593 603.674L-396.227 603.334L-396.227 603.334L-396.593 603.674ZM-326.134 630.923L-326.395 631.349H-326.395L-326.134 630.923ZM-199.914 622.847L-199.78 622.366H-199.78L-199.914 622.847ZM-43.1497 584.106L-43.1234 583.606H-43.1234L-43.1497 584.106ZM136.904 675.545L136.982 676.039H136.982L136.904 675.545ZM453.455 693.046L453.513 693.543L453.564 693.537L453.612 693.521L453.455 693.046ZM588.931 515.685L588.728 515.228H588.728L588.931 515.685ZM710.584 368.452L710.336 368.018L710.336 368.018L710.584 368.452ZM768.675 352.986L768.421 352.555L768.421 352.555L768.675 352.986ZM939.1 352.986L939.395 353.389V353.389L939.1 352.986ZM1099.96 368.993L1100.28 369.377V369.377L1099.96 368.993ZM1201.25 316.942L1201.6 317.306V317.306L1201.25 316.942ZM1228.47 148.449L1228.84 148.785V148.785L1228.47 148.449ZM-395.3 300.665L-394.802 300.706L-394.802 300.706L-395.3 300.665ZM-427.157 480.416L-427.642 480.538L-427.642 480.538L-427.157 480.416ZM-417.879 506.136L-417.417 505.944L-417.417 505.943L-417.879 506.136ZM-198.259 550.922L-198.117 550.442L-198.117 550.442L-198.259 550.922ZM-80.0804 496.478L-80.1227 496.976L-80.1224 496.976L-80.0804 496.478ZM173.826 776.624L173.764 776.128L173.725 776.132L173.687 776.143L173.826 776.624ZM312.433 714.338L312.31 713.853L312.31 713.853L312.433 714.338ZM480.649 618.962L480.475 618.494H480.475L480.649 618.962ZM602.63 438.077L602.849 438.527L602.849 438.527L602.63 438.077ZM608.324 434.948L608.543 435.397L608.544 435.397L608.324 434.948ZM737.8 302.319L738.066 302.742L738.066 302.742L737.8 302.319ZM898.731 305.161L898.434 304.758V304.758L898.731 305.161ZM965.479 273.326L965.167 272.935L965.167 272.935L965.479 273.326ZM1138.64 184.565L1138.28 184.208L1138.28 184.209L1138.64 184.565ZM-357.138 422.5L-357.518 422.825L-357.138 422.5ZM-194.563 474.318L-194.721 474.792L-194.563 474.318ZM-46.8215 406.762L-46.8311 407.262H-46.831L-46.8215 406.762ZM312.08 606.389L311.939 605.909H311.939L312.08 606.389ZM448.033 543.42L448.215 543.885L448.033 543.42ZM482.871 527.538L482.679 527.077V527.077L482.871 527.538ZM621.152 378.236L621.39 378.677V378.677L621.152 378.236ZM722.794 276.418L723.065 276.838L723.066 276.837L722.794 276.418ZM761.781 236.867L762.065 237.278L762.065 237.278L761.781 236.867ZM-284.926 174.151L-285.392 173.969L-285.396 173.981L-285.401 173.993L-284.926 174.151ZM-189.398 397.105L-189.583 397.57L-189.583 397.57L-189.398 397.105ZM-177.918 399.389L-178.081 399.862L-178.08 399.863L-177.918 399.389ZM-48.8059 323.327L-48.8024 322.827H-48.8025L-48.8059 323.327ZM140.723 598.8L140.632 598.309H140.632L140.723 598.8ZM176.726 588.063L176.832 588.551L176.833 588.551L176.726 588.063ZM310.241 507.323L310.083 506.849L310.083 506.849L310.241 507.323ZM473.592 410.685L473.381 410.231L473.381 410.231L473.592 410.685ZM588.568 331.133L588.325 330.696V330.696L588.568 331.133ZM634.941 302.301L635.196 302.731L635.196 302.731L634.941 302.301ZM774.732 148.449L774.431 148.05V148.05L774.732 148.449ZM811.281 125.895L811.591 126.287L811.591 126.287L811.281 125.895ZM-301.226 309.404L-300.864 309.059L-300.87 309.053L-300.875 309.048L-301.226 309.404ZM-265.932 349.207L-266.233 349.607L-265.932 349.207ZM-190.652 334.927L-190.42 334.484L-190.42 334.483L-190.652 334.927ZM-49.7692 252.677L-49.7686 252.177L-49.7692 252.677ZM140.888 505.11L140.783 504.621L140.888 505.11ZM293.341 371.078L293.516 371.547H293.516L293.341 371.078ZM403.77 330.826L403.561 330.372L403.561 330.372L403.77 330.826ZM468.663 305.879L468.435 305.434L468.435 305.434L468.663 305.879ZM631.722 195.733L631.451 195.313L631.451 195.313L631.722 195.733ZM683.898 146.361L684.185 146.771L684.185 146.771L683.898 146.361ZM-291.743 59.2116L-291.268 59.0573L-291.743 59.2116ZM-49.39 191.973L-49.388 191.473H-49.3881L-49.39 191.973ZM138.302 404.136L138.184 403.65L138.184 403.65L138.302 404.136ZM193.48 368.452L193.625 368.93L193.625 368.93L193.48 368.452ZM291.246 279.655L291.056 279.193L291.056 279.193L291.246 279.655ZM461.765 199.366L461.521 198.929L461.521 198.929L461.765 199.366ZM536.554 153.375L536.818 153.8V153.8L536.554 153.375ZM138.488 318.94L138.618 319.423V319.423L138.488 318.94ZM303.949 222.158L304.155 222.613L304.155 222.613L303.949 222.158ZM385.815 167.822L386.05 168.263L386.051 168.263L385.815 167.822ZM136.466 228.287L136.327 227.807L136.327 227.807L136.466 228.287ZM212.838 194.959L212.658 194.492L212.658 194.492L212.838 194.959ZM312.57 152.584L312.349 152.135L312.349 152.135L312.57 152.584ZM134.447 140.821L134.3 140.343L134.3 140.343L134.447 140.821ZM337.675 112.511L337.909 112.953V112.953L337.675 112.511ZM246.08 47.1876L245.869 46.7344L246.08 47.1876ZM239.677 752.244C239.411 752.317 239.254 752.592 239.328 752.859C239.401 753.125 239.676 753.281 239.942 753.208L239.677 752.244ZM-511.787 1058.89C-508.454 1061.23 -506.951 1062.01 -505.443 1062.77C-503.966 1063.52 -502.489 1064.26 -499.173 1066.51L-498.612 1065.68C-501.973 1063.4 -503.489 1062.64 -504.99 1061.88C-506.461 1061.14 -507.923 1060.38 -511.213 1058.07L-511.787 1058.89ZM-500.309 1039.89C-496.38 1042.63 -493.29 1044.12 -490.606 1044.96C-487.923 1045.81 -485.669 1046 -483.448 1046.17C-481.227 1046.35 -479.044 1046.5 -476.423 1047.23C-473.804 1047.97 -470.729 1049.3 -466.765 1051.85L-466.225 1051C-470.256 1048.41 -473.421 1047.04 -476.152 1046.27C-478.881 1045.5 -481.157 1045.35 -483.371 1045.18C-485.584 1045.01 -487.74 1044.82 -490.306 1044.01C-492.872 1043.2 -495.872 1041.77 -499.738 1039.07L-500.309 1039.89ZM-510.164 1022.47C-499.906 1029.88 -490.856 1032.35 -482.363 1032.24C-473.894 1032.14 -466.017 1029.47 -458.132 1026.71C-450.225 1023.93 -442.31 1021.06 -433.661 1020.44C-425.034 1019.81 -415.658 1021.42 -404.86 1027.68L-404.359 1026.81C-415.328 1020.46 -424.904 1018.8 -433.733 1019.44C-442.54 1020.07 -450.586 1023 -458.463 1025.76C-466.363 1028.53 -474.093 1031.14 -482.376 1031.24C-490.635 1031.35 -499.478 1028.96 -509.578 1021.66L-510.164 1022.47ZM-404.93 1027.63C-380.795 1047.84 -359.299 1052.17 -340.59 1055.9C-321.889 1059.62 -306.078 1062.72 -292.958 1080.3L-292.156 1079.7C-305.529 1061.78 -321.71 1058.63 -340.395 1054.92C-359.071 1051.2 -380.355 1046.9 -404.288 1026.86L-404.93 1027.63ZM-330.743 948.449C-290.294 968.228 -275.809 973.637 -260.7 977.582C-245.616 981.521 -229.984 983.985 -187.122 997.918L-186.813 996.967C-229.711 983.022 -245.415 980.54 -260.448 976.615C-275.456 972.696 -289.869 967.323 -330.304 947.551L-330.743 948.449ZM-187.122 997.918C-185.026 998.597 -184.395 999.001 -183.756 999.402C-183.051 999.844 -182.34 1000.28 -180.152 1000.98L-179.848 1000.02C-181.954 999.353 -182.589 998.953 -183.225 998.554C-183.928 998.114 -184.634 997.673 -186.814 996.967L-187.122 997.918ZM-180.152 1000.98C-141.148 1013.41 -126.009 1033.18 -109.276 1049.96C-100.903 1058.35 -92.1243 1066 -79.7674 1071.54C-67.4116 1077.08 -51.515 1080.5 -28.9183 1080.5V1079.5C-51.4137 1079.5 -67.1631 1076.1 -79.3582 1070.63C-91.5522 1065.16 -100.229 1057.61 -108.568 1049.25C-125.26 1032.52 -140.57 1012.54 -179.848 1000.02L-180.152 1000.98ZM-511.778 931.915C-500.89 939.216 -487.932 942.075 -473.935 942.643C-459.942 943.21 -444.866 941.486 -429.725 939.587C-414.567 937.686 -399.346 935.61 -384.998 935.447C-370.653 935.284 -357.233 937.036 -345.676 942.76L-345.232 941.864C-356.989 936.041 -370.589 934.283 -385.01 934.447C-399.427 934.611 -414.715 936.697 -429.849 938.595C-444.999 940.495 -459.996 942.207 -473.895 941.643C-487.789 941.08 -500.543 938.245 -511.221 931.085L-511.778 931.915ZM-345.676 942.76C-325.425 952.796 -309.324 951.963 -295.242 945.441C-281.209 938.941 -269.219 926.803 -257.138 914.35C-245.028 901.868 -232.818 889.059 -218.289 881.036C-203.794 873.032 -186.983 869.791 -165.65 876.497L-165.35 875.543C-186.96 868.75 -204.053 872.033 -218.772 880.161C-233.458 888.27 -245.775 901.202 -257.855 913.654C-269.964 926.135 -281.827 938.125 -295.663 944.534C-309.45 950.919 -325.233 951.775 -345.232 941.864L-345.676 942.76ZM-165.621 876.505C-98.2288 893.354 -69.095 944.154 -46.6042 990.908C-35.3725 1014.26 -25.7765 1036.65 -13.8945 1053.18C-1.99213 1069.73 12.2695 1080.5 32.858 1080.5V1079.5C12.7072 1079.5 -1.28833 1069 -13.0826 1052.59C-24.8973 1036.16 -34.4373 1013.89 -45.703 990.474C-68.2069 943.693 -97.5128 892.502 -165.379 875.535L-165.621 876.505ZM761.919 1080.48C804.53 1068.18 822.885 1055.64 846.901 1041.65C870.886 1027.68 900.583 1012.2 965.948 993.95L965.679 992.987C900.23 1011.26 870.454 1026.77 846.398 1040.79C822.372 1054.79 804.117 1067.25 761.642 1079.52L761.919 1080.48ZM966 993.932C966.638 993.674 966.968 993.555 967.303 993.435C967.644 993.313 967.991 993.189 968.654 992.925L968.284 991.996C967.637 992.254 967.302 992.373 966.966 992.494C966.623 992.617 966.28 992.741 965.626 993.005L966 993.932ZM968.654 992.925C1010.66 976.169 1040.91 983.485 1070.79 989.789C1100.7 996.1 1130.24 1001.39 1170.58 980.296L1170.12 979.409C1130.09 1000.33 1100.85 995.108 1070.99 988.81C1041.11 982.506 1010.6 975.119 968.284 991.996L968.654 992.925ZM1170.58 980.296C1209.66 959.854 1238.77 958.971 1267.37 957.1C1296.01 955.227 1324.13 952.363 1361.03 927.858L1360.48 927.025C1323.79 951.388 1295.88 954.234 1267.31 956.102C1238.7 957.973 1209.4 958.861 1170.12 979.409L1170.58 980.296ZM1361.03 927.858C1364.86 925.318 1367.28 924.046 1369.71 922.755C1372.16 921.458 1374.6 920.144 1378.45 917.531L1377.88 916.704C1374.08 919.288 1371.67 920.583 1369.25 921.871C1366.81 923.166 1364.35 924.457 1360.48 927.025L1361.03 927.858ZM1378.45 917.531C1388.89 910.418 1398.77 904.474 1408.24 899.392L1407.76 898.511C1398.27 903.609 1388.36 909.572 1377.88 916.704L1378.45 917.531ZM-362.532 878.979C-335.854 892.905 -312.849 887.854 -289.574 881.894C-266.284 875.93 -242.736 869.066 -214.684 879.007L-214.35 878.065C-242.732 868.006 -266.578 874.973 -289.822 880.925C-313.082 886.881 -335.752 891.83 -362.069 878.093L-362.532 878.979ZM173.851 797.478C194.739 796.459 216.394 803.747 238.465 815.127C260.536 826.506 282.966 841.944 305.41 857.175C327.841 872.397 350.285 887.411 372.339 897.893C394.393 908.375 416.114 914.353 437.092 911.442L436.955 910.452C416.254 913.324 394.743 907.434 372.769 896.99C350.794 886.546 328.412 871.576 305.972 856.348C283.545 841.129 261.059 825.651 238.924 814.238C216.789 802.826 194.947 795.447 173.802 796.479L173.851 797.478ZM437.092 911.442C479.049 905.621 503.019 926.355 526.988 946.347C538.961 956.334 550.952 966.149 565.161 972.268C579.392 978.396 595.829 980.812 616.695 976.058L616.472 975.083C595.813 979.79 579.593 977.394 565.557 971.35C551.5 965.296 539.615 955.577 527.629 945.579C503.678 925.602 479.393 904.564 436.955 910.452L437.092 911.442ZM616.695 976.058C641.23 970.469 654.22 971.102 667.156 971.401C680.139 971.701 693.05 971.662 717.344 964.702L717.068 963.741C692.897 970.666 680.093 970.699 667.179 970.401C654.218 970.102 641.13 969.466 616.472 975.083L616.695 976.058ZM717.344 964.702C734.92 959.664 744.005 958.193 753.053 956.543C762.123 954.89 771.142 953.059 788.55 947.304L788.236 946.354C770.879 952.092 761.906 953.913 752.874 955.559C743.821 957.21 734.695 958.688 717.068 963.741L717.344 964.702ZM788.55 947.304C831.243 933.195 850.555 921.415 869.451 908.604C888.315 895.816 906.738 882.021 947.708 863.831L947.302 862.917C906.242 881.148 887.752 894.989 868.89 907.777C850.059 920.542 830.83 932.279 788.237 946.354L788.55 947.304ZM947.708 863.831C987.787 846.048 1021.99 862.32 1055.93 877.752C1089.81 893.159 1123.45 907.726 1161.99 885.787L1161.49 884.918C1123.44 906.577 1090.27 892.268 1056.34 876.842C1022.47 861.442 987.852 844.925 947.302 862.917L947.708 863.831ZM1161.99 885.787C1164.48 884.368 1165.99 883.812 1167.52 883.245C1169.08 882.669 1170.64 882.083 1173.2 880.606L1172.7 879.74C1170.21 881.177 1168.7 881.741 1167.18 882.307C1165.63 882.882 1164.06 883.459 1161.49 884.918L1161.99 885.787ZM1173.2 880.606C1216.54 855.543 1249.39 852.593 1281.5 848.393C1313.64 844.188 1345.01 838.731 1385.21 808.575L1384.61 807.775C1344.61 837.782 1313.44 843.206 1281.37 847.401C1249.27 851.601 1216.24 854.567 1172.7 879.74L1173.2 880.606ZM1385.21 808.575C1393.84 802.104 1401.28 797.932 1408.2 794.781L1407.79 793.871C1400.81 797.05 1393.3 801.259 1384.61 807.775L1385.21 808.575ZM-511.839 840.368C-491.772 858.848 -472.553 859.816 -452.481 859.48C-432.416 859.145 -411.534 857.52 -387.811 870.575L-387.329 869.699C-411.325 856.494 -432.487 858.146 -452.497 858.48C-472.499 858.814 -491.386 857.844 -511.161 839.632L-511.839 840.368ZM-387.811 870.575C-368.081 881.43 -350.771 881.844 -334.571 876.726C-318.406 871.619 -303.363 861.007 -288.142 849.872C-257.635 827.556 -226.376 803.14 -183.423 815.347L-183.15 814.385C-226.648 802.023 -258.317 826.816 -288.732 849.065C-303.972 860.213 -318.888 870.722 -334.872 875.772C-350.819 880.811 -367.845 880.418 -387.329 869.699L-387.811 870.575ZM-183.423 815.347C-162.97 821.159 -149.253 829.356 -138.856 838.55C-128.449 847.752 -121.354 857.962 -114.136 867.861C-106.926 877.75 -99.5962 887.323 -88.7467 895.128C-77.8897 902.939 -63.54 908.96 -42.3068 911.82L-42.1733 910.829C-63.274 907.987 -77.4615 902.016 -88.1627 894.317C-98.8712 886.612 -106.121 877.157 -113.328 867.272C-120.527 857.398 -127.689 847.09 -138.194 837.801C-148.709 828.503 -162.561 820.236 -183.15 814.385L-183.423 815.347ZM-42.2373 911.824C-6.62509 911.634 10.6482 886.385 23.4863 860.477C29.9279 847.477 35.2269 834.378 41.2024 823.985C47.175 813.596 53.7107 806.13 62.4919 804.287L62.2864 803.308C53.0529 805.246 46.3275 813.064 40.3355 823.486C34.3464 833.904 28.9773 847.143 22.5902 860.033C9.77087 885.903 -7.25574 910.637 -42.2427 910.824L-42.2373 911.824ZM242.522 789.931C257.623 788.727 270.518 793.147 283.508 797.481C296.478 801.807 309.539 806.044 324.826 804.294L324.712 803.301C309.672 805.022 296.808 800.863 283.825 796.532C270.863 792.208 257.778 787.711 242.443 788.934L242.522 789.931ZM324.826 804.294C338.162 802.77 348.18 804.614 356.539 808.079C364.912 811.55 371.64 816.654 378.412 821.706C385.17 826.749 391.972 831.74 400.432 834.876C408.906 838.018 419.015 839.289 432.397 836.959L432.226 835.974C419.001 838.276 409.073 837.013 400.779 833.939C392.472 830.859 385.777 825.954 379.01 820.905C372.256 815.866 365.43 810.682 356.922 807.155C348.399 803.622 338.209 801.758 324.712 803.301L324.826 804.294ZM432.397 836.959C453.455 833.296 469.864 835.348 483.928 840.13C498.008 844.918 509.753 852.445 521.506 859.78C533.245 867.106 544.99 874.239 559.001 878.138C573.027 882.04 589.294 882.696 610.091 877.13L609.832 876.164C589.195 881.687 573.109 881.025 559.269 877.174C545.414 873.319 533.781 866.262 522.036 858.932C510.304 851.611 498.459 844.015 484.25 839.183C470.026 834.346 453.447 832.282 432.226 835.974L432.397 836.959ZM610.09 877.13C631.39 871.437 645.883 863.861 656.926 855.205C667.964 846.552 675.531 836.836 682.983 826.913C690.441 816.983 697.781 806.853 708.39 797.278C718.992 787.709 732.872 778.685 753.402 771.017L753.052 770.08C732.412 777.789 718.422 786.877 707.72 796.536C697.025 806.188 689.628 816.401 682.184 826.312C674.734 836.23 667.235 845.853 656.309 854.418C645.388 862.979 631.021 870.5 609.832 876.164L610.09 877.13ZM753.402 771.017C789.296 757.606 808.812 758.935 828.058 759.517C837.7 759.808 847.295 759.914 858.827 757.881C870.359 755.848 883.809 751.68 901.183 743.445L900.755 742.542C883.444 750.746 870.081 754.881 858.653 756.896C847.226 758.91 837.715 758.808 828.089 758.517C808.799 757.934 789.128 756.601 753.052 770.08L753.402 771.017ZM901.183 743.445C907.693 740.357 911.058 739.67 914.431 738.95C917.851 738.22 921.273 737.458 927.824 734.215L927.381 733.319C920.925 736.515 917.588 737.254 914.222 737.972C910.809 738.7 907.361 739.407 900.754 742.542L901.183 743.445ZM927.824 734.215C970.776 713.001 1002.01 720.337 1032.74 726.572C1048.1 729.69 1063.36 732.538 1079.86 731.357C1096.36 730.174 1114.08 724.958 1134.39 711.993L1133.85 711.15C1113.68 724.031 1096.12 729.189 1079.78 730.359C1063.44 731.53 1048.3 728.711 1032.93 725.592C1002.2 719.355 970.662 711.942 927.381 733.319L927.824 734.215ZM1134.39 711.993C1156.15 698.1 1175.51 702.056 1194.84 705.741C1214.17 709.424 1233.46 712.832 1254.69 697.39L1254.1 696.581C1233.25 711.751 1214.35 708.441 1195.03 704.759C1175.72 701.078 1155.98 697.021 1133.85 711.15L1134.39 711.993ZM1254.69 697.389C1275.4 682.316 1297.14 686.406 1318.89 690.247C1340.58 694.079 1362.27 697.661 1382.37 681.021L1381.73 680.251C1362.03 696.562 1340.8 693.102 1319.06 689.263C1297.38 685.433 1275.2 681.222 1254.1 696.581L1254.69 697.389ZM1382.37 681.021C1393.38 671.9 1401.74 663.242 1408.39 654.831L1407.6 654.211C1401 662.562 1392.7 671.171 1381.73 680.251L1382.37 681.021ZM-480.255 857.413C-460.843 868.936 -439.458 868.431 -417.014 861.639C-394.583 854.849 -371.025 841.758 -347.216 828.023C-323.385 814.275 -299.299 799.879 -275.747 790.412C-252.197 780.946 -229.256 776.44 -207.71 782.396L-207.444 781.432C-229.297 775.392 -252.484 779.984 -276.12 789.485C-299.754 798.985 -323.914 813.425 -347.715 827.156C-371.538 840.9 -395 853.931 -417.304 860.681C-439.596 867.428 -460.662 867.881 -479.745 856.553L-480.255 857.413ZM-207.71 782.396C-166.752 793.722 -149.075 799.241 -131.079 803.122C-113.072 807.004 -94.7382 809.249 -52.4476 814.041L-52.335 813.048C-94.6395 808.254 -112.92 806.014 -130.868 802.144C-148.827 798.272 -166.445 792.769 -207.444 781.432L-207.71 782.396ZM-52.4476 814.041C-10.7518 818.77 10.4207 815.389 31.6534 810.743C52.8435 806.107 74.0543 800.221 115.911 799.897L115.904 798.897C73.9294 799.222 52.6245 805.131 31.4397 809.766C10.2975 814.393 -10.7638 817.762 -52.335 813.048L-52.4476 814.041ZM538.272 714.497C562.904 716.961 579.991 715.661 592.495 712.029C605.016 708.392 612.916 702.425 619.18 695.609C622.305 692.208 625.022 688.599 627.694 684.979C630.37 681.353 633 677.721 635.97 674.242C641.898 667.298 649.17 660.979 660.764 656.708L660.418 655.77C648.626 660.114 641.219 666.553 635.21 673.593C632.211 677.105 629.557 680.771 626.889 684.385C624.218 688.004 621.529 691.575 618.444 694.933C612.285 701.634 604.537 707.49 592.217 711.069C579.88 714.652 562.933 715.959 538.372 713.503L538.272 714.497ZM660.764 656.708C670.029 653.295 676.214 649.788 680.843 646.198C685.472 642.608 688.527 638.949 691.535 635.276C694.543 631.602 697.5 627.918 701.959 624.201C706.416 620.485 712.389 616.724 721.42 612.941L721.033 612.018C711.927 615.834 705.865 619.643 701.319 623.432C696.776 627.22 693.763 630.976 690.761 634.643C687.758 638.31 684.763 641.892 680.23 645.407C675.698 648.922 669.609 652.384 660.418 655.77L660.764 656.708ZM721.42 612.941C764.278 594.985 783.952 590.488 803.126 584.897C822.334 579.296 841.002 572.608 881.779 550.291L881.299 549.414C840.574 571.702 821.974 578.359 802.846 583.937C783.684 589.524 763.953 594.037 721.033 612.018L721.42 612.941ZM881.779 550.291C905.868 537.104 924.72 544.859 943.566 552.347C952.974 556.085 962.402 559.765 972.421 560.637C982.464 561.511 993.079 559.564 1004.88 552.109L1004.34 551.264C992.73 558.602 982.332 560.496 972.508 559.641C962.658 558.783 953.363 555.164 943.935 551.418C925.109 543.937 905.838 535.981 881.299 549.414L881.779 550.291ZM1004.88 552.109C1022.96 540.68 1040.71 548.463 1058.62 556.193C1076.43 563.879 1094.41 571.515 1112.4 558.84L1111.82 558.023C1094.35 570.33 1076.92 563.002 1059.02 555.274C1041.21 547.59 1022.94 539.509 1004.34 551.264L1004.88 552.109ZM1112.4 558.84C1150.92 531.706 1188.81 538.57 1226.09 544.458C1263.34 550.341 1299.98 555.242 1335.52 523.679L1334.86 522.931C1299.7 554.156 1263.5 549.354 1226.24 543.47C1189.01 537.591 1150.71 530.624 1111.82 558.023L1112.4 558.84ZM1335.52 523.679C1340.31 519.426 1343.31 517.329 1346.3 515.205C1349.31 513.072 1352.3 510.914 1357.06 506.551L1356.39 505.814C1351.67 510.138 1348.71 512.269 1345.72 514.39C1342.72 516.519 1339.69 518.641 1334.86 522.931L1335.52 523.679ZM1357.06 506.551C1395.09 471.698 1389.08 428.755 1381.82 384.976C1374.55 341.119 1366.02 296.418 1398.35 257.413L1397.58 256.775C1364.91 296.189 1373.58 341.383 1380.83 385.14C1388.1 428.975 1393.97 471.367 1356.39 505.814L1357.06 506.551ZM-512.5 300.667C-512.281 342.159 -499.246 363.653 -489.843 385.279C-485.145 396.083 -481.353 406.918 -480.472 420.329C-479.591 433.742 -481.622 449.767 -488.625 470.942L-487.676 471.256C-480.643 449.993 -478.583 433.837 -479.474 420.264C-480.365 406.688 -484.207 395.732 -488.926 384.88C-498.356 363.191 -511.282 341.905 -511.5 300.662L-512.5 300.667ZM-488.625 470.942C-501.101 508.647 -505.96 532.593 -504.116 556.041C-502.273 579.476 -493.737 602.371 -479.543 637.961L-478.614 637.59C-492.819 601.973 -501.29 579.22 -503.119 555.963C-504.946 532.72 -500.142 508.93 -487.676 471.256L-488.625 470.942ZM-479.543 637.961C-473.446 653.24 -469.155 666.619 -465.258 678.697C-461.363 690.77 -457.858 701.557 -453.337 711.617C-444.281 731.771 -431.162 748.983 -402.729 767.942L-402.174 767.11C-430.465 748.246 -443.452 731.176 -452.425 711.208C-456.919 701.206 -460.408 690.472 -464.307 678.39C-468.203 666.314 -472.503 652.905 -478.614 637.59L-479.543 637.961ZM-402.729 767.942C-387.946 777.8 -374.667 780.956 -362.006 780.469C-349.366 779.983 -337.372 775.867 -325.172 771.249C-300.745 762.003 -275.421 750.727 -241.841 761.778L-241.528 760.828C-275.496 749.649 -301.157 761.089 -325.526 770.314C-337.726 774.932 -349.583 778.991 -362.044 779.47C-374.485 779.948 -387.558 776.857 -402.174 767.11L-402.729 767.942ZM-241.841 761.778C-237.059 763.351 -233.378 763.739 -230.241 763.503C-227.108 763.267 -224.545 762.411 -222.026 761.544C-219.5 760.675 -217.023 759.797 -213.985 759.45C-210.955 759.105 -207.346 759.287 -202.593 760.581L-202.33 759.616C-207.191 758.293 -210.928 758.095 -214.098 758.457C-217.262 758.818 -219.84 759.735 -222.352 760.599C-224.87 761.465 -227.324 762.281 -230.315 762.506C-233.301 762.73 -236.85 762.367 -241.528 760.828L-241.841 761.778ZM-202.593 760.581C-161.636 771.724 -142.634 770.271 -123.288 766.999C-104.013 763.738 -84.4565 758.687 -42.268 762.592L-42.1758 761.597C-84.5097 757.678 -104.185 762.753 -123.455 766.013C-142.655 769.26 -161.512 770.721 -202.33 759.616L-202.593 760.581ZM-42.2679 762.592C-0.688507 766.433 17.8571 776.487 36.5009 785.225C45.8391 789.602 55.2155 793.656 67.5048 796.422C79.7924 799.186 94.9718 800.658 115.926 799.897L115.889 798.898C95.0003 799.656 79.9096 798.188 67.7243 795.446C55.5407 792.705 46.2414 788.686 36.9254 784.32C18.2609 775.572 -0.415436 765.454 -42.1759 761.597L-42.2679 762.592ZM115.926 799.897C199.997 796.839 195.012 796.854 278.238 784.712L278.094 783.722C194.896 795.861 199.917 795.841 115.889 798.898L115.926 799.897ZM278.238 784.712C355.711 773.405 363.479 777.124 442.758 777.124V776.124C363.521 776.124 355.658 772.402 278.094 783.722L278.238 784.712ZM442.758 777.124C452.834 777.124 460.071 775.696 465.614 773.518C471.162 771.338 474.985 768.418 478.24 765.48C484.759 759.595 488.89 753.792 500.025 753.225L499.975 752.227C488.399 752.816 483.967 758.962 477.57 764.737C474.368 767.628 470.646 770.466 465.248 772.587C459.847 774.709 452.739 776.124 442.758 776.124V777.124ZM500.025 753.225C517.775 752.321 527.013 747.356 532.065 739.827C537.076 732.358 537.882 722.455 539.049 711.962C540.222 701.418 541.758 690.188 548.101 679.794C554.435 669.417 565.601 659.815 586.148 652.636L585.819 651.692C565.106 658.929 553.728 668.655 547.248 679.273C540.777 689.876 539.228 701.309 538.055 711.852C536.877 722.446 536.077 732.052 531.234 739.27C526.431 746.429 517.567 751.331 499.975 752.227L500.025 753.225ZM586.148 652.636C607.582 645.149 620.803 634.97 629.844 623.293C638.873 611.63 643.706 598.501 648.405 585.184C653.11 571.85 657.681 558.329 666.172 545.744C674.652 533.174 687.056 521.521 707.448 511.985L707.025 511.079C686.475 520.689 673.928 532.458 665.343 545.184C656.767 557.895 652.158 571.544 647.462 584.852C642.76 598.177 637.971 611.161 629.053 622.681C620.145 634.187 607.092 644.26 585.819 651.692L586.148 652.636ZM707.448 511.985C729.648 501.598 739.926 500.358 750.075 498.813C760.303 497.256 770.382 495.392 792.086 483.752L791.613 482.871C770.019 494.452 760.05 496.283 749.925 497.824C739.722 499.378 729.342 500.637 707.025 511.079L707.448 511.985ZM792.086 483.752C802.161 478.347 810.14 476.1 817.047 475.387C823.961 474.674 829.825 475.494 835.716 476.26C841.599 477.026 847.505 477.737 854.41 476.753C861.32 475.767 869.199 473.088 879.069 467.12L878.552 466.265C868.774 472.177 861.021 474.799 854.269 475.763C847.512 476.726 841.727 476.034 835.845 475.269C829.969 474.504 823.992 473.666 816.944 474.393C809.89 475.121 801.786 477.413 791.613 482.871L792.086 483.752ZM879.069 467.12C900.664 454.061 922.921 453.535 945.46 459.161C968.022 464.792 990.822 476.574 1013.48 488.094C1036.11 499.6 1058.6 510.846 1080.46 515.307C1102.35 519.774 1123.63 517.444 1143.82 501.783L1143.2 500.992C1123.3 516.438 1102.33 518.75 1080.66 514.327C1058.95 509.898 1036.59 498.721 1013.93 487.203C991.306 475.698 968.397 463.855 945.703 458.191C922.985 452.521 900.437 453.029 878.551 466.265L879.069 467.12ZM1143.82 501.782C1145.46 500.51 1146.36 499.935 1147.28 499.352C1148.21 498.76 1149.14 498.161 1150.81 496.852L1150.19 496.066C1148.56 497.347 1147.66 497.927 1146.74 498.508C1145.82 499.099 1144.88 499.693 1143.2 500.993L1143.82 501.782ZM1150.81 496.853C1193.15 463.665 1224.32 455.026 1254.39 445.098C1284.51 435.155 1313.51 423.926 1351.37 385.531L1350.66 384.829C1312.95 423.072 1284.11 434.235 1254.08 444.149C1224 454.077 1192.69 462.759 1150.19 496.065L1150.81 496.853ZM1351.37 385.531C1356.85 379.975 1358.74 375.853 1360.59 371.745C1362.41 367.676 1364.19 363.628 1369.44 358.096L1368.72 357.407C1363.35 363.062 1361.51 367.234 1359.67 371.335C1357.85 375.397 1356.02 379.396 1350.66 384.829L1351.37 385.531ZM1369.44 358.096C1406.69 318.865 1399.86 277.86 1391.7 235.974C1383.53 194.052 1374.04 151.249 1405.38 107.895L1404.57 107.31C1372.94 151.062 1382.56 194.304 1390.72 236.165C1398.88 278.062 1405.58 318.578 1368.72 357.407L1369.44 358.096ZM1405.38 107.896C1406.76 105.99 1407.67 104.729 1408.4 103.701L1407.59 103.122C1406.86 104.145 1405.95 105.402 1404.57 107.309L1405.38 107.896ZM-512.5 194.959C-512.5 238.238 -497.546 285.367 -484.763 332.349C-471.966 379.38 -461.338 426.275 -469.836 469.258L-468.855 469.452C-460.306 426.21 -471.006 379.1 -483.798 332.086C-496.603 285.024 -511.5 238.067 -511.5 194.959H-512.5ZM-469.836 469.258C-477.409 507.603 -479.248 536.831 -473.114 563.681C-466.979 590.537 -452.882 614.961 -428.686 643.727L-427.92 643.083C-452.062 614.383 -466.053 590.101 -472.139 563.458C-478.227 536.809 -476.418 507.744 -468.855 469.451L-469.836 469.258ZM-428.686 643.727C-420.73 653.19 -417.086 659.173 -412.949 664.794C-408.807 670.421 -404.223 675.606 -394.467 683.366L-393.845 682.583C-403.536 674.875 -408.057 669.753 -412.143 664.202C-416.233 658.645 -419.939 652.577 -427.92 643.083L-428.686 643.727ZM-394.467 683.366C-376.808 697.409 -361.428 703.692 -346.897 705.564C-332.377 707.435 -318.753 704.894 -304.634 701.371C-276.391 694.323 -246.096 683.336 -202.156 695.309L-201.893 694.345C-246.133 682.289 -276.701 693.37 -304.877 700.401C-318.968 703.917 -332.442 706.418 -346.769 704.572C-361.086 702.727 -376.301 696.535 -393.845 682.583L-394.467 683.366ZM-202.156 695.309C-181.751 700.871 -166.874 702.86 -154.713 702.801C-142.547 702.741 -133.122 700.631 -123.635 698.025C-104.702 692.823 -85.472 685.629 -43.3493 688.671L-43.2773 687.673C-85.5859 684.618 -104.961 691.857 -123.9 697.061C-133.349 699.657 -142.677 701.742 -154.718 701.801C-166.763 701.859 -181.547 699.89 -201.893 694.345L-202.156 695.309ZM-43.3493 688.671C-1.75027 691.675 17.0978 703.773 36.0236 714.476C45.5016 719.836 55.0177 724.858 67.4037 728.19C79.7902 731.522 95.0214 733.159 115.94 731.789L115.875 730.792C95.0417 732.156 79.9233 730.523 67.6635 727.224C55.4031 723.926 45.9763 718.956 36.5159 713.606C17.565 702.889 -1.4455 690.694 -43.2773 687.673L-43.3493 688.671ZM115.94 731.789C157.935 729.035 179.115 737.324 200.213 744.452C210.776 748.021 221.336 751.306 234.459 752.753C247.583 754.2 263.249 753.807 284.04 750.05L283.863 749.066C263.148 752.809 247.58 753.193 234.568 751.759C221.556 750.324 211.08 747.068 200.533 743.505C179.41 736.369 158.075 728.024 115.875 730.792L115.94 731.789ZM284.04 750.05C326.283 742.415 350.162 748.404 373.857 753.348C397.609 758.304 421.147 762.201 462.576 750.273L462.3 749.312C421.08 761.179 397.719 757.306 374.061 752.369C350.346 747.421 326.306 741.395 283.863 749.066L284.04 750.05ZM462.576 750.273C505.432 737.943 515.297 700.685 524.76 662.798C534.247 624.81 543.337 586.179 584.22 570.092L583.854 569.161C542.416 585.467 533.249 624.679 523.789 662.556C514.304 700.534 504.531 737.162 462.3 749.312L462.576 750.273ZM584.22 570.092C591.466 567.241 596.067 563.714 599.324 559.819C602.573 555.933 604.465 551.702 606.316 547.505C608.174 543.296 609.99 539.123 613.087 535.228C616.175 531.345 620.554 527.72 627.553 524.67L627.154 523.753C620.017 526.863 615.502 530.584 612.304 534.606C609.114 538.617 607.251 542.91 605.401 547.102C603.546 551.307 601.704 555.414 598.557 559.177C595.419 562.931 590.962 566.365 583.854 569.161L584.22 570.092ZM627.553 524.67C641.699 518.503 649.979 510.565 655.273 501.666C660.555 492.786 662.844 482.978 665.061 473.136C667.282 463.271 669.431 453.372 674.398 444.167C679.355 434.982 687.133 426.47 700.645 419.437L700.184 418.55C686.499 425.673 678.573 434.326 673.518 443.693C668.474 453.04 666.3 463.079 664.085 472.916C661.865 482.775 659.603 492.431 654.413 501.155C649.236 509.859 641.124 517.663 627.154 523.753L627.553 524.67ZM700.645 419.437C722.163 408.238 740.207 404.883 756.427 405.295C772.665 405.707 787.096 409.89 801.43 413.815C815.749 417.735 829.968 421.396 845.681 420.677C861.408 419.957 878.595 414.853 898.881 401.316L898.326 400.484C878.17 413.934 861.157 418.968 845.635 419.678C830.098 420.389 816.018 416.772 801.694 412.85C787.387 408.933 772.834 404.711 756.453 404.295C740.055 403.879 721.845 407.276 700.184 418.55L700.645 419.437ZM898.881 401.316C901.394 399.638 903.392 398.726 905.127 398.187C906.864 397.647 908.354 397.476 909.887 397.296C911.417 397.116 912.989 396.927 914.818 396.337C916.649 395.747 918.72 394.761 921.281 393.003L920.715 392.178C918.22 393.891 916.235 394.829 914.511 395.386C912.785 395.942 911.3 396.123 909.77 396.302C908.242 396.482 906.666 396.661 904.83 397.232C902.99 397.804 900.906 398.762 898.326 400.484L898.881 401.316ZM921.282 393.002C940.234 379.972 962.549 380.304 986.564 387.29C1010.59 394.279 1036.21 407.895 1061.7 421.307C1087.17 434.704 1112.52 447.898 1135.91 453.959C1159.32 460.024 1180.88 458.969 1198.67 443.745L1198.02 442.985C1180.57 457.913 1159.4 459.013 1136.16 452.991C1112.9 446.965 1087.66 433.833 1062.17 420.422C1036.7 407.025 1010.98 393.353 986.843 386.33C962.694 379.305 940.022 378.904 920.715 392.178L921.282 393.002ZM1198.67 443.744C1213.62 430.95 1223.57 425.285 1233.4 419.437C1243.25 413.576 1252.96 407.539 1267.38 394.016L1266.7 393.287C1252.35 406.743 1242.7 412.738 1232.89 418.577C1223.05 424.429 1213.03 430.131 1198.02 442.985L1198.67 443.744ZM1267.38 394.016C1296.1 367.071 1289.47 331.604 1282.29 295.871C1275.09 260.02 1267.34 223.887 1293.03 194.896L1292.28 194.233C1266.21 223.66 1274.14 260.344 1281.31 296.068C1288.51 331.91 1294.95 366.777 1266.7 393.287L1267.38 394.016ZM1293.03 194.896C1304.64 181.787 1324.33 171.497 1344.01 161.029C1363.62 150.591 1383.23 139.974 1394.42 126.21L1393.64 125.579C1382.61 139.154 1363.21 149.679 1343.54 160.146C1323.93 170.581 1304.04 180.957 1292.28 194.233L1293.03 194.896ZM-469.845 469.344C-471.179 529.927 -437.762 560.135 -396.96 604.015L-396.227 603.334C-437.109 559.37 -470.168 529.468 -468.846 469.366L-469.845 469.344ZM-396.96 604.015C-390.984 610.444 -385.425 614.238 -379.97 616.589C-374.519 618.937 -369.198 619.834 -363.73 620.5C-352.798 621.831 -341.232 622.252 -326.395 631.349L-325.873 630.497C-340.926 621.267 -352.719 620.833 -363.609 619.507C-369.052 618.844 -374.258 617.961 -379.574 615.67C-384.885 613.381 -390.333 609.675 -396.227 603.334L-396.96 604.015ZM-326.395 631.349C-313.47 639.272 -302.707 641.718 -292.911 641.153C-283.133 640.588 -274.367 637.023 -265.453 633.021C-247.615 625.011 -229.071 615.2 -200.049 623.329L-199.78 622.366C-229.192 614.128 -248.052 624.11 -265.862 632.108C-274.772 636.109 -283.391 639.602 -292.969 640.154C-302.529 640.706 -313.092 638.331 -325.873 630.497L-326.395 631.349ZM-200.049 623.329C-179.719 629.025 -164.966 629.178 -152.952 626.238C-140.944 623.3 -131.722 617.282 -122.458 610.738C-113.183 604.185 -103.874 597.113 -91.6208 591.94C-79.381 586.773 -64.1867 583.498 -43.176 584.605L-43.1234 583.606C-64.2738 582.492 -79.6203 585.789 -92.0097 591.019C-104.386 596.243 -113.794 603.393 -123.035 609.921C-132.287 616.457 -141.378 622.377 -153.189 625.267C-164.995 628.156 -179.568 628.028 -199.78 622.366L-200.049 623.329ZM-43.1761 584.605C-1.62894 586.797 22.4305 611.5 46.6121 634.826C70.7735 658.131 95.0553 680.05 136.952 676.043L136.857 675.047C95.45 679.008 71.4657 657.41 47.3063 634.106C23.1672 610.821 -1.14874 585.821 -43.1234 583.606L-43.1761 584.605ZM282.856 734.756C324.701 734.756 358.985 725.424 387.01 715.606C401.005 710.702 413.482 705.662 424.502 701.623C435.547 697.575 445.153 694.524 453.513 693.543L453.397 692.55C444.909 693.546 435.207 696.635 424.158 700.684C413.084 704.742 400.68 709.757 386.679 714.662C358.713 724.46 324.547 733.756 282.856 733.756V734.756ZM453.612 693.521C496.513 679.344 509.925 643.839 522.865 607.583C535.825 571.268 548.317 534.199 589.133 516.143L588.728 515.228C547.46 533.485 534.857 571.005 521.923 607.246C508.967 643.546 495.684 678.565 453.298 692.572L453.612 693.521ZM589.133 516.143C610.657 506.626 623.976 495.54 633.107 483.518C642.23 471.505 647.149 458.585 651.906 445.463C656.667 432.327 661.267 418.994 669.742 406.031C678.209 393.081 690.558 380.486 710.832 368.886L710.336 368.018C689.932 379.692 677.463 392.394 668.905 405.484C660.354 418.562 655.718 432.012 650.965 445.122C646.208 458.246 641.332 471.035 632.31 482.913C623.296 494.782 610.12 505.77 588.728 515.228L589.133 516.143ZM710.832 368.886C713.599 367.305 717.883 365.958 722.979 364.725C728.063 363.495 733.903 362.391 739.757 361.277C745.605 360.165 751.466 359.044 756.569 357.785C761.66 356.528 766.051 355.12 768.93 353.416L768.421 352.555C765.678 354.179 761.413 355.559 756.329 356.814C751.257 358.066 745.424 359.182 739.57 360.295C733.724 361.407 727.857 362.516 722.744 363.753C717.642 364.988 713.236 366.361 710.336 368.018L710.832 368.886ZM768.93 353.416C787.534 342.411 803.04 340.114 816.928 342.026C830.844 343.942 843.169 350.085 855.436 356.059C867.676 362.019 879.862 367.812 893.39 368.875C906.949 369.94 921.801 366.253 939.395 353.389L938.805 352.582C921.369 365.33 906.75 368.921 893.469 367.878C880.158 366.832 868.136 361.131 855.874 355.16C843.638 349.202 831.167 342.977 817.064 341.035C802.934 339.09 787.202 341.446 768.421 352.555L768.93 353.416ZM939.395 353.389C950.731 345.097 963.64 344.165 977.38 346.922C991.138 349.682 1005.66 356.126 1020.18 362.513C1034.67 368.887 1049.16 375.207 1062.77 377.637C1076.4 380.072 1089.21 378.616 1100.28 369.377L1099.64 368.609C1088.87 377.599 1076.39 379.055 1062.95 376.653C1049.48 374.248 1035.1 367.984 1020.58 361.597C1006.09 355.223 991.463 348.728 977.577 345.942C963.673 343.152 950.446 344.067 938.805 352.582L939.395 353.389ZM1100.28 369.377C1120.19 352.749 1135.95 348.68 1151.53 344.305C1167.14 339.92 1182.55 335.229 1201.6 317.306L1200.91 316.578C1182.04 334.338 1166.81 338.974 1151.26 343.343C1135.66 347.723 1119.73 351.837 1099.64 368.609L1100.28 369.377ZM1201.6 317.306C1226.49 293.878 1221.84 264.004 1216.79 233.995C1211.73 203.889 1206.28 173.64 1228.84 148.785L1228.1 148.113C1205.16 173.385 1210.77 204.162 1215.81 234.161C1220.87 264.257 1225.36 293.565 1200.91 316.578L1201.6 317.306ZM1228.84 148.785C1247.89 127.787 1245.61 101.443 1243.01 75.0725C1240.4 48.6172 1237.49 22.1311 1254.79 0.310663L1254 -0.310594C1236.41 21.8807 1239.42 48.8092 1242.01 75.1705C1244.62 101.616 1246.81 127.491 1228.1 148.113L1228.84 148.785ZM-395.78 300.522C-404.106 328.602 -415.591 359.652 -423.223 390.589C-430.859 421.544 -434.676 452.513 -427.642 480.538L-426.672 480.294C-433.646 452.509 -429.876 421.732 -422.252 390.829C-414.624 359.908 -403.177 328.988 -394.821 300.807L-395.78 300.522ZM-427.642 480.538C-424.938 491.302 -422.593 496.141 -418.34 506.329L-417.417 505.943C-421.679 495.735 -423.99 490.97 -426.672 480.294L-427.642 480.538ZM-418.34 506.328C-409.817 526.794 -397.631 538.136 -382.651 544.029C-367.703 549.909 -350.024 550.341 -330.55 549.107C-291.541 546.635 -245.262 537.495 -198.401 551.401L-198.117 550.442C-245.202 536.47 -291.777 545.648 -330.614 548.109C-350.063 549.341 -367.554 548.893 -382.285 543.098C-396.984 537.316 -408.985 526.19 -417.417 505.944L-418.34 506.328ZM-198.401 551.401C-183.129 555.937 -171.973 554.454 -162.857 549.708C-153.773 544.978 -146.765 537.03 -139.744 528.772C-132.701 520.489 -125.639 511.887 -116.405 505.673C-107.195 499.474 -95.8118 495.646 -80.1227 496.976L-80.0382 495.98C-95.9586 494.63 -107.568 498.52 -116.964 504.843C-126.335 511.15 -133.49 519.873 -140.506 528.124C-147.543 536.4 -154.434 544.194 -163.319 548.821C-172.171 553.43 -183.053 554.917 -198.117 550.442L-198.401 551.401ZM-80.1224 496.976C-74.6123 497.44 -70.483 494.621 -66.4087 490.384C-64.3721 488.266 -62.3239 485.767 -60.1139 483.112C-57.899 480.451 -55.5127 477.623 -52.7811 474.818C-47.3222 469.213 -40.4882 463.706 -30.9381 459.875C-21.3868 456.044 -9.08969 453.878 7.30884 454.999L7.37708 454.001C-9.14587 452.872 -21.5972 455.051 -31.3104 458.947C-41.0247 462.843 -47.9711 468.446 -53.4975 474.12C-56.2585 476.955 -58.6661 479.809 -60.8824 482.472C-63.1036 485.14 -65.124 487.605 -67.1295 489.691C-71.1392 493.86 -74.9878 496.405 -80.0385 495.98L-80.1224 496.976ZM2.40729 770.962C9.73798 770.41 19.1968 771.924 30.5475 774.178C41.8739 776.427 55.0574 779.406 69.7531 781.741C99.1593 786.413 134.696 788.519 173.966 777.104L173.687 776.143C134.611 787.502 99.2367 785.413 69.91 780.754C55.2394 778.423 42.1008 775.453 30.7423 773.197C19.4083 770.947 9.81934 769.402 2.33221 769.965L2.40729 770.962ZM173.889 777.12C195.065 774.445 209.189 770.522 219.754 765.8C230.324 761.075 237.306 755.56 244.196 749.748C251.083 743.937 257.864 737.842 268.077 731.877C278.288 725.914 291.944 720.074 312.557 714.822L312.31 713.853C291.626 719.123 277.879 724.995 267.573 731.014C257.27 737.031 250.419 743.189 243.551 748.984C236.685 754.776 229.788 760.22 219.346 764.887C208.898 769.557 194.877 773.461 173.764 776.128L173.889 777.12ZM312.557 714.822C355.199 703.961 376.761 687.716 397.929 670.382C419.069 653.072 439.794 634.696 480.823 619.431L480.475 618.494C439.273 633.823 418.434 652.299 397.295 669.609C376.184 686.896 354.754 703.042 312.31 713.853L312.557 714.822ZM480.823 619.431C523.833 603.432 533.895 567.933 543.46 531.696C553.038 495.406 562.122 458.377 602.849 438.527L602.41 437.628C561.216 457.706 552.053 495.22 542.493 531.441C532.919 567.714 522.951 602.693 480.475 618.494L480.823 619.431ZM602.849 438.527C604.36 437.789 605.053 437.361 605.739 436.938C606.408 436.525 607.071 436.116 608.543 435.397L608.104 434.499C606.593 435.237 605.9 435.664 605.214 436.087C604.545 436.5 603.882 436.909 602.41 437.628L602.849 438.527ZM608.544 435.397C629.36 425.163 642.994 414.81 652.956 404.256C662.916 393.703 669.187 382.968 675.286 372.013C687.47 350.13 699.017 327.278 738.066 302.742L737.534 301.895C698.264 326.57 686.616 349.608 674.412 371.526C668.318 382.472 662.098 393.114 652.229 403.569C642.362 414.023 628.83 424.309 608.103 434.499L608.544 435.397ZM738.066 302.742C766.169 285.079 792.69 295.585 819.144 305.724C845.526 315.836 871.848 325.582 899.027 305.563L898.434 304.758C871.745 324.416 845.946 314.926 819.502 304.79C793.129 294.682 766.119 283.929 737.534 301.895L738.066 302.742ZM899.027 305.563C913.423 294.963 923.023 292.635 932.565 290.152C942.163 287.654 951.689 285 965.791 273.716L965.167 272.935C951.216 284.097 941.84 286.705 932.313 289.184C922.73 291.678 912.983 294.045 898.434 304.758L899.027 305.563ZM965.791 273.716C1001.58 245.098 1028.43 239.022 1054.57 232.052C1080.76 225.069 1106.21 217.192 1138.99 184.921L1138.28 184.209C1105.68 216.31 1080.42 224.126 1054.32 231.086C1028.16 238.06 1001.13 244.178 965.167 272.935L965.791 273.716ZM1138.99 184.921C1142.73 181.24 1149.23 178.094 1157.2 175.208C1165.15 172.329 1174.48 169.735 1183.83 167.123C1193.17 164.514 1202.52 161.887 1210.46 158.947C1218.4 156.012 1225.01 152.738 1228.83 148.797L1228.11 148.101C1224.47 151.867 1218.04 155.079 1210.12 158.009C1202.21 160.933 1192.91 163.549 1183.56 166.16C1174.23 168.769 1164.85 171.373 1156.86 174.268C1148.88 177.157 1142.19 180.362 1138.28 184.208L1138.99 184.921ZM-395.78 300.522C-407.762 340.932 -390.55 384.268 -357.518 422.825L-356.759 422.175C-389.693 383.732 -406.663 340.744 -394.821 300.807L-395.78 300.522ZM-357.518 422.825C-336.711 447.113 -311.426 454.934 -283.657 459.276C-255.857 463.623 -225.669 464.485 -194.721 474.792L-194.405 473.843C-225.456 463.502 -255.863 462.61 -283.503 458.288C-311.175 453.961 -336.178 446.197 -356.759 422.175L-357.518 422.825ZM-194.721 474.792C-174.814 481.422 -160.787 480.417 -149.643 475.125C-138.531 469.848 -130.361 460.337 -122.111 450.149C-113.841 439.935 -105.479 429.026 -93.9468 420.754C-82.436 412.497 -67.7502 406.859 -46.8311 407.262L-46.8119 406.262C-67.9447 405.856 -82.8422 411.558 -94.5297 419.942C-106.195 428.31 -114.647 439.342 -122.889 449.52C-131.151 459.723 -139.192 469.055 -150.072 474.222C-160.922 479.374 -174.671 480.415 -194.405 473.843L-194.721 474.792ZM-46.831 407.262C-26.2008 407.657 -9.55139 425.218 5.1264 451.497C19.7832 477.738 32.3564 512.456 44.9199 546.775C57.4735 581.068 70.0189 614.969 84.6122 639.484C99.1849 663.965 115.944 679.325 136.982 676.039L136.827 675.051C116.467 678.231 100.028 663.426 85.4716 638.973C70.9359 614.554 58.4223 580.751 45.8589 546.431C33.3054 512.139 20.7037 477.336 5.99945 451.01C-8.68365 424.721 -25.5811 406.668 -46.8119 406.262L-46.831 407.262ZM136.982 676.039C179.454 669.399 202.724 658.123 225.661 645.492C248.574 632.875 271.122 618.928 312.221 606.869L311.939 605.909C270.717 618.005 248.075 632.008 225.179 644.616C202.307 657.211 179.15 668.435 136.827 675.051L136.982 676.039ZM312.221 606.869C346.179 596.909 363.763 587.6 381.078 577.556C398.372 567.524 415.373 556.774 448.215 543.885L447.85 542.954C414.926 555.875 397.862 566.664 380.576 576.691C363.312 586.705 345.803 595.977 311.939 605.909L312.221 606.869ZM448.215 543.885C456.757 540.533 461.256 538.318 465.732 536.06C470.196 533.809 474.631 531.518 483.064 528L482.679 527.077C474.211 530.609 469.749 532.914 465.281 535.168C460.824 537.416 456.355 539.616 447.85 542.954L448.215 543.885ZM483.064 528C504.562 519.032 518.877 507.938 529.528 495.642C540.172 483.354 547.141 469.883 553.96 456.206C567.598 428.856 580.679 400.602 621.39 378.677L620.915 377.796C579.905 399.883 566.707 428.402 553.065 455.76C546.245 469.438 539.324 482.805 528.772 494.987C518.228 507.161 504.042 518.166 482.679 527.077L483.064 528ZM621.39 378.677C636.947 370.297 647.403 362.114 655.259 353.948C663.113 345.783 668.353 337.649 673.483 329.399C683.726 312.921 693.571 295.904 723.065 276.838L722.522 275.998C692.837 295.188 682.897 312.362 672.633 328.871C667.509 337.113 662.315 345.171 654.538 353.255C646.764 361.336 636.395 369.458 620.915 377.796L621.39 378.677ZM723.066 276.837C734.851 269.214 738.908 263.223 742.883 257.173C746.82 251.18 750.671 245.139 762.065 237.278L761.497 236.455C749.95 244.422 746.015 250.584 742.047 256.624C738.116 262.607 734.15 268.477 722.522 275.998L723.066 276.837ZM762.065 237.278C783.866 222.225 808.485 211.431 833.872 200.815C859.245 190.204 885.387 179.771 910.156 165.449C959.737 136.781 1003.81 92.5393 1025.59 0.114708L1024.61 -0.114639C1002.9 92.0256 959.013 136.045 909.655 164.584C884.955 178.865 858.884 189.271 833.486 199.892C808.102 210.507 783.394 221.336 761.497 236.455L762.065 237.278ZM-314.852 118.665C-315.847 123.26 -313.973 128.005 -310.852 132.728C-307.725 137.458 -303.273 142.273 -298.951 147.027C-294.611 151.799 -290.404 156.506 -287.689 161.069C-284.973 165.634 -283.816 169.943 -285.392 173.969L-284.461 174.334C-282.717 169.879 -284.054 165.222 -286.829 160.558C-289.605 155.893 -293.886 151.11 -298.211 146.354C-302.553 141.578 -306.943 136.827 -310.017 132.176C-313.097 127.517 -314.782 123.066 -313.875 118.876L-314.852 118.665ZM-285.401 173.993C-296.331 206.77 -322.352 221.49 -346.53 236.484C-370.673 251.455 -392.984 266.711 -395.799 300.623L-394.802 300.706C-392.032 267.332 -370.152 252.309 -346.003 237.334C-321.89 222.381 -295.516 207.487 -284.452 174.309L-285.401 173.993ZM-395.799 300.623C-397.379 319.614 -389.952 333.307 -376.759 343.598C-363.599 353.864 -344.703 360.748 -323.309 366.211C-301.91 371.675 -277.932 375.737 -254.597 380.319C-231.245 384.904 -208.529 390.012 -189.583 397.57L-189.212 396.641C-208.253 389.045 -231.05 383.923 -254.404 379.338C-277.777 374.748 -301.699 370.697 -323.062 365.242C-344.429 359.786 -363.155 352.943 -376.144 342.81C-389.101 332.703 -396.351 319.324 -394.802 300.706L-395.799 300.623ZM-189.583 397.57C-187.786 398.286 -186.595 398.641 -185.705 398.802C-184.798 398.965 -184.216 398.924 -183.661 398.873C-183.128 398.825 -182.635 398.772 -181.834 398.874C-181.022 398.977 -179.878 399.243 -178.081 399.862L-177.755 398.917C-179.587 398.286 -180.802 397.997 -181.708 397.882C-182.625 397.765 -183.212 397.829 -183.751 397.878C-184.266 397.924 -184.747 397.958 -185.527 397.817C-186.324 397.674 -187.444 397.346 -189.213 396.641L-189.583 397.57ZM-178.08 399.863C-159.971 406.067 -147.529 404.381 -137.885 398.264C-128.288 392.178 -121.54 381.745 -114.71 370.679C-107.858 359.577 -100.908 347.81 -90.8981 338.834C-80.9129 329.88 -67.87 323.697 -48.8093 323.827L-48.8025 322.827C-68.1188 322.696 -81.4005 328.975 -91.5657 338.09C-101.706 347.182 -108.733 359.091 -115.561 370.154C-122.412 381.253 -129.049 391.476 -138.42 397.42C-147.744 403.333 -159.853 405.05 -177.756 398.916L-178.08 399.863ZM-48.8093 323.827C-38.4896 323.898 -29.0725 328.425 -20.3169 336.331C-11.5562 344.243 -3.48239 355.517 4.13165 369.023C19.3615 396.037 32.6862 431.855 45.9888 467.229C59.2814 502.576 72.5536 537.485 87.6691 562.592C95.2274 575.146 103.269 585.287 112.037 591.809C120.819 598.34 130.342 601.247 140.815 599.292L140.632 598.309C130.484 600.203 121.237 597.406 112.633 591.006C104.016 584.597 96.0544 574.581 88.5258 562.076C73.4672 537.064 60.2273 502.25 46.9248 466.877C33.6323 431.53 20.2789 395.628 5.00275 368.532C-2.6362 354.982 -10.7723 343.603 -19.6466 335.589C-28.526 327.571 -38.1689 322.9 -48.8024 322.827L-48.8093 323.827ZM140.815 599.292C149.153 597.737 154.064 595.936 158.944 594.081C163.807 592.232 168.63 590.332 176.832 588.551L176.62 587.574C168.34 589.372 163.458 591.295 158.588 593.146C153.734 594.992 148.886 596.77 140.632 598.309L140.815 599.292ZM176.833 588.551C211.047 581.094 227.964 566.346 244.576 550.749C261.163 535.175 277.43 518.776 310.399 507.798L310.083 506.849C276.886 517.904 260.479 534.446 243.892 550.02C227.33 565.569 210.573 580.174 176.62 587.574L176.833 588.551ZM310.399 507.798C353.249 493.539 373.699 478.823 393.654 462.936C413.578 447.074 432.984 430.068 473.802 411.138L473.381 410.231C432.442 429.217 412.952 446.294 393.031 462.154C373.14 477.99 352.792 492.637 310.083 506.849L310.399 507.798ZM473.802 411.138C504.668 396.831 518.621 385.158 532.273 372.941C545.895 360.75 559.2 348.034 588.811 331.57L588.325 330.696C558.61 347.218 545.236 359.997 531.606 372.195C518.005 384.367 504.134 395.977 473.381 410.231L473.802 411.138ZM588.811 331.57C600.587 325.024 606.402 321.235 612.169 317.368C617.927 313.508 623.629 309.576 635.196 302.731L634.686 301.871C623.094 308.731 617.371 312.677 611.613 316.538C605.864 320.392 600.073 324.166 588.325 330.696L588.811 331.57ZM635.196 302.731C656.946 289.854 671.55 277.576 682.477 265.444C693.403 253.314 700.639 241.346 707.658 229.118C721.684 204.684 734.878 179.153 775.033 148.848L774.431 148.05C734.103 178.484 720.827 204.168 706.791 228.62C699.779 240.835 692.586 252.727 681.734 264.775C670.884 276.821 656.362 289.037 634.686 301.871L635.196 302.731ZM775.033 148.848C783.6 142.384 788.474 140.107 793.332 137.771C798.225 135.418 803.094 133.007 811.591 126.287L810.971 125.503C802.549 132.164 797.749 134.537 792.899 136.87C788.015 139.219 783.074 141.529 774.431 148.05L775.033 148.848ZM811.591 126.287C881.075 71.3022 884.026 61.5736 947.851 0.360895L947.159 -0.360826C883.272 60.9111 880.405 70.5569 810.971 125.503L811.591 126.287ZM-314.813 118.551C-323.712 136.775 -333.201 151.994 -341.005 166.097C-348.797 180.177 -354.9 193.13 -356.925 206.719C-360.985 233.96 -348.637 263.536 -301.576 309.761L-300.875 309.048C-347.889 262.868 -359.921 233.603 -355.936 206.866C-353.939 193.466 -347.913 180.645 -340.13 166.581C-332.359 152.538 -322.826 137.241 -313.914 118.99L-314.813 118.551ZM-301.588 309.749C-292.489 319.282 -285.57 327.792 -279.972 334.643C-274.39 341.472 -270.08 346.708 -266.233 349.607L-265.631 348.808C-269.358 345.999 -273.582 340.881 -279.197 334.01C-284.795 327.16 -291.736 318.622 -300.864 309.059L-301.588 309.749ZM-266.233 349.607C-260.066 354.254 -253.837 354.779 -247.591 353.182C-241.383 351.594 -235.14 347.903 -228.9 344.127C-222.631 340.333 -216.359 336.449 -210.012 334.36C-203.689 332.279 -197.336 331.996 -190.884 335.37L-190.42 334.483C-197.176 330.951 -203.823 331.27 -210.325 333.41C-216.803 335.542 -223.181 339.498 -229.417 343.271C-235.682 347.063 -241.799 350.668 -247.839 352.213C-253.841 353.748 -259.746 353.243 -265.631 348.808L-266.233 349.607ZM-190.884 335.37C-172.626 344.926 -159.792 344.584 -149.538 338.531C-139.354 332.52 -131.819 320.923 -124.008 308.282C-108.33 282.912 -91.4052 253.123 -49.7698 253.177L-49.7686 252.177C-92.037 252.122 -109.232 282.47 -124.859 307.757C-132.7 320.445 -140.113 331.807 -150.046 337.67C-159.908 343.491 -172.357 343.938 -190.42 334.484L-190.884 335.37ZM-49.7698 253.177C-29.0924 253.203 -11.955 269.872 3.42828 294.915C18.7923 319.927 32.2886 353.094 45.7522 385.761C59.2046 418.401 72.6266 450.549 87.8307 473.425C103.018 496.277 120.132 510.094 140.994 505.599L140.783 504.621C120.584 508.974 103.819 495.676 88.6636 472.872C73.5249 450.094 60.1402 418.047 46.6768 385.38C33.2245 352.74 19.6959 319.487 4.2804 294.392C-11.1158 269.328 -28.5123 252.204 -49.7686 252.177L-49.7698 253.177ZM140.994 505.599C183.859 496.362 201.632 470.302 218.875 442.879C236.117 415.459 252.825 386.696 293.516 371.547L293.167 370.61C252.119 385.893 235.253 414.955 218.029 442.347C200.806 469.737 183.223 495.476 140.783 504.621L140.994 505.599ZM293.516 371.547C320.544 361.48 335.034 357.462 349.341 352.933C363.659 348.401 377.764 343.366 403.979 331.28L403.561 330.372C377.382 342.441 363.316 347.46 349.039 351.979C334.752 356.502 320.225 360.532 293.167 370.61L293.516 371.547ZM403.979 331.28C419.381 324.182 428.008 321.816 436.583 319.291C445.183 316.758 453.719 314.067 468.89 306.324L468.435 305.434C453.334 313.141 444.86 315.81 436.3 318.331C427.715 320.86 419.031 323.242 403.561 330.372L403.979 331.28ZM468.89 306.324C512.017 284.322 532.497 269.875 552.356 254.37C572.199 238.877 591.393 222.352 631.993 196.153L631.451 195.313C590.803 221.543 571.566 238.103 551.74 253.582C531.93 269.049 511.504 283.461 468.435 305.434L468.89 306.324ZM631.993 196.153C646.866 186.561 652.733 179.216 658.486 171.757C664.208 164.339 669.811 156.818 684.185 146.771L683.612 145.952C669.114 156.085 663.438 163.699 657.694 171.147C651.981 178.553 646.195 185.804 631.451 195.313L631.993 196.153ZM684.185 146.771C712.34 127.08 726.3 101.196 739.827 74.9137C753.362 48.6158 766.46 21.93 792.864 0.387447L792.232 -0.387377C765.64 21.3084 752.457 48.1896 738.938 74.456C725.411 100.738 711.544 126.416 683.612 145.952L684.185 146.771ZM-357.585 0.224226C-356.829 1.73175 -355.346 3.36419 -353.372 5.10501C-351.39 6.85388 -348.872 8.74736 -346 10.7709C-343.126 12.7952 -339.887 14.9577 -336.46 17.2428C-333.031 19.5293 -329.413 21.9399 -325.773 24.4656C-318.492 29.5184 -311.143 35.0204 -305.088 40.8822C-299.029 46.7488 -294.304 52.941 -292.219 59.3659L-291.268 59.0573C-293.426 52.4063 -298.285 46.0777 -304.393 40.1638C-310.506 34.245 -317.908 28.7065 -325.203 23.644C-328.851 21.1121 -332.477 18.6963 -335.905 16.4109C-339.334 14.1241 -342.562 11.969 -345.424 9.95339C-348.286 7.93695 -350.769 6.068 -352.711 4.35512C-354.662 2.63419 -356.024 1.10554 -356.692 -0.224226L-357.585 0.224226ZM-292.219 59.3659C-289.389 68.0874 -292.282 74.4685 -297.329 82.939C-302.373 91.4063 -309.516 101.879 -314.84 118.619L-313.887 118.922C-308.606 102.316 -301.535 91.9539 -296.47 83.4508C-291.406 74.9509 -288.292 68.2257 -291.268 59.0573L-292.219 59.3659ZM-181.858 183.781C-166.102 194.002 -154.779 199.658 -145.436 202.376C-136.073 205.101 -128.72 204.868 -120.926 203.361C-105.372 200.353 -88.1872 192.321 -49.392 192.473L-49.3881 191.473C-88.3112 191.32 -105.742 199.406 -121.116 202.379C-128.785 203.863 -135.974 204.088 -145.157 201.416C-154.36 198.738 -165.588 193.144 -181.314 182.942L-181.858 183.781ZM-49.3921 192.473C-28.6886 192.558 -11.7139 206.923 3.40771 228.349C18.5211 249.763 31.6851 278.088 44.809 305.843C57.9192 333.569 70.9926 360.734 85.91 379.72C100.829 398.707 117.711 409.656 138.42 404.622L138.184 403.65C118.051 408.544 101.529 397.98 86.6964 379.102C71.8622 360.222 58.8362 333.169 45.713 305.415C32.6032 277.69 19.3995 249.273 4.22473 227.772C-10.942 206.282 -28.1759 191.56 -49.388 191.473L-49.3921 192.473ZM138.42 404.622C152.743 401.143 159.643 394.259 166.421 387.242C173.177 380.248 179.804 373.135 193.625 368.93L193.334 367.974C179.248 372.259 172.468 379.543 165.702 386.547C158.958 393.527 152.223 400.24 138.184 403.65L138.42 404.622ZM193.625 368.93C222.107 360.259 232.969 343.557 243.52 326.304C254.055 309.076 264.276 291.318 291.437 280.117L291.056 279.193C263.567 290.528 253.202 308.553 242.666 325.782C232.145 342.986 221.449 359.414 193.334 367.974L193.625 368.93ZM291.437 280.117C377.546 244.629 380.716 245.196 462.008 199.802L461.521 198.929C380.282 244.293 377.157 243.708 291.056 279.193L291.437 280.117ZM462.008 199.802C500.005 178.59 499.918 176.731 536.818 153.8L536.29 152.951C499.328 175.92 499.495 177.73 461.521 198.929L462.008 199.802ZM536.818 153.8C560.562 139.042 566.133 121.907 580.913 98.0057C595.706 74.0823 619.836 43.1248 680.787 0.409493L680.213 -0.409424C619.164 42.3752 594.935 73.4288 580.062 97.4798C565.176 121.553 559.774 138.355 536.29 152.951L536.818 153.8ZM-48.543 163.552C-27.8338 163.957 -10.8832 175.158 4.18781 191.504C19.2647 207.857 32.3973 229.289 45.4892 250.051C58.5637 270.786 71.6024 290.861 86.4651 304.379C101.352 317.92 118.124 324.93 138.618 319.423L138.358 318.457C118.292 323.85 101.858 317.029 87.1379 303.64C72.3936 290.228 59.4243 270.276 46.3351 249.518C33.2632 228.787 20.0764 207.262 4.92303 190.826C-10.2361 174.384 -27.4262 162.965 -48.5234 162.552L-48.543 163.552ZM138.618 319.423C181.667 307.853 202.828 292.784 223.356 276.029C243.856 259.297 263.691 240.919 304.155 222.613L303.743 221.702C263.141 240.07 243.207 258.536 222.724 275.254C202.27 291.948 181.233 306.934 138.358 318.458L138.618 319.423ZM304.155 222.613C325.859 212.786 335.886 204.757 345.724 196.396C355.535 188.059 365.143 179.406 386.05 168.263L385.58 167.381C364.572 178.577 354.896 187.289 345.077 195.634C335.286 203.955 325.337 211.925 303.743 221.702L304.155 222.613ZM386.051 168.263C396.432 162.728 408.471 160.58 421.36 160.105C434.251 159.63 447.95 160.829 461.648 161.96C475.332 163.09 489.015 164.152 501.815 163.386C514.619 162.619 526.58 160.021 536.814 153.803L536.294 152.948C526.252 159.05 514.471 161.626 501.756 162.388C489.037 163.149 475.425 162.095 461.731 160.964C448.05 159.834 434.286 158.628 421.323 159.106C408.356 159.584 396.148 161.746 385.58 167.381L386.051 168.263ZM-285.372 174.377C-282.621 179.82 -277.731 183.642 -271.232 186.184C-264.739 188.725 -256.612 190.001 -247.323 190.346C-228.745 191.035 -205.398 187.999 -180.903 183.751C-156.43 179.505 -130.686 174.024 -107.454 169.833C-84.1752 165.634 -63.3622 162.718 -48.5613 163.551L-48.5052 162.553C-63.4398 161.712 -84.3628 164.652 -107.632 168.849C-130.948 173.055 -156.563 178.514 -181.074 182.765C-205.562 187.013 -228.821 190.031 -247.286 189.347C-256.518 189.004 -264.52 187.737 -270.868 185.253C-277.209 182.772 -281.869 179.09 -284.48 173.926L-285.372 174.377ZM-48.5614 163.551C-7.27579 165.879 18.7369 187.91 44.6017 206.577C57.5208 215.9 70.4128 224.387 85.1306 229.07C99.8644 233.758 116.402 234.626 136.605 228.767L136.327 227.807C116.307 233.612 99.9727 232.743 85.4338 228.117C70.8787 223.486 58.0966 215.082 45.1869 205.766C19.3941 187.151 -6.86923 164.901 -48.5051 162.553L-48.5614 163.551ZM136.605 228.767C155.265 223.36 165.353 218.503 175.295 213.252C185.221 208.01 194.977 202.391 213.018 195.425L212.658 194.492C194.551 201.484 184.741 207.133 174.828 212.368C164.931 217.594 154.907 222.423 136.327 227.807L136.605 228.767ZM213.018 195.425C261.026 176.901 266.613 175.742 312.79 153.033L312.349 152.135C266.217 174.822 260.67 175.966 212.658 194.492L213.018 195.425ZM312.79 153.033C356.213 131.689 386.244 106.763 415.493 80.5629C444.745 54.3606 473.196 26.9035 513.508 0.417877L512.958 -0.417877C472.568 26.1192 444.05 53.6407 414.826 79.818C385.6 105.998 355.65 130.852 312.349 152.135L312.79 153.033ZM-48.5973 163.548C-8.03262 168.785 17.8788 169.347 43.61 165.529C69.324 161.714 94.8417 153.524 134.594 141.299L134.3 140.343C94.5139 152.579 69.0837 160.739 43.4632 164.54C17.8598 168.339 -7.94986 167.787 -48.4692 162.556L-48.5973 163.548ZM134.594 141.299C177.857 128.002 208.53 131.544 238.491 133.115C268.481 134.686 297.71 134.272 337.909 112.953L337.441 112.07C297.466 133.27 268.443 133.683 238.543 132.116C208.614 130.547 177.76 126.985 134.3 140.343L134.594 141.299ZM337.909 112.953C347.345 107.949 355.848 99.7572 363.851 89.9797C371.856 80.2006 379.386 68.8017 386.861 57.3587C394.341 45.9067 401.765 34.4118 409.575 24.4003C417.386 14.3875 425.557 5.89356 434.514 0.426792L433.993 -0.426792C424.885 5.13185 416.627 13.7347 408.786 23.7853C400.945 33.8372 393.496 45.3722 386.023 56.8119C378.545 68.2606 371.043 79.6151 363.078 89.3463C355.111 99.0791 346.707 107.155 337.441 112.07L337.909 112.953ZM115.907 0.500035C144.671 0.500017 165.71 17.4687 185.368 31.9418C195.173 39.1606 204.65 45.7662 214.54 49.225C224.46 52.694 234.795 52.9985 246.291 47.6408L245.869 46.7344C234.633 51.9704 224.571 51.6734 214.871 48.281C205.141 44.8785 195.776 38.363 185.961 31.1365C166.378 16.7189 145.063 -0.499983 115.907 -0.499965V0.500035ZM246.291 47.6408C265.163 38.8457 287.966 32.1865 310.639 25.1505C333.289 18.1215 355.806 10.7174 374.015 0.435386L373.524 -0.435386C355.421 9.78659 333.003 17.1632 310.343 24.1954C287.705 31.2206 264.818 37.9032 245.869 46.7344L246.291 47.6408ZM239.942 753.208C246.198 751.486 253.049 747.269 260.228 743.324C267.449 739.356 275.043 735.635 282.912 734.753L282.8 733.759C274.717 734.665 266.97 738.478 259.747 742.447C252.482 746.439 245.785 750.563 239.677 752.244L239.942 753.208Z" fill="#211E1E"/>
</svg>
