<svg width="768" height="1024" fill="none" xmlns="http://www.w3.org/2000/svg"><path opacity=".05" d="M106.891 1027.25l.321-.39-.034-.02-.037-.03-.25.44zm217.641-29.808l-.154.476.154-.476zm6.968 3.058l.152-.48-.152.48zm-165.454-58.188l.222-.448-.222.448zM346 876.02l-.15.477.014.004.015.004.121-.485zm1131.31 117.448l.14.482.02-.008.03-.01-.19-.464zm2.66-1.007l.18.464-.18-.464zm201.88-12.608l.23.443-.23-.443zm190.4-52.412l-.27-.416.27.416zm17.41-10.324l.29.414-.29-.414zm-1420.4-5.793l-.067.496.035.005.035-.001-.003-.5zm479.263-.377l.069.495-.069-.495zm179.557 64.623l-.11-.487.11.487zm100.63-11.349l.13.481-.13-.481zm71.18-17.392l-.15-.475.15.475zm159.12-83.455l-.21-.457.21.457zm214.23 21.979l-.25-.435.25.435zm11.21-5.18l-.25-.433.25.433zm211.96-71.998l-.3-.4.3.4zM123.93 870.137l-.241.438.241-.438zm204.284-55.271l-.137.481.137-.481zm508.055-11.069l-.057-.496.057.496zm107.542 32.67l-.085-.493.085.493zm177.649 40.18l-.13-.483.13.483zm143.27-106.099l.17.469-.17-.469zm147.74-27.555l.21.452-.21-.452zm26.63-9.226l-.22-.448.22.448zm206.52-22.195l.27.421-.27-.421zm120.27-14.587l.3.405v-.001l-.3-.404zm127.66-16.349l.32.385-.32-.385zM303.923 781.914l.133-.482-.133.482zm155.186 31.631l.056-.497-.056.497zm168.298-14.148l.019.5-.019-.5zm166.949-65.141v-.5h-.028l-.028.003.056.497zm377.734-78.017l-.17-.469.17.469zm60.64-43.76l-.2-.461.2.461zm160.31-62.627l.24.439-.24-.439zm123.07 1.835l.27.422-.27-.422zm107.5 6.744l-.29-.408.29.408zm223.08-35.126l-.33-.374.33.374zm21.54-17.123l.33.369-.33-.369zM23.35 471.099l.474.157-.475-.157zm9.072 166.677l-.465.185.465-.185zm76.626 129.75l.278-.416-.278.416zm160.768-6.223l-.157.475.157-.475zm39.223-1.205l-.132.483.132-.483zm160.239 1.997l-.046.497.046-.497zm320.388 22.122l.072.495-.072-.495zm221.834-31.491l.03.499-.03-.499zm85.98-100.562l-.16-.472.16.472zm121.26-140.632l.21.453-.21-.453zm84.61-28.22l.24.44-.24-.44zm86.96-16.619l.26.427-.26-.427zm264.7 34.694l.31.396v-.001l-.31-.395zm6.99-4.928l-.31-.394v.001l.31.393zm200.51-111.279l-.35-.351.35.351zm18.07-27.429l.36.345-.36-.345zm35.89-250.149l-.4-.293v.001l.4.292zM42.155 469.355l-.49-.097.49.097zm41.042 174.05l.383-.322-.383.322zm34.147 39.569l-.311.392.311-.392zm192.131 11.853l.132-.482-.132.482zm158.712-6.655l.036-.499-.036.499zm159.22 43.118l.033.499-.033-.499zm168.045 18.268l.088.492-.088-.492zm178.486.234l-.138-.48.138.48zm121.602-180.165l-.19-.466.19.466zm43.31-45.415l.2.458-.2-.458zm73.06-105.218l.24.443-.24-.443zM1410.1 400.9l.28.416-.28-.416zm22.4-8.31l.28.413v-.001l-.28-.412zm277.34 50.775l.33.38v-.001l-.33-.379zm68.7-49.714l.34.365-.34-.365zm25.61-199.086l-.37-.332.37.332zM114.907 603.674l.366-.34-.366.34zm70.459 27.249l-.261.426.261-.426zm126.22-8.076l.134-.481-.134.481zm156.764-38.741l.027-.5-.027.5zm180.054 91.439l.078.494-.078-.494zm316.551 17.501l.058.497.051-.006.048-.016-.157-.475zm135.475-177.361l-.2-.457.2.457zm121.65-147.233l-.24-.434.24.434zm58.1-15.466l-.26-.431.26.431zm170.42 0l.3.403-.3-.403zm160.86 16.007l.32.384-.32-.384zm101.29-52.051l.35.364-.35-.364zm27.22-168.493l.37.336-.37-.336zM116.2 300.665l.498.041-.498-.041zM84.343 480.416l-.485.122.485-.122zm9.278 25.72l.462-.192v-.001l-.462.193zm219.62 44.786l.142-.48-.142.48zm118.179-54.444l-.043.498h.001l.042-.498zm253.906 280.146l-.062-.496-.039.004-.038.011.139.481zm138.607-62.286l-.123-.485.123.485zm168.216-95.376l-.174-.468.174.468zm121.981-180.885l.22.45-.22-.45zm5.69-3.129l.22.449-.22-.449zm129.48-132.629l.27.423-.27-.423zm160.93 2.842l-.3-.403.3.403zm66.75-31.835l-.31-.391.31.391zm173.16-88.761l-.36-.357v.001l.36.356zM154.362 422.5l-.38.325.38-.325zm162.575 51.818l-.158.474.158-.474zm147.742-67.556l-.01.5.01-.5zM823.58 606.389l-.141-.48.141.48zm135.953-62.969l.182.465-.182-.465zm34.838-15.882l-.192-.461.192.461zm138.279-149.302l.24.441-.24-.441zm101.64-101.818l.28.42v-.001l-.28-.419zm38.99-39.551l.28.411-.28-.411zM226.574 174.151l-.466-.182-.004.012-.005.012.475.158zm95.528 222.954l-.185.465.185-.465zm11.48 2.284l-.163.473.001.001.162-.474zm129.112-76.062l.004-.5-.004.5zM652.223 598.8l-.091-.491.091.491zm36.003-10.737l.106.488h.001l-.107-.488zm133.515-80.74l-.158-.474.158.474zm163.351-96.638l-.211-.454.211.454zm114.978-79.552l-.24-.437.24.437zm46.37-28.832l.26.43-.26-.43zm139.79-153.852l-.3-.399.3.399zm36.55-22.554l.31.392-.31-.392zM210.274 309.404l.362-.345-.006-.006-.005-.005-.351.356zm35.294 39.803l-.301.4.301-.4zm75.28-14.28l.232-.443v-.001l-.232.444zm140.883-82.25v-.5.5zM652.388 505.11l-.105-.489.105.489zm152.453-134.032l.175.469-.175-.469zm110.429-40.252l-.209-.454.209.454zm64.893-24.947l-.228-.445.228.445zm163.057-110.146l-.27-.42.27.42zm52.18-49.372l.28.41-.28-.41zm-975.643-87.15l.475-.154-.475.155zM462.11 191.974l.002-.5-.002.5zm187.692 212.163l-.118-.486.118.486zm55.178-35.684l.145.478-.145-.478zm97.766-88.797l-.19-.462.19.462zm170.519-80.289l-.244-.437.244.437zm74.785-45.991l.27.425-.27-.425zM649.988 318.94l.13.483-.13-.483zm165.461-96.782l.206.455-.206-.455zm81.866-54.336l.235.441h.001l-.236-.441zm-249.349 60.465l-.139-.48.139.48zm76.372-33.328l-.18-.467.18.467zm99.732-42.375l-.221-.449.221.449zm-178.123-11.763l-.147-.478.147.478zm203.228-28.31l.234.442-.234-.442zM757.58 47.188l-.211-.454.211.454zm-6.403 705.056a.5.5 0 10.265.964l-.265-.964zM-.287 1058.89c3.333 2.34 4.836 3.12 6.344 3.88 1.477.75 2.954 1.49 6.27 3.74l.561-.83c-3.36-2.28-4.877-3.04-6.378-3.8-1.471-.74-2.933-1.5-6.223-3.81l-.574.82zm11.478-19c3.929 2.74 7.02 4.23 9.703 5.07 2.683.85 4.937 1.04 7.158 1.21 2.221.18 4.404.33 7.025 1.06 2.619.74 5.694 2.07 9.658 4.62l.54-.85c-4.03-2.59-7.196-3.96-9.927-4.73-2.729-.77-5.005-.92-7.219-1.09-2.213-.17-4.369-.36-6.935-1.17-2.566-.81-5.566-2.24-9.432-4.94l-.571.82zm-9.855-17.42c10.258 7.41 19.308 9.88 27.8 9.77 8.47-.1 16.347-2.77 24.232-5.53 7.907-2.78 15.821-5.65 24.47-6.27 8.628-.63 18.004.98 28.802 7.24l.501-.87c-10.97-6.35-20.545-8.01-29.374-7.37-8.807.63-16.853 3.56-24.73 6.32-7.9 2.77-15.63 5.38-23.913 5.48-8.258.11-17.102-2.28-27.202-9.58l-.586.81zm105.234 5.16c24.135 20.21 45.631 24.54 64.34 28.27 18.701 3.72 34.512 6.82 47.632 24.4l.802-.6c-13.373-17.92-29.554-21.07-48.239-24.78-18.676-3.72-39.96-8.02-63.893-28.06l-.642.77zm74.187-79.181c40.449 19.779 54.934 25.188 70.043 29.133 15.084 3.939 30.716 6.403 73.578 20.336l.309-.951c-42.898-13.945-58.602-16.427-73.635-20.352-15.008-3.919-29.421-9.292-69.856-29.064l-.439.898zm143.621 49.469c2.096.679 2.727 1.083 3.366 1.484.705.442 1.416.878 3.604 1.578l.304-.96c-2.106-.667-2.741-1.067-3.377-1.466-.703-.44-1.409-.881-3.589-1.587l-.308.951zm6.97 3.062c39.004 12.43 54.143 32.2 70.876 48.98 8.373 8.39 17.152 16.04 29.509 21.58 12.355 5.54 28.252 8.96 50.849 8.96v-1c-22.496 0-38.245-3.4-50.44-8.87-12.194-5.47-20.871-13.02-29.21-21.38-16.692-16.73-32.002-36.71-71.28-49.23l-.304.96zM-.278 931.915c10.888 7.301 23.846 10.16 37.843 10.728 13.993.567 29.069-1.157 44.21-3.056 15.158-1.901 30.379-3.977 44.727-4.14 14.345-.163 27.765 1.589 39.322 7.313l.444-.896c-11.757-5.823-25.357-7.581-39.778-7.417-14.417.164-29.705 2.25-44.84 4.148-15.149 1.9-30.146 3.612-44.045 3.048-13.894-.563-26.648-3.398-37.326-10.558l-.557.83zm166.102 10.845c20.251 10.036 36.352 9.203 50.434 2.681 14.033-6.5 26.023-18.638 38.104-31.091 12.11-12.482 24.32-25.291 38.849-33.314 14.495-8.004 31.306-11.245 52.639-4.539l.3-.954c-21.61-6.793-38.703-3.51-53.422 4.618-14.686 8.109-27.003 21.041-39.083 33.493-12.109 12.481-23.972 24.471-37.808 30.88-13.787 6.385-29.57 7.241-49.569-2.67l-.444.896zm180.055-66.255c67.392 16.849 96.526 67.649 119.017 114.403 11.231 23.352 20.828 45.742 32.709 62.272 11.903 16.55 26.165 27.32 46.753 27.32v-1c-20.151 0-34.146-10.5-45.941-26.91-11.814-16.43-21.354-38.7-32.62-62.116-22.504-46.781-51.81-97.972-119.676-114.939l-.242.97zm927.541 203.975c42.61-12.3 60.97-24.84 84.98-38.83 23.99-13.97 53.68-29.45 119.05-47.7l-.27-.963c-65.45 18.273-95.23 33.783-119.28 47.803-24.03 14-42.28 26.46-84.76 38.73l.28.96zm204.08-86.548c.64-.258.97-.377 1.3-.497.34-.122.69-.246 1.35-.51l-.37-.929c-.64.258-.98.377-1.31.498-.35.123-.69.247-1.34.511l.37.927zm2.65-1.007c42.01-16.756 72.26-9.44 102.14-3.136 29.91 6.311 59.45 11.601 99.79-9.493l-.46-.887c-40.03 20.921-69.27 15.699-99.13 9.401-29.88-6.304-60.39-13.691-102.71 3.186l.37.929zm201.93-12.629c39.08-20.442 68.19-21.325 96.79-23.196 28.64-1.873 56.76-4.737 93.66-29.242l-.55-.833c-36.69 24.363-64.6 27.209-93.17 29.077-28.61 1.871-57.91 2.759-97.19 23.307l.46.887zm190.45-52.438c3.83-2.54 6.25-3.812 8.68-5.103 2.45-1.297 4.89-2.611 8.74-5.224l-.57-.827c-3.8 2.584-6.21 3.879-8.63 5.167-2.44 1.295-4.9 2.586-8.77 5.154l.55.833zm17.42-10.327c10.44-7.113 20.32-13.057 29.79-18.139l-.48-.881c-9.49 5.098-19.4 11.061-29.88 18.193l.57.827zM148.968 878.979c26.678 13.926 49.683 8.875 72.958 2.915 23.29-5.964 46.838-12.828 74.89-2.887l.334-.942c-28.382-10.059-52.228-3.092-75.472 2.86-23.26 5.956-45.93 10.905-72.247-2.832l-.463.886zm536.383-81.501c20.888-1.019 42.543 6.269 64.614 17.649 22.071 11.379 44.501 26.817 66.945 42.048 22.431 15.222 44.875 30.236 66.929 40.718 22.054 10.482 43.775 16.46 64.753 13.549l-.137-.99c-20.701 2.872-42.212-3.018-64.186-13.462-21.975-10.444-44.357-25.414-66.797-40.642-22.427-15.219-44.913-30.697-67.048-42.11-22.135-11.412-43.977-18.791-65.122-17.759l.049.999zm263.241 113.964c41.957-5.821 65.928 14.913 89.898 34.905 11.97 9.987 23.96 19.802 38.17 25.921 14.23 6.128 30.67 8.544 51.53 3.79l-.22-.975c-20.66 4.707-36.88 2.311-50.91-3.733-14.06-6.054-25.95-15.773-37.93-25.771-23.95-19.977-48.237-41.015-90.675-35.127l.137.99zm179.598 64.616c24.54-5.589 37.53-4.956 50.47-4.657 12.98.3 25.89.261 50.18-6.699l-.27-.961c-24.17 6.925-36.98 6.958-49.89 6.66-12.96-.299-26.05-.935-50.71 4.682l.22.975zm100.65-11.356c17.58-5.038 26.66-6.509 35.71-8.159 9.07-1.653 18.09-3.484 35.5-9.239l-.31-.95c-17.36 5.738-26.33 7.559-35.37 9.205-9.05 1.651-18.18 3.129-35.8 8.182l.27.961zm71.21-17.398c42.69-14.109 62-25.889 80.9-38.7 18.87-12.788 37.29-26.583 78.26-44.773l-.41-.914c-41.06 18.231-59.55 32.072-78.41 44.86-18.83 12.765-38.06 24.502-80.65 38.577l.31.95zm159.16-83.473c40.08-17.783 74.28-1.511 108.22 13.921 33.88 15.407 67.52 29.974 106.06 8.035l-.5-.869c-38.05 21.659-71.22 7.35-105.15-8.076-33.87-15.4-68.49-31.917-109.04-13.925l.41.914zm214.28 21.956c2.49-1.419 4-1.975 5.53-2.542 1.56-.576 3.12-1.162 5.68-2.639l-.5-.866c-2.49 1.437-4 2.001-5.52 2.567-1.55.575-3.12 1.152-5.69 2.611l.5.869zm11.21-5.181c43.34-25.063 76.19-28.013 108.3-32.213 32.14-4.205 63.51-9.662 103.71-39.818l-.6-.8c-40 30.007-71.17 35.431-103.24 39.626-32.1 4.2-65.13 7.166-108.67 32.339l.5.866zm212.01-72.031c8.63-6.471 16.07-10.643 22.99-13.794l-.41-.91c-6.98 3.179-14.49 7.388-23.18 13.904l.6.8zM-.339 840.368c20.067 18.48 39.286 19.448 59.358 19.112 20.065-.335 40.947-1.96 64.67 11.095l.482-.876c-23.996-13.205-45.158-11.553-65.168-11.219-20.002.334-38.89-.636-58.664-18.848l-.678.736zm124.028 30.207c19.73 10.855 37.04 11.269 53.24 6.151 16.165-5.107 31.208-15.719 46.429-26.854 30.507-22.316 61.766-46.732 104.719-34.525l.273-.962c-43.498-12.362-75.167 12.431-105.582 34.68-15.24 11.148-30.156 21.657-46.14 26.707-15.947 5.039-32.973 4.646-52.457-6.073l-.482.876zm204.388-55.228c20.453 5.812 34.17 14.009 44.567 23.203 10.407 9.202 17.502 19.412 24.72 29.311 7.21 9.889 14.54 19.462 25.389 27.267 10.857 7.811 25.207 13.832 46.44 16.692l.134-.991c-21.101-2.842-35.289-8.813-45.99-16.512-10.708-7.705-17.958-17.16-25.165-27.045-7.199-9.874-14.361-20.182-24.866-29.471-10.515-9.298-24.367-17.565-44.956-23.416l-.273.962zm141.186 96.477c35.612-.19 52.885-25.439 65.723-51.347 6.442-13 11.741-26.099 17.716-36.492 5.973-10.389 12.509-17.855 21.29-19.698l-.206-.979c-9.233 1.938-15.959 9.756-21.95 20.178-5.99 10.418-11.359 23.657-17.746 36.547-12.819 25.87-29.846 50.604-64.833 50.791l.006 1zm284.759-121.893c15.101-1.204 27.996 3.216 40.986 7.55 12.97 4.326 26.031 8.563 41.318 6.813l-.114-.993c-15.04 1.721-27.904-2.438-40.887-6.769-12.962-4.324-26.047-8.821-41.382-7.598l.079.997zm82.304 14.363c13.336-1.524 23.354.32 31.713 3.785 8.373 3.471 15.101 8.575 21.873 13.627 6.758 5.043 13.56 10.034 22.02 13.17 8.474 3.142 18.583 4.413 31.965 2.083l-.171-.985c-13.225 2.302-23.153 1.039-31.447-2.035-8.307-3.08-15.002-7.985-21.769-13.034-6.754-5.039-13.58-10.223-22.088-13.75-8.523-3.533-18.713-5.397-32.21-3.854l.114.993zm107.571 32.665c21.058-3.663 37.467-1.611 51.531 3.171 14.082 4.788 25.822 12.315 37.582 19.65 11.73 7.326 23.48 14.459 37.49 18.358 14.03 3.902 30.29 4.558 51.09-1.008l-.26-.966c-20.64 5.523-36.72 4.861-50.56 1.01-13.86-3.855-25.49-10.912-37.23-18.242-11.74-7.321-23.58-14.917-37.79-19.749-14.224-4.837-30.803-6.901-52.024-3.209l.171.985zm177.693 40.171c21.3-5.693 35.79-13.269 46.84-21.925 11.03-8.653 18.6-18.369 26.05-28.292 7.46-9.93 14.8-20.06 25.41-29.635 10.6-9.569 24.48-18.593 45.01-26.261l-.35-.937c-20.64 7.709-34.63 16.797-45.33 26.456-10.69 9.652-18.09 19.865-25.54 29.776-7.45 9.918-14.95 19.541-25.87 28.106-10.92 8.561-25.29 16.082-46.48 21.746l.26.966zm143.31-106.113c35.9-13.411 55.41-12.082 74.66-11.5 9.64.291 19.23.397 30.77-1.636 11.53-2.033 24.98-6.201 42.35-14.436l-.43-.903c-17.31 8.204-30.67 12.339-42.1 14.354-11.42 2.014-20.93 1.912-30.56 1.621-19.29-.583-38.96-1.916-75.04 11.563l.35.937zm147.78-27.572c6.51-3.088 9.88-3.775 13.25-4.495 3.42-.73 6.84-1.492 13.39-4.735l-.44-.896c-6.46 3.196-9.79 3.935-13.16 4.653-3.41.728-6.86 1.435-13.47 4.57l.43.903zm26.64-9.23c42.96-21.214 74.19-13.878 104.92-7.643 15.36 3.118 30.62 5.966 47.12 4.785 16.5-1.183 34.22-6.399 54.53-19.364l-.54-.843c-20.17 12.881-37.73 18.039-54.07 19.209-16.34 1.171-31.48-1.648-46.85-4.767-30.73-6.237-62.27-13.65-105.55 7.727l.44.896zm206.57-22.222c21.76-13.893 41.12-9.937 60.45-6.252 19.33 3.683 38.62 7.091 59.85-8.351l-.59-.809c-20.85 15.17-39.75 11.86-59.07 8.178-19.31-3.681-39.05-7.738-61.18 6.391l.54.843zm120.3-14.604c20.71-15.073 42.45-10.983 64.2-7.142 21.69 3.832 43.38 7.414 63.48-9.226l-.64-.77c-19.7 16.311-40.93 12.851-62.67 9.012-21.68-3.83-43.86-8.041-64.96 7.318l.59.808zm127.68-16.368c11.01-9.121 19.37-17.779 26.02-26.19l-.79-.62c-6.6 8.351-14.9 16.96-25.87 26.04l.64.77zM31.245 857.413c19.412 11.523 40.797 11.018 63.24 4.226 22.432-6.79 45.99-19.881 69.799-33.616 23.831-13.748 47.917-28.144 71.469-37.611 23.55-9.466 46.491-13.972 68.037-8.016l.266-.964c-21.853-6.04-45.04-1.448-68.676 8.053-23.634 9.5-47.794 23.94-71.595 37.671-23.823 13.744-47.285 26.775-69.59 33.525-22.29 6.747-43.357 7.2-62.44-4.128l-.51.86zm272.545-75.017c40.958 11.326 58.635 16.845 76.631 20.726 18.007 3.882 36.341 6.127 78.631 10.919l.113-.993c-42.305-4.794-60.585-7.034-78.533-10.904-17.959-3.872-35.577-9.375-76.576-20.712l-.266.964zm155.262 31.645c41.696 4.729 62.869 1.348 84.101-3.298 21.191-4.636 42.401-10.522 84.258-10.846l-.007-1c-41.975.325-63.28 6.234-84.464 10.869-21.142 4.627-42.204 7.996-83.775 3.282l-.113.993zm590.718-99.544c24.63 2.464 41.72 1.164 54.23-2.468 12.52-3.637 20.42-9.604 26.68-16.42 3.13-3.401 5.84-7.01 8.51-10.63 2.68-3.626 5.31-7.258 8.28-10.737 5.93-6.944 13.2-13.263 24.79-17.534l-.34-.938c-11.79 4.344-19.2 10.783-25.21 17.823-3 3.512-5.65 7.178-8.32 10.792-2.67 3.619-5.36 7.19-8.45 10.548-6.16 6.701-13.9 12.557-26.22 16.136-12.34 3.583-29.29 4.89-53.85 2.434l-.1.994zm122.49-57.789c9.27-3.413 15.45-6.92 20.08-10.51 4.63-3.59 7.69-7.249 10.69-10.922 3.01-3.674 5.97-7.358 10.43-11.075 4.46-3.716 10.43-7.477 19.46-11.26l-.39-.923c-9.1 3.816-15.17 7.625-19.71 11.414-4.54 3.788-7.56 7.544-10.56 11.211-3 3.667-6 7.249-10.53 10.764-4.53 3.515-10.62 6.977-19.81 10.363l.34.938zm60.66-43.767c42.86-17.956 62.53-22.453 81.71-28.044 19.2-5.601 37.87-12.289 78.65-34.606l-.48-.877c-40.73 22.288-59.33 28.945-78.45 34.523-19.17 5.587-38.9 10.1-81.82 28.081l.39.923zm160.36-62.65c24.09-13.187 42.94-5.432 61.79 2.056 9.4 3.738 18.83 7.418 28.85 8.29 10.04.874 20.66-1.073 32.46-8.528l-.54-.845c-11.61 7.338-22.01 9.232-31.83 8.377-9.85-.858-19.15-4.477-28.57-8.223-18.83-7.481-38.1-15.437-62.64-2.004l.48.877zm123.1 1.818c18.08-11.429 35.83-3.646 53.74 4.084 17.81 7.686 35.79 15.322 53.78 2.647l-.58-.817c-17.47 12.307-34.9 4.979-52.8-2.749-17.81-7.684-36.08-15.765-54.68-4.01l.54.845zm107.52 6.731c38.52-27.134 76.41-20.27 113.69-14.382 37.25 5.883 73.89 10.784 109.43-20.779l-.66-.748c-35.16 31.225-71.36 26.423-108.62 20.539-37.23-5.879-75.53-12.846-114.42 14.553l.58.817zm223.12-35.161c4.79-4.253 7.79-6.35 10.78-8.474 3.01-2.133 6-4.291 10.76-8.654l-.67-.737c-4.72 4.324-7.68 6.455-10.67 8.576-3 2.129-6.03 4.251-10.86 8.541l.66.748zm21.54-17.128c38.03-34.853 32.02-77.796 24.76-121.575-7.27-43.857-15.8-88.558 16.53-127.563l-.77-.638c-32.67 39.414-24 84.608-16.75 128.365 7.27 43.835 13.14 86.227-24.44 120.674l.67.737zM-1 300.667c.22 41.492 13.254 62.986 22.657 84.612 4.698 10.804 8.49 21.639 9.371 35.05.88 13.413-1.15 29.438-8.153 50.613l.95.314c7.032-21.263 9.092-37.419 8.2-50.992-.89-13.576-4.732-24.532-9.451-35.384C13.144 363.191.218 341.905 0 300.662l-1 .005zm23.875 170.275c-12.476 37.705-17.335 61.651-15.49 85.099 1.842 23.435 10.379 46.33 24.572 81.92l.93-.371C18.68 601.973 10.21 579.22 8.38 555.963c-1.827-23.243 2.977-47.033 15.443-84.707l-.95-.314zm9.082 167.019c6.097 15.279 10.388 28.658 14.285 40.736 3.895 12.073 7.4 22.86 11.92 32.92 9.057 20.154 22.176 37.366 50.609 56.325l.555-.832c-28.29-18.864-41.278-35.934-50.251-55.902-4.494-10.002-7.983-20.736-11.882-32.818-3.896-12.076-8.196-25.485-14.307-40.8l-.929.371zm76.814 129.981c14.783 9.858 28.062 13.014 40.723 12.527 12.64-.486 24.634-4.602 36.834-9.22 24.427-9.246 49.751-20.522 83.331-9.471l.313-.95c-33.968-11.179-59.629.261-83.998 9.486-12.2 4.618-24.057 8.677-36.518 9.156-12.441.478-25.514-2.613-40.13-12.36l-.555.832zm160.888-6.164c4.782 1.573 8.463 1.961 11.6 1.725 3.133-.236 5.696-1.092 8.215-1.959 2.526-.869 5.003-1.747 8.041-2.094 3.03-.345 6.639-.163 11.392 1.131l.263-.965c-4.861-1.323-8.598-1.521-11.768-1.159-3.164.361-5.742 1.278-8.254 2.142-2.518.866-4.972 1.682-7.963 1.907-2.986.224-6.535-.139-11.213-1.678l-.313.95zm39.248-1.197c40.957 11.143 59.959 9.69 79.305 6.418 19.275-3.261 38.832-8.312 81.02-4.407l.092-.995c-42.334-3.919-62.009 1.156-81.279 4.416-19.2 3.247-38.057 4.708-78.875-6.397l-.263.965zm160.325 2.011c41.579 3.841 60.125 13.895 78.769 22.633 9.338 4.377 18.715 8.431 31.004 11.197 12.287 2.764 27.467 4.236 48.421 3.475l-.037-.999c-20.889.758-35.979-.71-48.165-3.452-12.183-2.741-21.483-6.76-30.799-11.126-18.664-8.748-37.34-18.866-79.101-22.723l-.092.995zm158.194 37.305c84.071-3.058 79.086-3.043 162.312-15.185l-.144-.99c-83.198 12.139-78.177 12.119-162.205 15.176l.037.999zm162.312-15.185c77.473-11.307 85.241-7.588 164.52-7.588v-1c-79.237 0-87.1-3.722-164.664 7.598l.144.99zm164.52-7.588c10.076 0 17.313-1.428 22.856-3.606 5.548-2.18 9.371-5.1 12.626-8.038 6.519-5.885 10.65-11.688 21.79-12.255l-.06-.998c-11.571.589-16.003 6.735-22.4 12.51-3.202 2.891-6.924 5.729-12.322 7.85-5.401 2.122-12.509 3.537-22.49 3.537v1zm57.272-23.899c17.74-.904 26.98-5.869 32.03-13.398 5.02-7.469 5.82-17.372 6.99-27.865 1.17-10.544 2.71-21.774 9.05-32.168 6.34-10.377 17.5-19.979 38.05-27.158l-.33-.944c-20.71 7.237-32.09 16.963-38.57 27.581-6.47 10.603-8.02 22.036-9.19 32.579-1.18 10.594-1.98 20.2-6.83 27.418-4.8 7.159-13.66 12.061-31.26 12.957l.06.998zm86.12-100.589c21.43-7.487 34.65-17.666 43.69-29.343 9.03-11.663 13.87-24.792 18.57-38.109 4.7-13.334 9.27-26.855 17.76-39.44 8.48-12.57 20.89-24.223 41.28-33.759l-.43-.906c-20.55 9.61-33.09 21.379-41.68 34.105-8.57 12.711-13.18 26.36-17.88 39.668-4.7 13.325-9.49 26.309-18.41 37.829-8.9 11.506-21.96 21.579-43.23 29.011l.33.944zm121.3-140.651c22.2-10.387 32.48-11.627 42.63-13.172 10.22-1.557 20.3-3.421 42.01-15.061l-.48-.881c-21.59 11.581-31.56 13.412-41.69 14.953-10.2 1.554-20.58 2.813-42.9 13.255l.43.906zm84.64-28.233c10.07-5.405 18.05-7.652 24.96-8.365 6.91-.713 12.78.107 18.67.873 5.88.766 11.79 1.477 18.69.493 6.91-.986 14.79-3.665 24.66-9.633l-.52-.855c-9.78 5.912-17.53 8.534-24.28 9.498-6.76.963-12.54.271-18.43-.494-5.87-.765-11.85-1.603-18.9-.876-7.05.728-15.15 3.02-25.33 8.478l.48.881zm86.98-16.632c21.59-13.059 43.85-13.585 66.39-7.959 22.56 5.631 45.36 17.413 68.02 28.933 22.63 11.506 45.12 22.752 66.98 27.213 21.89 4.467 43.17 2.137 63.36-13.524l-.62-.791c-19.9 15.446-40.87 17.758-62.54 13.335-21.71-4.429-44.07-15.606-66.73-27.124-22.62-11.505-45.53-23.348-68.23-29.012-22.71-5.67-45.26-5.162-67.15 8.074l.52.855zm264.75 34.662a38.534 38.534 0 013.46-2.43c.93-.592 1.86-1.191 3.53-2.5l-.62-.786c-1.63 1.281-2.53 1.861-3.45 2.442-.92.591-1.86 1.185-3.54 2.485l.62.789zm6.99-4.929c42.34-33.188 73.51-41.827 103.58-51.755 30.12-9.943 59.12-21.172 96.98-59.567l-.71-.702c-37.71 38.243-66.55 49.406-96.58 59.32-30.08 9.928-61.39 18.61-103.89 51.916l.62.788zm200.56-111.322c5.48-5.556 7.37-9.678 9.22-13.786 1.82-4.069 3.6-8.117 8.85-13.649l-.72-.689c-5.37 5.655-7.21 9.827-9.05 13.928-1.82 4.062-3.65 8.061-9.01 13.494l.71.702zm18.07-27.435c37.25-39.231 30.42-80.236 22.26-122.122-8.17-41.922-17.66-84.725 13.68-128.079l-.81-.585c-31.63 43.752-22.01 86.994-13.85 128.855 8.16 41.897 14.86 82.413-22 121.242l.72.689zm35.94-250.2c1.38-1.906 2.29-3.167 3.02-4.195l-.81-.579c-.73 1.023-1.64 2.28-3.02 4.187l.81.587zM-1 194.959c0 43.279 14.954 90.408 27.737 137.39 12.797 47.031 23.425 93.926 14.927 136.909l.981.194c8.549-43.242-2.15-90.352-14.943-137.366C14.897 285.024 0 238.067 0 194.959h-1zm42.664 274.299c-7.573 38.345-9.412 67.573-3.278 94.423 6.135 26.856 20.232 51.28 44.428 80.046l.766-.644c-24.142-28.7-38.133-52.982-44.22-79.625-6.087-26.649-4.278-55.714 3.285-94.007l-.98-.193zm41.15 174.469c7.956 9.463 11.6 15.446 15.737 21.067 4.142 5.627 8.726 10.812 18.482 18.572l.622-.783c-9.691-7.708-14.212-12.83-18.298-18.381-4.09-5.557-7.796-11.625-15.777-21.119l-.766.644zm34.219 39.639c17.659 14.043 33.039 20.326 47.57 22.198 14.52 1.871 28.144-.67 42.263-4.193 28.243-7.048 58.538-18.035 102.478-6.062l.263-.964c-44.24-12.056-74.808-.975-102.984 6.056-14.091 3.516-27.565 6.017-41.892 4.171-14.317-1.845-29.532-8.037-47.076-21.989l-.622.783zm192.311 11.943c20.405 5.562 35.282 7.551 47.443 7.492 12.166-.06 21.591-2.17 31.078-4.776 18.933-5.202 38.163-12.396 80.286-9.354l.072-.998c-42.309-3.055-61.684 4.184-80.623 9.388-9.449 2.596-18.777 4.681-30.818 4.74-12.045.058-26.829-1.911-47.175-7.456l-.263.964zm158.807-6.638c41.599 3.004 60.447 15.102 79.373 25.805 9.478 5.36 18.994 10.382 31.38 13.714 12.386 3.332 27.617 4.969 48.536 3.599l-.065-.997c-20.833 1.364-35.952-.269-48.212-3.568-12.26-3.298-21.687-8.268-31.147-13.618-18.951-10.717-37.961-22.912-79.793-25.933l-.072.998zm159.289 43.118c41.995-2.754 63.175 5.535 84.273 12.663 10.563 3.569 21.123 6.854 34.246 8.301 13.124 1.447 28.79 1.054 49.581-2.703l-.177-.984c-20.715 3.743-36.283 4.127-49.295 2.693-13.012-1.435-23.488-4.691-34.035-8.254-21.123-7.136-42.458-15.481-84.658-12.713l.065.997zm168.1 18.261c42.243-7.635 66.122-1.646 89.817 3.298 23.752 4.956 47.29 8.853 88.719-3.075l-.276-.961c-41.22 11.867-64.581 7.994-88.239 3.057-23.715-4.948-47.755-10.974-90.198-3.303l.177.984zm178.536.223c42.854-12.33 52.724-49.588 62.184-87.475 9.49-37.988 18.58-76.619 59.46-92.706l-.37-.931c-41.43 16.306-50.6 55.518-60.06 93.395-9.49 37.978-19.26 74.606-61.49 86.756l.276.961zm121.644-180.181c7.25-2.851 11.85-6.378 15.1-10.273 3.25-3.886 5.15-8.117 7-12.314 1.85-4.209 3.67-8.382 6.77-12.277 3.09-3.883 7.46-7.508 14.46-10.558l-.4-.917c-7.13 3.11-11.65 6.831-14.85 10.853-3.19 4.011-5.05 8.304-6.9 12.496-1.85 4.205-3.7 8.312-6.84 12.075-3.14 3.754-7.6 7.188-14.71 9.984l.37.931zm43.33-45.422c14.15-6.167 22.43-14.105 27.72-23.004 5.29-8.88 7.57-18.688 9.79-28.53 2.22-9.865 4.37-19.764 9.34-28.969 4.96-9.185 12.73-17.697 26.25-24.73l-.47-.887c-13.68 7.123-21.61 15.776-26.66 25.143-5.05 9.347-7.22 19.386-9.43 29.223-2.23 9.859-4.49 19.515-9.68 28.239-5.17 8.704-13.29 16.508-27.26 22.598l.4.917zm73.1-105.233c21.51-11.199 39.56-14.554 55.78-14.142 16.23.412 30.67 4.595 45 8.52 14.32 3.92 28.54 7.581 44.25 6.862 15.73-.72 32.91-5.824 53.2-19.361l-.55-.832c-20.16 13.45-37.17 18.484-52.69 19.194-15.54.711-29.62-2.906-43.95-6.828-14.3-3.917-28.86-8.139-45.24-8.555-16.39-.416-34.6 2.981-56.27 14.255l.47.887zm198.23-18.121c2.51-1.678 4.51-2.59 6.25-3.129 1.73-.54 3.22-.711 4.76-.891 1.53-.18 3.1-.369 4.93-.959 1.83-.59 3.9-1.576 6.46-3.334l-.56-.825c-2.5 1.713-4.48 2.651-6.21 3.208-1.73.556-3.21.737-4.74.916-1.53.18-3.1.359-4.94.93-1.84.572-3.92 1.53-6.5 3.252l.55.832zm22.4-8.314c18.95-13.03 41.27-12.698 65.28-5.712 24.03 6.989 49.65 20.605 75.14 34.017 25.47 13.397 50.82 26.591 74.21 32.652 23.41 6.065 44.97 5.01 62.76-10.214l-.65-.76c-17.45 14.928-38.62 16.028-61.86 10.006-23.26-6.026-48.5-19.158-73.99-32.569-25.47-13.397-51.19-27.069-75.33-34.092-24.15-7.025-46.82-7.426-66.12 5.848l.56.824zm277.39 50.742c14.95-12.794 24.9-18.459 34.73-24.307 9.85-5.861 19.56-11.898 33.98-25.421l-.68-.729c-14.35 13.456-24 19.451-33.81 25.29-9.84 5.852-19.86 11.554-34.87 24.408l.65.759zm68.71-49.728c28.72-26.945 22.09-62.412 14.91-98.145-7.2-35.851-14.95-71.984 10.74-100.975l-.75-.663c-26.07 29.427-18.14 66.111-10.97 101.835 7.2 35.842 13.64 70.709-14.61 97.219l.68.729zm25.65-199.12c11.61-13.109 31.3-23.399 50.98-33.867 19.61-10.438 39.22-21.055 50.41-34.819l-.78-.631c-11.03 13.575-30.43 24.1-50.1 34.567-19.61 10.435-39.5 20.811-51.26 34.087l.75.663zM41.655 469.344c-1.334 60.583 32.083 90.791 72.885 134.671l.733-.681c-40.882-43.964-73.941-73.866-72.618-133.968l-1-.022zm72.885 134.671c5.976 6.429 11.535 10.223 16.99 12.574 5.451 2.348 10.772 3.245 16.24 3.911 10.932 1.331 22.498 1.752 37.335 10.849l.522-.852c-15.053-9.23-26.846-9.664-37.736-10.99-5.443-.663-10.649-1.546-15.965-3.837-5.311-2.289-10.759-5.995-16.653-12.336l-.733.681zm70.565 27.334c12.925 7.923 23.688 10.369 33.484 9.804 9.778-.565 18.544-4.13 27.458-8.132 17.838-8.01 36.382-17.821 65.404-9.692l.269-.963c-29.412-8.238-48.272 1.744-66.082 9.742-8.91 4.001-17.529 7.494-27.107 8.046-9.56.552-20.123-1.823-32.904-9.657l-.522.852zm126.346-8.02c20.33 5.696 35.083 5.849 47.097 2.909 12.008-2.938 21.23-8.956 30.494-15.5 9.275-6.553 18.584-13.625 30.837-18.798 12.24-5.167 27.434-8.442 48.445-7.335l.053-.999c-21.151-1.114-36.497 2.183-48.887 7.413-12.376 5.224-21.784 12.374-31.025 18.902-9.252 6.536-18.343 12.456-30.154 15.346-11.806 2.889-26.379 2.761-46.591-2.901l-.269.963zm156.873-38.724c41.547 2.192 65.606 26.895 89.788 50.221 24.161 23.305 48.443 45.224 90.34 41.217l-.095-.996c-41.407 3.961-65.391-17.637-89.551-40.941-24.139-23.285-48.455-48.285-90.429-50.5l-.053.999zm326.032 150.151c41.845 0 76.129-9.332 104.154-19.15 13.995-4.904 26.472-9.944 37.492-13.983 11.045-4.048 20.651-7.099 29.011-8.08l-.116-.993c-8.488.996-18.19 4.085-29.239 8.134-11.074 4.058-23.478 9.073-37.479 13.978-27.966 9.798-62.132 19.094-103.823 19.094v1zm170.756-41.235c42.898-14.177 56.308-49.682 69.248-85.938 12.97-36.315 25.46-73.384 66.27-91.44l-.4-.915c-41.27 18.257-53.87 55.777-66.81 92.018-12.95 36.3-26.24 71.319-68.622 85.326l.314.949zm135.518-177.378c21.53-9.517 34.85-20.603 43.98-32.625 9.12-12.013 14.04-24.933 18.8-38.055 4.76-13.136 9.36-26.469 17.83-39.432 8.47-12.95 20.82-25.545 41.09-37.145l-.49-.868c-20.41 11.674-32.88 24.376-41.44 37.466-8.55 13.078-13.18 26.528-17.93 39.638-4.76 13.124-9.64 25.913-18.66 37.791-9.01 11.869-22.19 22.857-43.58 32.315l.4.915zm121.7-147.257c2.77-1.581 7.05-2.928 12.15-4.161 5.08-1.23 10.92-2.334 16.78-3.448 5.84-1.112 11.71-2.233 16.81-3.492 5.09-1.257 9.48-2.665 12.36-4.369l-.51-.861c-2.74 1.624-7.01 3.004-12.09 4.259-5.07 1.252-10.91 2.368-16.76 3.481-5.85 1.112-11.71 2.221-16.83 3.458-5.1 1.235-9.5 2.608-12.4 4.265l.49.868zm58.1-15.47c18.6-11.005 34.11-13.302 48-11.39 13.91 1.916 26.24 8.059 38.51 14.033 12.24 5.96 24.42 11.753 37.95 12.816 13.56 1.065 28.41-2.622 46.01-15.486l-.6-.807c-17.43 12.748-32.05 16.339-45.33 15.296-13.31-1.046-25.33-6.747-37.6-12.718-12.23-5.958-24.7-12.183-38.81-14.125-14.13-1.945-29.86.411-48.64 11.52l.51.861zm170.47-.027c11.33-8.292 24.24-9.224 37.98-6.467 13.76 2.76 28.28 9.204 42.8 15.591 14.49 6.374 28.98 12.694 42.59 15.124 13.63 2.435 26.44.979 37.51-8.26l-.64-.768c-10.77 8.99-23.25 10.446-36.69 8.044-13.47-2.405-27.85-8.669-42.37-15.056-14.49-6.374-29.12-12.869-43-15.655-13.91-2.79-27.13-1.875-38.78 6.64l.6.807zm160.88 15.988c19.91-16.628 35.67-20.697 51.25-25.072 15.61-4.385 31.02-9.076 50.07-26.999l-.69-.728c-18.87 17.76-34.1 22.396-49.65 26.765-15.6 4.38-31.53 8.494-51.62 25.266l.64.768zm101.32-52.071c24.89-23.428 20.24-53.302 15.19-83.311-5.06-30.106-10.51-60.355 12.05-85.21l-.74-.672c-22.94 25.272-17.33 56.049-12.29 86.048 5.06 30.096 9.55 59.404-14.9 82.417l.69.728zm27.24-168.521c19.05-20.998 16.77-47.342 14.17-73.712-2.61-26.456-5.52-52.942 11.78-74.762l-.79-.622c-17.59 22.192-14.58 49.12-11.99 75.481 2.61 26.446 4.8 52.321-13.91 72.943l.74.672zM115.72 300.522c-8.326 28.08-19.811 59.13-27.443 90.067-7.636 30.955-11.453 61.924-4.419 89.949l.97-.244c-6.974-27.785-3.204-58.562 4.42-89.465 7.628-30.921 19.075-61.841 27.431-90.022l-.959-.285zM83.858 480.538c2.704 10.764 5.05 15.603 9.302 25.791l.923-.386c-4.262-10.208-6.573-14.973-9.255-25.649l-.97.244zm9.302 25.79c8.523 20.466 20.709 31.808 35.689 37.701 14.948 5.88 32.627 6.312 52.101 5.078 39.009-2.472 85.288-11.612 132.149 2.294l.284-.959c-47.085-13.972-93.66-4.794-132.497-2.333-19.449 1.232-36.94.784-51.671-5.011-14.699-5.782-26.7-16.908-35.132-37.154l-.923.384zm219.939 45.073c15.272 4.536 26.428 3.053 35.544-1.693 9.084-4.73 16.092-12.678 23.113-20.936 7.043-8.283 14.105-16.885 23.339-23.099 9.21-6.199 20.593-10.027 36.282-8.697l.085-.996c-15.921-1.35-27.53 2.54-36.926 8.863-9.371 6.307-16.526 15.03-23.542 23.281-7.037 8.276-13.928 16.07-22.813 20.697-8.852 4.609-19.734 6.096-34.798 1.621l-.284.959zm118.279-54.425c5.51.464 9.639-2.355 13.713-6.592 2.037-2.118 4.085-4.617 6.295-7.272 2.215-2.661 4.601-5.489 7.333-8.294 5.459-5.605 12.293-11.112 21.843-14.943 9.551-3.831 21.848-5.997 38.247-4.876l.068-.998c-16.523-1.129-28.974 1.05-38.687 4.946-9.715 3.896-16.661 9.499-22.187 15.173-2.762 2.835-5.169 5.689-7.385 8.352-2.222 2.668-4.242 5.133-6.247 7.219-4.01 4.169-7.859 6.714-12.909 6.289l-.084.996zm82.529 273.986c7.331-.552 16.79.962 28.141 3.216 11.326 2.249 24.509 5.228 39.205 7.563 29.406 4.672 64.943 6.778 104.213-4.637l-.279-.961c-39.076 11.359-74.45 9.27-103.777 4.611-14.671-2.331-27.809-5.301-39.168-7.557-11.334-2.25-20.923-3.795-28.41-3.232l.075.997zm171.482 6.158c21.176-2.675 35.3-6.598 45.865-11.32 10.57-4.725 17.552-10.24 24.442-16.052 6.887-5.811 13.668-11.906 23.881-17.871 10.211-5.963 23.867-11.803 44.48-17.055l-.247-.969c-20.684 5.27-34.431 11.142-44.737 17.161-10.303 6.017-17.154 12.175-24.022 17.97-6.866 5.792-13.763 11.236-24.205 15.903-10.448 4.67-24.469 8.574-45.582 11.241l.125.992zm138.668-62.298c42.642-10.861 64.204-27.106 85.372-44.44 21.14-17.31 41.865-35.686 82.894-50.951l-.348-.937c-41.202 15.329-62.041 33.805-83.18 51.115-21.111 17.287-42.541 33.433-84.985 44.244l.247.969zm168.266-95.391c43.007-15.999 53.077-51.498 62.637-87.735 9.58-36.29 18.66-73.319 59.39-93.169l-.44-.899c-41.19 20.078-50.36 57.592-59.92 93.813-9.57 36.273-19.54 71.252-62.015 87.053l.348.937zm122.027-180.904c1.51-.738 2.2-1.166 2.89-1.589.67-.413 1.33-.822 2.8-1.541l-.44-.898c-1.51.738-2.2 1.165-2.89 1.588-.67.413-1.33.822-2.8 1.541l.44.899zm5.69-3.13c20.82-10.234 34.45-20.587 44.42-31.141 9.96-10.553 16.23-21.288 22.33-32.243 12.18-21.883 23.73-44.735 62.78-69.271l-.54-.847c-39.27 24.675-50.91 47.713-63.12 69.631-6.09 10.946-12.31 21.588-22.18 32.043-9.87 10.454-23.4 20.74-44.13 30.93l.44.898zm129.53-132.655c28.1-17.663 54.62-7.157 81.07 2.982 26.39 10.112 52.71 19.858 79.89-.161l-.6-.805c-26.68 19.658-52.48 10.168-78.93.032-26.37-10.108-53.38-20.861-81.97-2.895l.54.847zm160.96 2.821c14.39-10.6 23.99-12.928 33.54-15.411 9.59-2.498 19.12-5.152 33.22-16.436l-.62-.781c-13.95 11.162-23.33 13.77-32.86 16.249-9.58 2.494-19.33 4.861-33.88 15.574l.6.805zm66.76-31.847c35.79-28.618 62.64-34.694 88.78-41.664 26.19-6.983 51.64-14.86 84.42-47.131l-.71-.712c-32.6 32.101-57.86 39.917-83.96 46.877-26.16 6.974-53.19 13.092-89.15 41.849l.62.781zm173.2-88.795c3.74-3.681 10.24-6.827 18.21-9.713 7.95-2.879 17.28-5.473 26.63-8.085 9.34-2.609 18.69-5.236 26.63-8.176 7.94-2.935 14.55-6.209 18.37-10.15l-.72-.696c-3.64 3.766-10.07 6.978-17.99 9.908-7.91 2.924-17.21 5.54-26.56 8.151-9.33 2.609-18.71 5.213-26.7 8.108-7.98 2.889-14.67 6.094-18.58 9.94l.71.713zM115.72 300.522c-11.982 40.41 5.23 83.746 38.262 122.303l.759-.65c-32.934-38.443-49.904-81.431-38.062-121.368l-.959-.285zm38.262 122.303c20.807 24.288 46.092 32.109 73.861 36.451 27.8 4.347 57.988 5.209 88.936 15.516l.316-.949c-31.051-10.341-61.458-11.233-89.098-15.555-27.672-4.327-52.675-12.091-73.256-36.113l-.759.65zm162.797 51.967c19.907 6.63 33.934 5.625 45.078.333 11.112-5.277 19.282-14.788 27.532-24.976 8.27-10.214 16.632-21.123 28.164-29.395 11.511-8.257 26.197-13.895 47.116-13.492l.019-1c-21.133-.406-36.03 5.296-47.718 13.68-11.665 8.368-20.117 19.4-28.359 29.578-8.262 10.203-16.303 19.535-27.183 24.702-10.85 5.152-24.599 6.193-44.333-.379l-.316.949zm147.89-67.53c20.63.395 37.28 17.956 51.957 44.235 14.657 26.241 27.23 60.959 39.794 95.278 12.554 34.293 25.099 68.194 39.692 92.709 14.573 24.481 31.332 39.841 52.37 36.555l-.155-.988c-20.36 3.18-36.799-11.625-51.355-36.078-14.536-24.419-27.05-58.222-39.613-92.542-12.554-34.292-25.155-69.095-39.86-95.421-14.683-26.289-31.58-44.342-52.811-44.748l-.019 1zm183.813 268.777c42.472-6.64 65.742-17.916 88.679-30.547 22.913-12.617 45.461-26.564 86.56-38.623l-.282-.96c-41.222 12.096-63.864 26.099-86.76 38.707-22.872 12.595-46.029 23.819-88.352 30.435l.155.988zm175.239-69.17c33.958-9.96 51.542-19.269 68.857-29.313 17.294-10.032 34.295-20.782 67.137-33.671l-.365-.931c-32.924 12.921-49.988 23.71-67.274 33.737-17.264 10.014-34.773 19.286-68.637 29.218l.282.96zm135.994-62.984c8.542-3.352 13.041-5.567 17.517-7.825 4.464-2.251 8.899-4.542 17.332-8.06l-.385-.923c-8.468 3.532-12.93 5.837-17.398 8.091-4.457 2.248-8.926 4.448-17.431 7.786l.365.931zM994.564 528c21.496-8.968 35.816-20.062 46.466-32.358 10.64-12.288 17.61-25.759 24.43-39.436 13.64-27.35 26.72-55.604 67.43-77.529l-.47-.881c-41.02 22.087-54.21 50.606-67.85 77.964-6.82 13.678-13.75 27.045-24.3 39.227-10.54 12.174-24.73 23.179-46.091 32.09l.385.923zm138.326-149.323c15.56-8.38 26.01-16.563 33.87-24.729 7.85-8.165 13.09-16.299 18.22-24.549 10.25-16.478 20.09-33.495 49.59-52.561l-.55-.84c-29.68 19.19-39.62 36.364-49.89 52.873-5.12 8.242-10.32 16.3-18.09 24.384-7.78 8.081-18.15 16.203-33.62 24.541l.47.881zm101.68-101.84c11.78-7.623 15.84-13.614 19.81-19.664 3.94-5.993 7.79-12.034 19.18-19.895l-.56-.823c-11.55 7.967-15.49 14.129-19.45 20.169-3.93 5.983-7.9 11.853-19.53 19.374l.55.839zm38.99-39.559c21.81-15.053 46.43-25.847 71.81-36.463 25.38-10.611 51.52-21.044 76.29-35.366 49.58-28.668 93.65-72.91 115.43-165.334l-.98-.23c-21.71 92.14-65.6 136.16-114.95 164.699-24.7 14.281-50.78 24.687-76.17 35.308-25.39 10.615-50.1 21.444-71.99 36.563l.56.823zM196.648 118.665c-.995 4.595.879 9.34 4 14.063 3.127 4.73 7.579 9.545 11.901 14.299 4.34 4.772 8.547 9.479 11.262 14.042 2.716 4.565 3.873 8.874 2.297 12.9l.931.365c1.744-4.455.407-9.112-2.368-13.776-2.776-4.665-7.057-9.448-11.382-14.204-4.342-4.776-8.732-9.527-11.806-14.178-3.08-4.659-4.765-9.11-3.858-13.3l-.977-.211zm29.451 55.328c-10.93 32.777-36.951 47.497-61.129 62.491-24.143 14.971-46.454 30.227-49.269 64.139l.997.083c2.77-33.374 24.65-48.397 48.799-63.372 24.113-14.953 50.487-29.847 61.551-63.025l-.949-.316zm-110.398 126.63c-1.58 18.991 5.847 32.684 19.04 42.975 13.16 10.266 32.056 17.15 53.45 22.613 21.399 5.464 45.377 9.526 68.712 14.108 23.352 4.585 46.068 9.693 65.014 17.251l.371-.929c-19.041-7.596-41.838-12.718-65.192-17.303-23.373-4.59-47.295-8.641-68.658-14.096-21.367-5.456-40.093-12.299-53.082-22.432-12.957-10.107-20.207-23.486-18.658-42.104l-.997-.083zm206.216 96.947c1.797.716 2.988 1.071 3.878 1.232.907.163 1.489.122 2.044.071.533-.048 1.026-.101 1.827.001.812.103 1.956.369 3.753.988l.326-.945c-1.832-.631-3.047-.92-3.953-1.035-.917-.117-1.504-.053-2.043-.004-.515.046-.996.08-1.776-.061-.797-.143-1.917-.471-3.686-1.176l-.37.929zm11.503 2.293c18.109 6.204 30.551 4.518 40.195-1.599 9.597-6.086 16.345-16.519 23.175-27.585 6.852-11.102 13.802-22.869 23.812-31.845 9.985-8.954 23.028-15.137 42.089-15.007l.007-1c-19.317-.131-32.598 6.148-42.764 15.263-10.14 9.092-17.167 21.001-23.995 32.064-6.851 11.099-13.488 21.322-22.859 27.266-9.324 5.913-21.433 7.63-39.336 1.496l-.324.947zm129.271-76.036c10.319.071 19.737 4.598 28.492 12.504 8.761 7.912 16.835 19.186 24.449 32.692 15.229 27.014 28.554 62.832 41.857 98.206 13.292 35.347 26.565 70.256 41.68 95.363 7.558 12.554 15.6 22.695 24.368 29.217 8.782 6.531 18.305 9.438 28.778 7.483l-.183-.983c-10.148 1.894-19.395-.903-27.999-7.303-8.617-6.409-16.579-16.425-24.107-28.93-15.059-25.012-28.299-59.826-41.601-95.199-13.293-35.347-26.646-71.249-41.922-98.345-7.639-13.55-15.775-24.929-24.65-32.943-8.879-8.018-18.522-12.689-29.155-12.762l-.007 1zm189.624 275.465c8.338-1.555 13.249-3.356 18.129-5.211 4.863-1.849 9.686-3.749 17.888-5.53l-.212-.977c-8.28 1.798-13.162 3.721-18.032 5.572-4.854 1.846-9.702 3.624-17.956 5.163l.183.983zm36.018-10.741c34.214-7.457 51.131-22.205 67.743-37.802 16.587-15.574 32.854-31.973 65.823-42.951l-.316-.949c-33.197 11.055-49.604 27.597-66.191 43.171-16.562 15.549-33.319 30.154-67.272 37.554l.213.977zm133.566-80.753c42.85-14.259 63.3-28.975 83.255-44.862 19.924-15.862 39.33-32.868 80.148-51.798l-.421-.907c-40.939 18.986-60.429 36.063-80.35 51.923-19.891 15.836-40.239 30.483-82.948 44.695l.316.949zm163.403-96.66c30.868-14.307 44.818-25.98 58.468-38.197 13.63-12.191 26.93-24.907 56.54-41.371l-.48-.874c-29.72 16.522-43.09 29.301-56.72 41.499-13.6 12.172-27.48 23.782-58.229 38.036l.421.907zm115.008-79.568c11.78-6.546 17.59-10.335 23.36-14.202 5.76-3.86 11.46-7.792 23.03-14.637l-.51-.86c-11.6 6.86-17.32 10.806-23.08 14.667-5.75 3.854-11.54 7.628-23.28 14.158l.48.874zm46.39-28.839c21.75-12.877 36.35-25.155 47.28-37.287 10.92-12.13 18.16-24.098 25.18-36.326 14.02-24.434 27.22-49.965 67.37-80.27l-.6-.798c-40.33 30.434-53.6 56.118-67.64 80.57-7.01 12.215-14.2 24.107-25.06 36.155-10.85 12.046-25.37 24.262-47.04 37.096l.51.86zm139.83-153.883c8.57-6.464 13.44-8.741 18.3-11.077 4.9-2.353 9.76-4.764 18.26-11.484l-.62-.784c-8.42 6.661-13.22 9.034-18.07 11.367-4.89 2.349-9.83 4.659-18.47 11.18l.6.798zm36.56-22.561c69.48-54.985 72.44-64.713 136.26-125.926l-.69-.722c-63.89 61.272-66.75 70.918-136.19 125.864l.62.784zm-1126.403-7.736c-8.899 18.224-18.388 33.443-26.192 47.546-7.792 14.08-13.895 27.033-15.92 40.622-4.06 27.241 8.288 56.817 55.349 103.042l.701-.713c-47.014-46.18-59.046-75.445-55.061-102.182 1.997-13.4 8.023-26.221 15.806-40.285 7.771-14.043 17.304-29.34 26.216-47.591l-.899-.439zm13.225 191.198c9.099 9.533 16.018 18.043 21.616 24.894 5.582 6.829 9.892 12.065 13.739 14.964l.602-.799c-3.727-2.809-7.951-7.927-13.566-14.798-5.598-6.85-12.539-15.388-21.667-24.951l-.724.69zm35.355 39.858c6.167 4.647 12.396 5.172 18.642 3.575 6.208-1.588 12.451-5.279 18.691-9.055 6.269-3.794 12.541-7.678 18.888-9.767 6.323-2.081 12.676-2.364 19.128 1.01l.464-.887c-6.756-3.532-13.403-3.213-19.905-1.073-6.478 2.132-12.856 6.088-19.092 9.861-6.265 3.792-12.382 7.397-18.422 8.942-6.002 1.535-11.907 1.03-17.792-3.405l-.602.799zm75.349-14.237c18.258 9.556 31.092 9.214 41.346 3.161 10.184-6.011 17.719-17.608 25.53-30.249 15.678-25.37 32.603-55.159 74.238-55.105l.001-1c-42.268-.055-59.463 30.293-75.09 55.58-7.841 12.688-15.254 24.05-25.187 29.913-9.862 5.821-22.311 6.268-40.374-3.186l-.464.886zm141.114-82.193c20.678.026 37.815 16.695 53.198 41.738 15.364 25.012 28.861 58.179 42.324 90.846 13.453 32.64 26.875 64.788 42.079 87.664 15.187 22.852 32.301 36.669 53.163 32.174l-.211-.978c-20.199 4.353-36.964-8.945-52.119-31.749-15.139-22.778-28.524-54.825-41.987-87.492-13.452-32.64-26.981-65.893-42.397-90.988-15.396-25.064-32.792-42.188-54.049-42.215l-.001 1zm190.764 252.422c42.865-9.237 60.638-35.297 77.881-62.72 17.242-27.42 33.95-56.183 74.641-71.332l-.349-.937c-41.048 15.283-57.914 44.345-75.138 71.737-17.223 27.39-34.806 53.129-77.246 62.274l.211.978zm152.522-134.052c27.028-10.067 41.518-14.085 55.825-18.614 14.318-4.532 28.423-9.567 54.638-21.653l-.418-.908c-26.179 12.069-40.245 17.088-54.522 21.607-14.287 4.523-28.814 8.553-55.872 18.631l.349.937zm110.463-40.267c15.402-7.098 24.029-9.464 32.604-11.989 8.6-2.533 17.136-5.224 32.307-12.967l-.455-.89c-15.101 7.707-23.575 10.376-32.135 12.897-8.585 2.529-17.269 4.911-32.739 12.041l.418.908zm64.911-24.956c43.13-22.002 63.61-36.449 83.47-51.954 19.84-15.493 39.03-32.018 79.63-58.217l-.54-.84c-40.65 26.23-59.88 42.79-79.71 58.269-19.81 15.467-40.24 29.879-83.305 51.852l.455.89zm163.1-110.171c14.88-9.592 20.74-16.937 26.5-24.396 5.72-7.418 11.32-14.939 25.69-24.986l-.57-.819c-14.5 10.133-20.17 17.747-25.92 25.195-5.71 7.406-11.49 14.657-26.24 24.166l.54.84zm52.19-49.382c28.16-19.691 42.12-45.575 55.65-71.857 13.53-26.298 26.63-52.984 53.03-74.527l-.63-.774c-26.59 21.695-39.77 48.577-53.29 74.843-13.53 26.282-27.4 51.96-55.33 71.496l.57.819zM153.915.224c.756 1.508 2.239 3.14 4.213 4.881 1.982 1.749 4.5 3.642 7.372 5.666 2.874 2.024 6.113 4.187 9.54 6.472 3.429 2.286 7.047 4.697 10.687 7.223 7.281 5.052 14.63 10.554 20.685 16.416 6.059 5.867 10.784 12.059 12.869 18.484l.951-.309c-2.158-6.65-7.017-12.98-13.125-18.893-6.113-5.919-13.515-11.458-20.81-16.52-3.648-2.532-7.274-4.948-10.702-7.233-3.429-2.287-6.657-4.442-9.519-6.458s-5.345-3.885-7.287-5.598c-1.951-1.72-3.313-3.25-3.981-4.58l-.893.45zm65.366 59.142c2.83 8.721-.063 15.103-5.11 23.573-5.044 8.467-12.187 18.94-17.511 35.68l.953.303c5.281-16.606 12.352-26.968 17.417-35.471 5.064-8.5 8.178-15.225 5.202-24.394l-.951.309zM329.642 183.78c15.756 10.221 27.079 15.877 36.422 18.595 9.363 2.725 16.716 2.492 24.51.985 15.554-3.008 32.739-11.04 71.534-10.888l.004-1c-38.923-.153-56.354 7.933-71.728 10.906-7.669 1.484-14.858 1.709-24.041-.963-9.203-2.678-20.431-8.272-36.157-18.474l-.544.839zm132.466 8.692c20.703.085 37.678 14.45 52.8 35.876 15.113 21.414 28.277 49.739 41.401 77.494 13.11 27.726 26.184 54.891 41.101 73.877 14.919 18.987 31.801 29.936 52.51 24.902l-.236-.972c-20.133 4.894-36.655-5.67-51.488-24.548-14.834-18.88-27.86-45.933-40.983-73.687-13.11-27.725-26.314-56.142-41.488-77.643-15.167-21.49-32.401-36.212-53.613-36.299l-.004 1zm187.812 212.15c14.323-3.479 21.223-10.363 28.001-17.38 6.756-6.994 13.383-14.107 27.204-18.312l-.291-.956c-14.086 4.285-20.866 11.569-27.632 18.573-6.744 6.98-13.479 13.693-27.518 17.103l.236.972zm55.205-35.692c28.482-8.671 39.344-25.373 49.895-42.626 10.535-17.228 20.756-34.986 47.917-46.187l-.381-.924c-27.489 11.335-37.854 29.36-48.39 46.589-10.521 17.204-21.217 33.632-49.332 42.192l.291.956zm97.812-88.813c86.109-35.488 89.279-34.921 170.571-80.315l-.487-.873c-81.239 45.364-84.364 44.779-170.465 80.264l.381.924zm170.571-80.315c38.002-21.212 37.912-23.071 74.812-46.002l-.53-.849c-36.96 22.969-36.79 24.779-74.769 45.978l.487.873zm74.812-46.002c23.74-14.758 29.31-31.893 44.09-55.794 14.8-23.924 38.93-54.881 99.88-97.597l-.58-.818c-61.05 42.784-85.28 73.838-100.15 97.889-14.88 24.073-20.29 40.875-43.77 55.471l.53.849zm-585.363 9.752c20.709.405 37.66 11.606 52.731 27.952 15.077 16.353 28.209 37.785 41.301 58.547 13.075 20.735 26.113 40.81 40.976 54.328 14.887 13.541 31.659 20.551 52.153 15.044l-.26-.966c-20.066 5.393-36.5-1.428-51.22-14.817-14.744-13.412-27.714-33.364-40.803-54.122-13.072-20.731-26.259-42.256-41.412-58.692-15.159-16.442-32.349-27.861-53.446-28.274l-.02 1zm187.161 155.871c43.049-11.57 64.21-26.639 84.738-43.394 20.5-16.732 40.335-35.11 80.799-53.416l-.412-.911c-40.602 18.368-60.536 36.834-81.019 53.552-20.454 16.694-41.491 31.68-84.366 43.204l.26.965zm165.537-96.81c21.704-9.827 31.731-17.856 41.569-26.217 9.811-8.337 19.419-16.99 40.326-28.133l-.47-.882c-21.008 11.196-30.684 19.908-40.503 28.253-9.791 8.321-19.74 16.291-41.334 26.068l.412.911zm81.896-54.35c10.381-5.535 22.42-7.683 35.309-8.158 12.891-.475 26.59.724 40.288 1.855 13.684 1.13 27.362 2.192 40.172 1.426 12.8-.767 24.76-3.365 34.99-9.583l-.52-.855c-10.04 6.102-21.82 8.678-34.53 9.44-12.72.761-26.335-.293-40.029-1.424-13.681-1.13-27.445-2.336-40.408-1.858-12.967.478-25.175 2.64-35.743 8.275l.471.882zm-671.423 6.114c2.751 5.443 7.641 9.265 14.14 11.807 6.493 2.541 14.62 3.817 23.909 4.162 18.578.689 41.925-2.347 66.42-6.595 24.473-4.246 50.217-9.727 73.449-13.918 23.279-4.199 44.092-7.115 58.893-6.282l.056-.998c-14.935-.841-35.858 2.099-59.127 6.296-23.316 4.206-48.931 9.665-73.442 13.916-24.488 4.248-47.747 7.266-66.212 6.582-9.232-.343-17.234-1.61-23.582-4.094-6.341-2.481-11.001-6.163-13.612-11.327l-.892.451zm236.811-10.826c41.285 2.328 67.298 24.359 93.163 43.026 12.919 9.323 25.811 17.81 40.529 22.493 14.733 4.688 31.271 5.556 51.474-.303l-.278-.96c-20.02 5.805-36.354 4.936-50.893.31-14.555-4.631-27.337-13.035-40.247-22.351-25.793-18.615-52.056-40.865-93.692-43.213l-.056.998zm185.166 65.216c18.66-5.407 28.748-10.264 38.69-15.515 9.926-5.242 19.682-10.861 37.723-17.827l-.36-.933c-18.107 6.992-27.917 12.641-37.83 17.876-9.897 5.226-19.921 10.055-38.501 15.439l.278.96zm76.413-33.342c48.008-18.524 53.595-19.683 99.772-42.392l-.441-.898c-46.132 22.687-51.679 23.831-99.691 42.357l.36.933zm99.772-42.392c43.423-21.344 73.454-46.27 102.703-72.47 29.252-26.202 57.703-53.66 98.017-80.145l-.55-.836c-40.392 26.537-68.91 54.059-98.134 80.236-29.226 26.18-59.176 51.034-102.477 72.317l.441.898zm-361.387 10.515c40.564 5.237 66.476 5.799 92.207 1.981 25.714-3.815 51.232-12.005 90.984-24.23l-.294-.956c-39.786 12.236-65.216 20.396-90.837 24.197-25.603 3.799-51.413 3.247-91.932-1.984l-.128.992zm183.191-22.249c43.263-13.297 73.936-9.755 103.897-8.184 29.99 1.571 59.219 1.157 99.418-20.162l-.468-.883c-39.975 21.2-68.998 21.613-98.898 20.046-29.929-1.569-60.783-5.131-104.243 8.227l.294.956zm203.315-28.346c9.436-5.004 17.939-13.196 25.942-22.973 8.005-9.78 15.535-21.178 23.01-32.621 7.48-11.452 14.904-22.947 22.714-32.959 7.811-10.012 15.982-18.506 24.939-23.973l-.521-.854c-9.108 5.559-17.366 14.162-25.207 24.212-7.841 10.052-15.29 21.587-22.763 33.027-7.478 11.449-14.98 22.803-22.945 32.534-7.967 9.733-16.371 17.809-25.637 22.724l.468.883zM627.407.5c28.764 0 49.803 16.969 69.461 31.442 9.805 7.219 19.282 13.824 29.172 17.283 9.92 3.469 20.255 3.773 31.751-1.584l-.422-.907c-11.236 5.236-21.298 4.94-30.998 1.547-9.73-3.402-19.095-9.918-28.91-17.144C677.878 16.719 656.563-.5 627.407-.5v1zm130.384 47.14c18.872-8.794 41.675-15.453 64.348-22.49 22.65-7.028 45.167-14.433 63.376-24.715l-.491-.87c-18.103 10.222-40.521 17.598-63.181 24.63-22.638 7.026-45.525 13.708-64.474 22.54l.422.906zm-6.349 705.568c6.256-1.722 13.107-5.939 20.286-9.884 7.221-3.968 14.815-7.689 22.684-8.571l-.112-.994c-8.083.906-15.83 4.719-23.053 8.688-7.265 3.992-13.962 8.116-20.07 9.797l.265.964z" fill="#fff"/></svg>