<svg width="1920" height="1081" viewBox="0 0 1920 1081" fill="none" xmlns="http://www.w3.org/2000/svg">
<path opacity="0.05" d="M106.891 1027.25L107.212 1026.86L107.178 1026.84L107.141 1026.81L106.891 1027.25ZM324.532 997.442L324.378 997.918L324.378 997.918L324.532 997.442ZM331.5 1000.5L331.652 1000.02L331.652 1000.02L331.5 1000.5ZM166.046 942.312L166.268 941.864L166.268 941.864L166.046 942.312ZM346 876.02L345.85 876.497L345.864 876.501L345.879 876.505L346 876.02ZM1477.31 993.468L1477.45 993.95L1477.47 993.942L1477.5 993.932L1477.31 993.468ZM1479.97 992.461L1480.15 992.925L1480.15 992.925L1479.97 992.461ZM1681.85 979.853L1682.08 980.296L1682.08 980.296L1681.85 979.853ZM1872.25 927.441L1871.98 927.025L1871.98 927.025L1872.25 927.441ZM1889.66 917.117L1889.95 917.531L1889.95 917.531L1889.66 917.117ZM469.26 911.324L469.193 911.82L469.228 911.825L469.263 911.824L469.26 911.324ZM948.523 910.947L948.592 911.442L948.523 910.947ZM1128.08 975.57L1127.97 975.083L1128.08 975.57ZM1228.71 964.221L1228.84 964.702H1228.84L1228.71 964.221ZM1299.89 946.829L1299.74 946.354H1299.74L1299.89 946.829ZM1459.01 863.374L1458.8 862.917L1458.8 862.917L1459.01 863.374ZM1673.24 885.353L1672.99 884.918V884.918L1673.24 885.353ZM1684.45 880.173L1684.2 879.74L1684.45 880.173ZM1896.41 808.175L1896.11 807.775L1896.11 807.775L1896.41 808.175ZM123.93 870.137L123.689 870.575H123.689L123.93 870.137ZM328.214 814.866L328.077 815.347L328.214 814.866ZM836.269 803.797L836.212 803.301H836.212L836.269 803.797ZM943.811 836.467L943.726 835.974H943.726L943.811 836.467ZM1121.46 876.647L1121.33 876.164H1121.33L1121.46 876.647ZM1264.73 770.548L1264.9 771.017H1264.9L1264.73 770.548ZM1412.47 742.993L1412.68 743.445L1412.68 743.445L1412.47 742.993ZM1439.1 733.767L1438.88 733.319L1438.88 733.319L1439.1 733.767ZM1645.62 711.572L1645.89 711.993L1645.89 711.993L1645.62 711.572ZM1765.89 696.985L1766.19 697.39L1766.19 697.389L1765.89 696.985ZM1893.55 680.636L1893.87 681.021L1893.87 681.021L1893.55 680.636ZM303.923 781.914L304.056 781.432H304.056L303.923 781.914ZM459.109 813.545L459.165 813.048H459.165L459.109 813.545ZM627.407 799.397L627.426 799.897H627.426L627.407 799.397ZM794.356 734.256V733.756H794.328L794.3 733.759L794.356 734.256ZM1172.09 656.239L1171.92 655.77L1172.09 656.239ZM1232.73 612.479L1232.53 612.018L1232.73 612.479ZM1393.04 549.852L1393.28 550.291H1393.28L1393.04 549.852ZM1516.11 551.687L1516.38 552.109H1516.38L1516.11 551.687ZM1623.61 558.431L1623.32 558.023L1623.61 558.431ZM1846.69 523.305L1846.36 522.931L1846.36 522.931L1846.69 523.305ZM1868.23 506.182L1868.56 506.551L1868.23 506.182ZM23.3495 471.099L23.8242 471.256L23.8242 471.256L23.3495 471.099ZM32.4217 637.776L31.9572 637.961L31.9573 637.961L32.4217 637.776ZM109.048 767.526L109.326 767.11H109.326L109.048 767.526ZM269.816 761.303L269.659 761.778L269.659 761.778L269.816 761.303ZM309.039 760.098L308.907 760.581L308.907 760.581L309.039 760.098ZM469.278 762.095L469.232 762.592H469.232L469.278 762.095ZM789.666 784.217L789.738 784.712L789.666 784.217ZM1011.5 752.726L1011.53 753.225L1011.5 752.726ZM1097.48 652.164L1097.32 651.692L1097.48 652.164ZM1218.74 511.532L1218.95 511.985L1218.95 511.985L1218.74 511.532ZM1303.35 483.312L1303.59 483.752V483.752L1303.35 483.312ZM1390.31 466.693L1390.57 467.12H1390.57L1390.31 466.693ZM1655.01 501.387L1655.32 501.783L1655.32 501.782L1655.01 501.387ZM1662 496.459L1661.69 496.065L1661.69 496.066L1662 496.459ZM1862.51 385.18L1862.16 384.829L1862.16 384.829L1862.51 385.18ZM1880.58 357.751L1880.94 358.096V358.096L1880.58 357.751ZM1916.47 107.602L1916.07 107.309L1916.07 107.31L1916.47 107.602ZM42.1546 469.355L41.6641 469.258L41.6641 469.258L42.1546 469.355ZM83.197 643.405L83.5797 643.083L83.5796 643.083L83.197 643.405ZM117.344 682.974L117.033 683.366L117.033 683.366L117.344 682.974ZM309.475 694.827L309.607 694.345L309.475 694.827ZM468.187 688.172L468.223 687.673L468.187 688.172ZM627.407 731.29L627.44 731.789H627.44L627.407 731.29ZM795.452 749.558L795.54 750.05L795.452 749.558ZM973.938 749.792L973.8 749.312L973.8 749.312L973.938 749.792ZM1095.54 569.627L1095.35 569.161L1095.54 569.627ZM1138.85 524.212L1139.05 524.67L1139.05 524.67L1138.85 524.212ZM1211.91 418.994L1212.15 419.437V419.437L1211.91 418.994ZM1410.1 400.9L1410.38 401.316L1410.1 400.9ZM1432.5 392.59L1432.78 393.003L1432.78 393.002L1432.5 392.59ZM1709.84 443.365L1710.17 443.745L1710.17 443.744L1709.84 443.365ZM1778.54 393.651L1778.88 394.016V394.016L1778.54 393.651ZM1804.15 194.565L1803.78 194.233L1804.15 194.565ZM114.907 603.674L115.273 603.334L115.273 603.334L114.907 603.674ZM185.366 630.923L185.105 631.349H185.105L185.366 630.923ZM311.586 622.847L311.72 622.366H311.72L311.586 622.847ZM468.35 584.106L468.377 583.606H468.377L468.35 584.106ZM648.404 675.545L648.482 676.039H648.482L648.404 675.545ZM964.955 693.046L965.013 693.543L965.064 693.537L965.112 693.521L964.955 693.046ZM1100.43 515.685L1100.23 515.228H1100.23L1100.43 515.685ZM1222.08 368.452L1221.84 368.018L1221.84 368.018L1222.08 368.452ZM1280.18 352.986L1279.92 352.555L1279.92 352.555L1280.18 352.986ZM1450.6 352.986L1450.9 353.389V353.389L1450.6 352.986ZM1611.46 368.993L1611.78 369.377V369.377L1611.46 368.993ZM1712.75 316.942L1713.1 317.306V317.306L1712.75 316.942ZM1739.97 148.449L1740.34 148.785V148.785L1739.97 148.449ZM116.2 300.665L116.698 300.706L116.698 300.706L116.2 300.665ZM84.3431 480.416L83.8582 480.538L83.8582 480.538L84.3431 480.416ZM93.6213 506.136L94.0828 505.944L94.0827 505.943L93.6213 506.136ZM313.241 550.922L313.383 550.442L313.383 550.442L313.241 550.922ZM431.42 496.478L431.377 496.976L431.378 496.976L431.42 496.478ZM685.326 776.624L685.264 776.128L685.225 776.132L685.187 776.143L685.326 776.624ZM823.933 714.338L823.81 713.853L823.81 713.853L823.933 714.338ZM992.149 618.962L991.975 618.494H991.975L992.149 618.962ZM1114.13 438.077L1114.35 438.527L1114.35 438.527L1114.13 438.077ZM1119.82 434.948L1120.04 435.397L1120.04 435.397L1119.82 434.948ZM1249.3 302.319L1249.57 302.742L1249.57 302.742L1249.3 302.319ZM1410.23 305.161L1409.93 304.758V304.758L1410.23 305.161ZM1476.98 273.326L1476.67 272.935L1476.67 272.935L1476.98 273.326ZM1650.14 184.565L1649.78 184.208L1649.78 184.209L1650.14 184.565ZM154.362 422.5L153.982 422.825L154.362 422.5ZM316.937 474.318L316.779 474.792L316.937 474.318ZM464.679 406.762L464.669 407.262H464.669L464.679 406.762ZM823.58 606.389L823.439 605.909H823.439L823.58 606.389ZM959.533 543.42L959.715 543.885L959.533 543.42ZM994.371 527.538L994.179 527.077V527.077L994.371 527.538ZM1132.65 378.236L1132.89 378.677V378.677L1132.65 378.236ZM1234.29 276.418L1234.57 276.838L1234.57 276.837L1234.29 276.418ZM1273.28 236.867L1273.56 237.278L1273.56 237.278L1273.28 236.867ZM226.574 174.151L226.108 173.969L226.104 173.981L226.099 173.993L226.574 174.151ZM322.102 397.105L321.917 397.57L321.917 397.57L322.102 397.105ZM333.582 399.389L333.419 399.862L333.42 399.863L333.582 399.389ZM462.694 323.327L462.698 322.827H462.698L462.694 323.327ZM652.223 598.8L652.132 598.309H652.132L652.223 598.8ZM688.226 588.063L688.332 588.551L688.333 588.551L688.226 588.063ZM821.741 507.323L821.583 506.849L821.583 506.849L821.741 507.323ZM985.092 410.685L984.881 410.231L984.881 410.231L985.092 410.685ZM1100.07 331.133L1099.83 330.696V330.696L1100.07 331.133ZM1146.44 302.301L1146.7 302.731L1146.7 302.731L1146.44 302.301ZM1286.23 148.449L1285.93 148.05V148.05L1286.23 148.449ZM1322.78 125.895L1323.09 126.287L1323.09 126.287L1322.78 125.895ZM210.274 309.404L210.636 309.059L210.63 309.053L210.625 309.048L210.274 309.404ZM245.568 349.207L245.267 349.607L245.568 349.207ZM320.848 334.927L321.08 334.484L321.08 334.483L320.848 334.927ZM461.731 252.677L461.731 252.177L461.731 252.677ZM652.388 505.11L652.283 504.621L652.388 505.11ZM804.841 371.078L805.016 371.547H805.016L804.841 371.078ZM915.27 330.826L915.061 330.372L915.061 330.372L915.27 330.826ZM980.163 305.879L979.935 305.434L979.935 305.434L980.163 305.879ZM1143.22 195.733L1142.95 195.313L1142.95 195.313L1143.22 195.733ZM1195.4 146.361L1195.68 146.771L1195.68 146.771L1195.4 146.361ZM219.757 59.2116L220.232 59.0573L219.757 59.2116ZM462.11 191.973L462.112 191.473H462.112L462.11 191.973ZM649.802 404.136L649.684 403.65L649.684 403.65L649.802 404.136ZM704.98 368.452L705.125 368.93L705.125 368.93L704.98 368.452ZM802.746 279.655L802.556 279.193L802.556 279.193L802.746 279.655ZM973.265 199.366L973.021 198.929L973.021 198.929L973.265 199.366ZM1048.05 153.375L1048.32 153.8V153.8L1048.05 153.375ZM649.988 318.94L650.118 319.423V319.423L649.988 318.94ZM815.449 222.158L815.655 222.613L815.655 222.613L815.449 222.158ZM897.315 167.822L897.55 168.263L897.551 168.263L897.315 167.822ZM647.966 228.287L647.827 227.807L647.827 227.807L647.966 228.287ZM724.338 194.959L724.158 194.492L724.158 194.492L724.338 194.959ZM824.07 152.584L823.849 152.135L823.849 152.135L824.07 152.584ZM645.947 140.821L645.8 140.343L645.8 140.343L645.947 140.821ZM849.175 112.511L849.409 112.953V112.953L849.175 112.511ZM757.58 47.1876L757.369 46.7344L757.58 47.1876ZM751.177 752.244C750.911 752.317 750.754 752.592 750.828 752.859C750.901 753.125 751.176 753.281 751.442 753.208L751.177 752.244ZM-0.286759 1058.89C3.0459 1061.23 4.54921 1062.01 6.05718 1062.77C7.53434 1063.52 9.011 1064.26 12.3266 1066.51L12.8883 1065.68C9.52725 1063.4 8.01132 1062.64 6.50952 1061.88C5.03852 1061.14 3.57652 1060.38 0.287113 1058.07L-0.286759 1058.89ZM11.1906 1039.89C15.1199 1042.63 18.2103 1044.12 20.8938 1044.96C23.5773 1045.81 25.8313 1046 28.0521 1046.17C30.2734 1046.35 32.4563 1046.5 35.0772 1047.23C37.6958 1047.97 40.7708 1049.3 44.7351 1051.85L45.2755 1051C41.2442 1048.41 38.0791 1047.04 35.348 1046.27C32.6191 1045.5 30.3426 1045.35 28.1294 1045.18C25.9157 1045.01 23.7603 1044.82 21.1941 1044.01C18.628 1043.2 15.6283 1041.77 11.7622 1039.07L11.1906 1039.89ZM1.33599 1022.47C11.5935 1029.88 20.6442 1032.35 29.1368 1032.24C37.6058 1032.14 45.4834 1029.47 53.3677 1026.71C61.2745 1023.93 69.1895 1021.06 77.8388 1020.44C86.4658 1019.81 95.8421 1021.42 106.64 1027.68L107.141 1026.81C96.1716 1020.46 86.5959 1018.8 77.7667 1019.44C68.9597 1020.07 60.9142 1023 53.0368 1025.76C45.1369 1028.53 37.4065 1031.14 29.1242 1031.24C20.8655 1031.35 12.0216 1028.96 1.92174 1021.66L1.33599 1022.47ZM106.57 1027.63C130.705 1047.84 152.201 1052.17 170.91 1055.9C189.611 1059.62 205.422 1062.72 218.542 1080.3L219.344 1079.7C205.971 1061.78 189.79 1058.63 171.105 1054.92C152.429 1051.2 131.145 1046.9 107.212 1026.86L106.57 1027.63ZM180.757 948.449C221.206 968.228 235.691 973.637 250.8 977.582C265.884 981.521 281.516 983.985 324.378 997.918L324.687 996.967C281.789 983.022 266.085 980.54 251.052 976.615C236.044 972.696 221.631 967.323 181.196 947.551L180.757 948.449ZM324.378 997.918C326.474 998.597 327.105 999.001 327.744 999.402C328.449 999.844 329.16 1000.28 331.348 1000.98L331.652 1000.02C329.546 999.353 328.911 998.953 328.275 998.554C327.572 998.114 326.866 997.673 324.686 996.967L324.378 997.918ZM331.348 1000.98C370.352 1013.41 385.491 1033.18 402.224 1049.96C410.597 1058.35 419.376 1066 431.733 1071.54C444.088 1077.08 459.985 1080.5 482.582 1080.5V1079.5C460.086 1079.5 444.337 1076.1 432.142 1070.63C419.948 1065.16 411.271 1057.61 402.932 1049.25C386.24 1032.52 370.93 1012.54 331.652 1000.02L331.348 1000.98ZM-0.278273 931.915C10.6102 939.216 23.5679 942.075 37.5649 942.643C51.5581 943.21 66.6337 941.486 81.7754 939.587C96.9328 937.686 112.154 935.61 126.502 935.447C140.847 935.284 154.267 937.036 165.824 942.76L166.268 941.864C154.511 936.041 140.911 934.283 126.49 934.447C112.073 934.611 96.7847 936.697 81.6509 938.595C66.5014 940.495 51.5041 942.207 37.6054 941.643C23.7105 941.08 10.9574 938.245 0.278627 931.085L-0.278273 931.915ZM165.824 942.76C186.075 952.796 202.176 951.963 216.258 945.441C230.291 938.941 242.281 926.803 254.362 914.35C266.472 901.868 278.682 889.059 293.211 881.036C307.706 873.032 324.517 869.791 345.85 876.497L346.15 875.543C324.54 868.75 307.447 872.033 292.728 880.161C278.042 888.27 265.725 901.202 253.645 913.654C241.536 926.135 229.673 938.125 215.837 944.534C202.05 950.919 186.267 951.775 166.268 941.864L165.824 942.76ZM345.879 876.505C413.271 893.354 442.405 944.154 464.896 990.908C476.127 1014.26 485.724 1036.65 497.605 1053.18C509.508 1069.73 523.77 1080.5 544.358 1080.5V1079.5C524.207 1079.5 510.212 1069 498.417 1052.59C486.603 1036.16 477.063 1013.89 465.797 990.474C443.293 943.693 413.987 892.502 346.121 875.535L345.879 876.505ZM1273.42 1080.48C1316.03 1068.18 1334.39 1055.64 1358.4 1041.65C1382.39 1027.68 1412.08 1012.2 1477.45 993.95L1477.18 992.987C1411.73 1011.26 1381.95 1026.77 1357.9 1040.79C1333.87 1054.79 1315.62 1067.25 1273.14 1079.52L1273.42 1080.48ZM1477.5 993.932C1478.14 993.674 1478.47 993.555 1478.8 993.435C1479.14 993.313 1479.49 993.189 1480.15 992.925L1479.78 991.996C1479.14 992.254 1478.8 992.373 1478.47 992.494C1478.12 992.617 1477.78 992.741 1477.13 993.005L1477.5 993.932ZM1480.15 992.925C1522.16 976.169 1552.41 983.485 1582.29 989.789C1612.2 996.1 1641.74 1001.39 1682.08 980.296L1681.62 979.409C1641.59 1000.33 1612.35 995.108 1582.49 988.81C1552.61 982.506 1522.1 975.119 1479.78 991.996L1480.15 992.925ZM1682.08 980.296C1721.16 959.854 1750.27 958.971 1778.87 957.1C1807.51 955.227 1835.63 952.363 1872.53 927.858L1871.98 927.025C1835.29 951.388 1807.38 954.234 1778.81 956.102C1750.2 957.973 1720.9 958.861 1681.62 979.409L1682.08 980.296ZM1872.53 927.858C1876.36 925.318 1878.78 924.046 1881.21 922.755C1883.66 921.458 1886.1 920.144 1889.95 917.531L1889.38 916.704C1885.58 919.288 1883.17 920.583 1880.75 921.871C1878.31 923.166 1875.85 924.457 1871.98 927.025L1872.53 927.858ZM1889.95 917.531C1900.39 910.418 1910.27 904.474 1919.74 899.392L1919.26 898.511C1909.77 903.609 1899.86 909.572 1889.38 916.704L1889.95 917.531ZM148.968 878.979C175.646 892.905 198.651 887.854 221.926 881.894C245.216 875.93 268.764 869.066 296.816 879.007L297.15 878.065C268.768 868.006 244.922 874.973 221.678 880.925C198.418 886.881 175.748 891.83 149.431 878.093L148.968 878.979ZM685.351 797.478C706.239 796.459 727.894 803.747 749.965 815.127C772.036 826.506 794.466 841.944 816.91 857.175C839.341 872.397 861.785 887.411 883.839 897.893C905.893 908.375 927.614 914.353 948.592 911.442L948.455 910.452C927.754 913.324 906.243 907.434 884.269 896.99C862.294 886.546 839.912 871.576 817.472 856.348C795.045 841.129 772.559 825.651 750.424 814.238C728.289 802.826 706.447 795.447 685.302 796.479L685.351 797.478ZM948.592 911.442C990.549 905.621 1014.52 926.355 1038.49 946.347C1050.46 956.334 1062.45 966.149 1076.66 972.268C1090.89 978.396 1107.33 980.812 1128.19 976.058L1127.97 975.083C1107.31 979.79 1091.09 977.394 1077.06 971.35C1063 965.296 1051.11 955.577 1039.13 945.579C1015.18 925.602 990.893 904.564 948.455 910.452L948.592 911.442ZM1128.19 976.058C1152.73 970.469 1165.72 971.102 1178.66 971.401C1191.64 971.701 1204.55 971.662 1228.84 964.702L1228.57 963.741C1204.4 970.666 1191.59 970.699 1178.68 970.401C1165.72 970.102 1152.63 969.466 1127.97 975.083L1128.19 976.058ZM1228.84 964.702C1246.42 959.664 1255.5 958.193 1264.55 956.543C1273.62 954.89 1282.64 953.059 1300.05 947.304L1299.74 946.354C1282.38 952.092 1273.41 953.913 1264.37 955.559C1255.32 957.21 1246.19 958.688 1228.57 963.741L1228.84 964.702ZM1300.05 947.304C1342.74 933.195 1362.05 921.415 1380.95 908.604C1399.82 895.816 1418.24 882.021 1459.21 863.831L1458.8 862.917C1417.74 881.148 1399.25 894.989 1380.39 907.777C1361.56 920.542 1342.33 932.279 1299.74 946.354L1300.05 947.304ZM1459.21 863.831C1499.29 846.048 1533.49 862.32 1567.43 877.752C1601.31 893.159 1634.95 907.726 1673.49 885.787L1672.99 884.918C1634.94 906.577 1601.77 892.268 1567.84 876.842C1533.97 861.442 1499.35 844.925 1458.8 862.917L1459.21 863.831ZM1673.49 885.787C1675.98 884.368 1677.49 883.812 1679.02 883.245C1680.58 882.669 1682.14 882.083 1684.7 880.606L1684.2 879.74C1681.71 881.177 1680.2 881.741 1678.68 882.307C1677.13 882.882 1675.56 883.459 1672.99 884.918L1673.49 885.787ZM1684.7 880.606C1728.04 855.543 1760.89 852.593 1793 848.393C1825.14 844.188 1856.51 838.731 1896.71 808.575L1896.11 807.775C1856.11 837.782 1824.94 843.206 1792.87 847.401C1760.77 851.601 1727.74 854.567 1684.2 879.74L1684.7 880.606ZM1896.71 808.575C1905.34 802.104 1912.78 797.932 1919.7 794.781L1919.29 793.871C1912.31 797.05 1904.8 801.259 1896.11 807.775L1896.71 808.575ZM-0.338537 840.368C19.728 858.848 38.9466 859.816 59.0194 859.48C79.0839 859.145 99.9657 857.52 123.689 870.575L124.171 869.699C100.175 856.494 79.0129 858.146 59.0027 858.48C39.0007 858.814 20.1139 857.844 0.338891 839.632L-0.338537 840.368ZM123.689 870.575C143.419 881.43 160.729 881.844 176.929 876.726C193.094 871.619 208.137 861.007 223.358 849.872C253.865 827.556 285.124 803.14 328.077 815.347L328.35 814.385C284.852 802.023 253.183 826.816 222.768 849.065C207.528 860.213 192.612 870.722 176.628 875.772C160.681 880.811 143.655 880.418 124.171 869.699L123.689 870.575ZM328.077 815.347C348.53 821.159 362.247 829.356 372.644 838.55C383.051 847.752 390.146 857.962 397.364 867.861C404.574 877.75 411.904 887.323 422.753 895.128C433.61 902.939 447.96 908.96 469.193 911.82L469.327 910.829C448.226 907.987 434.038 902.016 423.337 894.317C412.629 886.612 405.379 877.157 398.172 867.272C390.973 857.398 383.811 847.09 373.306 837.801C362.791 828.503 348.939 820.236 328.35 814.385L328.077 815.347ZM469.263 911.824C504.875 911.634 522.148 886.385 534.986 860.477C541.428 847.477 546.727 834.378 552.702 823.985C558.675 813.596 565.211 806.13 573.992 804.287L573.786 803.308C564.553 805.246 557.827 813.064 551.836 823.486C545.846 833.904 540.477 847.143 534.09 860.033C521.271 885.903 504.244 910.637 469.257 910.824L469.263 911.824ZM754.022 789.931C769.123 788.727 782.018 793.147 795.008 797.481C807.978 801.807 821.039 806.044 836.326 804.294L836.212 803.301C821.172 805.022 808.308 800.863 795.325 796.532C782.363 792.208 769.278 787.711 753.943 788.934L754.022 789.931ZM836.326 804.294C849.662 802.77 859.68 804.614 868.039 808.079C876.412 811.55 883.14 816.654 889.912 821.706C896.67 826.749 903.472 831.74 911.932 834.876C920.406 838.018 930.515 839.289 943.897 836.959L943.726 835.974C930.501 838.276 920.573 837.013 912.279 833.939C903.972 830.859 897.277 825.954 890.51 820.905C883.756 815.866 876.93 810.682 868.422 807.155C859.899 803.622 849.709 801.758 836.212 803.301L836.326 804.294ZM943.897 836.959C964.955 833.296 981.364 835.348 995.428 840.13C1009.51 844.918 1021.25 852.445 1033.01 859.78C1044.74 867.106 1056.49 874.239 1070.5 878.138C1084.53 882.04 1100.79 882.696 1121.59 877.13L1121.33 876.164C1100.69 881.687 1084.61 881.025 1070.77 877.174C1056.91 873.319 1045.28 866.262 1033.54 858.932C1021.8 851.611 1009.96 844.015 995.75 839.183C981.526 834.346 964.947 832.282 943.726 835.974L943.897 836.959ZM1121.59 877.13C1142.89 871.437 1157.38 863.861 1168.43 855.205C1179.46 846.552 1187.03 836.836 1194.48 826.913C1201.94 816.983 1209.28 806.853 1219.89 797.278C1230.49 787.709 1244.37 778.685 1264.9 771.017L1264.55 770.08C1243.91 777.789 1229.92 786.877 1219.22 796.536C1208.53 806.188 1201.13 816.401 1193.68 826.312C1186.23 836.23 1178.73 845.853 1167.81 854.418C1156.89 862.979 1142.52 870.5 1121.33 876.164L1121.59 877.13ZM1264.9 771.017C1300.8 757.606 1320.31 758.935 1339.56 759.517C1349.2 759.808 1358.79 759.914 1370.33 757.881C1381.86 755.848 1395.31 751.68 1412.68 743.445L1412.25 742.542C1394.94 750.746 1381.58 754.881 1370.15 756.896C1358.73 758.91 1349.22 758.808 1339.59 758.517C1320.3 757.934 1300.63 756.601 1264.55 770.08L1264.9 771.017ZM1412.68 743.445C1419.19 740.357 1422.56 739.67 1425.93 738.95C1429.35 738.22 1432.77 737.458 1439.32 734.215L1438.88 733.319C1432.42 736.515 1429.09 737.254 1425.72 737.972C1422.31 738.7 1418.86 739.407 1412.25 742.542L1412.68 743.445ZM1439.32 734.215C1482.28 713.001 1513.51 720.337 1544.24 726.572C1559.6 729.69 1574.86 732.538 1591.36 731.357C1607.86 730.174 1625.58 724.958 1645.89 711.993L1645.35 711.15C1625.18 724.031 1607.62 729.189 1591.28 730.359C1574.94 731.53 1559.8 728.711 1544.43 725.592C1513.7 719.355 1482.16 711.942 1438.88 733.319L1439.32 734.215ZM1645.89 711.993C1667.65 698.1 1687.01 702.056 1706.34 705.741C1725.67 709.424 1744.96 712.832 1766.19 697.39L1765.6 696.581C1744.75 711.751 1725.85 708.441 1706.53 704.759C1687.22 701.078 1667.48 697.021 1645.35 711.15L1645.89 711.993ZM1766.19 697.389C1786.9 682.316 1808.64 686.406 1830.39 690.247C1852.08 694.079 1873.77 697.661 1893.87 681.021L1893.23 680.251C1873.53 696.562 1852.3 693.102 1830.56 689.263C1808.88 685.433 1786.7 681.222 1765.6 696.581L1766.19 697.389ZM1893.87 681.021C1904.88 671.9 1913.24 663.242 1919.89 654.831L1919.1 654.211C1912.5 662.562 1904.2 671.171 1893.23 680.251L1893.87 681.021ZM31.2448 857.413C50.657 868.936 72.042 868.431 94.4856 861.639C116.917 854.849 140.475 841.758 164.284 828.023C188.115 814.275 212.201 799.879 235.753 790.412C259.303 780.946 282.244 776.44 303.79 782.396L304.056 781.432C282.203 775.392 259.016 779.984 235.38 789.485C211.746 798.985 187.586 813.425 163.785 827.156C139.962 840.9 116.5 853.931 94.1959 860.681C71.9043 867.428 50.8383 867.881 31.7552 856.553L31.2448 857.413ZM303.79 782.396C344.748 793.722 362.425 799.241 380.421 803.122C398.428 807.004 416.762 809.249 459.052 814.041L459.165 813.048C416.86 808.254 398.58 806.014 380.632 802.144C362.673 798.272 345.055 792.769 304.056 781.432L303.79 782.396ZM459.052 814.041C500.748 818.77 521.921 815.389 543.153 810.743C564.344 806.107 585.554 800.221 627.411 799.897L627.404 798.897C585.429 799.222 564.124 805.131 542.94 809.766C521.798 814.393 500.736 817.762 459.165 813.048L459.052 814.041ZM1049.77 714.497C1074.4 716.961 1091.49 715.661 1104 712.029C1116.52 708.392 1124.42 702.425 1130.68 695.609C1133.81 692.208 1136.52 688.599 1139.19 684.979C1141.87 681.353 1144.5 677.721 1147.47 674.242C1153.4 667.298 1160.67 660.979 1172.26 656.708L1171.92 655.77C1160.13 660.114 1152.72 666.553 1146.71 673.593C1143.71 677.105 1141.06 680.771 1138.39 684.385C1135.72 688.004 1133.03 691.575 1129.94 694.933C1123.78 701.634 1116.04 707.49 1103.72 711.069C1091.38 714.652 1074.43 715.959 1049.87 713.503L1049.77 714.497ZM1172.26 656.708C1181.53 653.295 1187.71 649.788 1192.34 646.198C1196.97 642.608 1200.03 638.949 1203.03 635.276C1206.04 631.602 1209 627.918 1213.46 624.201C1217.92 620.485 1223.89 616.724 1232.92 612.941L1232.53 612.018C1223.43 615.834 1217.36 619.643 1212.82 623.432C1208.28 627.22 1205.26 630.976 1202.26 634.643C1199.26 638.31 1196.26 641.892 1191.73 645.407C1187.2 648.922 1181.11 652.384 1171.92 655.77L1172.26 656.708ZM1232.92 612.941C1275.78 594.985 1295.45 590.488 1314.63 584.897C1333.83 579.296 1352.5 572.608 1393.28 550.291L1392.8 549.414C1352.07 571.702 1333.47 578.359 1314.35 583.937C1295.18 589.524 1275.45 594.037 1232.53 612.018L1232.92 612.941ZM1393.28 550.291C1417.37 537.104 1436.22 544.859 1455.07 552.347C1464.47 556.085 1473.9 559.765 1483.92 560.637C1493.96 561.511 1504.58 559.564 1516.38 552.109L1515.84 551.264C1504.23 558.602 1493.83 560.496 1484.01 559.641C1474.16 558.783 1464.86 555.164 1455.44 551.418C1436.61 543.937 1417.34 535.981 1392.8 549.414L1393.28 550.291ZM1516.38 552.109C1534.46 540.68 1552.21 548.463 1570.12 556.193C1587.93 563.879 1605.91 571.515 1623.9 558.84L1623.32 558.023C1605.85 570.33 1588.42 563.002 1570.52 555.274C1552.71 547.59 1534.44 539.509 1515.84 551.264L1516.38 552.109ZM1623.9 558.84C1662.42 531.706 1700.31 538.57 1737.59 544.458C1774.84 550.341 1811.48 555.242 1847.02 523.679L1846.36 522.931C1811.2 554.156 1775 549.354 1737.74 543.47C1700.51 537.591 1662.21 530.624 1623.32 558.023L1623.9 558.84ZM1847.02 523.679C1851.81 519.426 1854.81 517.329 1857.8 515.205C1860.81 513.072 1863.8 510.914 1868.56 506.551L1867.89 505.814C1863.17 510.138 1860.21 512.269 1857.22 514.39C1854.22 516.519 1851.19 518.641 1846.36 522.931L1847.02 523.679ZM1868.56 506.551C1906.59 471.698 1900.58 428.755 1893.32 384.976C1886.05 341.119 1877.52 296.418 1909.85 257.413L1909.08 256.775C1876.41 296.189 1885.08 341.383 1892.33 385.14C1899.6 428.975 1905.47 471.367 1867.89 505.814L1868.56 506.551ZM-0.999685 300.667C-0.780719 342.159 12.2538 363.653 21.6567 385.279C26.3546 396.083 30.1475 406.918 31.028 420.329C31.9087 433.742 29.8779 449.767 22.8748 470.942L23.8242 471.256C30.8566 449.993 32.917 433.837 32.0259 420.264C31.1345 406.688 27.2925 395.732 22.5738 384.88C13.1436 363.191 0.217954 341.905 0.000300586 300.662L-0.999685 300.667ZM22.8748 470.942C10.3988 508.647 5.54041 532.593 7.38447 556.041C9.22741 579.476 17.7635 602.371 31.9572 637.961L32.8861 637.59C18.6814 601.973 10.2104 579.22 8.38139 555.963C6.55351 532.72 11.3583 508.93 23.8242 471.256L22.8748 470.942ZM31.9573 637.961C38.0538 653.24 42.3447 666.619 46.2417 678.697C50.1368 690.77 53.6424 701.557 58.1628 711.617C67.2189 731.771 80.3376 748.983 108.771 767.942L109.326 767.11C81.0352 748.246 68.0476 731.176 59.0749 711.208C54.581 701.206 51.0915 690.472 47.1934 678.39C43.2972 666.314 38.9967 652.905 32.8861 637.59L31.9573 637.961ZM108.771 767.942C123.554 777.8 136.833 780.956 149.494 780.469C162.134 779.983 174.128 775.867 186.328 771.249C210.755 762.003 236.079 750.727 269.659 761.778L269.972 760.828C236.004 749.649 210.343 761.089 185.974 770.314C173.774 774.932 161.917 778.991 149.456 779.47C137.015 779.948 123.942 776.857 109.326 767.11L108.771 767.942ZM269.659 761.778C274.441 763.351 278.122 763.739 281.259 763.503C284.392 763.267 286.955 762.411 289.474 761.544C292 760.675 294.477 759.797 297.515 759.45C300.545 759.105 304.154 759.287 308.907 760.581L309.17 759.616C304.309 758.293 300.572 758.095 297.402 758.457C294.238 758.818 291.66 759.735 289.148 760.599C286.63 761.465 284.176 762.281 281.185 762.506C278.199 762.73 274.65 762.367 269.972 760.828L269.659 761.778ZM308.907 760.581C349.864 771.724 368.866 770.271 388.212 766.999C407.487 763.738 427.044 758.687 469.232 762.592L469.324 761.597C426.99 757.678 407.315 762.753 388.045 766.013C368.845 769.26 349.988 770.721 309.17 759.616L308.907 760.581ZM469.232 762.592C510.811 766.433 529.357 776.487 548.001 785.225C557.339 789.602 566.716 793.656 579.005 796.422C591.292 799.186 606.472 800.658 627.426 799.897L627.389 798.898C606.5 799.656 591.41 798.188 579.224 795.446C567.041 792.705 557.741 788.686 548.425 784.32C529.761 775.572 511.085 765.454 469.324 761.597L469.232 762.592ZM627.426 799.897C711.497 796.839 706.512 796.854 789.738 784.712L789.594 783.722C706.396 795.861 711.417 795.841 627.389 798.898L627.426 799.897ZM789.738 784.712C867.211 773.405 874.979 777.124 954.258 777.124V776.124C875.021 776.124 867.158 772.402 789.594 783.722L789.738 784.712ZM954.258 777.124C964.334 777.124 971.571 775.696 977.114 773.518C982.662 771.338 986.485 768.418 989.74 765.48C996.259 759.595 1000.39 753.792 1011.53 753.225L1011.47 752.227C999.899 752.816 995.467 758.962 989.07 764.737C985.868 767.628 982.146 770.466 976.748 772.587C971.347 774.709 964.239 776.124 954.258 776.124V777.124ZM1011.53 753.225C1029.27 752.321 1038.51 747.356 1043.56 739.827C1048.58 732.358 1049.38 722.455 1050.55 711.962C1051.72 701.418 1053.26 690.188 1059.6 679.794C1065.94 669.417 1077.1 659.815 1097.65 652.636L1097.32 651.692C1076.61 658.929 1065.23 668.655 1058.75 679.273C1052.28 689.876 1050.73 701.309 1049.56 711.852C1048.38 722.446 1047.58 732.052 1042.73 739.27C1037.93 746.429 1029.07 751.331 1011.47 752.227L1011.53 753.225ZM1097.65 652.636C1119.08 645.149 1132.3 634.97 1141.34 623.293C1150.37 611.63 1155.21 598.501 1159.91 585.184C1164.61 571.85 1169.18 558.329 1177.67 545.744C1186.15 533.174 1198.56 521.521 1218.95 511.985L1218.52 511.079C1197.97 520.689 1185.43 532.458 1176.84 545.184C1168.27 557.895 1163.66 571.544 1158.96 584.852C1154.26 598.177 1149.47 611.161 1140.55 622.681C1131.65 634.187 1118.59 644.26 1097.32 651.692L1097.65 652.636ZM1218.95 511.985C1241.15 501.598 1251.43 500.358 1261.58 498.813C1271.8 497.256 1281.88 495.392 1303.59 483.752L1303.11 482.871C1281.52 494.452 1271.55 496.283 1261.42 497.824C1251.22 499.378 1240.84 500.637 1218.52 511.079L1218.95 511.985ZM1303.59 483.752C1313.66 478.347 1321.64 476.1 1328.55 475.387C1335.46 474.674 1341.33 475.494 1347.22 476.26C1353.1 477.026 1359.01 477.737 1365.91 476.753C1372.82 475.767 1380.7 473.088 1390.57 467.12L1390.05 466.265C1380.27 472.177 1372.52 474.799 1365.77 475.763C1359.01 476.726 1353.23 476.034 1347.34 475.269C1341.47 474.504 1335.49 473.666 1328.44 474.393C1321.39 475.121 1313.29 477.413 1303.11 482.871L1303.59 483.752ZM1390.57 467.12C1412.16 454.061 1434.42 453.535 1456.96 459.161C1479.52 464.792 1502.32 476.574 1524.98 488.094C1547.61 499.6 1570.1 510.846 1591.96 515.307C1613.85 519.774 1635.13 517.444 1655.32 501.783L1654.7 500.992C1634.8 516.438 1613.83 518.75 1592.16 514.327C1570.45 509.898 1548.09 498.721 1525.43 487.203C1502.81 475.698 1479.9 463.855 1457.2 458.191C1434.49 452.521 1411.94 453.029 1390.05 466.265L1390.57 467.12ZM1655.32 501.782C1656.96 500.51 1657.86 499.935 1658.78 499.352C1659.71 498.76 1660.64 498.161 1662.31 496.852L1661.69 496.066C1660.06 497.347 1659.16 497.927 1658.24 498.508C1657.32 499.099 1656.38 499.693 1654.7 500.993L1655.32 501.782ZM1662.31 496.853C1704.65 463.665 1735.82 455.026 1765.89 445.098C1796.01 435.155 1825.01 423.926 1862.87 385.531L1862.16 384.829C1824.45 423.072 1795.61 434.235 1765.58 444.149C1735.5 454.077 1704.19 462.759 1661.69 496.065L1662.31 496.853ZM1862.87 385.531C1868.35 379.975 1870.24 375.853 1872.09 371.745C1873.91 367.676 1875.69 363.628 1880.94 358.096L1880.22 357.407C1874.85 363.062 1873.01 367.234 1871.17 371.335C1869.35 375.397 1867.52 379.396 1862.16 384.829L1862.87 385.531ZM1880.94 358.096C1918.19 318.865 1911.36 277.86 1903.2 235.974C1895.03 194.052 1885.54 151.249 1916.88 107.895L1916.07 107.31C1884.44 151.062 1894.06 194.304 1902.22 236.165C1910.38 278.062 1917.08 318.578 1880.22 357.407L1880.94 358.096ZM1916.88 107.896C1918.26 105.99 1919.17 104.729 1919.9 103.701L1919.09 103.122C1918.36 104.145 1917.45 105.402 1916.07 107.309L1916.88 107.896ZM-1 194.959C-1 238.238 13.9537 285.367 26.7372 332.349C39.5339 379.38 50.1617 426.275 41.6641 469.258L42.6451 469.452C51.1939 426.21 40.4943 379.1 27.7022 332.086C14.8968 285.024 0 238.067 0 194.959H-1ZM41.6641 469.258C34.0908 507.603 32.2523 536.831 38.3857 563.681C44.5206 590.537 58.6181 614.961 82.8143 643.727L83.5796 643.083C59.4384 614.383 45.4467 590.101 39.3606 563.458C33.2732 536.809 35.0823 507.744 42.6451 469.451L41.6641 469.258ZM82.8143 643.727C90.7698 653.19 94.4137 659.173 98.5512 664.794C102.693 670.421 107.277 675.606 117.033 683.366L117.655 682.583C107.964 674.875 103.443 669.753 99.3566 664.202C95.2667 658.645 91.5608 652.577 83.5797 643.083L82.8143 643.727ZM117.033 683.366C134.692 697.409 150.072 703.692 164.603 705.564C179.123 707.435 192.747 704.894 206.866 701.371C235.109 694.323 265.404 683.336 309.344 695.309L309.607 694.345C265.367 682.289 234.799 693.37 206.623 700.401C192.532 703.917 179.058 706.418 164.731 704.572C150.414 702.727 135.199 696.535 117.655 682.583L117.033 683.366ZM309.344 695.309C329.749 700.871 344.626 702.86 356.787 702.801C368.953 702.741 378.378 700.631 387.865 698.025C406.798 692.823 426.028 685.629 468.151 688.671L468.223 687.673C425.914 684.618 406.539 691.857 387.6 697.061C378.151 699.657 368.823 701.742 356.782 701.801C344.737 701.859 329.953 699.89 309.607 694.345L309.344 695.309ZM468.151 688.671C509.75 691.675 528.598 703.773 547.524 714.476C557.002 719.836 566.518 724.858 578.904 728.19C591.29 731.522 606.521 733.159 627.44 731.789L627.375 730.792C606.542 732.156 591.423 730.523 579.163 727.224C566.903 723.926 557.476 718.956 548.016 713.606C529.065 702.889 510.055 690.694 468.223 687.673L468.151 688.671ZM627.44 731.789C669.435 729.035 690.615 737.324 711.713 744.452C722.276 748.021 732.836 751.306 745.959 752.753C759.083 754.2 774.749 753.807 795.54 750.05L795.363 749.066C774.648 752.809 759.08 753.193 746.068 751.759C733.056 750.324 722.58 747.068 712.033 743.505C690.91 736.369 669.575 728.024 627.375 730.792L627.44 731.789ZM795.54 750.05C837.783 742.415 861.662 748.404 885.357 753.348C909.109 758.304 932.647 762.201 974.076 750.273L973.8 749.312C932.58 761.179 909.219 757.306 885.561 752.369C861.846 747.421 837.806 741.395 795.363 749.066L795.54 750.05ZM974.076 750.273C1016.93 737.943 1026.8 700.685 1036.26 662.798C1045.75 624.81 1054.84 586.179 1095.72 570.092L1095.35 569.161C1053.92 585.467 1044.75 624.679 1035.29 662.556C1025.8 700.534 1016.03 737.162 973.8 749.312L974.076 750.273ZM1095.72 570.092C1102.97 567.241 1107.57 563.714 1110.82 559.819C1114.07 555.933 1115.97 551.702 1117.82 547.505C1119.67 543.296 1121.49 539.123 1124.59 535.228C1127.68 531.345 1132.05 527.72 1139.05 524.67L1138.65 523.753C1131.52 526.863 1127 530.584 1123.8 534.606C1120.61 538.617 1118.75 542.91 1116.9 547.102C1115.05 551.307 1113.2 555.414 1110.06 559.177C1106.92 562.931 1102.46 566.365 1095.35 569.161L1095.72 570.092ZM1139.05 524.67C1153.2 518.503 1161.48 510.565 1166.77 501.666C1172.06 492.786 1174.34 482.978 1176.56 473.136C1178.78 463.271 1180.93 453.372 1185.9 444.167C1190.86 434.982 1198.63 426.47 1212.15 419.437L1211.68 418.55C1198 425.673 1190.07 434.326 1185.02 443.693C1179.97 453.04 1177.8 463.079 1175.59 472.916C1173.36 482.775 1171.1 492.431 1165.91 501.155C1160.74 509.859 1152.62 517.663 1138.65 523.753L1139.05 524.67ZM1212.15 419.437C1233.66 408.238 1251.71 404.883 1267.93 405.295C1284.16 405.707 1298.6 409.89 1312.93 413.815C1327.25 417.735 1341.47 421.396 1357.18 420.677C1372.91 419.957 1390.09 414.853 1410.38 401.316L1409.83 400.484C1389.67 413.934 1372.66 418.968 1357.14 419.678C1341.6 420.389 1327.52 416.772 1313.19 412.85C1298.89 408.933 1284.33 404.711 1267.95 404.295C1251.56 403.879 1233.35 407.276 1211.68 418.55L1212.15 419.437ZM1410.38 401.316C1412.89 399.638 1414.89 398.726 1416.63 398.187C1418.36 397.647 1419.85 397.476 1421.39 397.296C1422.92 397.116 1424.49 396.927 1426.32 396.337C1428.15 395.747 1430.22 394.761 1432.78 393.003L1432.22 392.178C1429.72 393.891 1427.74 394.829 1426.01 395.386C1424.28 395.942 1422.8 396.123 1421.27 396.302C1419.74 396.482 1418.17 396.661 1416.33 397.232C1414.49 397.804 1412.41 398.762 1409.83 400.484L1410.38 401.316ZM1432.78 393.002C1451.73 379.972 1474.05 380.304 1498.06 387.29C1522.09 394.279 1547.71 407.895 1573.2 421.307C1598.67 434.704 1624.02 447.898 1647.41 453.959C1670.82 460.024 1692.38 458.969 1710.17 443.745L1709.52 442.985C1692.07 457.913 1670.9 459.013 1647.66 452.991C1624.4 446.965 1599.16 433.833 1573.67 420.422C1548.2 407.025 1522.48 393.353 1498.34 386.33C1474.19 379.305 1451.52 378.904 1432.22 392.178L1432.78 393.002ZM1710.17 443.744C1725.12 430.95 1735.07 425.285 1744.9 419.437C1754.75 413.576 1764.46 407.539 1778.88 394.016L1778.2 393.287C1763.85 406.743 1754.2 412.738 1744.39 418.577C1734.55 424.429 1724.53 430.131 1709.52 442.985L1710.17 443.744ZM1778.88 394.016C1807.6 367.071 1800.97 331.604 1793.79 295.871C1786.59 260.02 1778.84 223.887 1804.53 194.896L1803.78 194.233C1777.71 223.66 1785.64 260.344 1792.81 296.068C1800.01 331.91 1806.45 366.777 1778.2 393.287L1778.88 394.016ZM1804.53 194.896C1816.14 181.787 1835.83 171.497 1855.51 161.029C1875.12 150.591 1894.73 139.974 1905.92 126.21L1905.14 125.579C1894.11 139.154 1874.71 149.679 1855.04 160.146C1835.43 170.581 1815.54 180.957 1803.78 194.233L1804.53 194.896ZM41.6547 469.344C40.3214 529.927 73.7376 560.135 114.54 604.015L115.273 603.334C74.3911 559.37 41.3317 529.468 42.6545 469.366L41.6547 469.344ZM114.54 604.015C120.516 610.444 126.075 614.238 131.53 616.589C136.981 618.937 142.302 619.834 147.77 620.5C158.702 621.831 170.268 622.252 185.105 631.349L185.627 630.497C170.574 621.267 158.781 620.833 147.891 619.507C142.448 618.844 137.242 617.961 131.926 615.67C126.615 613.381 121.167 609.675 115.273 603.334L114.54 604.015ZM185.105 631.349C198.03 639.272 208.793 641.718 218.589 641.153C228.367 640.588 237.133 637.023 246.047 633.021C263.885 625.011 282.429 615.2 311.451 623.329L311.72 622.366C282.308 614.128 263.448 624.11 245.638 632.108C236.728 636.109 228.109 639.602 218.531 640.154C208.971 640.706 198.408 638.331 185.627 630.497L185.105 631.349ZM311.451 623.329C331.781 629.025 346.534 629.178 358.548 626.238C370.556 623.3 379.778 617.282 389.042 610.738C398.317 604.185 407.626 597.113 419.879 591.94C432.119 586.773 447.313 583.498 468.324 584.605L468.377 583.606C447.226 582.492 431.88 585.789 419.49 591.019C407.114 596.243 397.706 603.393 388.465 609.921C379.213 616.457 370.122 622.377 358.311 625.267C346.505 628.156 331.932 628.028 311.72 622.366L311.451 623.329ZM468.324 584.605C509.871 586.797 533.93 611.5 558.112 634.826C582.273 658.131 606.555 680.05 648.452 676.043L648.357 675.047C606.95 679.008 582.966 657.41 558.806 634.106C534.667 610.821 510.351 585.821 468.377 583.606L468.324 584.605ZM794.356 734.756C836.201 734.756 870.485 725.424 898.51 715.606C912.505 710.702 924.982 705.662 936.002 701.623C947.047 697.575 956.653 694.524 965.013 693.543L964.897 692.55C956.409 693.546 946.707 696.635 935.658 700.684C924.584 704.742 912.18 709.757 898.179 714.662C870.213 724.46 836.047 733.756 794.356 733.756V734.756ZM965.112 693.521C1008.01 679.344 1021.42 643.839 1034.36 607.583C1047.33 571.268 1059.82 534.199 1100.63 516.143L1100.23 515.228C1058.96 533.485 1046.36 571.005 1033.42 607.246C1020.47 643.546 1007.18 678.565 964.798 692.572L965.112 693.521ZM1100.63 516.143C1122.16 506.626 1135.48 495.54 1144.61 483.518C1153.73 471.505 1158.65 458.585 1163.41 445.463C1168.17 432.327 1172.77 418.994 1181.24 406.031C1189.71 393.081 1202.06 380.486 1222.33 368.886L1221.84 368.018C1201.43 379.692 1188.96 392.394 1180.4 405.484C1171.85 418.562 1167.22 432.012 1162.47 445.122C1157.71 458.246 1152.83 471.035 1143.81 482.913C1134.8 494.782 1121.62 505.77 1100.23 515.228L1100.63 516.143ZM1222.33 368.886C1225.1 367.305 1229.38 365.958 1234.48 364.725C1239.56 363.495 1245.4 362.391 1251.26 361.277C1257.1 360.165 1262.97 359.044 1268.07 357.785C1273.16 356.528 1277.55 355.12 1280.43 353.416L1279.92 352.555C1277.18 354.179 1272.91 355.559 1267.83 356.814C1262.76 358.066 1256.92 359.182 1251.07 360.295C1245.22 361.407 1239.36 362.516 1234.24 363.753C1229.14 364.988 1224.74 366.361 1221.84 368.018L1222.33 368.886ZM1280.43 353.416C1299.03 342.411 1314.54 340.114 1328.43 342.026C1342.34 343.942 1354.67 350.085 1366.94 356.059C1379.18 362.019 1391.36 367.812 1404.89 368.875C1418.45 369.94 1433.3 366.253 1450.9 353.389L1450.3 352.582C1432.87 365.33 1418.25 368.921 1404.97 367.878C1391.66 366.832 1379.64 361.131 1367.37 355.16C1355.14 349.202 1342.67 342.977 1328.56 341.035C1314.43 339.09 1298.7 341.446 1279.92 352.555L1280.43 353.416ZM1450.9 353.389C1462.23 345.097 1475.14 344.165 1488.88 346.922C1502.64 349.682 1517.16 356.126 1531.68 362.513C1546.17 368.887 1560.66 375.207 1574.27 377.637C1587.9 380.072 1600.71 378.616 1611.78 369.377L1611.14 368.609C1600.37 377.599 1587.89 379.055 1574.45 376.653C1560.98 374.248 1546.6 367.984 1532.08 361.597C1517.59 355.223 1502.96 348.728 1489.08 345.942C1475.17 343.152 1461.95 344.067 1450.3 352.582L1450.9 353.389ZM1611.78 369.377C1631.69 352.749 1647.45 348.68 1663.03 344.305C1678.64 339.92 1694.05 335.229 1713.1 317.306L1712.41 316.578C1693.54 334.338 1678.31 338.974 1662.76 343.343C1647.16 347.723 1631.23 351.837 1611.14 368.609L1611.78 369.377ZM1713.1 317.306C1737.99 293.878 1733.34 264.004 1728.29 233.995C1723.23 203.889 1717.78 173.64 1740.34 148.785L1739.6 148.113C1716.66 173.385 1722.27 204.162 1727.31 234.161C1732.37 264.257 1736.86 293.565 1712.41 316.578L1713.1 317.306ZM1740.34 148.785C1759.39 127.787 1757.11 101.443 1754.51 75.0725C1751.9 48.6172 1748.99 22.1311 1766.29 0.310663L1765.5 -0.310594C1747.91 21.8807 1750.92 48.8092 1753.51 75.1705C1756.12 101.616 1758.31 127.491 1739.6 148.113L1740.34 148.785ZM115.72 300.522C107.394 328.602 95.9087 359.652 88.2769 390.589C80.6406 421.544 76.8241 452.513 83.8582 480.538L84.8281 480.294C77.8539 452.509 81.6244 421.732 89.2478 390.829C96.8758 359.908 108.323 328.988 116.679 300.807L115.72 300.522ZM83.8582 480.538C86.5617 491.302 88.9073 496.141 93.1599 506.329L94.0827 505.943C89.8211 495.735 87.5095 490.97 84.8281 480.294L83.8582 480.538ZM93.1597 506.328C101.683 526.794 113.869 538.136 128.849 544.029C143.797 549.909 161.476 550.341 180.95 549.107C219.959 546.635 266.238 537.495 313.099 551.401L313.383 550.442C266.298 536.47 219.723 545.648 180.886 548.109C161.437 549.341 143.946 548.893 129.215 543.098C114.516 537.316 102.515 526.19 94.0828 505.944L93.1597 506.328ZM313.099 551.401C328.371 555.937 339.527 554.454 348.643 549.708C357.727 544.978 364.735 537.03 371.756 528.772C378.799 520.489 385.861 511.887 395.095 505.673C404.305 499.474 415.688 495.646 431.377 496.976L431.462 495.98C415.541 494.63 403.932 498.52 394.536 504.843C385.165 511.15 378.01 519.873 370.994 528.124C363.957 536.4 357.066 544.194 348.181 548.821C339.329 553.43 328.447 554.917 313.383 550.442L313.099 551.401ZM431.378 496.976C436.888 497.44 441.017 494.621 445.091 490.384C447.128 488.266 449.176 485.767 451.386 483.112C453.601 480.451 455.987 477.623 458.719 474.818C464.178 469.213 471.012 463.706 480.562 459.875C490.113 456.044 502.41 453.878 518.809 454.999L518.877 454.001C502.354 452.872 489.903 455.051 480.19 458.947C470.475 462.843 463.529 468.446 458.003 474.12C455.241 476.955 452.834 479.809 450.618 482.472C448.396 485.14 446.376 487.605 444.371 489.691C440.361 493.86 436.512 496.405 431.462 495.98L431.378 496.976ZM513.907 770.962C521.238 770.41 530.697 771.924 542.048 774.178C553.374 776.427 566.557 779.406 581.253 781.741C610.659 786.413 646.196 788.519 685.466 777.104L685.187 776.143C646.111 787.502 610.737 785.413 581.41 780.754C566.739 778.423 553.601 775.453 542.242 773.197C530.908 770.947 521.319 769.402 513.832 769.965L513.907 770.962ZM685.389 777.12C706.565 774.445 720.689 770.522 731.254 765.8C741.824 761.075 748.806 755.56 755.696 749.748C762.583 743.937 769.364 737.842 779.577 731.877C789.788 725.914 803.444 720.074 824.057 714.822L823.81 713.853C803.126 719.123 789.379 724.995 779.073 731.014C768.77 737.031 761.919 743.189 755.051 748.984C748.185 754.776 741.288 760.22 730.846 764.887C720.398 769.557 706.377 773.461 685.264 776.128L685.389 777.12ZM824.057 714.822C866.699 703.961 888.261 687.716 909.429 670.382C930.569 653.072 951.294 634.696 992.323 619.431L991.975 618.494C950.773 633.823 929.934 652.299 908.795 669.609C887.684 686.896 866.254 703.042 823.81 713.853L824.057 714.822ZM992.323 619.431C1035.33 603.432 1045.4 567.933 1054.96 531.696C1064.54 495.406 1073.62 458.377 1114.35 438.527L1113.91 437.628C1072.72 457.706 1063.55 495.22 1053.99 531.441C1044.42 567.714 1034.45 602.693 991.975 618.494L992.323 619.431ZM1114.35 438.527C1115.86 437.789 1116.55 437.361 1117.24 436.938C1117.91 436.525 1118.57 436.116 1120.04 435.397L1119.6 434.499C1118.09 435.237 1117.4 435.664 1116.71 436.087C1116.04 436.5 1115.38 436.909 1113.91 437.628L1114.35 438.527ZM1120.04 435.397C1140.86 425.163 1154.49 414.81 1164.46 404.256C1174.42 393.703 1180.69 382.968 1186.79 372.013C1198.97 350.13 1210.52 327.278 1249.57 302.742L1249.03 301.895C1209.76 326.57 1198.12 349.608 1185.91 371.526C1179.82 382.472 1173.6 393.114 1163.73 403.569C1153.86 414.023 1140.33 424.309 1119.6 434.499L1120.04 435.397ZM1249.57 302.742C1277.67 285.079 1304.19 295.585 1330.64 305.724C1357.03 315.836 1383.35 325.582 1410.53 305.563L1409.93 304.758C1383.25 324.416 1357.45 314.926 1331 304.79C1304.63 294.682 1277.62 283.929 1249.03 301.895L1249.57 302.742ZM1410.53 305.563C1424.92 294.963 1434.52 292.635 1444.07 290.152C1453.66 287.654 1463.19 285 1477.29 273.716L1476.67 272.935C1462.72 284.097 1453.34 286.705 1443.81 289.184C1434.23 291.678 1424.48 294.045 1409.93 304.758L1410.53 305.563ZM1477.29 273.716C1513.08 245.098 1539.93 239.022 1566.07 232.052C1592.26 225.069 1617.71 217.192 1650.49 184.921L1649.78 184.209C1617.18 216.31 1591.92 224.126 1565.82 231.086C1539.66 238.06 1512.63 244.178 1476.67 272.935L1477.29 273.716ZM1650.49 184.921C1654.23 181.24 1660.73 178.094 1668.7 175.208C1676.65 172.329 1685.98 169.735 1695.33 167.123C1704.67 164.514 1714.02 161.887 1721.96 158.947C1729.9 156.012 1736.51 152.738 1740.33 148.797L1739.61 148.101C1735.97 151.867 1729.54 155.079 1721.62 158.009C1713.71 160.933 1704.41 163.549 1695.06 166.16C1685.73 168.769 1676.35 171.373 1668.36 174.268C1660.38 177.157 1653.69 180.362 1649.78 184.208L1650.49 184.921ZM115.72 300.522C103.738 340.932 120.95 384.268 153.982 422.825L154.741 422.175C121.807 383.732 104.837 340.744 116.679 300.807L115.72 300.522ZM153.982 422.825C174.789 447.113 200.074 454.934 227.843 459.276C255.643 463.623 285.831 464.485 316.779 474.792L317.095 473.843C286.044 463.502 255.637 462.61 227.997 458.288C200.325 453.961 175.322 446.197 154.741 422.175L153.982 422.825ZM316.779 474.792C336.686 481.422 350.713 480.417 361.857 475.125C372.969 469.848 381.139 460.337 389.389 450.149C397.659 439.935 406.021 429.026 417.553 420.754C429.064 412.497 443.75 406.859 464.669 407.262L464.688 406.262C443.555 405.856 428.658 411.558 416.97 419.942C405.305 428.31 396.853 439.342 388.611 449.52C380.349 459.723 372.308 469.055 361.428 474.222C350.578 479.374 336.829 480.415 317.095 473.843L316.779 474.792ZM464.669 407.262C485.299 407.657 501.949 425.218 516.626 451.497C531.283 477.738 543.856 512.456 556.42 546.775C568.974 581.068 581.519 614.969 596.112 639.484C610.685 663.965 627.444 679.325 648.482 676.039L648.327 675.051C627.967 678.231 611.528 663.426 596.972 638.973C582.436 614.554 569.922 580.751 557.359 546.431C544.805 512.139 532.204 477.336 517.499 451.01C502.816 424.721 485.919 406.668 464.688 406.262L464.669 407.262ZM648.482 676.039C690.954 669.399 714.224 658.123 737.161 645.492C760.074 632.875 782.622 618.928 823.721 606.869L823.439 605.909C782.217 618.005 759.575 632.008 736.679 644.616C713.807 657.211 690.65 668.435 648.327 675.051L648.482 676.039ZM823.721 606.869C857.679 596.909 875.263 587.6 892.578 577.556C909.872 567.524 926.873 556.774 959.715 543.885L959.35 542.954C926.426 555.875 909.362 566.664 892.076 576.691C874.812 586.705 857.303 595.977 823.439 605.909L823.721 606.869ZM959.715 543.885C968.257 540.533 972.756 538.318 977.232 536.06C981.696 533.809 986.131 531.518 994.564 528L994.179 527.077C985.711 530.609 981.249 532.914 976.781 535.168C972.324 537.416 967.855 539.616 959.35 542.954L959.715 543.885ZM994.564 528C1016.06 519.032 1030.38 507.938 1041.03 495.642C1051.67 483.354 1058.64 469.883 1065.46 456.206C1079.1 428.856 1092.18 400.602 1132.89 378.677L1132.42 377.796C1091.4 399.883 1078.21 428.402 1064.57 455.76C1057.75 469.438 1050.82 482.805 1040.27 494.987C1029.73 507.161 1015.54 518.166 994.179 527.077L994.564 528ZM1132.89 378.677C1148.45 370.297 1158.9 362.114 1166.76 353.948C1174.61 345.783 1179.85 337.649 1184.98 329.399C1195.23 312.921 1205.07 295.904 1234.57 276.838L1234.02 275.998C1204.34 295.188 1194.4 312.362 1184.13 328.871C1179.01 337.113 1173.81 345.171 1166.04 353.255C1158.26 361.336 1147.89 369.458 1132.42 377.796L1132.89 378.677ZM1234.57 276.837C1246.35 269.214 1250.41 263.223 1254.38 257.173C1258.32 251.18 1262.17 245.139 1273.56 237.278L1273 236.455C1261.45 244.422 1257.51 250.584 1253.55 256.624C1249.62 262.607 1245.65 268.477 1234.02 275.998L1234.57 276.837ZM1273.56 237.278C1295.37 222.225 1319.99 211.431 1345.37 200.815C1370.75 190.204 1396.89 179.771 1421.66 165.449C1471.24 136.781 1515.31 92.5393 1537.09 0.114708L1536.11 -0.114639C1514.4 92.0256 1470.51 136.045 1421.16 164.584C1396.46 178.865 1370.38 189.271 1344.99 199.892C1319.6 210.507 1294.89 221.336 1273 236.455L1273.56 237.278ZM196.648 118.665C195.653 123.26 197.527 128.005 200.648 132.728C203.775 137.458 208.227 142.273 212.549 147.027C216.889 151.799 221.096 156.506 223.811 161.069C226.527 165.634 227.684 169.943 226.108 173.969L227.039 174.334C228.783 169.879 227.446 165.222 224.671 160.558C221.895 155.893 217.614 151.11 213.289 146.354C208.947 141.578 204.557 136.827 201.483 132.176C198.403 127.517 196.718 123.066 197.625 118.876L196.648 118.665ZM226.099 173.993C215.169 206.77 189.148 221.49 164.97 236.484C140.827 251.455 118.516 266.711 115.701 300.623L116.698 300.706C119.468 267.332 141.348 252.309 165.497 237.334C189.61 222.381 215.984 207.487 227.048 174.309L226.099 173.993ZM115.701 300.623C114.121 319.614 121.548 333.307 134.741 343.598C147.901 353.864 166.797 360.748 188.191 366.211C209.59 371.675 233.568 375.737 256.903 380.319C280.255 384.904 302.971 390.012 321.917 397.57L322.288 396.641C303.247 389.045 280.45 383.923 257.096 379.338C233.723 374.748 209.801 370.697 188.438 365.242C167.071 359.786 148.345 352.943 135.356 342.81C122.399 332.703 115.149 319.324 116.698 300.706L115.701 300.623ZM321.917 397.57C323.714 398.286 324.905 398.641 325.795 398.802C326.702 398.965 327.284 398.924 327.839 398.873C328.372 398.825 328.865 398.772 329.666 398.874C330.478 398.977 331.622 399.243 333.419 399.862L333.745 398.917C331.913 398.286 330.698 397.997 329.792 397.882C328.875 397.765 328.288 397.829 327.749 397.878C327.234 397.924 326.753 397.958 325.973 397.817C325.176 397.674 324.056 397.346 322.287 396.641L321.917 397.57ZM333.42 399.863C351.529 406.067 363.971 404.381 373.615 398.264C383.212 392.178 389.96 381.745 396.79 370.679C403.642 359.577 410.592 347.81 420.602 338.834C430.587 329.88 443.63 323.697 462.691 323.827L462.698 322.827C443.381 322.696 430.1 328.975 419.934 338.09C409.794 347.182 402.767 359.091 395.939 370.154C389.088 381.253 382.451 391.476 373.08 397.42C363.756 403.333 351.647 405.05 333.744 398.916L333.42 399.863ZM462.691 323.827C473.01 323.898 482.428 328.425 491.183 336.331C499.944 344.243 508.018 355.517 515.632 369.023C530.861 396.037 544.186 431.855 557.489 467.229C570.781 502.576 584.054 537.485 599.169 562.592C606.727 575.146 614.769 585.287 623.537 591.809C632.319 598.34 641.842 601.247 652.315 599.292L652.132 598.309C641.984 600.203 632.737 597.406 624.133 591.006C615.516 584.597 607.554 574.581 600.026 562.076C584.967 537.064 571.727 502.25 558.425 466.877C545.132 431.53 531.779 395.628 516.503 368.532C508.864 354.982 500.728 343.603 491.853 335.589C482.974 327.571 473.331 322.9 462.698 322.827L462.691 323.827ZM652.315 599.292C660.653 597.737 665.564 595.936 670.444 594.081C675.307 592.232 680.13 590.332 688.332 588.551L688.12 587.574C679.84 589.372 674.958 591.295 670.088 593.146C665.234 594.992 660.386 596.77 652.132 598.309L652.315 599.292ZM688.333 588.551C722.547 581.094 739.464 566.346 756.076 550.749C772.663 535.175 788.93 518.776 821.899 507.798L821.583 506.849C788.386 517.904 771.979 534.446 755.392 550.02C738.83 565.569 722.073 580.174 688.12 587.574L688.333 588.551ZM821.899 507.798C864.749 493.539 885.199 478.823 905.154 462.936C925.078 447.074 944.484 430.068 985.302 411.138L984.881 410.231C943.942 429.217 924.452 446.294 904.531 462.154C884.64 477.99 864.292 492.637 821.583 506.849L821.899 507.798ZM985.302 411.138C1016.17 396.831 1030.12 385.158 1043.77 372.941C1057.4 360.75 1070.7 348.034 1100.31 331.57L1099.83 330.696C1070.11 347.218 1056.74 359.997 1043.11 372.195C1029.51 384.367 1015.63 395.977 984.881 410.231L985.302 411.138ZM1100.31 331.57C1112.09 325.024 1117.9 321.235 1123.67 317.368C1129.43 313.508 1135.13 309.576 1146.7 302.731L1146.19 301.871C1134.59 308.731 1128.87 312.677 1123.11 316.538C1117.36 320.392 1111.57 324.166 1099.83 330.696L1100.31 331.57ZM1146.7 302.731C1168.45 289.854 1183.05 277.576 1193.98 265.444C1204.9 253.314 1212.14 241.346 1219.16 229.118C1233.18 204.684 1246.38 179.153 1286.53 148.848L1285.93 148.05C1245.6 178.484 1232.33 204.168 1218.29 228.62C1211.28 240.835 1204.09 252.727 1193.23 264.775C1182.38 276.821 1167.86 289.037 1146.19 301.871L1146.7 302.731ZM1286.53 148.848C1295.1 142.384 1299.97 140.107 1304.83 137.771C1309.73 135.418 1314.59 133.007 1323.09 126.287L1322.47 125.503C1314.05 132.164 1309.25 134.537 1304.4 136.87C1299.51 139.219 1294.57 141.529 1285.93 148.05L1286.53 148.848ZM1323.09 126.287C1392.57 71.3022 1395.53 61.5736 1459.35 0.360895L1458.66 -0.360826C1394.77 60.9111 1391.91 70.5569 1322.47 125.503L1323.09 126.287ZM196.687 118.551C187.788 136.775 178.299 151.994 170.495 166.097C162.703 180.177 156.6 193.13 154.575 206.719C150.515 233.96 162.863 263.536 209.924 309.761L210.625 309.048C163.611 262.868 151.579 233.603 155.564 206.866C157.561 193.466 163.587 180.645 171.37 166.581C179.141 152.538 188.674 137.241 197.586 118.99L196.687 118.551ZM209.912 309.749C219.011 319.282 225.93 327.792 231.528 334.643C237.11 341.472 241.42 346.708 245.267 349.607L245.869 348.808C242.142 345.999 237.918 340.881 232.303 334.01C226.705 327.16 219.764 318.622 210.636 309.059L209.912 309.749ZM245.267 349.607C251.434 354.254 257.663 354.779 263.909 353.182C270.117 351.594 276.36 347.903 282.6 344.127C288.869 340.333 295.141 336.449 301.488 334.36C307.811 332.279 314.164 331.996 320.616 335.37L321.08 334.483C314.324 330.951 307.677 331.27 301.175 333.41C294.697 335.542 288.319 339.498 282.083 343.271C275.818 347.063 269.701 350.668 263.661 352.213C257.659 353.748 251.754 353.243 245.869 348.808L245.267 349.607ZM320.616 335.37C338.874 344.926 351.708 344.584 361.962 338.531C372.146 332.52 379.681 320.923 387.492 308.282C403.17 282.912 420.095 253.123 461.73 253.177L461.731 252.177C419.463 252.122 402.268 282.47 386.641 307.757C378.8 320.445 371.387 331.807 361.454 337.67C351.592 343.491 339.143 343.938 321.08 334.484L320.616 335.37ZM461.73 253.177C482.408 253.203 499.545 269.872 514.928 294.915C530.292 319.927 543.789 353.094 557.252 385.761C570.705 418.401 584.127 450.549 599.331 473.425C614.518 496.277 631.632 510.094 652.494 505.599L652.283 504.621C632.084 508.974 615.319 495.676 600.164 472.872C585.025 450.094 571.64 418.047 558.177 385.38C544.725 352.74 531.196 319.487 515.78 294.392C500.384 269.328 482.988 252.204 461.731 252.177L461.73 253.177ZM652.494 505.599C695.359 496.362 713.132 470.302 730.375 442.879C747.617 415.459 764.325 386.696 805.016 371.547L804.667 370.61C763.619 385.893 746.753 414.955 729.529 442.347C712.306 469.737 694.723 495.476 652.283 504.621L652.494 505.599ZM805.016 371.547C832.044 361.48 846.534 357.462 860.841 352.933C875.159 348.401 889.264 343.366 915.479 331.28L915.061 330.372C888.882 342.441 874.816 347.46 860.539 351.979C846.252 356.502 831.725 360.532 804.667 370.61L805.016 371.547ZM915.479 331.28C930.881 324.182 939.508 321.816 948.083 319.291C956.683 316.758 965.219 314.067 980.39 306.324L979.935 305.434C964.834 313.141 956.36 315.81 947.8 318.331C939.215 320.86 930.531 323.242 915.061 330.372L915.479 331.28ZM980.39 306.324C1023.52 284.322 1044 269.875 1063.86 254.37C1083.7 238.877 1102.89 222.352 1143.49 196.153L1142.95 195.313C1102.3 221.543 1083.07 238.103 1063.24 253.582C1043.43 269.049 1023 283.461 979.935 305.434L980.39 306.324ZM1143.49 196.153C1158.37 186.561 1164.23 179.216 1169.99 171.757C1175.71 164.339 1181.31 156.818 1195.68 146.771L1195.11 145.952C1180.61 156.085 1174.94 163.699 1169.19 171.147C1163.48 178.553 1157.7 185.804 1142.95 195.313L1143.49 196.153ZM1195.68 146.771C1223.84 127.08 1237.8 101.196 1251.33 74.9137C1264.86 48.6158 1277.96 21.93 1304.36 0.387447L1303.73 -0.387377C1277.14 21.3084 1263.96 48.1896 1250.44 74.456C1236.91 100.738 1223.04 126.416 1195.11 145.952L1195.68 146.771ZM153.915 0.224226C154.671 1.73175 156.154 3.36419 158.128 5.10501C160.11 6.85388 162.628 8.74736 165.5 10.7709C168.374 12.7952 171.613 14.9577 175.04 17.2428C178.469 19.5293 182.087 21.9399 185.727 24.4656C193.008 29.5184 200.357 35.0204 206.412 40.8822C212.471 46.7488 217.196 52.941 219.281 59.3659L220.232 59.0573C218.074 52.4063 213.215 46.0777 207.107 40.1638C200.994 34.245 193.592 28.7065 186.297 23.644C182.649 21.1121 179.023 18.6963 175.595 16.4109C172.166 14.1241 168.938 11.969 166.076 9.95339C163.214 7.93695 160.731 6.068 158.789 4.35512C156.838 2.63419 155.476 1.10554 154.808 -0.224226L153.915 0.224226ZM219.281 59.3659C222.111 68.0874 219.218 74.4685 214.171 82.939C209.127 91.4063 201.984 101.879 196.66 118.619L197.613 118.922C202.894 102.316 209.965 91.9539 215.03 83.4508C220.094 74.9509 223.208 68.2257 220.232 59.0573L219.281 59.3659ZM329.642 183.781C345.398 194.002 356.721 199.658 366.064 202.376C375.427 205.101 382.78 204.868 390.574 203.361C406.128 200.353 423.313 192.321 462.108 192.473L462.112 191.473C423.189 191.32 405.758 199.406 390.384 202.379C382.715 203.863 375.526 204.088 366.343 201.416C357.14 198.738 345.912 193.144 330.186 182.942L329.642 183.781ZM462.108 192.473C482.811 192.558 499.786 206.923 514.908 228.349C530.021 249.763 543.185 278.088 556.309 305.843C569.419 333.569 582.493 360.734 597.41 379.72C612.329 398.707 629.211 409.656 649.92 404.622L649.684 403.65C629.551 408.544 613.029 397.98 598.196 379.102C583.362 360.222 570.336 333.169 557.213 305.415C544.103 277.69 530.899 249.273 515.725 227.772C500.558 206.282 483.324 191.56 462.112 191.473L462.108 192.473ZM649.92 404.622C664.243 401.143 671.143 394.259 677.921 387.242C684.677 380.248 691.304 373.135 705.125 368.93L704.834 367.974C690.748 372.259 683.968 379.543 677.202 386.547C670.458 393.527 663.723 400.24 649.684 403.65L649.92 404.622ZM705.125 368.93C733.607 360.259 744.469 343.557 755.02 326.304C765.555 309.076 775.776 291.318 802.937 280.117L802.556 279.193C775.067 290.528 764.702 308.553 754.166 325.782C743.645 342.986 732.949 359.414 704.834 367.974L705.125 368.93ZM802.937 280.117C889.046 244.629 892.216 245.196 973.508 199.802L973.021 198.929C891.782 244.293 888.657 243.708 802.556 279.193L802.937 280.117ZM973.508 199.802C1011.51 178.59 1011.42 176.731 1048.32 153.8L1047.79 152.951C1010.83 175.92 1011 177.73 973.021 198.929L973.508 199.802ZM1048.32 153.8C1072.06 139.042 1077.63 121.907 1092.41 98.0057C1107.21 74.0823 1131.34 43.1248 1192.29 0.409493L1191.71 -0.409424C1130.66 42.3752 1106.43 73.4288 1091.56 97.4798C1076.68 121.553 1071.27 138.355 1047.79 152.951L1048.32 153.8ZM462.957 163.552C483.666 163.957 500.617 175.158 515.688 191.504C530.765 207.857 543.897 229.289 556.989 250.051C570.064 270.786 583.102 290.861 597.965 304.379C612.852 317.92 629.624 324.93 650.118 319.423L649.858 318.457C629.792 323.85 613.358 317.029 598.638 303.64C583.894 290.228 570.924 270.276 557.835 249.518C544.763 228.787 531.576 207.262 516.423 190.826C501.264 174.384 484.074 162.965 462.977 162.552L462.957 163.552ZM650.118 319.423C693.167 307.853 714.328 292.784 734.856 276.029C755.356 259.297 775.191 240.919 815.655 222.613L815.243 221.702C774.641 240.07 754.707 258.536 734.224 275.254C713.77 291.948 692.733 306.934 649.858 318.458L650.118 319.423ZM815.655 222.613C837.359 212.786 847.386 204.757 857.224 196.396C867.035 188.059 876.643 179.406 897.55 168.263L897.08 167.381C876.072 178.577 866.396 187.289 856.577 195.634C846.786 203.955 836.837 211.925 815.243 221.702L815.655 222.613ZM897.551 168.263C907.932 162.728 919.971 160.58 932.86 160.105C945.751 159.63 959.45 160.829 973.148 161.96C986.832 163.09 1000.51 164.152 1013.32 163.386C1026.12 162.619 1038.08 160.021 1048.31 153.803L1047.79 152.948C1037.75 159.05 1025.97 161.626 1013.26 162.388C1000.54 163.149 986.925 162.095 973.231 160.964C959.55 159.834 945.786 158.628 932.823 159.106C919.856 159.584 907.648 161.746 897.08 167.381L897.551 168.263ZM226.128 174.377C228.879 179.82 233.769 183.642 240.268 186.184C246.761 188.725 254.888 190.001 264.177 190.346C282.755 191.035 306.102 187.999 330.597 183.751C355.07 179.505 380.814 174.024 404.046 169.833C427.325 165.634 448.138 162.718 462.939 163.551L462.995 162.553C448.06 161.712 427.137 164.652 403.868 168.849C380.552 173.055 354.937 178.514 330.426 182.765C305.938 187.013 282.679 190.031 264.214 189.347C254.982 189.004 246.98 187.737 240.632 185.253C234.291 182.772 229.631 179.09 227.02 173.926L226.128 174.377ZM462.939 163.551C504.224 165.879 530.237 187.91 556.102 206.577C569.021 215.9 581.913 224.387 596.631 229.07C611.364 233.758 627.902 234.626 648.105 228.767L647.827 227.807C627.807 233.612 611.473 232.743 596.934 228.117C582.379 223.486 569.597 215.082 556.687 205.766C530.894 187.151 504.631 164.901 462.995 162.553L462.939 163.551ZM648.105 228.767C666.765 223.36 676.853 218.503 686.795 213.252C696.721 208.01 706.477 202.391 724.518 195.425L724.158 194.492C706.051 201.484 696.241 207.133 686.328 212.368C676.431 217.594 666.407 222.423 647.827 227.807L648.105 228.767ZM724.518 195.425C772.526 176.901 778.113 175.742 824.29 153.033L823.849 152.135C777.717 174.822 772.17 175.966 724.158 194.492L724.518 195.425ZM824.29 153.033C867.713 131.689 897.744 106.763 926.993 80.5629C956.245 54.3606 984.696 26.9035 1025.01 0.417877L1024.46 -0.417877C984.068 26.1192 955.55 53.6407 926.326 79.818C897.1 105.998 867.15 130.852 823.849 152.135L824.29 153.033ZM462.903 163.548C503.467 168.785 529.379 169.347 555.11 165.529C580.824 161.714 606.342 153.524 646.094 141.299L645.8 140.343C606.014 152.579 580.584 160.739 554.963 164.54C529.36 168.339 503.55 167.787 463.031 162.556L462.903 163.548ZM646.094 141.299C689.357 128.002 720.03 131.544 749.991 133.115C779.981 134.686 809.21 134.272 849.409 112.953L848.941 112.07C808.966 133.27 779.943 133.683 750.043 132.116C720.114 130.547 689.26 126.985 645.8 140.343L646.094 141.299ZM849.409 112.953C858.845 107.949 867.348 99.7572 875.351 89.9797C883.356 80.2006 890.886 68.8017 898.361 57.3587C905.841 45.9067 913.265 34.4118 921.075 24.4003C928.886 14.3875 937.057 5.89356 946.014 0.426792L945.493 -0.426792C936.385 5.13185 928.127 13.7347 920.286 23.7853C912.445 33.8372 904.996 45.3722 897.523 56.8119C890.045 68.2606 882.543 79.6151 874.578 89.3463C866.611 99.0791 858.207 107.155 848.941 112.07L849.409 112.953ZM627.407 0.500035C656.171 0.500017 677.21 17.4687 696.868 31.9418C706.673 39.1606 716.15 45.7662 726.04 49.225C735.96 52.694 746.295 52.9985 757.791 47.6408L757.369 46.7344C746.133 51.9704 736.071 51.6734 726.371 48.281C716.641 44.8785 707.276 38.363 697.461 31.1365C677.878 16.7189 656.563 -0.499983 627.407 -0.499965V0.500035ZM757.791 47.6408C776.663 38.8457 799.466 32.1865 822.139 25.1505C844.789 18.1215 867.306 10.7174 885.515 0.435386L885.024 -0.435386C866.921 9.78659 844.503 17.1632 821.843 24.1954C799.205 31.2206 776.318 37.9032 757.369 46.7344L757.791 47.6408ZM751.442 753.208C757.698 751.486 764.549 747.269 771.728 743.324C778.949 739.356 786.543 735.635 794.412 734.753L794.3 733.759C786.217 734.665 778.47 738.478 771.247 742.447C763.982 746.439 757.285 750.563 751.177 752.244L751.442 753.208Z" fill="#211E1E"/>
</svg>
