<svg width="26" height="26" viewBox="0 0 26 26" fill="none" xmlns="http://www.w3.org/2000/svg"><path fill-rule="evenodd" clip-rule="evenodd" d="M20.038 17.991l5.777 5.785a.724.724 0 01-.03.998l-1.01 1.012a.722.722 0 01-1.026 0l-5.776-5.785a3.76 3.76 0 01-.433-.52l-1.084-1.446a10.1 10.1 0 01-6.31 2.212 10.112 10.112 0 01-9.89-7.86A10.128 10.128 0 015.739.996 10.1 10.1 0 0118.04 3.843a10.134 10.134 0 01-.066 12.643l1.444.998c.225.145.434.314.62.506zM2.924 10.124c0 3.993 3.233 7.23 7.221 7.23a7.216 7.216 0 005.106-2.117 7.236 7.236 0 002.115-5.113c0-3.994-3.233-7.231-7.22-7.231-3.989 0-7.222 3.237-7.222 7.23z" fill="#fff"/></svg>