<svg width="126" height="134" viewBox="0 0 126 134" fill="none" xmlns="http://www.w3.org/2000/svg"><g clip-path="url(#clip0_1_2034)"><path d="M67.72.791c.735 3.341 3.173 10.816 3.173 10.816s10.665-1.392 20.88 4.01c1.198-1.583 5.216-8.143 5.216-8.143s23.318 13.98 23.304 29.132c0 13.693-8.512 25.423-20.893 27.428-15.69 2.523-34.037-.86-47.643-9.111C40.41 48.035 33.356 37.26 37.85 23.677 42.536 9.533 60.746 2.073 67.72.79z" stroke="#E0E0E0" stroke-miterlimit="10"/><path d="M45.818 22.136c-5.066 9.697.886 19.64 12.885 24.645 9.153 3.819 15.105 3.778 18.51-.082 3.745-4.228 10.27-7.229 13.075-1.418 2.806 5.81.75 8.96 8.05 10.992 5.938 1.65 21.915-.573 22.895-15.984 1.076-16.708-18.115-23.159-34.077-27.4-13.825-3.67-34.691-3.451-41.338 9.247z" fill="url(#paint0_linear_1_2034)"/><path d="M60.678 33.196c3.65.491 9.561 3.15 11.631 5.62m-7.545-11.511c3.663 2.332 6.687 8.728 7.532 11.51m7.273 12.453c1.648.9 1.825 2.523-1.09 3.423.913 1.977 1.199 4.228-2.37 3.055" stroke="#E0E0E0" stroke-miterlimit="10" stroke-linecap="round"/><path d="M118.332 21.249a667.828 667.828 0 00-4.508-1.964c-7.941-3.464-18.701 3.669-24.026 15.93-5.326 12.261-3.215 25 4.726 28.464.776.34 3.745 1.637 4.508 1.964 7.941 3.464 18.7-3.669 24.026-15.93 5.339-12.248 3.214-25-4.726-28.464z" fill="#E0E0E0"/><path d="M121.873 49.058c-4.794 11.02-14.478 17.417-21.642 14.294-7.165-3.123-9.085-14.58-4.304-25.6 4.794-11.02 14.478-17.417 21.642-14.293 7.178 3.123 9.098 14.58 4.304 25.6z" fill="#20202C"/><path d="M95.069 63.502L81.367 91.72l6.428 2.796 11.441-29.187-4.167-1.827z" fill="#E0E0E0"/><path d="M36.83 133.114l20.511-.205s.204-6.424-6.21-9.547c-.205-3.737 0-33.197 0-33.197L69.57 71.29s-.408 10.789 3.937 15.358c4.345 4.569 15.323-3.942 15.323-3.942l4.14-13.27-10.773 2.905-.409-7.679" stroke="#E0E0E0" stroke-miterlimit="10" stroke-linecap="round"/><path d="M88.83 70.048c1.444-2.278 4.55-4.978 6.007-2.496 1.444 2.496 1.444 3.942 1.444 3.942s2.697-5.183 4.563-.832c1.729 4.05-1.24 12.452-6.007 12.861-2.07.177-3.569-.995-3.732-2.073-.259-1.705-.204-3.314-.204-3.314l-4.359.627c.014-.013-1.88-2.155 2.288-8.715z" fill="#E0E0E0" stroke="#E0E0E0" stroke-miterlimit="10"/><path d="M90.492 78.136a20.853 20.853 0 002.084-2.81c3.923 8.62 4.345-3.791 3.296-5.482" stroke="#E0E0E0" stroke-miterlimit="10"/><path d="M42.835 47.217C31.858 51.787 11.972 63.202 7.001 65.89c.204-9.752-7.042-5.783-6.266 1.964 1.076 10.61 9.82 10.952 17.83 8.306 8.675-2.865 16.67-7.829 24.679-12.139M18.578 76.172s-3.5 4.869-4.317 11.716c-.831 6.846 1.035 45.43 1.035 45.43l26.314-.205s.204-6.423-6.211-9.547c-.204-3.737 0-33.196 0-33.196" stroke="#E0E0E0" stroke-miterlimit="10" stroke-linecap="round"/><path d="M111.181 40.889l-.041 1.145c.096-1.786-.231-3.396-1.43-4.528-1.457-1.377-3.595-1.336-5.162.055a4.154 4.154 0 01-.258.205c.326-.232.667-.464.994-.696-.899.6-1.853 1.377-2.479 2.4-.381.628-.708 1.31-1.049 1.978a6.631 6.631 0 00-.422 2.96c.123 1.432.708 2.755 1.634 3.627.64.614 1.39.969 2.22 1.092 1.349.19 2.329-.355 3.487-1.16.885-.614 1.539-1.923 1.934-3 .531-1.419.559-2.564.572-4.078z" fill="#E0E0E0"/><path d="M31.653 70.771c-.15 2.591 7.273 9.329 9.943 10.27 5.489 1.95 11.958.45 17.706 1.241" stroke="#E0E0E0" stroke-miterlimit="10"/></g><defs><linearGradient id="paint0_linear_1_2034" x1="85.408" y1="26.757" x2="77.318" y2="49.619" gradientUnits="userSpaceOnUse"><stop offset=".005" stop-color="#7A5AED"/><stop offset="1" stop-color="#F06FC9"/></linearGradient><clipPath id="clip0_1_2034"><path fill="#fff" d="M0 0h126v134H0z"/></clipPath></defs></svg>