<svg width="108" height="178" viewBox="0 0 108 178" fill="none" xmlns="http://www.w3.org/2000/svg"><path d="M34.85 47.867c1.519 2.476 5.585 7.797 5.585 7.797s8.167-4.128 17.877-2.649C58.837 51.398 60.208 45 60.208 45s22.617 4.678 26.866 16.867c3.826 11.02.297 22.84-9.081 27.943-11.88 6.456-27.54 8.898-40.767 6.089-11.035-2.34-19.704-9.024-19.91-21.224-.228-12.682 12.29-23.816 17.534-26.808z" stroke="#E0E0E0" stroke-miterlimit="10"/><path d="M23.256 70.832c-1.36 9.219 6.214 15.548 17.236 16.19 8.408.493 13.182-1.215 14.838-5.275 1.817-4.46 6.214-8.714 10.098-4.827 3.872 3.887 3.107 6.995 9.538 6.57 5.231-.344 17.42-6.627 13.89-19.309-3.827-13.736-21.018-13.53-35.022-12.44-12.12.95-28.808 7.005-30.578 19.09z" fill="url(#paint0_linear_1_2066)"/><path d="M45.244 69.731c3.872-.596 4.444 5.355 4.444 5.355l-8.682.837s-.365-5.481 4.238-6.192zM72.6 67.587c3.816-.505 4.696 4.712 4.696 4.712l-8.145 1.112c-.49-1.616.514-5.423 3.45-5.824z" fill="#E0E0E0"/><path d="M38.607 65.66c3.039-2.855 6.957-3.05 8.716-1.674m19.693-2.66c2.216-1.525 5.585-2.408 7.447-1.364" stroke="#E0E0E0" stroke-miterlimit="10" stroke-linecap="round"/><path d="M64.4 81.933s-6.077 1.399-8.876.963c.663 1.732 2.582 4.128 4.684 4.484 3.427.607 4.192-5.447 4.192-5.447z" fill="#E0E0E0"/><path d="M64.868 95.062c3.313-.24 6.431.459 9.698.837 3.107.356 10.589 2.603 10.589 2.603s2.935-5.779 4.409-8.462c1.45-2.614 5.049-4.185 7.744-4.816.766-.183 3.37-.906 3.918.195.56 1.112-3.918 4.128-3.918 4.128" stroke="#E0E0E0" stroke-miterlimit="10" stroke-linecap="round"/><path d="M94.064 95.555c2.022.527 3.382 1.41 5.483 1.284 2.33-.149 3.918-1.743 5.003-3.543.72-1.204 2.936-5.114 2.353-6.1-.925-1.548-1.861-.883-2.741-.103-1.588 1.422-2.844 1.376-5.095 1.18m-2.741 8.463c-.491 3.085-2.433 9.575-4.615 11.799-4.511 4.621-11.434 3.348-14.803 1.571" stroke="#E0E0E0" stroke-miterlimit="10" stroke-linecap="round" stroke-linejoin="round"/><path d="M77.113 169.226c3.244-7.533 4.432-22.405 4.021-32.163-.388-9.15-1.668-23.701-6.956-33.539m29.105-15.744c-1.348 2.007-2.742 3.544-3.918 5.505-1.474-1.078-3.279-2.041-4.9-2.557" stroke="#E0E0E0" stroke-miterlimit="10" stroke-linecap="round" stroke-linejoin="round"/><path d="M76.428 168.928c1.37.459 6.705 3.451 5.391 5.607-.708 1.17-18.15.573-20.378.493.332-1.628 1.577-25.134 1.668-26.556M48.603 97.917c-6.294.332-12.668 5.481-17.146 9.666-8.818-4.667-16.757-7.132-20.115-6.57-1.36.229-6.58 1.25-6.74 3.199-.182 2.064 5.655 1.525 5.655 1.525s-2.776 3.337-3.198 3.188" stroke="#E0E0E0" stroke-miterlimit="10" stroke-linecap="round" stroke-linejoin="round"/><path d="M12.93 112.663c-1.497-2.328-4.398-3.624-7.06-4.128-1.165-.218-2.97-.86-4.089-.08-1.827 1.261 0 2.304.937 3.141 2.41 2.167 4.672 3.853 7.859 4.931 3.37 1.135 6.19-1.651 7.813-4.38.331-.551.8-1.296.914-1.743m25.175 3.635c-3.564 2.614-9.698 5.664-14.016 6.489-3.54.677-9.892-5.503-12.153-7.579m24.605 2.557c-.788 2.5.011 29.48-13.913 54.867-5.688 2.625-5.688 6.432-5.688 6.432l21.462.195s7.345-18.415 9.995-25.535c1.805-1.124 7.54-3.016 10.783-2.729" stroke="#E0E0E0" stroke-miterlimit="10" stroke-linecap="round" stroke-linejoin="round"/><path d="M41.817 125.746c.023.286.103.045.594-.218 1.154-.62 2.114-1.651 3.233-2.351 1.542-.963 3.587-1.972 5.403-2.133 2.284-.206 4.375 1.09 5.883 2.706 1.758 1.904 4.089 4.61 6.796 3.784 3.255-.997 3.78-3.979 5.357-6.536 1.885-3.061 7.3-1.284 10.395-1.456" stroke="#E0E0E0" stroke-miterlimit="10" stroke-linecap="round" stroke-linejoin="round"/><path d="M41.243 21.761c2.426.24 5.108 0 7.615.33 1.498.195 2.984.822 4.47.73.255 2.155-2.821 8.905-2.821 8.916-2.914.433-6.13-.581-8.37-1.756.29-1.676-.024-7.661-.151-7.627" stroke="#E0E0E0" stroke-miterlimit="10" stroke-linecap="round"/><path d="M46.014 21.91c.778-2.076 1.033-6.157.5-8.232-.233-.9-1.347-2.953-.779-3.877 1.29-2.052 3.948 1.323 5.956 1.106 1.056-.114 1.788-1.516 2.24.149m-4.329 10.705c.255-2.736 2.995-7.718 4.632-9.827" stroke="#E0E0E0" stroke-miterlimit="10" stroke-linecap="round"/><path d="M42.287 21.761c-2.24-2.645-4.434-7.034-4.48-9.098-.152-6.02 3.563-9.166 6.268-10.42 4.04-1.859 9.032-1.836 12.7 1.47 5.33 4.8 3.275 14.707-3.459 19.108m-9.984 7.742c.093.638.51 3.716 1.649 4.298 1.486.752 4.051-1.733 4.028-2.976m-6.571-7.195c3.332.628 6.815.343 10.31.446m-1.057 3.078c-3.285 0-5.944.057-8.811-.296" stroke="#E0E0E0" stroke-miterlimit="10" stroke-linecap="round"/><defs><linearGradient id="paint0_linear_1_2066" x1="56.316" y1="63.393" x2="56.245" y2="84.061" gradientUnits="userSpaceOnUse"><stop offset=".005" stop-color="#7A5AED"/><stop offset="1" stop-color="#F06FC9"/></linearGradient></defs></svg>