<svg width="1408" height="474" viewBox="0 0 1408 474" fill="none" xmlns="http://www.w3.org/2000/svg">
<path opacity="0.05" d="M102.25 1009.42L102.571 1009.04L102.538 1009.01L102.501 1008.99L102.25 1009.42ZM319.892 979.62L319.737 980.096L319.737 980.096L319.892 979.62ZM326.859 982.678L327.011 982.201L327.011 982.201L326.859 982.678ZM161.405 924.49L161.627 924.042L161.627 924.042L161.405 924.49ZM341.359 858.198L341.209 858.675L341.224 858.679L341.238 858.683L341.359 858.198ZM1472.67 975.646L1472.81 976.128L1472.83 976.12L1472.86 976.11L1472.67 975.646ZM1475.33 974.639L1475.51 975.103L1475.51 975.103L1475.33 974.639ZM1677.21 962.03L1677.44 962.473L1677.44 962.473L1677.21 962.03ZM1867.61 909.619L1867.34 909.203L1867.34 909.203L1867.61 909.619ZM1885.02 899.295L1885.31 899.709L1885.31 899.708L1885.02 899.295ZM464.619 893.502L464.553 893.998L464.587 894.002L464.622 894.002L464.619 893.502ZM943.883 893.125L943.951 893.62L943.883 893.125ZM1123.44 957.748L1123.33 957.261L1123.44 957.748ZM1224.07 946.399L1224.2 946.88H1224.2L1224.07 946.399ZM1295.25 929.007L1295.1 928.532H1295.1L1295.25 929.007ZM1454.36 845.552L1454.16 845.094L1454.16 845.095L1454.36 845.552ZM1668.6 867.53L1668.35 867.096V867.096L1668.6 867.53ZM1679.81 862.351L1679.56 861.918L1679.81 862.351ZM1891.77 790.353L1891.47 789.953L1891.47 789.953L1891.77 790.353ZM119.289 852.315L119.048 852.753H119.048L119.289 852.315ZM323.573 797.043L323.436 797.524L323.573 797.043ZM831.628 785.975L831.571 785.478H831.571L831.628 785.975ZM939.171 818.645L939.085 818.152H939.085L939.171 818.645ZM1116.82 858.825L1116.69 858.342H1116.69L1116.82 858.825ZM1260.09 752.726L1260.26 753.194H1260.26L1260.09 752.726ZM1407.83 725.171L1408.04 725.623L1408.04 725.623L1407.83 725.171ZM1434.46 715.945L1434.24 715.496L1434.24 715.497L1434.46 715.945ZM1640.98 693.75L1641.25 694.171L1641.25 694.171L1640.98 693.75ZM1761.25 679.163L1761.55 679.567L1761.55 679.567L1761.25 679.163ZM1888.91 662.814L1889.23 663.199L1889.23 663.199L1888.91 662.814ZM299.282 764.092L299.416 763.61H299.416L299.282 764.092ZM454.468 795.722L454.524 795.226H454.524L454.468 795.722ZM622.767 781.575L622.785 782.075H622.785L622.767 781.575ZM789.715 716.434V715.934H789.687L789.66 715.937L789.715 716.434ZM1167.45 638.417L1167.28 637.948L1167.45 638.417ZM1228.09 594.657L1227.89 594.196L1228.09 594.657ZM1388.4 532.03L1388.64 532.469H1388.64L1388.4 532.03ZM1511.47 533.865L1511.74 534.287H1511.74L1511.47 533.865ZM1618.97 540.609L1618.68 540.201L1618.97 540.609ZM1842.05 505.483L1841.71 505.109L1841.71 505.109L1842.05 505.483ZM1863.59 488.36L1863.92 488.729L1863.59 488.36ZM18.7089 453.277L19.1836 453.434L19.1836 453.434L18.7089 453.277ZM27.781 619.953L27.3166 620.139L27.3166 620.139L27.781 619.953ZM104.408 749.704L104.685 749.288H104.685L104.408 749.704ZM265.175 743.481L265.019 743.956L265.019 743.956L265.175 743.481ZM304.398 742.276L304.267 742.758L304.267 742.759L304.398 742.276ZM464.637 744.272L464.591 744.77H464.591L464.637 744.272ZM785.026 766.395L785.098 766.89L785.026 766.395ZM1006.86 734.904L1006.88 735.403L1006.86 734.904ZM1092.84 634.342L1092.68 633.87L1092.84 634.342ZM1214.1 493.71L1214.31 494.162L1214.31 494.162L1214.1 493.71ZM1298.71 465.49L1298.95 465.93V465.93L1298.71 465.49ZM1385.67 448.87L1385.93 449.298H1385.93L1385.67 448.87ZM1650.37 483.565L1650.68 483.96L1650.68 483.96L1650.37 483.565ZM1657.36 478.637L1657.05 478.243L1657.05 478.244L1657.36 478.637ZM1857.87 367.358L1857.52 367.007L1857.52 367.007L1857.87 367.358ZM1875.94 339.929L1876.3 340.273V340.273L1875.94 339.929ZM1911.83 89.7802L1911.43 89.4867L1911.43 89.4873L1911.83 89.7802ZM37.514 451.532L37.0235 451.435L37.0235 451.435L37.514 451.532ZM78.5564 625.583L78.9391 625.261L78.939 625.261L78.5564 625.583ZM112.704 665.152L112.392 665.543L112.392 665.543L112.704 665.152ZM304.835 677.005L304.966 676.522L304.835 677.005ZM463.546 670.35L463.582 669.851L463.546 670.35ZM622.767 713.468L622.799 713.967H622.799L622.767 713.468ZM790.811 731.736L790.9 732.228L790.811 731.736ZM969.297 731.97L969.159 731.489L969.159 731.49L969.297 731.97ZM1090.9 551.804L1090.71 551.339L1090.9 551.804ZM1134.21 506.39L1134.41 506.848L1134.41 506.848L1134.21 506.39ZM1207.27 401.172L1207.5 401.615V401.615L1207.27 401.172ZM1405.46 383.078L1405.74 383.493L1405.46 383.078ZM1427.86 374.768L1428.14 375.18L1428.14 375.18L1427.86 374.768ZM1705.2 425.542L1705.53 425.922L1705.53 425.922L1705.2 425.542ZM1773.9 375.829L1774.24 376.194V376.194L1773.9 375.829ZM1799.51 176.742L1799.14 176.411L1799.51 176.742ZM110.266 585.852L110.632 585.512L110.632 585.512L110.266 585.852ZM180.725 613.101L180.464 613.527H180.464L180.725 613.101ZM306.945 605.025L307.08 604.544H307.08L306.945 605.025ZM463.71 566.284L463.736 565.784H463.736L463.71 566.284ZM643.764 657.723L643.841 658.217H643.841L643.764 657.723ZM960.315 675.224L960.373 675.721L960.423 675.715L960.471 675.699L960.315 675.224ZM1095.79 497.863L1095.59 497.406H1095.59L1095.79 497.863ZM1217.44 350.63L1217.2 350.196L1217.2 350.196L1217.44 350.63ZM1275.53 335.163L1275.28 334.733L1275.28 334.733L1275.53 335.163ZM1445.96 335.163L1446.25 335.567V335.567L1445.96 335.163ZM1606.82 351.171L1607.14 351.555V351.555L1606.82 351.171ZM1708.11 299.119L1708.46 299.484V299.484L1708.11 299.119ZM1735.33 130.627L1735.7 130.963V130.963L1735.33 130.627ZM111.559 282.842L112.057 282.884L112.057 282.884L111.559 282.842ZM79.7025 462.594L79.2175 462.716L79.2176 462.716L79.7025 462.594ZM88.9806 488.314L89.4422 488.122L89.442 488.121L88.9806 488.314ZM308.6 533.099L308.743 532.62L308.743 532.62L308.6 533.099ZM426.779 478.656L426.737 479.154L426.737 479.154L426.779 478.656ZM680.686 758.801L680.623 758.305L680.584 758.31L680.546 758.321L680.686 758.801ZM819.293 696.516L819.169 696.031L819.169 696.031L819.293 696.516ZM987.508 601.14L987.334 600.672H987.334L987.508 601.14ZM1109.49 420.255L1109.71 420.705L1109.71 420.704L1109.49 420.255ZM1115.18 417.126L1115.4 417.575L1115.4 417.574L1115.18 417.126ZM1244.66 284.497L1244.93 284.92L1244.93 284.92L1244.66 284.497ZM1405.59 287.338L1405.29 286.936V286.936L1405.59 287.338ZM1472.34 255.503L1472.03 255.113L1472.03 255.113L1472.34 255.503ZM1645.49 166.743L1645.14 166.386L1645.14 166.386L1645.49 166.743ZM149.721 404.678L149.341 405.003L149.721 404.678ZM312.297 456.495L312.139 456.97L312.297 456.495ZM460.038 388.94L460.028 389.44H460.028L460.038 388.94ZM818.939 588.567L818.799 588.087H818.799L818.939 588.567ZM954.892 525.598L955.075 526.063L954.892 525.598ZM989.731 509.716L989.538 509.255V509.255L989.731 509.716ZM1128.01 360.414L1128.25 360.854V360.854L1128.01 360.414ZM1229.65 258.595L1229.92 259.015L1229.92 259.015L1229.65 258.595ZM1268.64 219.044L1268.92 219.456L1268.92 219.456L1268.64 219.044ZM221.933 156.329L221.468 156.147L221.463 156.159L221.459 156.171L221.933 156.329ZM317.462 379.283L317.276 379.747L317.277 379.747L317.462 379.283ZM328.941 381.567L328.779 382.04L328.779 382.04L328.941 381.567ZM458.053 305.505L458.057 305.005H458.057L458.053 305.505ZM647.583 580.978L647.491 580.487H647.491L647.583 580.978ZM683.586 570.24L683.692 570.729L683.692 570.729L683.586 570.24ZM817.1 489.501L816.943 489.027L816.943 489.027L817.1 489.501ZM980.451 392.863L980.241 392.409L980.241 392.409L980.451 392.863ZM1095.43 313.311L1095.18 312.874V312.874L1095.43 313.311ZM1141.8 284.479L1142.06 284.909L1142.06 284.909L1141.8 284.479ZM1281.59 130.627L1281.29 130.228V130.228L1281.59 130.627ZM1318.14 108.073L1318.45 108.465L1318.45 108.465L1318.14 108.073ZM205.634 291.582L205.995 291.237L205.99 291.231L205.984 291.225L205.634 291.582ZM240.927 331.385L240.626 331.784L240.927 331.385ZM316.208 317.104L316.439 316.661L316.439 316.661L316.208 317.104ZM457.09 234.854L457.091 234.354L457.09 234.854ZM647.748 487.288L647.642 486.799L647.748 487.288ZM800.201 353.256L800.375 353.725H800.375L800.201 353.256ZM910.629 313.004L910.42 312.549L910.42 312.549L910.629 313.004ZM975.522 288.057L975.295 287.611L975.295 287.611L975.522 288.057ZM1138.58 177.911L1138.31 177.491L1138.31 177.491L1138.58 177.911ZM1190.76 128.539L1191.04 128.949L1191.04 128.949L1190.76 128.539ZM215.116 41.3894L215.592 41.2351L215.116 41.3894ZM457.469 174.151L457.471 173.651H457.471L457.469 174.151ZM645.161 386.314L645.043 385.828L645.043 385.828L645.161 386.314ZM700.339 350.63L700.485 351.108L700.485 351.108L700.339 350.63ZM798.106 261.833L797.915 261.37L797.915 261.37L798.106 261.833ZM968.624 181.543L968.38 181.107L968.38 181.107L968.624 181.543ZM1043.41 135.553L1043.68 135.978V135.978L1043.41 135.553ZM645.348 301.118L645.477 301.601V301.601L645.348 301.118ZM810.808 204.336L811.014 204.791L811.015 204.791L810.808 204.336ZM892.675 150L892.91 150.441L892.91 150.441L892.675 150ZM643.326 210.465L643.186 209.985L643.186 209.985L643.326 210.465ZM719.698 177.137L719.518 176.67L719.518 176.67L719.698 177.137ZM819.429 134.762L819.208 134.313L819.208 134.313L819.429 134.762ZM641.306 122.999L641.159 122.521L641.159 122.521L641.306 122.999ZM844.535 94.6892L844.769 95.1309V95.1309L844.535 94.6892ZM752.939 29.3654L752.728 28.9122L752.939 29.3654ZM746.536 734.422C746.27 734.495 746.114 734.77 746.187 735.036C746.26 735.303 746.535 735.459 746.802 735.386L746.536 734.422ZM-4.92738 1041.07C-1.59472 1043.41 -0.0914106 1044.19 1.41655 1044.95C2.89371 1045.7 4.37037 1046.43 7.686 1048.68L8.24766 1047.86C4.88663 1045.57 3.37069 1044.82 1.86889 1044.06C0.397898 1043.31 -1.0641 1042.56 -4.35351 1040.25L-4.92738 1041.07ZM6.54993 1022.07C10.4793 1024.81 13.5696 1026.3 16.2532 1027.14C18.9367 1027.99 21.1907 1028.18 23.4115 1028.35C25.6328 1028.52 27.8157 1028.68 30.4366 1029.41C33.0552 1030.15 36.1301 1031.48 40.0945 1034.02L40.6349 1033.18C36.6036 1030.59 33.4385 1029.22 30.7073 1028.45C27.9785 1027.68 25.702 1027.53 23.4888 1027.36C21.2751 1027.18 19.1197 1027 16.5535 1026.19C13.9873 1025.38 10.9877 1023.94 7.12162 1021.25L6.54993 1022.07ZM-3.30464 1004.65C6.95292 1012.06 16.0036 1014.53 24.4962 1014.42C32.9651 1014.31 40.8427 1011.65 48.7271 1008.88C56.6339 1006.11 64.5489 1003.24 73.1982 1002.61C81.8252 1001.99 91.2015 1003.6 101.999 1009.86L102.501 1008.99C91.531 1002.64 81.9553 1000.98 73.126 1001.62C64.3191 1002.25 56.2736 1005.18 48.3962 1007.94C40.4963 1010.71 32.7659 1013.32 24.4836 1013.42C16.2249 1013.52 7.38097 1011.14 -2.71888 1003.84L-3.30464 1004.65ZM101.929 1009.81C126.065 1030.02 147.56 1034.35 166.269 1038.07C184.97 1041.79 200.781 1044.9 213.901 1062.48L214.703 1061.88C201.33 1043.96 185.15 1040.81 166.465 1037.09C147.788 1033.38 126.504 1029.08 102.571 1009.04L101.929 1009.81ZM176.116 930.627C216.565 950.406 231.051 955.815 246.159 959.76C261.244 963.699 276.876 966.162 319.737 980.096L320.046 979.145C277.148 965.2 261.444 962.718 246.412 958.793C231.403 954.874 216.991 949.501 176.555 929.729L176.116 930.627ZM319.737 980.096C321.833 980.775 322.464 981.179 323.103 981.579C323.808 982.021 324.52 982.458 326.708 983.154L327.011 982.201C324.906 981.531 324.271 981.131 323.634 980.732C322.931 980.291 322.225 979.851 320.046 979.144L319.737 980.096ZM326.708 983.154C365.711 995.584 380.85 1015.36 397.583 1032.14C405.956 1040.53 414.735 1048.18 427.092 1053.72C439.448 1059.26 455.344 1062.68 477.941 1062.68V1061.68C455.446 1061.68 439.696 1058.28 427.501 1052.81C415.307 1047.34 406.63 1039.79 398.291 1031.43C381.6 1014.69 366.29 994.718 327.011 982.201L326.708 983.154ZM-4.9189 914.093C5.96954 921.394 18.9273 924.253 32.9243 924.82C46.9175 925.387 61.9931 923.664 77.1348 921.765C92.2922 919.864 107.514 917.788 121.861 917.625C136.206 917.462 149.627 919.214 161.183 924.938L161.627 924.042C149.87 918.219 136.27 916.461 121.85 916.625C107.432 916.788 92.144 918.875 77.0103 920.773C61.8608 922.673 46.8635 924.384 32.9648 923.821C19.0699 923.258 6.31677 920.423 -4.362 913.263L-4.9189 914.093ZM161.183 924.938C181.435 934.973 197.536 934.141 211.617 927.619C225.65 921.119 237.64 908.981 249.722 896.528C261.831 884.046 274.041 871.237 288.57 863.214C303.066 855.21 319.876 851.969 341.209 858.675L341.509 857.721C319.899 850.928 302.807 854.211 288.087 862.339C273.401 870.448 261.084 883.379 249.004 895.831C236.896 908.312 225.032 920.303 211.197 926.711C197.41 933.097 181.627 933.953 161.627 924.042L161.183 924.938ZM341.238 858.683C408.631 875.532 437.764 926.331 460.255 973.086C471.487 996.434 481.083 1018.83 492.965 1035.35C504.867 1051.91 519.129 1062.68 539.717 1062.68V1061.68C519.567 1061.68 505.571 1051.18 493.777 1034.77C481.962 1018.34 472.422 996.072 461.156 972.652C438.652 925.871 409.347 874.68 341.481 857.713L341.238 858.683ZM1268.78 1062.66C1311.39 1050.35 1329.74 1037.82 1353.76 1023.83C1377.75 1009.86 1407.44 994.382 1472.81 976.128L1472.54 975.164C1407.09 993.442 1377.31 1008.95 1353.26 1022.97C1329.23 1036.96 1310.98 1049.43 1268.5 1061.7L1268.78 1062.66ZM1472.86 976.11C1473.5 975.852 1473.83 975.733 1474.16 975.613C1474.5 975.491 1474.85 975.367 1475.51 975.103L1475.14 974.174C1474.5 974.432 1474.16 974.551 1473.82 974.672C1473.48 974.794 1473.14 974.918 1472.49 975.182L1472.86 976.11ZM1475.51 975.103C1517.52 958.347 1547.76 965.663 1577.65 971.967C1607.56 978.277 1637.1 983.564 1677.44 962.473L1676.98 961.587C1636.95 982.512 1607.71 977.286 1577.85 970.988C1547.97 964.684 1517.46 957.296 1475.14 974.174L1475.51 975.103ZM1677.44 962.473C1716.52 942.032 1745.62 941.148 1774.23 939.278C1802.87 937.405 1830.99 934.541 1867.89 910.036L1867.34 909.203C1830.65 933.566 1802.74 936.412 1774.17 938.28C1745.56 940.151 1716.26 941.039 1676.98 961.587L1677.44 962.473ZM1867.89 910.036C1871.72 907.496 1874.14 906.223 1876.57 904.932C1879.02 903.636 1881.46 902.322 1885.31 899.709L1884.74 898.882C1880.94 901.466 1878.53 902.76 1876.1 904.049C1873.67 905.344 1871.21 906.635 1867.34 909.203L1867.89 910.036ZM1885.31 899.708C1895.75 892.596 1905.63 886.651 1915.1 881.57L1914.62 880.689C1905.13 885.787 1895.22 891.75 1884.74 898.882L1885.31 899.708ZM144.328 861.157C171.005 875.083 194.01 870.031 217.285 864.071C240.576 858.108 264.124 851.244 292.175 861.185L292.509 860.243C264.127 850.184 240.281 857.151 217.037 863.103C193.777 869.059 171.107 874.008 144.79 860.271L144.328 861.157ZM680.71 779.656C701.598 778.637 723.253 785.925 745.325 797.304C767.395 808.683 789.825 824.122 812.269 839.353C834.7 854.575 857.144 869.589 879.199 880.071C901.253 890.553 922.973 896.53 943.951 893.62L943.814 892.629C923.113 895.501 901.603 889.612 879.628 879.168C857.654 868.724 835.271 853.754 812.831 838.526C790.404 823.307 767.919 807.828 745.783 796.416C723.649 785.004 701.807 777.625 680.661 778.657L680.71 779.656ZM943.951 893.62C985.908 887.799 1009.88 908.533 1033.85 928.525C1045.82 938.512 1057.81 948.327 1072.02 954.446C1086.25 960.574 1102.69 962.99 1123.55 958.236L1123.33 957.261C1102.67 961.968 1086.45 959.572 1072.42 953.527C1058.36 947.474 1046.47 937.755 1034.49 927.757C1010.54 907.78 986.252 886.742 943.814 892.629L943.951 893.62ZM1123.55 958.236C1148.09 952.647 1161.08 953.28 1174.02 953.579C1187 953.878 1199.91 953.84 1224.2 946.88L1223.93 945.919C1199.76 952.844 1186.95 952.877 1174.04 952.579C1161.08 952.28 1147.99 951.644 1123.33 957.261L1123.55 958.236ZM1224.2 946.88C1241.78 941.842 1250.86 940.371 1259.91 938.721C1268.98 937.067 1278 935.236 1295.41 929.481L1295.1 928.532C1277.74 934.27 1268.77 936.09 1259.73 937.737C1250.68 939.388 1241.55 940.866 1223.93 945.919L1224.2 946.88ZM1295.41 929.481C1338.1 915.373 1357.41 903.592 1376.31 890.782C1395.17 877.993 1413.6 864.199 1454.57 846.008L1454.16 845.095C1413.1 863.326 1394.61 877.167 1375.75 889.954C1356.92 902.72 1337.69 914.456 1295.1 928.532L1295.41 929.481ZM1454.57 846.009C1494.65 828.226 1528.85 844.498 1562.79 859.93C1596.67 875.337 1630.31 889.904 1668.85 867.965L1668.35 867.096C1630.3 888.755 1597.13 874.446 1563.2 859.02C1529.33 843.62 1494.71 827.103 1454.16 845.094L1454.57 846.009ZM1668.85 867.965C1671.34 866.546 1672.85 865.99 1674.38 865.423C1675.93 864.847 1677.5 864.26 1680.06 862.783L1679.56 861.918C1677.07 863.354 1675.56 863.919 1674.04 864.485C1672.49 865.06 1670.92 865.637 1668.35 867.096L1668.85 867.965ZM1680.06 862.783C1723.4 837.721 1756.25 834.77 1788.36 830.57C1820.5 826.366 1851.87 820.909 1892.07 790.753L1891.47 789.953C1851.47 819.96 1820.3 825.384 1788.23 829.579C1756.13 833.778 1723.09 836.745 1679.56 861.918L1680.06 862.783ZM1892.07 790.753C1900.7 784.282 1908.14 780.11 1915.06 776.958L1914.65 776.048C1907.66 779.228 1900.16 783.437 1891.47 789.953L1892.07 790.753ZM-4.97916 822.546C15.0874 841.026 34.306 841.993 54.3788 841.658C74.4433 841.323 95.3251 839.698 119.048 852.753L119.53 851.876C95.5345 838.672 74.3723 840.324 54.3621 840.658C34.3601 840.992 15.4733 840.021 -4.30173 821.81L-4.97916 822.546ZM119.048 852.753C138.779 863.608 156.089 864.022 172.289 858.903C188.453 853.796 203.496 843.184 218.718 832.05C249.225 809.734 280.484 785.318 323.436 797.524L323.71 796.562C280.211 784.2 248.543 808.994 218.127 831.243C202.888 842.391 187.971 852.9 171.988 857.95C156.04 862.988 139.014 862.596 119.53 851.876L119.048 852.753ZM323.436 797.524C343.89 803.337 357.606 811.534 368.003 820.727C378.41 829.93 385.505 840.14 392.723 850.039C399.934 859.928 407.263 869.5 418.113 877.306C428.97 885.117 443.319 891.138 464.553 893.998L464.686 893.007C443.585 890.165 429.398 884.193 418.697 876.494C407.988 868.79 400.739 859.334 393.531 849.45C386.332 839.576 379.171 829.267 368.666 819.978C358.15 810.68 344.299 802.414 323.71 796.562L323.436 797.524ZM464.622 894.002C500.234 893.812 517.508 868.563 530.346 842.655C536.787 829.655 542.086 816.556 548.062 806.162C554.034 795.774 560.57 788.307 569.351 786.465L569.146 785.486C559.912 787.424 553.187 795.242 547.195 805.664C541.206 816.081 535.837 829.321 529.45 842.211C516.63 868.081 499.604 892.815 464.617 893.002L464.622 894.002ZM749.381 772.109C764.482 770.904 777.377 775.325 790.368 779.658C803.337 783.985 816.398 788.222 831.685 786.472L831.571 785.478C816.531 787.2 803.667 783.041 790.684 778.71C777.722 774.386 764.637 769.889 749.302 771.112L749.381 772.109ZM831.685 786.472C845.021 784.948 855.04 786.792 863.398 790.257C871.771 793.728 878.499 798.832 885.271 803.884C892.03 808.927 898.831 813.918 907.291 817.054C915.765 820.195 925.874 821.467 939.256 819.137L939.085 818.152C925.861 820.454 915.932 819.191 907.639 816.116C899.331 813.037 892.636 808.132 885.869 803.083C879.115 798.044 872.289 792.86 863.781 789.333C855.259 785.8 845.069 783.936 831.571 785.478L831.685 786.472ZM939.256 819.137C960.314 815.473 976.723 817.525 990.788 822.308C1004.87 827.096 1016.61 834.623 1028.37 841.958C1040.1 849.284 1051.85 856.417 1065.86 860.316C1079.89 864.218 1096.15 864.874 1116.95 859.308L1116.69 858.342C1096.05 863.865 1079.97 863.203 1066.13 859.352C1052.27 855.497 1040.64 848.44 1028.89 841.11C1017.16 833.789 1005.32 826.193 991.11 821.361C976.885 816.524 960.307 814.46 939.085 818.152L939.256 819.137ZM1116.95 859.308C1138.25 853.614 1152.74 846.039 1163.79 837.382C1174.82 828.73 1182.39 819.014 1189.84 809.091C1197.3 799.161 1204.64 789.031 1215.25 779.456C1225.85 769.887 1239.73 760.863 1260.26 753.194L1259.91 752.258C1239.27 759.967 1225.28 769.055 1214.58 778.714C1203.88 788.366 1196.49 798.579 1189.04 808.49C1181.59 818.408 1174.09 828.03 1163.17 836.595C1152.25 845.157 1137.88 852.678 1116.69 858.342L1116.95 859.308ZM1260.26 753.194C1296.16 739.784 1315.67 741.113 1334.92 741.694C1344.56 741.986 1354.15 742.091 1365.69 740.058C1377.22 738.025 1390.67 733.858 1408.04 725.623L1407.61 724.719C1390.3 732.924 1376.94 737.059 1365.51 739.074C1354.09 741.088 1344.57 740.986 1334.95 740.695C1315.66 740.112 1295.99 738.779 1259.91 752.258L1260.26 753.194ZM1408.04 725.623C1414.55 722.534 1417.92 721.847 1421.29 721.128C1424.71 720.398 1428.13 719.636 1434.68 716.393L1434.24 715.497C1427.78 718.692 1424.45 719.432 1421.08 720.15C1417.67 720.878 1414.22 721.585 1407.61 724.72L1408.04 725.623ZM1434.68 716.393C1477.63 695.179 1508.87 702.515 1539.59 708.75C1554.96 711.868 1570.22 714.716 1586.71 713.534C1603.22 712.352 1620.94 707.136 1641.25 694.171L1640.71 693.328C1620.54 706.209 1602.98 711.367 1586.64 712.537C1570.3 713.708 1555.16 710.889 1539.79 707.77C1509.06 701.532 1477.52 694.12 1434.24 715.496L1434.68 716.393ZM1641.25 694.171C1663.01 680.278 1682.37 684.234 1701.7 687.919C1721.03 691.602 1740.32 695.01 1761.55 679.567L1760.96 678.759C1740.11 693.929 1721.21 690.618 1701.89 686.936C1682.58 683.256 1662.84 679.199 1640.71 693.328L1641.25 694.171ZM1761.55 679.567C1782.25 664.494 1804 668.584 1825.75 672.425C1847.44 676.257 1869.13 679.839 1889.23 663.199L1888.59 662.429C1868.89 678.74 1847.65 675.28 1825.92 671.44C1804.24 667.611 1782.06 663.4 1760.96 678.759L1761.55 679.567ZM1889.23 663.199C1900.24 654.078 1908.6 645.42 1915.25 637.008L1914.46 636.388C1907.86 644.74 1899.56 653.348 1888.59 662.429L1889.23 663.199ZM26.6042 839.591C46.0164 851.114 67.4014 850.609 89.845 843.816C112.276 837.027 135.834 823.936 159.644 810.2C183.474 796.452 207.56 782.057 231.112 772.59C254.663 763.124 277.604 758.618 299.149 764.574L299.416 763.61C277.563 757.569 254.376 762.162 230.739 771.662C207.105 781.162 182.945 795.603 159.144 809.334C135.321 823.078 111.859 836.109 89.5553 842.859C67.2637 849.606 46.1977 850.059 27.1146 838.731L26.6042 839.591ZM299.149 764.574C340.107 775.9 357.785 781.419 375.781 785.299C393.787 789.182 412.121 791.427 454.412 796.219L454.524 795.226C412.22 790.431 393.94 788.192 375.991 784.322C358.033 780.45 340.415 774.947 299.416 763.61L299.149 764.574ZM454.412 796.219C496.108 800.948 517.28 797.567 538.513 792.921C559.703 788.284 580.914 782.399 622.771 782.075L622.763 781.075C580.789 781.399 559.484 787.309 538.299 791.944C517.157 796.57 496.096 799.94 454.524 795.226L454.412 796.219ZM1045.13 696.675C1069.76 699.139 1086.85 697.839 1099.35 694.207C1111.88 690.57 1119.78 684.602 1126.04 677.787C1129.16 674.386 1131.88 670.776 1134.55 667.156C1137.23 663.531 1139.86 659.899 1142.83 656.42C1148.76 649.476 1156.03 643.157 1167.62 638.886L1167.28 637.948C1155.49 642.292 1148.08 648.731 1142.07 655.77C1139.07 659.283 1136.42 662.949 1133.75 666.562C1131.08 670.182 1128.39 673.753 1125.3 677.11C1119.14 683.812 1111.4 689.668 1099.08 693.247C1086.74 696.83 1069.79 698.137 1045.23 695.68L1045.13 696.675ZM1167.62 638.886C1176.89 635.473 1183.07 631.966 1187.7 628.375C1192.33 624.786 1195.39 621.127 1198.39 617.454C1201.4 613.78 1204.36 610.096 1208.82 606.378C1213.28 602.663 1219.25 598.902 1228.28 595.118L1227.89 594.196C1218.79 598.011 1212.72 601.821 1208.18 605.61C1203.64 609.398 1200.62 613.154 1197.62 616.821C1194.62 620.488 1191.62 624.07 1187.09 627.585C1182.56 631.1 1176.47 634.562 1167.28 637.948L1167.62 638.886ZM1228.28 595.118C1271.14 577.163 1290.81 572.665 1309.99 567.075C1329.19 561.474 1347.86 554.786 1388.64 532.469L1388.16 531.591C1347.43 553.88 1328.83 560.537 1309.71 566.115C1290.54 571.702 1270.81 576.215 1227.89 594.196L1228.28 595.118ZM1388.64 532.469C1412.73 519.282 1431.58 527.036 1450.43 534.525C1459.83 538.263 1469.26 541.943 1479.28 542.815C1489.32 543.689 1499.94 541.742 1511.74 534.287L1511.2 533.442C1499.59 540.78 1489.19 542.674 1479.37 541.818C1469.52 540.961 1460.22 537.341 1450.79 533.596C1431.97 526.115 1412.7 518.159 1388.16 531.591L1388.64 532.469ZM1511.74 534.287C1529.82 522.858 1547.57 530.641 1565.48 538.37C1583.29 546.057 1601.27 553.693 1619.26 541.018L1618.68 540.201C1601.21 552.508 1583.78 545.18 1565.88 537.452C1548.07 529.768 1529.8 521.687 1511.2 533.442L1511.74 534.287ZM1619.26 541.018C1657.77 513.884 1695.67 520.748 1732.95 526.636C1770.2 532.519 1806.84 537.42 1842.38 505.857L1841.71 505.109C1806.56 536.334 1770.36 531.532 1733.1 525.648C1695.87 519.768 1657.57 512.801 1618.68 540.201L1619.26 541.018ZM1842.38 505.857C1847.17 501.603 1850.17 499.507 1853.16 497.383C1856.17 495.25 1859.16 493.092 1863.92 488.729L1863.25 487.991C1858.53 492.316 1855.57 494.447 1852.58 496.568C1849.58 498.697 1846.55 500.819 1841.71 505.109L1842.38 505.857ZM1863.92 488.729C1901.95 453.876 1895.94 410.932 1888.68 367.154C1881.4 323.296 1872.88 278.596 1905.21 239.591L1904.44 238.953C1871.77 278.367 1880.43 323.56 1887.69 367.317C1894.96 411.153 1900.83 453.544 1863.25 487.991L1863.92 488.729ZM-5.64031 282.845C-5.42134 324.337 7.61316 345.831 17.0161 367.456C21.714 378.261 25.5069 389.096 26.3874 402.507C27.2681 415.92 25.2373 431.945 18.2342 453.12L19.1836 453.434C26.2159 432.171 28.2764 416.014 27.3852 402.441C26.4939 388.866 22.6519 377.91 17.9332 367.058C8.50294 345.369 -4.42267 324.083 -4.64032 282.84L-5.64031 282.845ZM18.2342 453.12C5.75814 490.825 0.899789 514.77 2.74384 538.219C4.58678 561.654 13.1228 584.549 27.3166 620.139L28.2455 619.768C14.0407 584.151 5.56976 561.398 3.74076 538.141C1.91288 514.898 6.7177 491.108 19.1836 453.434L18.2342 453.12ZM27.3166 620.139C33.4131 635.418 37.7041 648.797 41.6011 660.875C45.4962 672.948 49.0017 683.735 53.5222 693.795C62.5783 713.949 75.6969 731.16 104.13 750.12L104.685 749.288C76.3945 730.424 63.4069 713.354 54.4343 693.385C49.9403 683.384 46.4509 672.65 42.5528 660.568C38.6565 648.492 34.3561 635.083 28.2454 619.768L27.3166 620.139ZM104.13 750.12C118.913 759.978 132.192 763.133 144.853 762.647C157.494 762.161 169.488 758.045 181.687 753.427C206.114 744.181 231.438 732.904 265.019 743.956L265.331 743.006C231.363 731.827 205.703 743.267 181.333 752.492C169.134 757.11 157.276 761.169 144.815 761.648C132.375 762.125 119.302 759.035 104.685 749.288L104.13 750.12ZM265.019 743.956C269.8 745.529 273.481 745.917 276.619 745.681C279.751 745.445 282.314 744.589 284.833 743.722C287.359 742.853 289.837 741.975 292.874 741.628C295.904 741.282 299.513 741.465 304.267 742.758L304.529 741.794C299.668 740.471 295.932 740.273 292.761 740.635C289.598 740.996 287.019 741.912 284.508 742.777C281.99 743.643 279.535 744.459 276.544 744.683C273.558 744.908 270.01 744.545 265.331 743.006L265.019 743.956ZM304.267 742.759C345.223 753.902 364.226 752.449 383.571 749.177C402.846 745.916 422.403 740.865 464.591 744.77L464.684 743.775C422.35 739.856 402.674 744.931 383.404 748.19C364.204 751.438 345.348 752.899 304.529 741.794L304.267 742.759ZM464.591 744.77C506.171 748.611 524.716 758.665 543.36 767.403C552.698 771.78 562.075 775.834 574.364 778.599C586.652 781.364 601.831 782.836 622.785 782.075L622.749 781.076C601.86 781.834 586.769 780.365 574.584 777.624C562.4 774.882 553.101 770.864 543.785 766.498C525.12 757.749 506.444 747.632 464.683 743.775L464.591 744.77ZM622.785 782.075C706.856 779.017 701.871 779.032 785.098 766.89L784.953 765.9C701.755 778.039 706.776 778.019 622.749 781.076L622.785 782.075ZM785.098 766.89C862.57 755.583 870.339 759.301 949.617 759.301V758.301C870.38 758.301 862.517 754.58 784.953 765.9L785.098 766.89ZM949.617 759.301C959.693 759.301 966.93 757.873 972.473 755.695C978.021 753.516 981.844 750.596 985.1 747.657C991.618 741.772 995.75 735.97 1006.88 735.403L1006.83 734.404C995.259 734.994 990.826 741.14 984.43 746.915C981.227 749.806 977.505 752.644 972.108 754.765C966.706 756.887 959.599 758.301 949.617 758.301V759.301ZM1006.88 735.403C1024.63 734.499 1033.87 729.534 1038.92 722.005C1043.94 714.536 1044.74 704.633 1045.91 694.14C1047.08 683.596 1048.62 672.366 1054.96 661.972C1061.29 651.595 1072.46 641.993 1093.01 634.814L1092.68 633.87C1071.97 641.107 1060.59 650.833 1054.11 661.451C1047.64 672.053 1046.09 683.487 1044.91 694.029C1043.74 704.623 1042.94 714.229 1038.09 721.448C1033.29 728.607 1024.43 733.508 1006.83 734.404L1006.88 735.403ZM1093.01 634.814C1114.44 627.326 1127.66 617.148 1136.7 605.471C1145.73 593.808 1150.57 580.678 1155.26 567.362C1159.97 554.028 1164.54 540.507 1173.03 527.921C1181.51 515.351 1193.92 503.699 1214.31 494.162L1213.88 493.257C1193.33 502.866 1180.79 514.636 1172.2 527.362C1163.63 540.073 1159.02 553.722 1154.32 567.029C1149.62 580.355 1144.83 593.339 1135.91 604.859C1127 616.365 1113.95 626.438 1092.68 633.87L1093.01 634.814ZM1214.31 494.162C1236.51 483.776 1246.78 482.536 1256.93 480.991C1267.16 479.434 1277.24 477.569 1298.95 465.93L1298.47 465.049C1276.88 476.63 1266.91 478.461 1256.78 480.002C1246.58 481.555 1236.2 482.815 1213.88 493.257L1214.31 494.162ZM1298.95 465.93C1309.02 460.525 1317 458.278 1323.91 457.565C1330.82 456.852 1336.68 457.672 1342.58 458.438C1348.46 459.204 1354.36 459.915 1361.27 458.93C1368.18 457.945 1376.06 455.266 1385.93 449.298L1385.41 448.443C1375.63 454.355 1367.88 456.977 1361.13 457.94C1354.37 458.904 1348.59 458.212 1342.7 457.446C1336.83 456.682 1330.85 455.843 1323.8 456.571C1316.75 457.298 1308.65 459.591 1298.47 465.049L1298.95 465.93ZM1385.93 449.298C1407.52 436.238 1429.78 435.713 1452.32 441.339C1474.88 446.97 1497.68 458.752 1520.34 470.272C1542.97 481.778 1565.46 493.024 1587.32 497.485C1609.21 501.952 1630.49 499.622 1650.68 483.96L1650.06 483.17C1630.16 498.615 1609.19 500.928 1587.52 496.505C1565.81 492.076 1543.45 480.899 1520.79 469.381C1498.16 457.876 1475.26 446.033 1452.56 440.368C1429.84 434.698 1407.3 435.207 1385.41 448.443L1385.93 449.298ZM1650.68 483.96C1652.31 482.688 1653.22 482.113 1654.14 481.529C1655.07 480.938 1656 480.339 1657.67 479.03L1657.05 478.244C1655.42 479.525 1654.51 480.104 1653.6 480.686C1652.67 481.277 1651.74 481.871 1650.06 483.17L1650.68 483.96ZM1657.66 479.03C1700.01 445.842 1731.17 437.204 1761.25 427.276C1791.37 417.333 1820.37 406.104 1858.23 367.709L1857.52 367.007C1819.81 405.25 1790.97 416.413 1760.94 426.327C1730.86 436.255 1699.55 444.937 1657.05 478.243L1657.66 479.03ZM1858.23 367.709C1863.71 362.153 1865.6 358.03 1867.44 353.922C1869.27 349.854 1871.05 345.805 1876.3 340.273L1875.58 339.585C1870.21 345.24 1868.37 349.411 1866.53 353.513C1864.71 357.575 1862.88 361.573 1857.52 367.007L1858.23 367.709ZM1876.3 340.273C1913.55 301.043 1906.72 260.038 1898.56 218.152C1890.39 176.229 1880.9 133.427 1912.24 90.0731L1911.43 89.4873C1879.8 133.24 1889.42 176.482 1897.58 218.343C1905.74 260.24 1912.44 300.756 1875.58 339.585L1876.3 340.273ZM1912.24 90.0737C1913.62 88.1674 1914.53 86.9064 1915.26 85.8788L1914.45 85.3C1913.72 86.3229 1912.81 87.58 1911.43 89.4867L1912.24 90.0737ZM-5.64062 177.137C-5.64062 220.416 9.31309 267.544 22.0966 314.527C34.8933 361.557 45.5211 408.452 37.0235 451.435L38.0045 451.629C46.5533 408.387 35.8537 361.278 23.0615 314.264C10.2561 267.201 -4.64062 220.245 -4.64062 177.137H-5.64062ZM37.0235 451.435C29.4502 489.781 27.6117 519.008 33.7451 545.859C39.8799 572.715 53.9775 597.139 78.1737 625.905L78.939 625.261C54.7978 596.561 40.806 572.279 34.72 545.636C28.6326 518.987 30.4416 489.922 38.0045 451.629L37.0235 451.435ZM78.1736 625.904C86.1292 635.368 89.773 641.351 93.9106 646.972C98.0521 652.599 102.636 657.784 112.392 665.543L113.015 664.761C103.323 657.053 98.802 651.931 94.716 646.38C90.6261 640.823 86.9202 634.755 78.9391 625.261L78.1736 625.904ZM112.392 665.543C130.051 679.587 145.432 685.87 159.962 687.742C174.482 689.613 188.107 687.072 202.225 683.549C230.468 676.501 260.764 665.513 304.703 677.487L304.966 676.522C260.727 664.467 230.159 675.548 201.983 682.579C187.891 686.095 174.417 688.596 160.09 686.75C145.773 684.905 130.559 678.713 113.015 664.761L112.392 665.543ZM304.703 677.487C325.108 683.048 339.985 685.038 352.146 684.978C364.313 684.919 373.737 682.809 383.224 680.203C402.158 675.001 421.387 667.806 463.51 670.848L463.582 669.851C421.273 666.796 401.899 674.035 382.96 679.238C373.511 681.834 364.182 683.92 352.142 683.978C340.096 684.037 325.312 682.068 304.966 676.522L304.703 677.487ZM463.51 670.848C505.109 673.853 523.957 685.951 542.883 696.654C552.361 702.014 561.877 707.036 574.263 710.368C586.65 713.7 601.881 715.337 622.799 713.967L622.734 712.969C601.901 714.333 586.783 712.7 574.523 709.402C562.263 706.104 552.836 701.134 543.375 695.784C524.424 685.067 505.414 672.872 463.582 669.851L463.51 670.848ZM622.799 713.967C664.794 711.213 685.975 719.502 707.072 726.63C717.635 730.199 728.195 733.483 741.318 734.93C754.442 736.377 770.108 735.985 790.9 732.228L790.722 731.244C770.007 734.987 754.439 735.371 741.428 733.936C728.416 732.502 717.939 729.246 707.392 725.683C686.27 718.546 664.934 710.202 622.734 712.969L622.799 713.967ZM790.9 732.228C833.142 724.593 857.021 730.582 880.716 735.526C904.468 740.482 928.006 744.378 969.436 732.45L969.159 731.49C927.94 743.357 904.578 739.483 880.92 734.547C857.206 729.599 833.166 723.573 790.722 731.244L790.9 732.228ZM969.436 732.451C1012.29 720.121 1022.16 682.863 1031.62 644.976C1041.11 606.988 1050.2 568.357 1091.08 552.27L1090.71 551.339C1049.28 567.645 1040.11 606.857 1030.65 644.734C1021.16 682.712 1011.39 719.34 969.159 731.489L969.436 732.451ZM1091.08 552.27C1098.33 549.419 1102.93 545.892 1106.18 541.996C1109.43 538.111 1111.32 533.879 1113.18 529.683C1115.03 525.474 1116.85 521.3 1119.95 517.406C1123.03 513.523 1127.41 509.898 1134.41 506.848L1134.01 505.931C1126.88 509.041 1122.36 512.762 1119.16 516.784C1115.97 520.795 1114.11 525.087 1112.26 529.28C1110.41 533.485 1108.56 537.592 1105.42 541.355C1102.28 545.108 1097.82 548.542 1090.71 551.339L1091.08 552.27ZM1134.41 506.848C1148.56 500.681 1156.84 492.743 1162.13 483.844C1167.41 474.964 1169.7 465.156 1171.92 455.314C1174.14 445.449 1176.29 435.55 1181.26 426.345C1186.21 417.16 1193.99 408.648 1207.5 401.615L1207.04 400.728C1193.36 407.85 1185.43 416.504 1180.38 425.87C1175.33 435.218 1173.16 445.257 1170.94 455.094C1168.72 464.953 1166.46 474.609 1161.27 483.332C1156.09 492.037 1147.98 499.841 1134.01 505.931L1134.41 506.848ZM1207.5 401.615C1229.02 390.416 1247.07 387.061 1263.29 387.473C1279.52 387.884 1293.96 392.068 1308.29 395.993C1322.61 399.913 1336.83 403.574 1352.54 402.855C1368.27 402.135 1385.45 397.031 1405.74 383.493L1405.19 382.662C1385.03 396.112 1368.02 401.145 1352.49 401.856C1336.96 402.567 1322.88 398.95 1308.55 395.028C1294.25 391.111 1279.69 386.888 1263.31 386.473C1246.91 386.057 1228.7 389.454 1207.04 400.728L1207.5 401.615ZM1405.74 383.493C1408.25 381.816 1410.25 380.904 1411.99 380.365C1413.72 379.825 1415.21 379.654 1416.75 379.473C1418.28 379.293 1419.85 379.105 1421.68 378.515C1423.51 377.925 1425.58 376.939 1428.14 375.18L1427.57 374.356C1425.08 376.069 1423.09 377.007 1421.37 377.563C1419.64 378.12 1418.16 378.3 1416.63 378.48C1415.1 378.66 1413.53 378.839 1411.69 379.41C1409.85 379.982 1407.77 380.94 1405.19 382.662L1405.74 383.493ZM1428.14 375.18C1447.09 362.15 1469.41 362.482 1493.42 369.468C1517.45 376.456 1543.07 390.073 1568.56 403.484C1594.03 416.882 1619.38 430.076 1642.77 436.137C1666.18 442.202 1687.74 441.147 1705.53 425.922L1704.88 425.163C1687.43 440.091 1666.26 441.19 1643.02 435.169C1619.76 429.143 1594.52 416.01 1569.03 402.599C1543.56 389.203 1517.84 375.53 1493.7 368.508C1469.55 361.483 1446.88 361.082 1427.57 374.356L1428.14 375.18ZM1705.53 425.922C1720.47 413.128 1730.43 407.463 1740.26 401.615C1750.11 395.754 1759.82 389.717 1774.24 376.194L1773.56 375.465C1759.21 388.921 1749.56 394.916 1739.74 400.755C1729.91 406.607 1719.89 412.309 1704.88 425.163L1705.53 425.922ZM1774.24 376.194C1802.96 349.249 1796.33 313.782 1789.15 278.049C1781.95 242.198 1774.2 206.065 1799.89 177.074L1799.14 176.411C1773.07 205.838 1781 242.522 1788.17 278.246C1795.37 314.088 1801.81 348.955 1773.56 375.465L1774.24 376.194ZM1799.89 177.074C1811.5 163.964 1831.19 153.675 1850.87 143.206C1870.48 132.769 1890.09 122.152 1901.28 108.388L1900.5 107.757C1889.46 121.332 1870.07 131.857 1850.4 142.324C1830.79 152.758 1810.9 163.135 1799.14 176.411L1799.89 177.074ZM37.0141 451.521C35.6807 512.105 69.097 542.313 109.9 586.193L110.632 585.512C69.7504 541.547 36.6911 511.646 38.0139 451.543L37.0141 451.521ZM109.9 586.192C115.876 592.621 121.435 596.415 126.89 598.766C132.34 601.115 137.661 602.012 143.129 602.677C154.061 604.009 165.628 604.43 180.464 613.527L180.987 612.675C165.933 603.444 154.14 603.011 143.25 601.685C137.808 601.022 132.602 600.139 127.286 597.848C121.974 595.559 116.527 591.853 110.632 585.512L109.9 586.192ZM180.464 613.527C193.389 621.449 204.152 623.896 213.948 623.331C223.726 622.766 232.493 619.201 241.407 615.198C259.244 607.189 277.788 597.378 306.81 605.507L307.08 604.544C277.668 596.305 258.808 606.288 240.997 614.286C232.087 618.287 223.468 621.779 213.891 622.332C204.331 622.884 193.768 620.508 180.987 612.675L180.464 613.527ZM306.81 605.507C327.141 611.202 341.894 611.356 353.908 608.416C365.916 605.478 375.138 599.46 384.401 592.915C393.676 586.363 402.985 579.29 415.239 574.118C427.478 568.951 442.673 565.676 463.683 566.783L463.736 565.784C442.586 564.67 427.239 567.966 414.85 573.197C402.474 578.421 393.065 585.571 383.824 592.099C374.573 598.635 365.482 604.555 353.67 607.445C341.864 610.334 327.291 610.206 307.08 604.544L306.81 605.507ZM463.683 566.783C505.23 568.975 529.29 593.678 553.471 617.003C577.633 640.309 601.915 662.228 643.811 658.22L643.716 657.225C602.309 661.185 578.325 639.588 554.166 616.284C530.027 592.999 505.711 567.999 463.736 565.784L463.683 566.783ZM789.715 716.934C831.56 716.934 865.845 707.602 893.869 697.783C907.865 692.88 920.341 687.839 931.361 683.801C942.407 679.752 952.012 676.702 960.373 675.721L960.256 674.728C951.768 675.724 942.066 678.812 931.017 682.862C919.943 686.92 907.539 691.935 893.539 696.84C865.572 706.638 831.406 715.934 789.715 715.934V716.934ZM960.471 675.699C1003.37 661.522 1016.78 626.017 1029.72 589.76C1042.68 553.445 1055.18 516.377 1095.99 498.32L1095.59 497.406C1054.32 515.663 1041.72 553.183 1028.78 589.424C1015.83 625.724 1002.54 660.743 960.158 674.75L960.471 675.699ZM1095.99 498.32C1117.52 488.803 1130.84 477.718 1139.97 465.696C1149.09 453.683 1154.01 440.763 1158.77 427.641C1163.53 414.505 1168.13 401.172 1176.6 388.209C1185.07 375.259 1197.42 362.663 1217.69 351.064L1217.2 350.196C1196.79 361.87 1184.32 374.572 1175.76 387.662C1167.21 400.74 1162.58 414.19 1157.82 427.3C1153.07 440.424 1148.19 453.212 1139.17 465.091C1130.16 476.96 1116.98 487.948 1095.59 497.406L1095.99 498.32ZM1217.69 351.064C1220.46 349.483 1224.74 348.136 1229.84 346.903C1234.92 345.673 1240.76 344.569 1246.62 343.455C1252.46 342.343 1258.33 341.222 1263.43 339.962C1268.52 338.705 1272.91 337.298 1275.79 335.594L1275.28 334.733C1272.54 336.356 1268.27 337.736 1263.19 338.992C1258.12 340.244 1252.28 341.36 1246.43 342.473C1240.58 343.585 1234.72 344.694 1229.6 345.931C1224.5 347.166 1220.1 348.539 1217.2 350.196L1217.69 351.064ZM1275.79 335.594C1294.39 324.589 1309.9 322.292 1323.79 324.204C1337.7 326.119 1350.03 332.263 1362.3 338.237C1374.54 344.197 1386.72 349.99 1400.25 351.052C1413.81 352.118 1428.66 348.431 1446.25 335.567L1445.66 334.76C1428.23 347.508 1413.61 351.099 1400.33 350.056C1387.02 349.01 1375 343.309 1362.73 337.338C1350.5 331.379 1338.03 325.154 1323.92 323.213C1309.79 321.268 1294.06 323.624 1275.28 334.733L1275.79 335.594ZM1446.25 335.567C1457.59 327.274 1470.5 326.343 1484.24 329.1C1498 331.86 1512.52 338.303 1527.04 344.69C1541.53 351.065 1556.02 357.385 1569.63 359.815C1583.26 362.25 1596.07 360.794 1607.14 351.555L1606.5 350.787C1595.73 359.777 1583.25 361.232 1569.81 358.831C1556.34 356.425 1541.96 350.162 1527.44 343.775C1512.95 337.401 1498.32 330.906 1484.44 328.119C1470.53 325.33 1457.31 326.244 1445.66 334.76L1446.25 335.567ZM1607.14 351.555C1627.05 334.927 1642.81 330.858 1658.39 326.483C1674 322.097 1689.41 317.407 1708.46 299.484L1707.77 298.755C1688.9 316.516 1673.67 321.151 1658.11 325.52C1642.52 329.901 1626.59 334.015 1606.5 350.787L1607.14 351.555ZM1708.46 299.484C1733.35 276.056 1728.7 246.182 1723.65 216.173C1718.59 186.067 1713.14 155.818 1735.7 130.963L1734.96 130.291C1712.02 155.562 1717.63 186.34 1722.67 216.339C1727.73 246.435 1732.22 275.743 1707.77 298.755L1708.46 299.484ZM1735.7 130.963C1754.75 109.965 1752.46 83.621 1749.87 57.2503C1747.26 30.795 1744.35 4.30889 1761.65 -17.5115L1760.86 -18.1328C1743.27 4.05849 1746.27 30.987 1748.87 57.3483C1751.48 83.7942 1753.67 109.669 1734.96 130.291L1735.7 130.963ZM111.08 282.7C102.754 310.779 91.2681 341.83 83.6363 372.767C76 403.722 72.1835 434.691 79.2175 462.716L80.1875 462.472C73.2133 434.686 76.9838 403.91 84.6072 373.007C92.2351 342.085 103.682 311.166 112.038 282.985L111.08 282.7ZM79.2176 462.716C81.9211 473.479 84.2667 478.319 88.5192 488.506L89.442 488.121C85.1805 477.912 82.8689 473.148 80.1874 462.472L79.2176 462.716ZM88.5191 488.506C97.0425 508.972 109.228 520.314 124.208 526.207C139.156 532.087 156.836 532.519 176.309 531.285C215.318 528.813 261.598 519.673 308.458 533.579L308.743 532.62C261.657 518.648 215.082 527.826 176.246 530.287C156.796 531.519 139.305 531.071 124.574 525.276C109.875 519.494 97.8741 508.367 89.4422 488.122L88.5191 488.506ZM308.458 533.579C323.731 538.115 334.886 536.632 344.003 531.885C353.086 527.155 360.094 519.207 367.115 510.95C374.158 502.667 381.22 494.065 390.454 487.85C399.664 481.652 411.048 477.824 426.737 479.154L426.821 478.157C410.901 476.808 399.291 480.698 389.896 487.021C380.524 493.328 373.369 502.051 366.354 510.302C359.317 518.578 352.426 526.372 343.541 530.998C334.689 535.608 323.806 537.094 308.743 532.62L308.458 533.579ZM426.737 479.154C432.247 479.618 436.376 476.799 440.451 472.561C442.487 470.444 444.535 467.944 446.745 465.289C448.96 462.629 451.347 459.801 454.078 456.996C459.537 451.391 466.371 445.884 475.921 442.053C485.473 438.222 497.77 436.056 514.168 437.177L514.236 436.179C497.714 435.05 485.262 437.229 475.549 441.125C465.835 445.021 458.888 450.624 453.362 456.298C450.601 459.133 448.193 461.987 445.977 464.65C443.756 467.318 441.735 469.783 439.73 471.868C435.72 476.038 431.872 478.583 426.821 478.157L426.737 479.154ZM509.267 753.14C516.597 752.588 526.056 754.102 537.407 756.356C548.733 758.605 561.917 761.584 576.612 763.919C606.019 768.591 641.555 770.697 680.825 759.281L680.546 758.321C641.47 769.68 606.096 767.591 576.769 762.931C562.099 760.601 548.96 757.63 537.602 755.375C526.268 753.125 516.679 751.579 509.192 752.143L509.267 753.14ZM680.748 759.297C701.924 756.623 716.048 752.7 726.613 747.978C737.184 743.253 744.166 737.738 751.055 731.926C757.943 726.115 764.723 720.02 774.937 714.055C785.147 708.092 798.803 702.252 819.416 697L819.169 696.031C798.485 701.301 784.739 707.172 774.432 713.191C764.129 719.209 757.278 725.367 750.41 731.161C743.544 736.954 736.647 742.398 726.205 747.065C715.757 751.735 701.736 755.638 680.623 758.305L680.748 759.297ZM819.416 697C862.059 686.138 883.621 669.894 904.788 652.56C925.928 635.249 946.654 616.874 987.683 601.609L987.334 600.672C946.133 616.001 925.294 634.476 904.155 651.786C883.044 669.074 861.613 685.22 819.169 696.031L819.416 697ZM987.683 601.609C1030.69 585.61 1040.75 550.111 1050.32 513.874C1059.9 477.584 1068.98 440.555 1109.71 420.705L1109.27 419.806C1068.08 439.884 1058.91 477.398 1049.35 513.619C1039.78 549.892 1029.81 584.871 987.334 600.672L987.683 601.609ZM1109.71 420.704C1111.22 419.966 1111.91 419.539 1112.6 419.116C1113.27 418.703 1113.93 418.294 1115.4 417.575L1114.96 416.676C1113.45 417.414 1112.76 417.841 1112.07 418.265C1111.4 418.678 1110.74 419.087 1109.27 419.806L1109.71 420.704ZM1115.4 417.574C1136.22 407.341 1149.85 396.988 1159.82 386.434C1169.78 375.881 1176.05 365.146 1182.15 354.191C1194.33 332.308 1205.88 309.455 1244.93 284.92L1244.39 284.073C1205.12 308.747 1193.48 331.786 1181.27 353.704C1175.18 364.649 1168.96 375.291 1159.09 385.747C1149.22 396.201 1135.69 406.487 1114.96 416.677L1115.4 417.574ZM1244.93 284.92C1273.03 267.256 1299.55 277.762 1326 287.902C1352.39 298.014 1378.71 307.76 1405.89 287.741L1405.29 286.936C1378.6 306.594 1352.81 297.104 1326.36 286.968C1299.99 276.86 1272.98 266.106 1244.39 284.073L1244.93 284.92ZM1405.89 287.741C1420.28 277.141 1429.88 274.813 1439.42 272.33C1449.02 269.832 1458.55 267.178 1472.65 255.894L1472.03 255.113C1458.08 266.275 1448.7 268.882 1439.17 271.362C1429.59 273.856 1419.84 276.223 1405.29 286.936L1405.89 287.741ZM1472.65 255.894C1508.44 227.276 1535.29 221.199 1561.43 214.23C1587.62 207.246 1613.07 199.369 1645.85 167.099L1645.14 166.386C1612.54 198.488 1587.28 206.303 1561.18 213.264C1535.02 220.237 1507.99 226.355 1472.03 255.113L1472.65 255.894ZM1645.85 167.099C1649.59 163.418 1656.09 160.272 1664.06 157.386C1672.01 154.507 1681.34 151.913 1690.69 149.301C1700.03 146.692 1709.38 144.065 1717.32 141.125C1725.26 138.19 1731.87 134.916 1735.69 130.974L1734.97 130.279C1731.33 134.045 1724.9 137.256 1716.98 140.187C1709.07 143.11 1699.77 145.727 1690.42 148.338C1681.09 150.947 1671.71 153.551 1663.72 156.446C1655.74 159.335 1649.05 162.54 1645.14 166.386L1645.85 167.099ZM111.08 282.7C99.0974 323.11 116.309 366.446 149.341 405.003L150.101 404.353C117.166 365.91 100.196 322.921 112.038 282.985L111.08 282.7ZM149.341 405.003C170.149 429.291 195.434 437.112 223.202 441.454C251.003 445.801 281.19 446.663 312.139 456.97L312.454 456.021C281.403 445.68 250.996 444.788 223.356 440.466C195.684 436.139 170.681 428.375 150.101 404.353L149.341 405.003ZM312.139 456.97C332.046 463.599 346.073 462.595 357.216 457.303C368.329 452.026 376.498 442.515 384.748 432.327C393.018 422.113 401.38 411.204 412.913 402.932C424.423 394.675 439.109 389.037 460.028 389.44L460.048 388.44C438.915 388.033 424.017 393.736 412.33 402.119C400.664 410.487 392.212 421.52 383.971 431.697C375.709 441.901 367.667 451.233 356.787 456.4C345.937 461.552 332.189 462.593 312.454 456.021L312.139 456.97ZM460.028 389.44C480.659 389.834 497.308 407.396 511.986 433.675C526.643 459.916 539.216 494.633 551.779 528.953C564.333 563.246 576.878 597.146 591.472 621.662C606.044 646.143 622.804 661.503 643.841 658.217L643.687 657.229C623.327 660.409 606.887 645.604 592.331 621.15C577.795 596.732 565.282 562.929 552.718 528.609C540.165 494.317 527.563 459.513 512.859 433.187C498.176 406.899 481.278 388.846 460.047 388.44L460.028 389.44ZM643.841 658.217C686.314 651.577 709.583 640.301 732.521 627.67C755.433 615.053 777.981 601.106 819.08 589.046L818.799 588.087C777.577 600.182 754.934 614.186 732.038 626.794C709.167 639.389 686.009 650.613 643.687 657.229L643.841 658.217ZM819.08 589.046C853.038 579.086 870.622 569.778 887.938 559.734C905.231 549.702 922.232 538.952 955.075 526.063L954.709 525.132C921.786 538.053 904.722 548.841 887.436 558.869C870.172 568.883 852.662 578.154 818.799 588.087L819.08 589.046ZM955.075 526.063C963.617 522.71 968.116 520.496 972.591 518.238C977.056 515.986 981.49 513.696 989.923 510.178L989.538 509.255C981.07 512.787 976.609 515.092 972.141 517.345C967.684 519.593 963.214 521.794 954.709 525.132L955.075 526.063ZM989.923 510.178C1011.42 501.21 1025.74 490.116 1036.39 477.82C1047.03 465.532 1054 452.061 1060.82 438.384C1074.46 411.034 1087.54 382.779 1128.25 360.854L1127.77 359.974C1086.76 382.061 1073.57 410.579 1059.92 437.938C1053.1 451.616 1046.18 464.983 1035.63 477.165C1025.09 489.338 1010.9 500.344 989.538 509.255L989.923 510.178ZM1128.25 360.854C1143.81 352.474 1154.26 344.292 1162.12 336.126C1169.97 327.961 1175.21 319.827 1180.34 311.576C1190.59 295.099 1200.43 278.082 1229.92 259.015L1229.38 258.176C1199.7 277.366 1189.76 294.539 1179.49 311.048C1174.37 319.291 1169.17 327.349 1161.4 335.432C1153.62 343.514 1143.25 351.636 1127.77 359.974L1128.25 360.854ZM1229.92 259.015C1241.71 251.392 1245.77 245.401 1249.74 239.351C1253.68 233.358 1257.53 227.317 1268.92 219.456L1268.36 218.633C1256.81 226.599 1252.87 232.762 1248.91 238.802C1244.98 244.785 1241.01 250.655 1229.38 258.176L1229.92 259.015ZM1268.92 219.456C1290.73 204.403 1315.34 193.609 1340.73 182.992C1366.1 172.382 1392.25 161.949 1417.02 147.627C1466.6 118.959 1510.67 74.7171 1532.45 -17.7075L1531.47 -17.9368C1509.76 74.2034 1465.87 118.223 1416.51 146.761C1391.81 161.043 1365.74 171.449 1340.35 182.07C1314.96 192.685 1290.25 203.514 1268.36 218.633L1268.92 219.456ZM192.007 100.842C191.012 105.438 192.886 110.183 196.008 114.905C199.134 119.635 203.586 124.451 207.909 129.204C212.248 133.976 216.455 138.684 219.171 143.247C221.887 147.812 223.044 152.121 221.468 156.147L222.399 156.511C224.143 152.057 222.805 147.4 220.03 142.736C217.254 138.071 212.974 133.288 208.649 128.532C204.306 123.756 199.916 119.005 196.842 114.354C193.763 109.695 192.078 105.244 192.984 101.054L192.007 100.842ZM221.459 156.171C210.528 188.948 184.508 203.668 160.329 218.662C136.186 233.633 113.876 248.889 111.061 282.801L112.057 282.884C114.828 249.51 136.707 234.487 160.856 219.512C184.969 204.559 211.343 189.665 222.407 156.487L221.459 156.171ZM111.061 282.801C109.481 301.791 116.907 315.484 130.1 325.776C143.26 336.042 162.156 342.925 183.55 348.389C204.949 353.853 228.928 357.915 252.262 362.497C275.615 367.082 298.331 372.19 317.276 379.747L317.647 378.819C298.607 371.223 275.81 366.101 252.455 361.515C229.083 356.926 205.16 352.875 183.798 347.42C162.431 341.964 143.705 335.12 130.715 324.988C117.759 314.88 110.508 301.502 112.057 282.884L111.061 282.801ZM317.277 379.747C319.073 380.463 320.264 380.819 321.155 380.979C322.061 381.143 322.643 381.101 323.199 381.051C323.731 381.003 324.224 380.949 325.025 381.051C325.838 381.155 326.981 381.421 328.779 382.04L329.104 381.095C327.272 380.464 326.058 380.175 325.151 380.059C324.234 379.943 323.648 380.007 323.109 380.055C322.593 380.102 322.112 380.136 321.332 379.995C320.536 379.852 319.416 379.523 317.647 378.819L317.277 379.747ZM328.779 382.04C346.888 388.245 359.33 386.559 368.975 380.442C378.572 374.355 385.319 363.923 392.149 352.857C399.002 341.755 405.951 329.988 415.961 321.012C425.947 312.058 438.989 305.875 458.05 306.005L458.057 305.005C438.741 304.873 425.459 311.152 415.294 320.267C405.153 329.36 398.126 341.268 391.298 352.332C384.447 363.431 377.81 373.654 368.439 379.597C359.116 385.51 347.007 387.228 329.103 381.094L328.779 382.04ZM458.05 306.005C468.37 306.076 477.787 310.602 486.543 318.509C495.303 326.421 503.377 337.695 510.991 351.201C526.221 378.215 539.546 414.033 552.848 449.407C566.141 484.754 579.413 519.663 594.528 544.769C602.087 557.324 610.128 567.465 618.896 573.987C627.678 580.518 637.201 583.424 647.675 581.47L647.491 580.487C637.343 582.381 628.097 579.583 619.493 573.184C610.875 566.775 602.914 556.759 595.385 544.254C580.327 519.242 567.087 484.428 553.784 449.055C540.492 413.708 527.138 377.806 511.862 350.71C504.223 337.16 496.087 325.781 487.213 317.767C478.333 309.748 468.69 305.078 458.057 305.005L458.05 306.005ZM647.674 581.47C656.012 579.915 660.924 578.114 665.803 576.259C670.667 574.409 675.49 572.51 683.692 570.729L683.48 569.752C675.199 571.55 670.317 573.473 665.448 575.324C660.594 577.169 655.745 578.948 647.491 580.487L647.674 581.47ZM683.692 570.729C717.906 563.272 734.823 548.524 751.436 532.927C768.023 517.353 784.29 500.954 817.258 489.976L816.943 489.027C783.745 500.081 767.338 516.624 750.751 532.197C734.19 547.747 717.433 562.352 683.479 569.752L683.692 570.729ZM817.258 489.976C860.108 475.716 880.558 461.001 900.513 445.114C920.438 429.251 939.844 412.245 980.661 393.316L980.241 392.409C939.302 411.394 919.812 428.472 899.89 444.332C879.999 460.168 859.652 474.814 816.943 489.027L817.258 489.976ZM980.661 393.316C1011.53 379.009 1025.48 367.336 1039.13 355.118C1052.75 342.927 1066.06 330.212 1095.67 313.748L1095.18 312.874C1065.47 329.396 1052.1 342.175 1038.47 354.373C1024.86 366.545 1010.99 378.154 980.241 392.409L980.661 393.316ZM1095.67 313.748C1107.45 307.202 1113.26 303.413 1119.03 299.546C1124.79 295.686 1130.49 291.754 1142.06 284.909L1141.55 284.049C1129.95 290.909 1124.23 294.855 1118.47 298.716C1112.72 302.57 1106.93 306.344 1095.18 312.874L1095.67 313.748ZM1142.06 284.909C1163.8 272.032 1178.41 259.754 1189.34 247.622C1200.26 235.492 1207.5 223.523 1214.52 211.296C1228.54 186.861 1241.74 161.331 1281.89 131.026L1281.29 130.228C1240.96 160.662 1227.69 186.346 1213.65 210.798C1206.64 223.013 1199.45 234.905 1188.59 246.953C1177.74 258.999 1163.22 271.215 1141.55 284.049L1142.06 284.909ZM1281.89 131.026C1290.46 124.562 1295.33 122.285 1300.19 119.949C1305.08 117.596 1309.95 115.185 1318.45 108.465L1317.83 107.68C1309.41 114.341 1304.61 116.715 1299.76 119.048C1294.87 121.397 1289.93 123.706 1281.29 130.228L1281.89 131.026ZM1318.45 108.465C1387.93 53.48 1390.89 43.7514 1454.71 -17.4613L1454.02 -18.183C1390.13 43.0888 1387.26 52.7347 1317.83 107.68L1318.45 108.465ZM192.046 100.729C183.148 118.953 173.658 134.172 165.854 148.275C158.062 162.355 151.959 175.308 149.934 188.896C145.875 216.137 158.222 245.714 205.283 291.939L205.984 291.225C158.97 245.046 146.939 215.781 150.923 189.044C152.92 175.643 158.946 162.823 166.729 148.759C174.5 134.716 184.033 119.419 192.945 101.168L192.046 100.729ZM205.272 291.927C214.37 301.46 221.289 309.97 226.888 316.821C232.469 323.65 236.78 328.886 240.626 331.784L241.228 330.986C237.501 328.177 233.278 323.059 227.662 316.188C222.064 309.338 215.123 300.8 205.995 291.237L205.272 291.927ZM240.626 331.784C246.793 336.432 253.023 336.957 259.268 335.359C265.476 333.771 271.72 330.081 277.96 326.305C284.229 322.511 290.5 318.627 296.847 316.538C303.17 314.457 309.524 314.174 315.976 317.547L316.439 316.661C309.684 313.129 303.036 313.448 296.534 315.588C290.056 317.72 283.678 321.675 277.442 325.449C271.177 329.24 265.06 332.846 259.02 334.391C253.018 335.926 247.113 335.421 241.228 330.986L240.626 331.784ZM315.976 317.547C334.234 327.104 347.068 326.762 357.322 320.709C367.505 314.698 375.04 303.1 382.851 290.46C398.529 265.09 415.454 235.301 457.09 235.354L457.091 234.354C414.822 234.3 397.627 264.647 382.001 289.934C374.16 302.623 366.746 313.985 356.813 319.848C346.952 325.669 334.503 326.116 316.439 316.661L315.976 317.547ZM457.09 235.354C477.767 235.381 494.904 252.05 510.288 277.093C525.652 302.105 539.148 335.271 552.612 367.939C566.064 400.579 579.486 432.726 594.69 455.603C609.877 478.455 626.992 492.272 647.853 487.776L647.642 486.799C627.443 491.152 610.679 477.854 595.523 455.05C580.384 432.271 567 400.225 553.536 367.558C540.084 334.918 526.555 301.665 511.14 276.57C495.744 251.506 478.347 234.382 457.091 234.354L457.09 235.354ZM647.853 487.776C690.718 478.54 708.491 452.48 725.735 425.057C742.977 397.637 759.685 368.874 800.375 353.725L800.026 352.788C758.978 368.07 742.112 397.133 724.888 424.525C707.666 451.914 690.082 477.654 647.642 486.799L647.853 487.776ZM800.375 353.725C827.403 343.658 841.893 339.64 856.201 335.111C870.518 330.578 884.623 325.544 910.839 313.458L910.42 312.549C884.241 324.619 870.175 329.638 855.899 334.157C841.612 338.68 827.085 342.71 800.026 352.788L800.375 353.725ZM910.839 313.458C926.241 306.36 934.867 303.994 943.442 301.468C952.043 298.935 960.578 296.245 975.749 288.502L975.295 287.611C960.193 295.319 951.719 297.988 943.16 300.509C934.574 303.038 925.891 305.42 910.42 312.549L910.839 313.458ZM975.749 288.502C1018.88 266.5 1039.36 252.053 1059.21 236.548C1079.06 221.055 1098.25 204.53 1138.85 178.331L1138.31 177.491C1097.66 203.721 1078.43 220.281 1058.6 235.76C1038.79 251.226 1018.36 265.638 975.295 287.611L975.749 288.502ZM1138.85 178.331C1153.73 168.739 1159.59 161.394 1165.35 153.935C1171.07 146.517 1176.67 138.996 1191.04 128.949L1190.47 128.129C1175.97 138.263 1170.3 145.877 1164.55 153.324C1158.84 160.731 1153.05 167.982 1138.31 177.491L1138.85 178.331ZM1191.04 128.949C1219.2 109.258 1233.16 83.3733 1246.69 57.0914C1260.22 30.7936 1273.32 4.10781 1299.72 -17.4348L1299.09 -18.2096C1272.5 3.48616 1259.32 30.3674 1245.8 56.6338C1232.27 82.9162 1218.4 108.594 1190.47 128.13L1191.04 128.949ZM149.274 -17.598C150.03 -16.0905 151.514 -14.458 153.487 -12.7172C155.469 -10.9683 157.987 -9.07484 160.86 -7.05131C163.733 -5.02696 166.973 -2.86455 170.4 -0.579363C173.829 1.70708 177.447 4.11766 181.086 6.64338C188.368 11.6962 195.717 17.1982 201.771 23.06C207.83 28.9266 212.556 35.1188 214.641 41.5437L215.592 41.2351C213.433 34.5841 208.575 28.2555 202.467 22.3415C196.353 16.4228 188.952 10.8842 181.657 5.82183C178.008 3.28991 174.382 0.87414 170.955 -1.41135C167.525 -3.69809 164.297 -5.85319 161.436 -7.86882C158.573 -9.88525 156.09 -11.7542 154.148 -13.4671C152.198 -15.188 150.835 -16.7167 150.168 -18.0464L149.274 -17.598ZM214.641 41.5437C217.471 50.2652 214.577 56.6463 209.531 65.1168C204.486 73.5841 197.344 84.0565 192.019 100.797L192.972 101.1C198.254 84.4938 205.324 74.1317 210.39 65.6286C215.454 57.1287 218.567 50.4035 215.592 41.2351L214.641 41.5437ZM325.001 165.959C340.757 176.18 352.08 181.835 361.423 184.554C370.786 187.278 378.139 187.046 385.933 185.539C401.487 182.53 418.672 174.499 457.467 174.651L457.471 173.651C418.548 173.498 401.117 181.583 385.744 184.557C378.074 186.04 370.885 186.266 361.702 183.594C352.499 180.916 341.272 175.322 325.545 165.12L325.001 165.959ZM457.467 174.651C478.171 174.736 495.146 189.101 510.267 210.526C525.38 231.94 538.544 260.266 551.668 288.021C564.779 315.747 577.852 342.912 592.769 361.897C607.688 380.885 624.57 391.834 645.279 386.8L645.043 385.828C624.91 390.722 608.388 380.157 593.556 361.28C578.722 342.4 565.696 315.347 552.572 287.593C539.463 259.868 526.259 231.451 511.084 209.95C495.917 188.46 478.683 173.738 457.471 173.651L457.467 174.651ZM645.279 386.8C659.602 383.321 666.502 376.436 673.28 369.419C680.036 362.426 686.664 355.312 700.485 351.108L700.194 350.151C686.107 354.436 679.327 361.721 672.561 368.725C665.818 375.705 659.082 382.418 645.043 385.828L645.279 386.8ZM700.485 351.108C728.967 342.437 739.828 325.734 750.379 308.482C760.914 291.254 771.135 273.496 798.296 262.295L797.915 261.37C770.426 272.706 760.062 290.731 749.526 307.96C739.005 325.164 728.308 341.592 700.193 350.151L700.485 351.108ZM798.296 262.295C884.405 226.807 887.575 227.374 968.868 181.98L968.38 181.107C887.141 226.47 884.016 225.886 797.915 261.37L798.296 262.295ZM968.868 181.98C1006.86 160.768 1006.78 158.909 1043.68 135.978L1043.15 135.128C1006.19 158.098 1006.35 159.908 968.38 181.107L968.868 181.98ZM1043.68 135.978C1067.42 121.22 1072.99 104.085 1087.77 80.1835C1102.57 56.2601 1126.7 25.3026 1187.65 -17.4127L1187.07 -18.2316C1126.02 24.553 1101.79 55.6066 1086.92 79.6576C1072.04 103.73 1066.63 120.533 1043.15 135.129L1043.68 135.978ZM458.316 145.73C479.026 146.135 495.976 157.336 511.047 173.682C526.124 190.035 539.257 211.467 552.349 232.229C565.423 252.964 578.462 273.038 593.324 286.557C608.211 300.097 624.984 307.108 645.477 301.601L645.218 300.635C625.151 306.028 608.718 299.207 593.997 285.817C579.253 272.406 566.284 252.453 553.194 231.696C540.123 210.965 526.936 189.44 511.782 173.004C496.623 156.562 479.433 145.143 458.336 144.73L458.316 145.73ZM645.477 301.601C688.526 290.031 709.687 274.962 730.216 258.207C750.716 241.475 770.551 223.097 811.014 204.791L810.602 203.88C770 222.248 750.066 240.714 729.583 257.432C709.129 274.126 688.092 289.112 645.218 300.635L645.477 301.601ZM811.015 204.791C832.718 194.964 842.745 186.935 852.584 178.574C862.394 170.237 872.002 161.584 892.91 150.441L892.44 149.559C871.432 160.755 861.756 169.467 851.936 177.812C842.145 186.133 832.197 194.102 810.602 203.88L811.015 204.791ZM892.91 150.441C903.291 144.906 915.33 142.758 928.219 142.283C941.111 141.808 954.809 143.007 968.508 144.138C982.192 145.268 995.874 146.33 1008.67 145.564C1021.48 144.797 1033.44 142.199 1043.67 135.98L1043.15 135.126C1033.11 141.228 1021.33 143.804 1008.61 144.565C995.897 145.327 982.285 144.272 968.59 143.142C954.91 142.012 941.146 140.806 928.182 141.284C915.216 141.762 903.007 143.924 892.439 149.559L892.91 150.441ZM221.487 156.555C224.239 161.998 229.128 165.819 235.627 168.362C242.12 170.903 250.248 172.179 259.537 172.524C278.114 173.213 301.462 170.177 325.957 165.928C350.43 161.683 376.174 156.202 399.405 152.011C422.684 147.812 443.497 144.896 458.298 145.729L458.354 144.73C443.42 143.89 422.497 146.829 399.228 151.027C375.912 155.233 350.296 160.691 325.786 164.943C301.297 169.191 278.038 172.209 259.574 171.524C250.342 171.182 242.339 169.914 235.992 167.431C229.651 164.95 224.99 161.267 222.379 156.103L221.487 156.555ZM458.298 145.729C499.584 148.057 525.596 170.088 551.461 188.754C564.38 198.078 577.272 206.565 591.99 211.247C606.724 215.935 623.261 216.804 643.465 210.945L643.186 209.985C623.167 215.79 606.832 214.921 592.293 210.295C577.738 205.663 564.956 197.26 552.046 187.943C526.253 169.329 499.99 147.078 458.354 144.73L458.298 145.729ZM643.465 210.945C662.125 205.538 672.212 200.681 682.154 195.43C692.08 190.188 701.836 184.569 719.878 177.603L719.518 176.67C701.411 183.661 691.601 189.311 681.687 194.546C671.791 199.772 661.767 204.6 643.186 209.985L643.465 210.945ZM719.878 177.603C767.886 159.078 773.472 157.92 819.65 135.211L819.208 134.313C773.077 157 767.53 158.144 719.518 176.67L719.878 177.603ZM819.65 135.211C863.073 113.867 893.103 88.9408 922.352 62.7407C951.604 36.5384 980.055 9.08126 1020.37 -17.4043L1019.82 -18.2401C979.428 8.29702 950.909 35.8185 921.685 61.9958C892.459 88.1754 862.509 113.03 819.208 134.313L819.65 135.211ZM458.262 145.725C498.827 150.962 524.738 151.525 550.469 147.707C576.183 143.892 601.701 135.702 641.453 123.477L641.159 122.521C601.373 134.757 575.943 142.916 550.323 146.718C524.719 150.517 498.91 149.965 458.39 144.734L458.262 145.725ZM641.453 123.477C684.716 110.18 715.389 113.722 745.35 115.292C775.34 116.864 804.569 116.45 844.769 95.1309L844.3 94.2475C804.325 115.447 775.302 115.861 745.402 114.294C715.474 112.725 684.62 109.163 641.159 122.521L641.453 123.477ZM844.769 95.1309C854.204 90.1264 862.708 81.935 870.711 72.1575C878.715 62.3784 886.245 50.9795 893.72 39.5365C901.2 28.0845 908.624 16.5896 916.434 6.57814C924.245 -3.43472 932.416 -11.9286 941.374 -17.3954L940.853 -18.249C931.745 -12.6904 923.486 -4.08747 915.646 5.96306C907.804 16.0149 900.355 27.55 892.883 38.9897C885.404 50.4384 877.902 61.7929 869.937 71.5241C861.97 81.2569 853.567 89.3327 844.3 94.2475L844.769 95.1309ZM622.767 -17.3222C651.53 -17.3222 672.569 -0.353554 692.227 14.1196C702.032 21.3384 711.51 27.944 721.4 31.4028C731.319 34.8718 741.654 35.1763 753.15 29.8186L752.728 28.9122C741.493 34.1482 731.43 33.8512 721.73 30.4588C712.001 27.0563 702.636 20.5408 692.82 13.3143C673.238 -1.10329 651.922 -18.3222 622.767 -18.3222V-17.3222ZM753.15 29.8186C772.023 21.0235 794.825 14.3643 817.498 7.32829C840.149 0.299286 862.665 -7.10477 880.875 -17.3868L880.383 -18.2576C862.28 -8.03562 839.863 -0.658998 817.202 6.37323C794.564 13.3984 771.678 20.081 752.728 28.9122L753.15 29.8186ZM746.802 735.386C753.058 733.664 759.908 729.446 767.088 725.502C774.309 721.534 781.903 717.813 789.771 716.93L789.66 715.937C781.576 716.843 773.829 720.656 766.606 724.625C759.341 728.617 752.644 732.74 746.536 734.422L746.802 735.386Z" fill="white"/>
</svg>
