<svg width="200" height="153" viewBox="0 0 200 153" fill="none" xmlns="http://www.w3.org/2000/svg">
<circle cx="100" cy="100" r="99.5" fill="#2A2A37" stroke="#1A1A24"/>
<rect x="85.5" y="60.5" width="29" height="49" rx="13.5" stroke="#5F5F71"/>
<path d="M99.5 70.5C99.5 70.2239 99.7239 70 100 70C100.276 70 100.5 70.2239 100.5 70.5V79.5C100.5 79.7761 100.276 80 100 80C99.7239 80 99.5 79.7761 99.5 79.5V70.5Z" fill="#D9D9D9"/>
<g opacity="0.15">
<path d="M176.969 79.2352C176.995 79.3304 177.045 79.3985 177.116 79.4394C177.188 79.4803 177.271 79.4873 177.364 79.4604L184.733 77.3294C184.826 77.3024 184.893 77.2523 184.933 77.179C184.973 77.1058 184.98 77.0215 184.953 76.9264L184.886 76.6837C184.86 76.5885 184.81 76.5204 184.739 76.4795C184.667 76.4386 184.584 76.4316 184.491 76.4585L177.122 78.5895C177.029 78.6165 176.962 78.6666 176.922 78.7399C176.882 78.8132 176.875 78.8974 176.902 78.9926L176.969 79.2352Z" fill="white"/>
<path d="M168.768 59.7352C168.817 59.8201 168.882 59.873 168.962 59.8936C169.041 59.9142 169.123 59.8992 169.206 59.8485L175.786 55.8466C175.869 55.796 175.921 55.7299 175.941 55.6486C175.961 55.5672 175.947 55.4841 175.897 55.3991L175.771 55.1824C175.721 55.0974 175.656 55.0446 175.577 55.024C175.497 55.0034 175.415 55.0184 175.332 55.069L168.752 59.071C168.669 59.1216 168.617 59.1876 168.597 59.2689C168.577 59.3503 168.592 59.4335 168.641 59.5184L168.768 59.7352Z" fill="white"/>
<path d="M156.013 43.1134C156.082 43.1829 156.158 43.2173 156.24 43.2167C156.322 43.2161 156.397 43.1805 156.465 43.1101L161.841 37.5408C161.909 37.4704 161.943 37.3931 161.943 37.3092C161.942 37.2253 161.907 37.1486 161.838 37.0792L161.662 36.9021C161.593 36.8327 161.518 36.7982 161.435 36.7989C161.353 36.7995 161.278 36.835 161.21 36.9054L155.834 42.4748C155.766 42.5452 155.732 42.6224 155.733 42.7063C155.733 42.7903 155.768 42.867 155.837 42.9364L156.013 43.1134Z" fill="white"/>
<path d="M139.475 30.3029C139.559 30.3519 139.64 30.3654 139.72 30.3433C139.799 30.3212 139.863 30.2672 139.911 30.1813L143.709 23.3908C143.757 23.3049 143.77 23.2215 143.748 23.1405C143.727 23.0595 143.674 22.9945 143.59 22.9455L143.375 22.8204C143.291 22.7713 143.209 22.7579 143.13 22.78C143.051 22.8021 142.987 22.8561 142.939 22.942L139.141 29.7324C139.093 29.8183 139.08 29.9018 139.101 29.9827C139.123 30.0637 139.176 30.1287 139.26 30.1778L139.475 30.3029Z" fill="white"/>
<path d="M120.312 22.2654C120.406 22.2908 120.488 22.2826 120.56 22.2406C120.631 22.1985 120.679 22.1297 120.704 22.0341L122.679 14.4791C122.704 14.3835 122.696 14.2994 122.655 14.2268C122.614 14.1541 122.546 14.105 122.453 14.0795L122.214 14.0145C122.12 13.989 122.038 13.9972 121.967 14.0392C121.895 14.0813 121.847 14.1501 121.822 14.2457L119.847 21.8007C119.822 21.8963 119.83 21.9804 119.872 22.053C119.913 22.1257 119.98 22.1748 120.074 22.2003L120.312 22.2654Z" fill="white"/>
<path d="M78.9133 22.2747C79.0069 22.2492 79.0742 22.2001 79.1154 22.1274C79.1566 22.0548 79.1647 21.9707 79.1397 21.8751L77.1645 14.32C77.1395 14.2245 77.0915 14.1557 77.0203 14.1136C76.9491 14.0716 76.8668 14.0633 76.7731 14.0888L76.5344 14.1539C76.4408 14.1794 76.3734 14.2285 76.3323 14.3011C76.2911 14.3738 76.283 14.4579 76.308 14.5535L78.2832 22.1085C78.3082 22.2041 78.3562 22.2729 78.4274 22.3149C78.4986 22.357 78.5809 22.3652 78.6746 22.3397L78.9133 22.2747Z" fill="white"/>
<path d="M59.7798 30.3075C59.8639 30.2585 59.9168 30.1935 59.9385 30.1125C59.9601 30.0315 59.9469 29.9481 59.8989 29.8622L56.101 23.0717C56.053 22.9858 55.9893 22.9318 55.91 22.9097C55.8307 22.8876 55.7489 22.9011 55.6648 22.9501L55.4503 23.0752C55.3661 23.1243 55.3132 23.1893 55.2916 23.2703C55.2699 23.3512 55.2831 23.4347 55.3312 23.5206L59.1291 30.311C59.1771 30.3969 59.2408 30.4509 59.3201 30.473C59.3994 30.4951 59.4811 30.4816 59.5653 30.4326L59.7798 30.3075Z" fill="white"/>
<path d="M43.2731 43.0876C43.3421 43.0181 43.3769 42.9415 43.3775 42.8575C43.3781 42.7736 43.3444 42.6964 43.2764 42.6259L37.9003 37.0566C37.8323 36.9862 37.7571 36.9506 37.6749 36.95C37.5927 36.9494 37.5171 36.9838 37.4481 37.0533L37.2722 37.2303C37.2031 37.2998 37.1683 37.3765 37.1677 37.4604C37.1671 37.5443 37.2009 37.6215 37.2689 37.692L42.645 43.2613C42.713 43.3317 42.7881 43.3672 42.8703 43.3679C42.9526 43.3685 43.0282 43.3341 43.0972 43.2646L43.2731 43.0876Z" fill="white"/>
<path d="M30.5424 59.653C30.592 59.5681 30.6067 59.4849 30.5865 59.4035C30.5663 59.3221 30.5146 59.2561 30.4313 59.2055L23.8515 55.2036C23.7683 55.153 23.6868 55.1379 23.6071 55.1585C23.5274 55.1792 23.4628 55.2319 23.4132 55.3169L23.2867 55.5336C23.2372 55.6186 23.2225 55.7018 23.2427 55.7832C23.2628 55.8645 23.3146 55.9305 23.3978 55.9812L29.9776 59.9831C30.0609 60.0337 30.1423 60.0487 30.222 60.0281C30.3017 60.0075 30.3664 59.9547 30.4159 59.8697L30.5424 59.653Z" fill="white"/>
<path d="M22.3366 79.0756C22.363 78.9805 22.3561 78.8962 22.316 78.823C22.276 78.7497 22.2093 78.6996 22.1161 78.6726L14.7471 76.5416C14.6539 76.5147 14.5714 76.5217 14.4996 76.5626C14.4278 76.6035 14.3787 76.6716 14.3523 76.7668L14.285 77.0094C14.2586 77.1046 14.2654 77.1889 14.3055 77.2621C14.3456 77.3354 14.4123 77.3855 14.5055 77.4125L21.8745 79.5435C21.9677 79.5704 22.0502 79.5634 22.122 79.5225C22.1937 79.4816 22.2428 79.4135 22.2692 79.3183L22.3366 79.0756Z" fill="white"/>
<path d="M19.3016 99.8222C19.3035 99.7233 19.276 99.6436 19.219 99.5831C19.162 99.5226 19.085 99.4914 18.9882 99.4895L11.3307 99.3386C11.2338 99.3367 11.1558 99.3648 11.0965 99.423C11.0373 99.4812 11.0067 99.5598 11.0049 99.6587L11.0001 99.9109C10.9982 100.01 11.0258 100.089 11.0828 100.15C11.1398 100.21 11.2167 100.242 11.3136 100.244L18.971 100.394C19.0679 100.396 19.146 100.368 19.2052 100.31C19.2645 100.252 19.295 100.173 19.2969 100.074L19.3016 99.8222Z" fill="white"/>
<path d="M21.5718 121.079C21.5486 120.983 21.5018 120.913 21.4314 120.87C21.361 120.826 21.2788 120.816 21.1848 120.84L13.7488 122.713C13.6547 122.737 13.5864 122.784 13.5439 122.856C13.5014 122.928 13.4917 123.012 13.5149 123.108L13.5741 123.353C13.5973 123.449 13.6441 123.519 13.7145 123.562C13.7848 123.606 13.867 123.615 13.9611 123.592L21.3971 121.719C21.4912 121.695 21.5594 121.647 21.602 121.576C21.6445 121.504 21.6541 121.42 21.6309 121.324L21.5718 121.079Z" fill="white"/>
<path d="M29.1381 140.951C29.0913 140.865 29.0285 140.81 28.9495 140.786C28.8705 140.763 28.7886 140.775 28.7038 140.823L21.9975 144.6C21.9127 144.648 21.8589 144.712 21.8361 144.793C21.8132 144.873 21.8252 144.957 21.872 145.044L21.9914 145.265C22.0382 145.351 22.101 145.406 22.18 145.429C22.259 145.453 22.3409 145.44 22.4257 145.393L29.132 141.616C29.2168 141.568 29.2706 141.504 29.2934 141.423C29.3163 141.342 29.3043 141.259 29.2575 141.172L29.1381 140.951Z" fill="white"/>
<path d="M41.156 157.817C41.0893 157.745 41.0148 157.708 40.9326 157.706C40.8504 157.704 40.7742 157.737 40.704 157.805L35.1524 163.192C35.0821 163.26 35.046 163.336 35.0439 163.42C35.0418 163.504 35.0741 163.582 35.1409 163.653L35.3111 163.836C35.3778 163.908 35.4523 163.945 35.5345 163.947C35.6166 163.949 35.6929 163.916 35.7631 163.848L41.3147 158.461C41.3849 158.393 41.4211 158.317 41.4232 158.233C41.4253 158.149 41.393 158.071 41.3262 157.999L41.156 157.817Z" fill="white"/>
<path d="M57.332 171.315C57.2495 171.263 57.1683 171.247 57.0883 171.266C57.0083 171.286 56.9429 171.337 56.8921 171.422L52.876 178.08C52.8252 178.164 52.8093 178.247 52.8284 178.329C52.8474 178.41 52.8981 178.477 52.9806 178.529L53.191 178.661C53.2735 178.713 53.3547 178.729 53.4347 178.71C53.5147 178.691 53.5801 178.639 53.6309 178.555L57.647 171.896C57.6978 171.812 57.7137 171.729 57.6947 171.647C57.6756 171.566 57.6249 171.499 57.5424 171.447L57.332 171.315Z" fill="white"/>
<path d="M76.3308 180.087C76.238 180.059 76.1554 180.064 76.083 180.104C76.0106 180.144 75.9605 180.211 75.9327 180.306L73.7342 187.796C73.7064 187.891 73.712 187.976 73.751 188.049C73.79 188.123 73.8559 188.174 73.9487 188.203L74.1853 188.275C74.2781 188.304 74.3607 188.298 74.4331 188.258C74.5055 188.218 74.5556 188.151 74.5834 188.056L76.7819 180.566C76.8097 180.471 76.8041 180.387 76.7651 180.313C76.7261 180.239 76.6602 180.188 76.5674 180.159L76.3308 180.087Z" fill="white"/>
<path d="M96.3803 183.524C96.2835 183.52 96.205 183.547 96.1449 183.604C96.0848 183.662 96.053 183.74 96.0497 183.839L95.7837 191.653C95.7803 191.752 95.8067 191.832 95.8628 191.894C95.9188 191.955 95.9953 191.988 96.0921 191.991L96.339 192C96.4359 192.003 96.5143 191.976 96.5744 191.919C96.6346 191.862 96.6663 191.784 96.6697 191.685L96.9356 183.87C96.939 183.771 96.9127 183.691 96.8566 183.63C96.8005 183.568 96.7241 183.536 96.6272 183.532L96.3803 183.524Z" fill="white"/>
<path d="M117.407 181.576C117.312 181.598 117.243 181.645 117.2 181.716C117.156 181.787 117.145 181.871 117.167 181.967L118.888 189.587C118.91 189.683 118.955 189.754 119.025 189.798C119.095 189.843 119.177 189.854 119.271 189.832L119.512 189.775C119.606 189.753 119.675 189.706 119.719 189.635C119.763 189.564 119.773 189.48 119.752 189.384L118.031 181.764C118.009 181.668 117.963 181.597 117.894 181.553C117.824 181.508 117.742 181.497 117.647 181.519L117.407 181.576Z" fill="white"/>
<path d="M137.201 174.088C137.115 174.134 137.06 174.197 137.036 174.278C137.012 174.358 137.023 174.442 137.069 174.529L140.668 181.431C140.714 181.518 140.776 181.574 140.855 181.599C140.933 181.623 141.015 181.612 141.101 181.566L141.319 181.447C141.405 181.401 141.459 181.337 141.483 181.257C141.507 181.177 141.496 181.093 141.451 181.006L137.851 174.104C137.806 174.016 137.743 173.96 137.665 173.936C137.586 173.911 137.504 173.922 137.419 173.969L137.201 174.088Z" fill="white"/>
<path d="M153.921 162.03C153.849 162.097 153.812 162.172 153.809 162.256C153.806 162.34 153.837 162.418 153.903 162.491L159.098 168.237C159.163 168.309 159.237 168.347 159.319 168.351C159.401 168.354 159.478 168.322 159.549 168.255L159.731 168.084C159.802 168.017 159.839 167.942 159.843 167.858C159.846 167.774 159.815 167.696 159.749 167.623L154.554 161.877C154.488 161.804 154.414 161.766 154.332 161.763C154.25 161.76 154.173 161.792 154.102 161.859L153.921 162.03Z" fill="white"/>
<path d="M167.385 145.668C167.333 145.751 167.316 145.834 167.333 145.916C167.351 145.998 167.401 146.065 167.483 146.118L173.945 150.316C174.026 150.369 174.107 150.387 174.188 150.368C174.268 150.35 174.334 150.299 174.386 150.216L174.519 150.003C174.571 149.92 174.588 149.837 174.57 149.755C174.552 149.673 174.502 149.606 174.42 149.552L167.959 145.355C167.877 145.302 167.796 145.284 167.716 145.302C167.635 145.321 167.569 145.372 167.517 145.455L167.385 145.668Z" fill="white"/>
<path d="M176.216 126.44C176.187 126.534 176.191 126.618 176.229 126.693C176.267 126.767 176.332 126.82 176.424 126.849L183.727 129.207C183.819 129.237 183.902 129.232 183.975 129.194C184.048 129.155 184.099 129.089 184.128 128.994L184.202 128.754C184.232 128.659 184.227 128.575 184.189 128.501C184.151 128.426 184.086 128.374 183.994 128.344L176.691 125.986C176.599 125.957 176.516 125.961 176.443 126C176.371 126.038 176.319 126.105 176.29 126.199L176.216 126.44Z" fill="white"/>
<path d="M180.699 101.638C180.694 101.737 180.719 101.818 180.775 101.88C180.83 101.942 180.906 101.976 181.002 101.981L188.652 102.373C188.748 102.378 188.827 102.352 188.888 102.296C188.949 102.239 188.982 102.162 188.987 102.063L188.999 101.811C189.004 101.712 188.979 101.632 188.924 101.57C188.869 101.507 188.793 101.474 188.696 101.469L181.047 101.077C180.95 101.072 180.871 101.097 180.81 101.154C180.749 101.21 180.716 101.287 180.712 101.386L180.699 101.638Z" fill="white"/>
</g>
</svg>
