<svg width="19" height="20" viewBox="0 0 19 20" fill="none" xmlns="http://www.w3.org/2000/svg">
<path opacity="0.2" d="M7.60013 0.346667C7.72378 0.494939 7.79953 0.676396 7.81759 0.867592C7.83565 1.05879 7.7952 1.25094 7.70147 1.41921C6.96914 2.74611 6.5867 4.23345 6.58931 5.74439C6.58931 10.7709 10.7415 14.841 15.8589 14.841C16.5265 14.841 17.1763 14.7723 17.8008 14.641C17.9922 14.6001 18.1916 14.6158 18.3741 14.686C18.5565 14.7563 18.714 14.878 18.8268 15.036C18.9458 15.2003 19.0065 15.3989 18.9994 15.6008C18.9923 15.8026 18.9178 15.9966 18.7875 16.1523C17.794 17.3567 16.5407 18.327 15.119 18.9927C13.6972 19.6583 12.1429 20.0025 10.5692 20C4.72981 20 0 15.3573 0 9.63706C0 5.33188 2.67778 1.63922 6.49051 0.0741555C6.68044 -0.00505797 6.89128 -0.0213162 7.09136 0.0278232C7.29145 0.0769625 7.46998 0.188846 7.60013 0.346667Z" fill="#211E1E"/>
</svg>
