<svg width="18" height="18" viewBox="0 0 18 18" fill="none" xmlns="http://www.w3.org/2000/svg"><path d="M9 0c.355 0 .643.288.643.643v1.286a.643.643 0 01-1.286 0V.643C8.357.288 8.645 0 9 0z" fill="#fff"/><path fill-rule="evenodd" clip-rule="evenodd" d="M9 14.143c-3.899 0-5.185-1.286-5.143-5.143C3.9 5.143 5.101 3.857 9 3.857S14.143 5.143 14.143 9c0 3.857-1.244 5.143-5.143 5.143z" fill="#fff"/><path d="M9.643 16.071a.643.643 0 00-1.286 0v1.286a.643.643 0 101.286 0v-1.286zM18 9a.643.643 0 01-.643.643h-1.286a.643.643 0 010-1.286h1.286c.355 0 .643.288.643.643zm-16.071.643a.643.643 0 000-1.286H.643a.643.643 0 000 1.286h1.286zm.188-7.526a.643.643 0 01.909 0l.91.909a.643.643 0 11-.91.91l-.91-.91a.643.643 0 010-.91zm.909 14.033a.643.643 0 11-.91-.91l.91-.909a.643.643 0 01.91.91l-.91.908zM16.15 2.117a.643.643 0 00-.91 0l-.909.909a.643.643 0 00.91.91l.908-.91a.643.643 0 000-.91zm-.91 14.033a.643.643 0 10.91-.91l-.91-.909a.643.643 0 00-.909.91l.91.908z" fill="#fff"/></svg>