<svg width="31" height="25" viewBox="0 0 31 25" fill="none">
    <path d="M9.752 25c11.696 0 18.094-9.62 18.094-17.958 0-.27-.006-.547-.018-.818 1.245-.893 2.319-2 3.172-3.268-1.16.512-2.39.847-3.65.992A6.355 6.355 0 0030.146.457a12.843 12.843 0 01-4.037 1.532A6.383 6.383 0 0022.5.083a6.41 6.41 0 00-4.032.664 6.34 6.34 0 00-2.795 2.96 6.277 6.277 0 00-.406 4.038 18.17 18.17 0 01-7.259-1.913 18.039 18.039 0 01-5.847-4.678 6.279 6.279 0 00-.695 4.598A6.32 6.32 0 004.13 9.577a6.404 6.404 0 01-2.882-.787v.078a6.28 6.28 0 001.437 4 6.367 6.367 0 003.666 2.19 6.368 6.368 0 01-2.87.108 6.327 6.327 0 002.262 3.137 6.404 6.404 0 003.677 1.25A12.817 12.817 0 010 22.165 18.142 18.142 0 009.752 25z" fill="currentColor"/>
</svg>